<svg xmlns="http://www.w3.org/2000/svg" viewBox="0 0 100 100">
  <defs>
    <linearGradient id="lp_bg" x1="0" y1="0" x2="1" y2="1"><stop offset="0" stop-color="#fefce8"/><stop offset="1" stop-color="#fef3c7"/></linearGradient>
    <linearGradient id="lp_cos" x1="0" y1="0" x2="0" y2="1"><stop offset="0" stop-color="#fcd34d"/><stop offset=".5" stop-color="#fbbf24"/><stop offset="1" stop-color="#d97706"/></linearGradient>
  </defs>
  <rect width="100" height="100" rx="16" fill="url(#lp_bg)"/>
  <ellipse cx="50" cy="84" rx="30" ry="5" fill="#0f172a" opacity=".08"/>
  <g transform="rotate(-45 50 50)">
    <rect x="14" y="40" width="58" height="20" fill="url(#lp_cos)"/>
    <rect x="14" y="40" width="58" height="6.5" fill="#fde68a" opacity=".7"/>
    <rect x="68" y="40" width="6" height="20" fill="#cbd5e1"/>
    <rect x="68" y="40" width="6" height="6.5" fill="#e2e8f0"/>
    <rect x="74" y="40" width="12" height="20" rx="5" fill="#f9a8d4"/>
    <rect x="74" y="40" width="12" height="7" rx="3.5" fill="#fbcfe8"/>
    <polygon points="14,40 14,60 -2,50" fill="#e7c08a"/>
    <polygon points="14,40 14,50 -2,50" fill="#f3d9ae"/>
    <polygon points="4.5,46 4.5,54 -2,50" fill="#334155"/>
  </g>
</svg>
