<svg xmlns="http://www.w3.org/2000/svg" viewBox="0 0 100 100">
  <defs>
    <linearGradient id="rt_bg" x1="0" y1="0" x2="1" y2="1"><stop offset="0" stop-color="#fef2f2"/><stop offset="1" stop-color="#fee2e2"/></linearGradient>
    <linearGradient id="rt_cos" x1="0" y1="0" x2="0" y2="1"><stop offset="0" stop-color="#fca5a5"/><stop offset=".5" stop-color="#ef4444"/><stop offset="1" stop-color="#b91c1c"/></linearGradient>
  </defs>
  <rect width="100" height="100" rx="16" fill="url(#rt_bg)"/>
  <ellipse cx="50" cy="84" rx="28" ry="5" fill="#0f172a" opacity=".08"/>
  <g transform="rotate(-45 50 50)">
    <rect x="18" y="41" width="44" height="18" rx="4" fill="url(#rt_cos)"/>
    <rect x="18" y="41" width="44" height="6" rx="3" fill="#fecaca" opacity=".8"/>
    <rect x="58" y="39" width="26" height="22" rx="5" fill="#dc2626"/>
    <rect x="58" y="39" width="26" height="7" rx="3.5" fill="#f87171" opacity=".8"/>
    <rect x="62" y="61" width="18" height="2.5" rx="1.2" fill="#991b1b"/>
    <polygon points="18,43 18,57 10,55 10,45" fill="#e2e8f0"/>
    <polygon points="10,45 10,55 3,52 3,48" fill="#ef4444"/>
    <line x1="14" y1="43.5" x2="14" y2="56.5" stroke="#94a3b8" stroke-width="1.5"/>
  </g>
</svg>
