<svg xmlns="http://www.w3.org/2000/svg" viewBox="0 0 100 100">
  <defs>
    <linearGradient id="lb_bg" x1="0" y1="0" x2="1" y2="1"><stop offset="0" stop-color="#faf5ff"/><stop offset="1" stop-color="#f3e8ff"/></linearGradient>
    <linearGradient id="lb_tapa" x1="0" y1="0" x2="1" y2="1"><stop offset="0" stop-color="#c084fc"/><stop offset="1" stop-color="#9333ea"/></linearGradient>
  </defs>
  <rect width="100" height="100" rx="16" fill="url(#lb_bg)"/>
  <ellipse cx="50" cy="86" rx="28" ry="5" fill="#0f172a" opacity=".08"/>
  <rect x="26" y="18" width="50" height="64" rx="5" fill="#e9d5ff"/>
  <rect x="24" y="15" width="50" height="64" rx="5" fill="url(#lb_tapa)"/>
  <rect x="24" y="15" width="50" height="14" rx="5" fill="#d8b4fe" opacity=".5"/>
  <rect x="34" y="38" width="30" height="4" rx="2" fill="#f3e8ff" opacity=".9"/>
  <rect x="34" y="48" width="30" height="4" rx="2" fill="#f3e8ff" opacity=".7"/>
  <rect x="34" y="58" width="20" height="4" rx="2" fill="#f3e8ff" opacity=".5"/>
  <g fill="none" stroke="#64748b" stroke-width="2.4" stroke-linecap="round">
    <path d="M30 13 a4.5 4.5 0 0 1 0 9"/>
    <path d="M40 13 a4.5 4.5 0 0 1 0 9"/>
    <path d="M50 13 a4.5 4.5 0 0 1 0 9"/>
    <path d="M60 13 a4.5 4.5 0 0 1 0 9"/>
    <path d="M70 13 a4.5 4.5 0 0 1 0 9"/>
  </g>
</svg>
