<svg xmlns="http://www.w3.org/2000/svg" viewBox="0 0 100 100">
  <defs>
    <linearGradient id="ll_bg" x1="0" y1="0" x2="1" y2="1"><stop offset="0" stop-color="#f0fdf4"/><stop offset="1" stop-color="#dcfce7"/></linearGradient>
    <linearGradient id="ll_tapa" x1="0" y1="0" x2="1" y2="1"><stop offset="0" stop-color="#4ade80"/><stop offset="1" stop-color="#15803d"/></linearGradient>
  </defs>
  <rect width="100" height="100" rx="16" fill="url(#ll_bg)"/>
  <ellipse cx="50" cy="86" rx="28" ry="5" fill="#0f172a" opacity=".08"/>
  <rect x="26" y="16" width="50" height="66" rx="4" fill="#16a34a"/>
  <rect x="30" y="14" width="48" height="66" rx="3" fill="#f8fafc"/>
  <rect x="30" y="17" width="48" height="63" rx="3" fill="#e2e8f0"/>
  <rect x="24" y="14" width="50" height="66" rx="4" fill="url(#ll_tapa)"/>
  <rect x="24" y="14" width="9" height="66" fill="#166534"/>
  <rect x="24" y="14" width="50" height="16" rx="4" fill="#86efac" opacity=".4"/>
  <rect x="40" y="30" width="26" height="22" rx="3" fill="#f0fdf4"/>
  <rect x="44" y="36" width="18" height="3" rx="1.5" fill="#86efac"/>
  <rect x="44" y="43" width="12" height="3" rx="1.5" fill="#bbf7d0"/>
  <polygon points="60,14 70,14 70,30 65,25 60,30" fill="#fbbf24"/>
</svg>
