<svg xmlns="http://www.w3.org/2000/svg" viewBox="0 0 100 100">
  <defs>
    <linearGradient id="mq_bg" x1="0" y1="0" x2="1" y2="1"><stop offset="0" stop-color="#fdf2f8"/><stop offset="1" stop-color="#fce7f3"/></linearGradient>
    <linearGradient id="mq_cos" x1="0" y1="0" x2="0" y2="1"><stop offset="0" stop-color="#f472b6"/><stop offset="1" stop-color="#be185d"/></linearGradient>
  </defs>
  <rect width="100" height="100" rx="16" fill="url(#mq_bg)"/>
  <ellipse cx="50" cy="80" rx="28" ry="5" fill="#0f172a" opacity=".08"/>
  <rect x="22" y="34" width="46" height="42" rx="8" fill="url(#mq_cos)"/>
  <rect x="22" y="34" width="46" height="14" rx="7" fill="#f9a8d4" opacity=".6"/>
  <circle cx="45" cy="55" r="11" fill="#831843"/>
  <circle cx="45" cy="55" r="7" fill="#1e293b"/>
  <circle cx="42.5" cy="52.5" r="2" fill="#475569"/>
  <rect x="64" y="44" width="8" height="22" rx="2" fill="#e2e8f0"/>
  <rect x="64" y="44" width="8" height="7" rx="2" fill="#f8fafc"/>
  <path d="M76 38 q10 4 6 14 l-7 -3 q3 -6 -2 -9 z" fill="#fcd34d"/>
  <path d="M80 56 q7 5 1 13 l-6 -4 q4 -4 1 -7 z" fill="#fbbf24"/>
</svg>
