<svg xmlns="http://www.w3.org/2000/svg" viewBox="0 0 100 100">
  <defs>
    <linearGradient id="rg_bg" x1="0" y1="0" x2="1" y2="1"><stop offset="0" stop-color="#fefce8"/><stop offset="1" stop-color="#fef9c3"/></linearGradient>
    <linearGradient id="rg_cos" x1="0" y1="0" x2="0" y2="1"><stop offset="0" stop-color="#fde047"/><stop offset="1" stop-color="#eab308"/></linearGradient>
  </defs>
  <rect width="100" height="100" rx="16" fill="url(#rg_bg)"/>
  <ellipse cx="50" cy="82" rx="32" ry="5" fill="#0f172a" opacity=".08"/>
  <g transform="rotate(-35 50 50)">
    <rect x="6" y="40" width="88" height="22" rx="3" fill="url(#rg_cos)"/>
    <rect x="6" y="40" width="88" height="7" rx="3" fill="#fef08a" opacity=".8"/>
    <rect x="6" y="59" width="88" height="3" fill="#a16207" opacity=".35"/>
    <g stroke="#854d0e" stroke-width="1.8" stroke-linecap="round">
      <line x1="14" y1="40" x2="14" y2="50"/>
      <line x1="22" y1="40" x2="22" y2="46"/>
      <line x1="30" y1="40" x2="30" y2="46"/>
      <line x1="38" y1="40" x2="38" y2="50"/>
      <line x1="46" y1="40" x2="46" y2="46"/>
      <line x1="54" y1="40" x2="54" y2="46"/>
      <line x1="62" y1="40" x2="62" y2="50"/>
      <line x1="70" y1="40" x2="70" y2="46"/>
      <line x1="78" y1="40" x2="78" y2="46"/>
      <line x1="86" y1="40" x2="86" y2="50"/>
    </g>
  </g>
</svg>
