<svg xmlns="http://www.w3.org/2000/svg" viewBox="0 0 100 100">
  <defs>
    <linearGradient id="mt_bg" x1="0" y1="0" x2="1" y2="1"><stop offset="0" stop-color="#eff6ff"/><stop offset="1" stop-color="#dbeafe"/></linearGradient>
    <linearGradient id="mt_cos" x1="0" y1="0" x2="0" y2="1"><stop offset="0" stop-color="#3b82f6"/><stop offset="1" stop-color="#1e40af"/></linearGradient>
    <linearGradient id="mt_but" x1="0" y1="0" x2="0" y2="1"><stop offset="0" stop-color="#60a5fa"/><stop offset="1" stop-color="#2563eb"/></linearGradient>
  </defs>
  <rect width="100" height="100" rx="16" fill="url(#mt_bg)"/>
  <ellipse cx="50" cy="86" rx="30" ry="5" fill="#0f172a" opacity=".08"/>
  <path d="M38 22 q12 -12 24 0 l-5 7 q-7 -7 -14 0 z" fill="#1e3a8a"/>
  <rect x="20" y="26" width="60" height="58" rx="16" fill="url(#mt_cos)"/>
  <rect x="20" y="26" width="60" height="20" rx="10" fill="#60a5fa" opacity=".45"/>
  <path d="M28 26 q-8 18 -6 44 l8 0 q-3 -24 4 -44 z" fill="#1d4ed8" opacity=".55"/>
  <path d="M72 26 q8 18 6 44 l-8 0 q3 -24 -4 -44 z" fill="#1d4ed8" opacity=".55"/>
  <rect x="32" y="52" width="36" height="26" rx="9" fill="url(#mt_but)"/>
  <rect x="32" y="52" width="36" height="9" rx="4.5" fill="#93c5fd" opacity=".6"/>
  <path d="M32 63 h36" stroke="#1e3a8a" stroke-width="2.5"/>
  <rect x="47" y="60" width="6" height="9" rx="2.5" fill="#fbbf24"/>
  <rect x="42" y="30" width="16" height="7" rx="3.5" fill="#fbbf24"/>
</svg>
