<svg xmlns="http://www.w3.org/2000/svg" viewBox="0 0 100 100">
  <defs>
    <linearGradient id="ts_bg" x1="0" y1="0" x2="1" y2="1"><stop offset="0" stop-color="#f0fdfa"/><stop offset="1" stop-color="#ccfbf1"/></linearGradient>
    <linearGradient id="ts_fulla" x1="0" y1="0" x2="1" y2="1"><stop offset="0" stop-color="#f1f5f9"/><stop offset="1" stop-color="#94a3b8"/></linearGradient>
  </defs>
  <rect width="100" height="100" rx="16" fill="url(#ts_bg)"/>
  <ellipse cx="50" cy="84" rx="28" ry="5" fill="#0f172a" opacity=".08"/>
  <polygon points="24,18 56,56 49,62 20,24" fill="url(#ts_fulla)"/>
  <polygon points="24,18 40,37 35,41 20,24" fill="#e2e8f0"/>
  <polygon points="76,18 44,56 51,62 80,24" fill="url(#ts_fulla)"/>
  <polygon points="76,18 60,37 65,41 80,24" fill="#f8fafc"/>
  <circle cx="50" cy="58" r="4.5" fill="#fbbf24"/>
  <circle cx="50" cy="58" r="2" fill="#92400e"/>
  <path d="M46 62 q-16 6 -14 16 q1 9 11 8 q9 -1 9 -9 l-1 -12 z" fill="none" stroke="#0d9488" stroke-width="7" stroke-linejoin="round"/>
  <path d="M54 62 q16 6 14 16 q-1 9 -11 8 q-9 -1 -9 -9 l1 -12 z" fill="none" stroke="#14b8a6" stroke-width="7" stroke-linejoin="round"/>
</svg>
