<svg xmlns="http://www.w3.org/2000/svg" viewBox="0 0 100 100">
  <defs>
    <linearGradient id="ps_bg" x1="0" y1="0" x2="1" y2="1"><stop offset="0" stop-color="#f0fdf4"/><stop offset="1" stop-color="#dcfce7"/></linearGradient>
    <linearGradient id="ps_tauler" x1="0" y1="0" x2="1" y2="1"><stop offset="0" stop-color="#166534"/><stop offset="1" stop-color="#14532d"/></linearGradient>
  </defs>
  <rect width="100" height="100" rx="16" fill="url(#ps_bg)"/>
  <ellipse cx="50" cy="88" rx="34" ry="4" fill="#0f172a" opacity=".08"/>
  <rect x="12" y="16" width="76" height="56" rx="5" fill="#b45309"/>
  <rect x="14" y="18" width="72" height="52" rx="3" fill="#d97706"/>
  <rect x="18" y="22" width="64" height="44" rx="2" fill="url(#ps_tauler)"/>
  <rect x="18" y="22" width="64" height="10" fill="#22c55e" opacity=".12"/>
  <path d="M26 36 q8 -8 14 0 t14 0" fill="none" stroke="#f8fafc" stroke-width="2.5" stroke-linecap="round" opacity=".9"/>
  <path d="M26 50 h22" stroke="#fde047" stroke-width="2.5" stroke-linecap="round" opacity=".8"/>
  <path d="M54 50 h14" stroke="#f8fafc" stroke-width="2.5" stroke-linecap="round" opacity=".5"/>
  <path d="M62 58 q4 4 8 0" fill="none" stroke="#f8fafc" stroke-width="2" stroke-linecap="round" opacity=".4"/>
  <rect x="22" y="72" width="56" height="7" rx="3" fill="#92400e"/>
  <rect x="30" y="73.5" width="12" height="4" rx="2" fill="#f8fafc"/>
  <rect x="46" y="73.5" width="9" height="4" rx="2" fill="#fde047"/>
</svg>
