<svg xmlns="http://www.w3.org/2000/svg" viewBox="0 0 100 100">
  <defs>
    <linearGradient id="gx_bg" x1="0" y1="0" x2="1" y2="1"><stop offset="0" stop-color="#fafaf9"/><stop offset="1" stop-color="#e7e5e4"/></linearGradient>
    <linearGradient id="gx_blanc" x1="0" y1="0" x2="0" y2="1"><stop offset="0" stop-color="#ffffff"/><stop offset="1" stop-color="#d6d3d1"/></linearGradient>
    <linearGradient id="gx_groc" x1="0" y1="0" x2="0" y2="1"><stop offset="0" stop-color="#fef08a"/><stop offset="1" stop-color="#facc15"/></linearGradient>
  </defs>
  <rect width="100" height="100" rx="16" fill="url(#gx_bg)"/>
  <ellipse cx="50" cy="78" rx="32" ry="5" fill="#0f172a" opacity=".08"/>
  <g transform="rotate(-30 46 46)">
    <rect x="14" y="38" width="62" height="14" rx="6" fill="url(#gx_blanc)"/>
    <rect x="14" y="38" width="62" height="5" rx="2.5" fill="#ffffff"/>
    <ellipse cx="76" cy="45" rx="3.5" ry="7" fill="#a8a29e"/>
  </g>
  <g transform="rotate(18 58 66)">
    <rect x="34" y="60" width="44" height="12" rx="5" fill="url(#gx_groc)"/>
    <rect x="34" y="60" width="44" height="4.5" rx="2.2" fill="#fef9c3"/>
    <ellipse cx="78" cy="66" rx="3" ry="6" fill="#ca8a04"/>
  </g>
  <circle cx="20" cy="68" r="1.8" fill="#d6d3d1"/>
  <circle cx="27" cy="74" r="1.3" fill="#e7e5e4"/>
  <circle cx="80" cy="30" r="1.5" fill="#d6d3d1"/>
</svg>
