<svg xmlns="http://www.w3.org/2000/svg" viewBox="0 0 100 100">
  <defs>
    <linearGradient id="pp_bg" x1="0" y1="0" x2="1" y2="1"><stop offset="0" stop-color="#f8fafc"/><stop offset="1" stop-color="#e2e8f0"/></linearGradient>
    <linearGradient id="pp_cos" x1="0" y1="0" x2="1" y2="0"><stop offset="0" stop-color="#94a3b8"/><stop offset=".5" stop-color="#cbd5e1"/><stop offset="1" stop-color="#64748b"/></linearGradient>
  </defs>
  <rect width="100" height="100" rx="16" fill="url(#pp_bg)"/>
  <ellipse cx="50" cy="86" rx="26" ry="4" fill="#0f172a" opacity=".1"/>
  <path d="M28 34 L72 34 L66 84 L34 84 Z" fill="url(#pp_cos)"/>
  <path d="M28 34 L72 34 L71 42 L29 42 Z" fill="#64748b" opacity=".5"/>
  <g stroke="#475569" stroke-width="1.6" opacity=".55">
    <line x1="36" y1="36" x2="38" y2="82"/>
    <line x1="45" y1="36" x2="46" y2="82"/>
    <line x1="55" y1="36" x2="54" y2="82"/>
    <line x1="64" y1="36" x2="62" y2="82"/>
  </g>
  <ellipse cx="50" cy="34" rx="22" ry="5.5" fill="#e2e8f0"/>
  <ellipse cx="50" cy="34" rx="17" ry="3.6" fill="#334155"/>
  <circle cx="44" cy="30" r="7.5" fill="#f8fafc"/>
  <path d="M40 27 q3 -3 6 1 q3 -2 2 2 q2 2 -2 3 q-2 3 -5 0 q-4 0 -1 -3 q-2 -2 0 -3" fill="#e2e8f0"/>
  <circle cx="58" cy="29" r="5.5" fill="#fef9c3"/>
  <path d="M55 27 q2 -2 4 0 q2 0 1 2 q1 2 -2 2 q-2 1 -3 -1 q-2 -1 0 -3" fill="#fde68a" opacity=".7"/>
</svg>
