<svg xmlns="http://www.w3.org/2000/svg" viewBox="0 0 100 100">
  <defs>
    <linearGradient id="or_bg" x1="0" y1="0" x2="1" y2="1"><stop offset="0" stop-color="#eef2ff"/><stop offset="1" stop-color="#e0e7ff"/></linearGradient>
    <linearGradient id="or_pantalla" x1="0" y1="0" x2="1" y2="1"><stop offset="0" stop-color="#312e81"/><stop offset="1" stop-color="#1e1b4b"/></linearGradient>
  </defs>
  <rect width="100" height="100" rx="16" fill="url(#or_bg)"/>
  <ellipse cx="50" cy="84" rx="36" ry="4" fill="#0f172a" opacity=".1"/>
  <rect x="24" y="20" width="52" height="38" rx="4" fill="#475569"/>
  <rect x="27" y="23" width="46" height="32" rx="2" fill="url(#or_pantalla)"/>
  <path d="M27 23 L73 23 L41 55 L27 55 Z" fill="#6366f1" opacity=".18"/>
  <rect x="32" y="29" width="20" height="4" rx="2" fill="#818cf8"/>
  <rect x="32" y="37" width="30" height="3" rx="1.5" fill="#6366f1" opacity=".7"/>
  <rect x="32" y="44" width="24" height="3" rx="1.5" fill="#6366f1" opacity=".45"/>
  <polygon points="14,76 86,76 76,60 24,60" fill="#cbd5e1"/>
  <polygon points="14,76 86,76 84,72 16,72" fill="#94a3b8"/>
  <polygon points="30,63 70,63 72,69 28,69" fill="#94a3b8" opacity=".6"/>
  <rect x="44" y="71" width="12" height="3" rx="1.5" fill="#64748b"/>
</svg>
