<svg xmlns="http://www.w3.org/2000/svg" viewBox="0 0 100 100">
  <defs>
    <linearGradient id="ta_bg" x1="0" y1="0" x2="1" y2="1"><stop offset="0" stop-color="#fff7ed"/><stop offset="1" stop-color="#fed7aa"/></linearGradient>
    <linearGradient id="ta_fusta" x1="0" y1="0" x2="0" y2="1"><stop offset="0" stop-color="#d97706"/><stop offset="1" stop-color="#92400e"/></linearGradient>
  </defs>
  <rect width="100" height="100" rx="16" fill="url(#ta_bg)"/>
  <ellipse cx="50" cy="88" rx="36" ry="4" fill="#0f172a" opacity=".08"/>
  <polygon points="20,38 80,38 88,48 12,48" fill="url(#ta_fusta)"/>
  <polygon points="20,38 80,38 82,40.5 18,40.5" fill="#f59e0b"/>
  <path d="M24 43 h18 M50 44 h22" stroke="#78350f" stroke-width="1.4" opacity=".4" stroke-linecap="round"/>
  <rect x="14" y="48" width="7" height="38" rx="2" fill="#92400e"/>
  <rect x="14" y="48" width="3" height="38" fill="#b45309"/>
  <rect x="79" y="48" width="7" height="38" rx="2" fill="#78350f"/>
  <rect x="79" y="48" width="3" height="38" fill="#92400e"/>
  <rect x="21" y="52" width="58" height="5" rx="2" fill="#78350f" opacity=".8"/>
</svg>
