<svg xmlns="http://www.w3.org/2000/svg" viewBox="0 0 100 100">
  <defs>
    <linearGradient id="fi_bg" x1="0" y1="0" x2="1" y2="1"><stop offset="0" stop-color="#f0f9ff"/><stop offset="1" stop-color="#e0f2fe"/></linearGradient>
    <linearGradient id="fi_cel" x1="0" y1="0" x2="0" y2="1"><stop offset="0" stop-color="#7dd3fc"/><stop offset="1" stop-color="#bae6fd"/></linearGradient>
  </defs>
  <rect width="100" height="100" rx="16" fill="url(#fi_bg)"/>
  <rect x="16" y="14" width="68" height="64" rx="4" fill="#0369a1"/>
  <rect x="20" y="18" width="60" height="56" rx="2" fill="#f8fafc"/>
  <rect x="23" y="21" width="54" height="50" fill="url(#fi_cel)"/>
  <circle cx="62" cy="33" r="7" fill="#fde047"/>
  <circle cx="62" cy="33" r="9.5" fill="#fde047" opacity=".35"/>
  <path d="M30 38 q3 -4 7 -2 q1 -4 6 -3 q5 0 5 5 q4 1 2 5 l-20 0 q-3 -3 0 -5" fill="#ffffff" opacity=".95"/>
  <path d="M44 56 q4 -5 9 -3 q2 -4 7 -3 q6 1 5 6 q4 2 2 5 l-23 0 q-3 -3 0 -5" fill="#ffffff" opacity=".8"/>
  <rect x="47.5" y="21" width="5" height="50" fill="#f8fafc"/>
  <rect x="23" y="44" width="54" height="5" fill="#f8fafc"/>
  <rect x="16" y="76" width="68" height="7" rx="3" fill="#0c4a6e"/>
  <path d="M23 21 L40 21 L23 38 Z" fill="#ffffff" opacity=".25"/>
</svg>
