<svg xmlns="http://www.w3.org/2000/svg" viewBox="0 0 100 100">
  <defs><linearGradient id="met_bg" x1="0" y1="0" x2="1" y2="1"><stop offset="0" stop-color="#f0f9ff"/><stop offset="1" stop-color="#e0f2fe"/></linearGradient></defs>
  <rect width="100" height="100" rx="16" fill="url(#met_bg)"/>
  <ellipse cx="46" cy="90" rx="26" ry="3.5" fill="#0f172a" opacity=".08"/>
  <circle cx="44" cy="26" r="11" fill="#fcd9b8"/>
  <path d="M33 24 q0 -10 11 -10 q11 0 11 10 q-4.5 -5 -11 -5 q-6.5 0 -11 5" fill="#57534e"/>
  <circle cx="40.5" cy="26" r="1.5" fill="#1e293b"/><circle cx="47.5" cy="26" r="1.5" fill="#1e293b"/>
  <path d="M41 31.5 q3 2 6 0" stroke="#92400e" stroke-width="1.4" stroke-linecap="round" fill="none"/>
  <path d="M30 90 q-2 -29 14 -29 q16 0 14 29 z" fill="#f8fafc" stroke="#e2e8f0" stroke-width="1.5"/>
  <path d="M38 61 l6 8 l6 -8" fill="none" stroke="#0ea5e9" stroke-width="2.5"/>
  <circle cx="44" cy="74" r="1.4" fill="#94a3b8"/>
  <circle cx="44" cy="82" r="1.4" fill="#94a3b8"/>
  <path d="M36 62 q-6 4 -6 10 q0 5 5 5 q5 0 5 -5" fill="none" stroke="#475569" stroke-width="2.5"/>
  <path d="M52 62 q6 4 6 10 q0 5 -5 5 q-5 0 -5 -5" fill="none" stroke="#475569" stroke-width="2.5"/>
  <circle cx="48" cy="79" r="4.5" fill="#475569"/>
  <circle cx="48" cy="79" r="2.2" fill="#94a3b8"/>
  <rect x="62" y="56" width="22" height="16" rx="3" fill="#dc2626" opacity="0"/>
  <rect x="64" y="60" width="20" height="14" rx="3" fill="#f8fafc" stroke="#cbd5e1" stroke-width="1.4"/>
  <path d="M74 62.5 v9 M69.5 67 h9" stroke="#dc2626" stroke-width="3" stroke-linecap="round"/>
</svg>
