<svg xmlns="http://www.w3.org/2000/svg" viewBox="0 0 100 100">
  <defs><linearGradient id="mam_bg" x1="0" y1="0" x2="1" y2="1"><stop offset="0" stop-color="#fdf2f8"/><stop offset="1" stop-color="#fce7f3"/></linearGradient></defs>
  <rect width="100" height="100" rx="16" fill="url(#mam_bg)"/>
  <ellipse cx="50" cy="90" rx="30" ry="3.5" fill="#0f172a" opacity=".08"/>
  <path d="M30 24 q0 -12 12 -12 q12 0 12 12 l1 13 q0 5 -4.5 5 h-17 q-4.5 0 -4.5 -5 z" fill="#713f12"/>
  <circle cx="42" cy="26" r="12" fill="#fcd9b8"/>
  <path d="M30 24 q0 -11 12 -11 q12 0 12 11 q-5 -5.5 -12 -5.5 q-7 0 -12 5.5" fill="#854d0e"/>
  <path d="M38 28 q1.5 -2 3 0 M45 28 q1.5 -2 3 0" stroke="#1e293b" stroke-width="1.5" stroke-linecap="round" fill="none"/>
  <path d="M39 32.5 q3 2.4 6 0" stroke="#92400e" stroke-width="1.5" stroke-linecap="round" fill="none"/>
  <path d="M26 88 q0 -30 16 -30 q16 0 16 30 z" fill="#db2777"/>
  <path d="M26 88 q0 -30 16 -30 q5 0 8 3.5 l-8 10 z" fill="#ec4899"/>
  <path d="M54 62 q8 4 10 12" stroke="#fcd9b8" stroke-width="6" stroke-linecap="round" fill="none"/>
  <path d="M61 61 q0 -8 8 -8 q8 0 8 8 l.6 7 q0 3 -2.6 3 h-12 q-2.6 0 -2.6 -3 z" fill="#92400e"/>
  <circle cx="69" cy="62" r="8" fill="#fcd9b8"/>
  <path d="M61 60.5 q0 -7.5 8 -7.5 q8 0 8 7.5 q-3.5 -3.7 -8 -3.7 q-4.5 0 -8 3.7" fill="#a16207"/>
  <circle cx="66.5" cy="62" r="1.1" fill="#1e293b"/><circle cx="71.5" cy="62" r="1.1" fill="#1e293b"/>
  <path d="M67 65.5 q2 1.5 4 0" stroke="#92400e" stroke-width="1.1" stroke-linecap="round" fill="none"/>
  <path d="M63 78 q6 -7 12 0 l-2 8 h-8 z" fill="#a855f7"/>
  <path d="M82 38 q3 -3.4 6.5 -1 q3 2.5 0 5.5 q-3 3 -6.5 5 q-3.5 -2 -6.5 -5 q-3 -3 0 -5.5 q3.5 -2.4 6.5 1" fill="#ef4444"/>
</svg>
