<svg xmlns="http://www.w3.org/2000/svg" viewBox="0 0 100 100">
  <defs><linearGradient id="cos_bg" x1="0" y1="0" x2="1" y2="1"><stop offset="0" stop-color="#fefce8"/><stop offset="1" stop-color="#fef3c7"/></linearGradient></defs>
  <rect width="100" height="100" rx="16" fill="url(#cos_bg)"/>
  <ellipse cx="50" cy="90" rx="30" ry="3.5" fill="#0f172a" opacity=".08"/>
  <circle cx="50" cy="28" r="11" fill="#fcd9b8"/>
  <path d="M39 26 q0 -10 11 -10 q11 0 11 10 q-4.5 -5 -11 -5 q-6.5 0 -11 5" fill="#b45309"/>
  <path d="M39 26 q-1 3 .5 5.5 M61 26 q1 3 -.5 5.5" stroke="#b45309" stroke-width="2.2" stroke-linecap="round"/>
  <circle cx="46.5" cy="28" r="1.5" fill="#1e293b"/><circle cx="53.5" cy="28" r="1.5" fill="#1e293b"/>
  <path d="M47 33.5 q3 2 6 0" stroke="#92400e" stroke-width="1.4" stroke-linecap="round" fill="none"/>
  <path d="M37 64 q-2 -25 13 -25 q15 0 13 25 z" fill="#f59e0b"/>
  <path d="M37 64 q-2 -25 13 -25 q4.5 0 7.5 3 l-7.5 9 z" fill="#fbbf24"/>
  <path d="M39 44 q-7 5 -6 14" stroke="#fcd9b8" stroke-width="5" stroke-linecap="round" fill="none"/>
  <path d="M61 44 q7 5 6 14" stroke="#fcd9b8" stroke-width="5" stroke-linecap="round" fill="none"/>
  <rect x="41" y="62" width="7.5" height="24" rx="3.5" fill="#1e40af"/>
  <rect x="51.5" y="62" width="7.5" height="24" rx="3.5" fill="#1e3a8a"/>
  <ellipse cx="44.5" cy="88" rx="5.5" ry="3" fill="#374151"/>
  <ellipse cx="55.5" cy="88" rx="5.5" ry="3" fill="#374151"/>
</svg>
