<svg xmlns="http://www.w3.org/2000/svg" viewBox="0 0 100 100">
  <defs><linearGradient id="lam_bg" x1="0" y1="0" x2="1" y2="1"><stop offset="0" stop-color="#f0f9ff"/><stop offset="1" stop-color="#e0f2fe"/></linearGradient></defs>
  <rect width="100" height="100" rx="16" fill="url(#lam_bg)"/>
  <ellipse cx="46" cy="90" rx="28" ry="3.5" fill="#0f172a" opacity=".08"/>
  <circle cx="40" cy="28" r="11" fill="#fcd9b8"/>
  <path d="M29 25 q1 -9 11 -9 q10 0 11 9 l1 3 h-24 z" fill="#0ea5e9"/>
  <circle cx="36.5" cy="30" r="1.5" fill="#1e293b"/><circle cx="43.5" cy="30" r="1.5" fill="#1e293b"/>
  <path d="M37 35.5 q3 2 6 0" stroke="#92400e" stroke-width="1.4" stroke-linecap="round" fill="none"/>
  <path d="M26 90 q-2 -28 14 -28 q16 0 14 28 z" fill="#0284c7"/>
  <path d="M26 90 q-2 -28 14 -28 q5 0 8 3.5 l-8 10 z" fill="#0ea5e9"/>
  <rect x="34" y="70" width="12" height="10" rx="2" fill="#075985"/>
  <path d="M52 66 q9 0 12 7" stroke="#fcd9b8" stroke-width="5" stroke-linecap="round" fill="none"/>
  <g transform="rotate(-30 72 66)">
    <path d="M64 58 q-3 -8 4 -12 q1 4 5 4 q4 0 5 -4 q7 4 4 12 q-4 5 -9 4 l-2 16 q0 4 -3.5 4 q-3.5 0 -3.5 -4 l2 -16 q-1 -2 -2 -4" fill="#64748b"/>
  </g>
  <path d="M74 28 q0 4 3 4 q3 0 3 -4 q0 -3 -3 -6 q-3 3 -3 6" fill="#38bdf8"/>
  <path d="M82 40 q0 3 2.4 3 q2.4 0 2.4 -3 q0 -2.4 -2.4 -5 q-2.4 2.6 -2.4 5" fill="#7dd3fc"/>
</svg>
