<svg xmlns="http://www.w3.org/2000/svg" viewBox="0 0 100 100">
  <defs><linearGradient id="hli_bg" x1="0" y1="0" x2="1" y2="1"><stop offset="0" stop-color="#faf5ff"/><stop offset="1" stop-color="#f3e8ff"/></linearGradient></defs>
  <rect width="100" height="100" rx="16" fill="url(#hli_bg)"/>
  <ellipse cx="50" cy="86" rx="24" ry="4" fill="#0f172a" opacity=".08"/>
  <path d="M30 82 q-2 -16 20 -16 q22 0 20 16 z" fill="#2563eb"/>
  <circle cx="50" cy="42" r="16" fill="#fcd9b8"/>
  <path d="M33 38 q0 -16 17 -16 q17 0 17 16 l1 22 h-6 l-1 -20 q-5 -6 -11 -6 q-6 0 -11 6 l-1 20 h-6 z" fill="#1c1917"/>
  <path d="M40 24 v14 M50 21 v12 M60 24 v14" stroke="#44403c" stroke-width="1.6" stroke-linecap="round" opacity=".7"/>
  <circle cx="44.5" cy="43" r="2" fill="#1e293b"/>
  <circle cx="55.5" cy="43" r="2" fill="#1e293b"/>
  <path d="M46 50 q4 2.6 8 0" fill="none" stroke="#92400e" stroke-width="1.7" stroke-linecap="round"/>
</svg>
