<svg xmlns="http://www.w3.org/2000/svg" viewBox="0 0 100 100">
  <defs><linearGradient id="grs_bg" x1="0" y1="0" x2="1" y2="1"><stop offset="0" stop-color="#fefce8"/><stop offset="1" stop-color="#fef3c7"/></linearGradient></defs>
  <rect width="100" height="100" rx="16" fill="url(#grs_bg)"/>
  <ellipse cx="50" cy="90" rx="30" ry="4" fill="#0f172a" opacity=".08"/>
  <circle cx="50" cy="22" r="11" fill="#fcd9b8"/>
  <path d="M39 20 q0 -10 11 -10 q11 0 11 10 q-4.5 -5 -11 -5 q-6.5 0 -11 5" fill="#57534e"/>
  <circle cx="46.5" cy="22" r="1.5" fill="#1e293b"/><circle cx="53.5" cy="22" r="1.5" fill="#1e293b"/>
  <path d="M47 27 q3 2 6 0" stroke="#92400e" stroke-width="1.4" stroke-linecap="round" fill="none"/>
  <path d="M50 34 q24 0 26 22 q1 16 -10 18 h-32 q-11 -2 -10 -18 q2 -22 26 -22" fill="#dc2626"/>
  <path d="M50 34 q-24 0 -26 22 q-1 16 10 18 h6 q-8 -20 1 -38 q-9 -2 9 -2" fill="#ef4444"/>
  <path d="M22 50 q-5 4 -3 10 M78 50 q5 4 3 10" stroke="#fcd9b8" stroke-width="6" stroke-linecap="round" fill="none"/>
  <rect x="36" y="72" width="11" height="16" rx="4.5" fill="#1e40af"/>
  <rect x="53" y="72" width="11" height="16" rx="4.5" fill="#1e3a8a"/>
</svg>
