<svg xmlns="http://www.w3.org/2000/svg" viewBox="0 0 100 100">
  <defs><linearGradient id="hct_bg" x1="0" y1="0" x2="1" y2="1"><stop offset="0" stop-color="#faf5ff"/><stop offset="1" stop-color="#f3e8ff"/></linearGradient></defs>
  <rect width="100" height="100" rx="16" fill="url(#hct_bg)"/>
  <ellipse cx="50" cy="86" rx="24" ry="4" fill="#0f172a" opacity=".08"/>
  <path d="M30 82 q-2 -18 20 -18 q22 0 20 18 z" fill="#9333ea"/>
  <circle cx="50" cy="40" r="17" fill="#fcd9b8"/>
  <path d="M33 37 q0 -16 17 -16 q17 0 17 16 q-7 -7.5 -17 -7.5 q-10 0 -17 7.5" fill="#854d0e"/>
  <path d="M33 36 q-1 4 .5 7 M67 36 q1 4 -.5 7" stroke="#854d0e" stroke-width="2.5" stroke-linecap="round"/>
  <circle cx="44" cy="40" r="2" fill="#1e293b"/>
  <circle cx="56" cy="40" r="2" fill="#1e293b"/>
  <path d="M46 47.5 q4 2.6 8 0" fill="none" stroke="#92400e" stroke-width="1.7" stroke-linecap="round"/>
</svg>
