<svg xmlns="http://www.w3.org/2000/svg" viewBox="0 0 100 100">
  <defs><linearGradient id="pas_bg" x1="0" y1="0" x2="0" y2="1"><stop offset="0" stop-color="#f8fafc"/><stop offset="1" stop-color="#e2e8f0"/></linearGradient></defs>
  <rect width="100" height="100" rx="16" fill="url(#pas_bg)"/>
  <polygon points="14,14 86,14 66,86 34,86" fill="#cbd5e1"/>
  <polygon points="34,86 66,86 60,70 40,70" fill="#94a3b8" opacity=".4"/>
  <polygon points="40,40 60,40 58,30 42,30" fill="#818cf8" opacity=".35"/>
  <polygon points="14,14 30,14 38,86 34,86 22,40" fill="#a5b4fc" opacity=".25"/>
  <rect x="18" y="26" width="12" height="26" rx="1" fill="#92400e"/>
  <rect x="19.5" y="28" width="9" height="22" rx="1" fill="#b45309"/>
  <circle cx="27" cy="40" r="1.2" fill="#fbbf24"/>
  <rect x="70" y="26" width="12" height="26" rx="1" fill="#92400e"/>
  <rect x="71.5" y="28" width="9" height="22" rx="1" fill="#b45309"/>
  <circle cx="73" cy="40" r="1.2" fill="#fbbf24"/>
  <rect x="36" y="18" width="28" height="3" rx="1.5" fill="#fde047"/>
  <rect x="43" y="44" width="14" height="20" rx="1.5" fill="#0ea5e9" opacity=".7"/>
  <polygon points="43,64 57,64 56,58 44,58" fill="#0284c7" opacity=".5"/>
</svg>
