<svg xmlns="http://www.w3.org/2000/svg" viewBox="0 0 100 100">
  <defs><linearGradient id="gmn_bg" x1="0" y1="0" x2="1" y2="1"><stop offset="0" stop-color="#fdf2f8"/><stop offset="1" stop-color="#fce7f3"/></linearGradient></defs>
  <rect width="100" height="100" rx="16" fill="url(#gmn_bg)"/>
  <ellipse cx="50" cy="90" rx="32" ry="3.5" fill="#0f172a" opacity=".08"/>
  <circle cx="33" cy="32" r="9" fill="#fcd9b8" opacity=".5"/>
  <path d="M24 30 q0 -8 9 -8 q9 0 9 8 q-3.6 -4 -9 -4 q-5.4 0 -9 4" fill="#44403c" opacity=".5"/>
  <path d="M22 62 q-2 -21 11 -21 q13 0 11 21 z" fill="#2563eb" opacity=".5"/>
  <rect x="26" y="60" width="6" height="18" rx="3" fill="#1e3a8a" opacity=".5"/>
  <rect x="34" y="60" width="6" height="18" rx="3" fill="#1e40af" opacity=".5"/>
  <path d="M58 28 q0 -10 10 -10 q10 0 10 10 l.8 12 q0 4.5 -3.8 4.5 h-14 q-3.8 0 -3.8 -4.5 z" fill="#713f12"/>
  <circle cx="68" cy="30" r="10" fill="#fcd9b8"/>
  <path d="M58 28 q0 -9 10 -9 q10 0 10 9 q-4 -4.5 -10 -4.5 q-6 0 -10 4.5" fill="#854d0e"/>
  <circle cx="65" cy="30" r="1.4" fill="#1e293b"/><circle cx="71.5" cy="30" r="1.4" fill="#1e293b"/>
  <path d="M66 35 q2.5 1.8 5 0" stroke="#92400e" stroke-width="1.3" stroke-linecap="round" fill="none"/>
  <circle cx="77" cy="20" r="2.2" fill="#ec4899"/>
  <path d="M56 62 q1 -20 12 -20 q11 0 12 20 q-12 4 -24 0" fill="#db2777"/>
  <rect x="62" y="62" width="5" height="16" rx="2.5" fill="#fcd9b8"/>
  <rect x="69" y="62" width="5" height="16" rx="2.5" fill="#fcd9b8"/>
  <ellipse cx="64.5" cy="79" rx="4.5" ry="2.5" fill="#9d174d"/>
  <ellipse cx="71.5" cy="79" rx="4.5" ry="2.5" fill="#9d174d"/>
  <circle cx="68" cy="48" r="23" fill="none" stroke="#db2777" stroke-width="2.5" stroke-dasharray="6 4"/>
</svg>
