<svg xmlns="http://www.w3.org/2000/svg" viewBox="0 0 100 100">
  <defs><linearGradient id="cui_bg" x1="0" y1="0" x2="1" y2="1"><stop offset="0" stop-color="#fefce8"/><stop offset="1" stop-color="#fef3c7"/></linearGradient></defs>
  <rect width="100" height="100" rx="16" fill="url(#cui_bg)"/>
  <ellipse cx="50" cy="88" rx="36" ry="4" fill="#0f172a" opacity=".08"/>
  <rect x="12" y="48" width="36" height="36" rx="3" fill="#0d9488"/>
  <rect x="12" y="48" width="36" height="6" fill="#f8fafc"/>
  <rect x="16" y="58" width="12" height="22" rx="2" fill="#115e59"/>
  <rect x="32" y="58" width="12" height="22" rx="2" fill="#115e59"/>
  <circle cx="26" cy="68" r="1.4" fill="#fbbf24"/>
  <circle cx="34" cy="68" r="1.4" fill="#fbbf24"/>
  <rect x="52" y="48" width="36" height="36" rx="3" fill="#e7e5e4"/>
  <rect x="52" y="48" width="36" height="6" fill="#57534e"/>
  <circle cx="62" cy="51" r="2" fill="#1c1917"/>
  <circle cx="70" cy="51" r="2" fill="#1c1917"/>
  <circle cx="78" cy="51" r="2" fill="#1c1917"/>
  <rect x="56" y="58" width="28" height="20" rx="2" fill="#292524"/>
  <rect x="58" y="60" width="24" height="14" rx="1.5" fill="#78716c"/>
  <path d="M60 62 h20 l-3 10 h-14 z" fill="#fbbf24" opacity=".4"/>
  <rect x="56" y="80" width="28" height="2.5" rx="1.2" fill="#57534e"/>
  <path d="M22 30 q-2 -6 4 -8 M30 32 q-2 -8 5 -10" stroke="#94a3b8" stroke-width="2" stroke-linecap="round" fill="none"/>
  <path d="M14 34 q0 -4 4 -4 h16 q4 0 4 4 l-2 8 h-20 z" fill="#ef4444"/>
  <rect x="36" y="30" width="10" height="3" rx="1.5" fill="#b91c1c"/>
  <rect x="60" y="22" width="20" height="14" rx="2" fill="#7dd3fc"/>
  <rect x="60" y="22" width="20" height="14" rx="2" fill="none" stroke="#0369a1" stroke-width="1.6"/>
</svg>
