<svg xmlns="http://www.w3.org/2000/svg" viewBox="0 0 100 100">
  <defs><linearGradient id="tas_bg" x1="0" y1="0" x2="1" y2="1"><stop offset="0" stop-color="#fff7ed"/><stop offset="1" stop-color="#ffedd5"/></linearGradient>
  <linearGradient id="tas_cos" x1="0" y1="0" x2="0" y2="1"><stop offset="0" stop-color="#f87171"/><stop offset="1" stop-color="#b91c1c"/></linearGradient></defs>
  <rect width="100" height="100" rx="16" fill="url(#tas_bg)"/>
  <ellipse cx="50" cy="84" rx="28" ry="4" fill="#0f172a" opacity=".1"/>
  <path d="M22 38 h44 v24 q0 18 -22 18 q-22 0 -22 -18 z" fill="url(#tas_cos)"/>
  <path d="M24 40 h10 v22 q0 12 8 15 q-18 -1 -18 -15 z" fill="#fca5a5" opacity=".55"/>
  <ellipse cx="44" cy="38" rx="22" ry="6" fill="#7f1d1d"/>
  <ellipse cx="44" cy="37" rx="18" ry="4.4" fill="#78350f"/>
  <path d="M66 44 q14 -2 14 10 q0 12 -15 12 l1 -6 q8 0 8 -6 q0 -6 -8 -4 z" fill="#dc2626"/>
  <path d="M36 26 q-2 -5 2 -8 M46 26 q-2 -5 2 -8 M56 26 q-2 -5 2 -8" stroke="#94a3b8" stroke-width="2.2" stroke-linecap="round" fill="none"/>
</svg>
