<svg xmlns="http://www.w3.org/2000/svg" viewBox="0 0 100 100">
  <defs><linearGradient id="aer_bg" x1="0" y1="0" x2="0" y2="1"><stop offset="0" stop-color="#7dd3fc"/><stop offset="1" stop-color="#bae6fd"/></linearGradient></defs>
  <rect width="100" height="100" rx="16" fill="url(#aer_bg)"/>
  <g transform="rotate(-25 64 28) scale(.55) translate(58 8)">
    <path d="M14 50 q0 -7 10 -7 h44 q16 0 22 7 q-6 7 -22 7 H24 q-10 0 -10 -7" fill="#f8fafc"/>
    <path d="M20 43 q-8 -12 -4 -22 q8 2 12 12 l4 10 z" fill="#dc2626"/>
    <path d="M44 43 L30 26 h10 l14 17 z" fill="#ef4444"/>
    <path d="M44 57 L30 74 h10 l14 -17 z" fill="#dc2626"/>
  </g>
  <rect x="10" y="48" width="58" height="34" rx="3" fill="#f1f5f9"/>
  <rect x="10" y="48" width="58" height="8" fill="#0ea5e9"/>
  <g fill="#7dd3fc" stroke="#0369a1" stroke-width="1">
    <rect x="15" y="60" width="9" height="8"/><rect x="28" y="60" width="9" height="8"/><rect x="41" y="60" width="9" height="8"/><rect x="54" y="60" width="9" height="8"/>
  </g>
  <rect x="33" y="70" width="12" height="12" fill="#475569"/>
  <rect x="74" y="34" width="8" height="48" fill="#94a3b8"/>
  <path d="M70 36 h16 l-2 -10 h-12 z" fill="#0369a1"/>
  <rect x="71" y="28" width="14" height="7" rx="2" fill="#38bdf8"/>
  <path d="M8 90 h84" stroke="#475569" stroke-width="4"/>
  <path d="M14 90 h8 M34 90 h8 M54 90 h8 M74 90 h8" stroke="#fde047" stroke-width="2"/>
</svg>
