<svg xmlns="http://www.w3.org/2000/svg" viewBox="0 0 100 100">
  <defs><linearGradient id="pal_bg" x1="0" y1="0" x2="1" y2="1"><stop offset="0" stop-color="#fff7ed"/><stop offset="1" stop-color="#ffedd5"/></linearGradient></defs>
  <rect width="100" height="100" rx="16" fill="url(#pal_bg)"/>
  <ellipse cx="46" cy="90" rx="28" ry="3.5" fill="#0f172a" opacity=".08"/>
  <circle cx="40" cy="30" r="11" fill="#fcd9b8"/>
  <path d="M28 27 q0 -8 4 -10 q8 4 16 0 q4 2 4 10 l0 1 h-24 z" fill="#fde047"/>
  <ellipse cx="40" cy="28" rx="14" ry="3" fill="#facc15"/>
  <circle cx="36.5" cy="32" r="1.5" fill="#1e293b"/><circle cx="43.5" cy="32" r="1.5" fill="#1e293b"/>
  <path d="M37 37.5 q3 2 6 0" stroke="#92400e" stroke-width="1.4" stroke-linecap="round" fill="none"/>
  <path d="M26 90 q-2 -27 14 -27 q16 0 14 27 z" fill="#f97316"/>
  <path d="M26 90 q-2 -27 14 -27 q5 0 8 3.5 l-8 10 z" fill="#fb923c"/>
  <path d="M52 68 q9 -1 12 6" stroke="#fcd9b8" stroke-width="5" stroke-linecap="round" fill="none"/>
  <g transform="rotate(-12 72 68)">
    <polygon points="60,64 84,64 72,76" fill="#94a3b8"/>
    <rect x="69" y="56" width="5" height="8" rx="2" fill="#92400e"/>
  </g>
  <g fill="#dc2626" stroke="#fca5a5" stroke-width="1">
    <rect x="8" y="78" width="16" height="7" rx="1"/>
    <rect x="26" y="78" width="16" height="7" rx="1"/>
    <rect x="16" y="69" width="16" height="7" rx="1"/>
    <rect x="34" y="69" width="16" height="7" rx="1" opacity="0"/>
  </g>
</svg>
