<svg xmlns="http://www.w3.org/2000/svg" viewBox="0 0 100 100">
  <defs><linearGradient id="csn_bg" x1="0" y1="0" x2="1" y2="1"><stop offset="0" stop-color="#fdf2f8"/><stop offset="1" stop-color="#fce7f3"/></linearGradient></defs>
  <rect width="100" height="100" rx="16" fill="url(#csn_bg)"/>
  <ellipse cx="50" cy="90" rx="30" ry="3.5" fill="#0f172a" opacity=".08"/>
  <path d="M38 26 q0 -12 12 -12 q12 0 12 12 v6 q-2 10 -7 12 h-10 q-5 -2 -7 -12 z" fill="#b45309" opacity="0"/>
  <circle cx="50" cy="28" r="11" fill="#fcd9b8"/>
  <path d="M39 26 q0 -10 11 -10 q11 0 11 10 q-4.5 -5 -11 -5 q-6.5 0 -11 5" fill="#b45309"/>
  <path d="M37 25 q-3 9 1 17 l4 -2 q-3 -7 -1 -13 z M63 25 q3 9 -1 17 l-4 -2 q3 -7 1 -13 z" fill="#b45309"/>
  <circle cx="46.5" cy="28" r="1.5" fill="#1e293b"/><circle cx="53.5" cy="28" r="1.5" fill="#1e293b"/>
  <path d="M47 33.5 q3 2 6 0" stroke="#92400e" stroke-width="1.4" stroke-linecap="round" fill="none"/>
  <circle cx="59" cy="17" r="2.2" fill="#f472b6"/>
  <path d="M36 66 q1 -27 14 -27 q13 0 14 27 q-14 4.5 -28 0" fill="#e11d48"/>
  <path d="M36 66 q1 -27 14 -27 q4.5 0 7.5 3.5 l-7.5 9.5 z" fill="#f43f5e"/>
  <rect x="43" y="66" width="5.5" height="18" rx="2.7" fill="#fcd9b8"/>
  <rect x="51.5" y="66" width="5.5" height="18" rx="2.7" fill="#fcd9b8"/>
  <ellipse cx="45.5" cy="86" rx="5" ry="2.7" fill="#9f1239"/>
  <ellipse cx="54.5" cy="86" rx="5" ry="2.7" fill="#9f1239"/>
</svg>
