<svg xmlns="http://www.w3.org/2000/svg" viewBox="0 0 100 100">
  <defs><linearGradient id="ton_bg" x1="0" y1="0" x2="1" y2="1"><stop offset="0" stop-color="#f0f9ff"/><stop offset="1" stop-color="#e0f2fe"/></linearGradient>
  <linearGradient id="ton_cos" x1="0" y1="0" x2="0" y2="1"><stop offset="0" stop-color="#1e40af"/><stop offset=".55" stop-color="#3b82f6"/><stop offset="1" stop-color="#e2e8f0"/></linearGradient></defs>
  <rect width="100" height="100" rx="16" fill="url(#ton_bg)"/>
  <ellipse cx="50" cy="80" rx="34" ry="4" fill="#0f172a" opacity=".08"/>
  <g transform="rotate(-6 50 52)">
    <path d="M10 52 q14 -18 38 -18 q22 0 32 14 l10 -10 q2 8 -2 14 q4 6 2 14 l-10 -10 q-10 14 -32 14 q-24 0 -38 -18" fill="url(#ton_cos)"/>
    <path d="M36 34 q4 -8 12 -8 q2 6 -2 10 q-5 1 -10 -2" fill="#1e3a8a"/>
    <path d="M48 64 q6 6 14 5 q-2 -6 -8 -8 q-4 1 -6 3" fill="#1e3a8a" opacity="0"/>
    <circle cx="20" cy="50" r="3.2" fill="#1e293b"/>
    <circle cx="19" cy="49" r="1.1" fill="#fff"/>
    <path d="M10 56 q5 3 10 2" stroke="#1e3a8a" stroke-width="1.6" fill="none" stroke-linecap="round"/>
    <path d="M58 60 l3 6 M66 58 l3 5 M50 62 l2 6" stroke="#1e40af" stroke-width="2" stroke-linecap="round" opacity="0"/>
  </g>
  <circle cx="22" cy="20" r="2" fill="#bae6fd"/><circle cx="28" cy="13" r="1.5" fill="#bae6fd"/>
</svg>
