<svg xmlns="http://www.w3.org/2000/svg" viewBox="0 0 100 100">
  <defs><linearGradient id="pvi_bg" x1="0" y1="0" x2="0" y2="1"><stop offset="0" stop-color="#bae6fd"/><stop offset="1" stop-color="#e0f2fe"/></linearGradient></defs>
  <rect width="100" height="100" rx="16" fill="url(#pvi_bg)"/>
  <path d="M0 36 h100 v48 q0 16 -16 16 H16 Q0 100 0 84 z" fill="#475569"/>
  <g fill="#f8fafc">
    <polygon points="12,40 26,40 18,96 2,96"/>
    <polygon points="36,40 50,40 46,96 28,96"/>
    <polygon points="60,40 74,40 74,96 56,96"/>
    <polygon points="84,40 98,40 100,70 100,84 q0 12 -12 12 l-4 0"/>
  </g>
  <g transform="translate(58 14)">
    <circle cx="0" cy="0" r="6" fill="#fcd9b8"/>
    <path d="M-6 -2 q0 -5.5 6 -5.5 q6 0 6 5.5 q-2.5 -2.7 -6 -2.7 q-3.5 0 -6 2.7" fill="#44403c"/>
    <path d="M-3 8 q3 -3 6 0 l4 14 l-5 1 l-3 -8 l-1 22 h-5 l1 -22 l-6 8 l-4 -3 q4 -8 13 -12" fill="#dc2626" transform="translate(1 0)"/>
    <path d="M4 30 l6 10 l-4 3 l-7 -10 M-4 32 l-2 12 h-5 l2 -13" fill="#1e40af"/>
  </g>
</svg>
