<svg xmlns="http://www.w3.org/2000/svg" viewBox="0 0 100 100">
  <defs><linearGradient id="amo_bg" x1="0" y1="0" x2="1" y2="1"><stop offset="0" stop-color="#f0f9ff"/><stop offset="1" stop-color="#e0f2fe"/></linearGradient>
  <linearGradient id="amo_vidre" x1="0" y1="0" x2="0" y2="1"><stop offset="0" stop-color="#bae6fd"/><stop offset="1" stop-color="#0ea5e9"/></linearGradient></defs>
  <rect width="100" height="100" rx="16" fill="url(#amo_bg)"/>
  <ellipse cx="50" cy="88" rx="22" ry="4" fill="#0f172a" opacity=".08"/>
  <rect x="43" y="8" width="14" height="9" rx="3" fill="#0369a1"/>
  <path d="M44 17 h12 v8 q8 8 8 20 v32 q0 9 -9 9 h-10 q-9 0 -9 -9 V45 q0 -12 8 -20 z" fill="url(#amo_vidre)" opacity=".9"/>
  <path d="M44 19 h4 v6 q-8 8 -8 20 v32 q0 7 5 8 h-2 q-7 0 -7 -8 V45 q0 -12 8 -20 z" fill="#e0f2fe" opacity=".8"/>
  <path d="M40 48 q10 4 20 0 v28 q0 7 -7 7 h-6 q-7 0 -7 -7 z" fill="#0ea5e9" opacity=".55"/>
  <path d="M44 52 q3 2 6 1" stroke="#bae6fd" stroke-width="2" stroke-linecap="round" fill="none"/>
  <circle cx="62" cy="40" r="1.6" fill="#e0f2fe"/>
</svg>
