<svg xmlns="http://www.w3.org/2000/svg" viewBox="0 0 100 100">
  <defs><linearGradient id="far_bg" x1="0" y1="0" x2="0" y2="1"><stop offset="0" stop-color="#bae6fd"/><stop offset="1" stop-color="#e0f2fe"/></linearGradient></defs>
  <rect width="100" height="100" rx="16" fill="url(#far_bg)"/>
  <ellipse cx="50" cy="89" rx="36" ry="4" fill="#0f172a" opacity=".08"/>
  <rect x="14" y="30" width="72" height="56" rx="3" fill="#f0fdf4"/>
  <rect x="14" y="30" width="72" height="10" fill="#16a34a"/>
  <circle cx="50" cy="24" r="13" fill="#f8fafc" stroke="#16a34a" stroke-width="2.5"/>
  <path d="M46 16 h8 v4.5 h4.5 v8 H54 v4.5 h-8 V28.5 h-4.5 v-8 H46 z" fill="#16a34a"/>
  <rect x="22" y="48" width="24" height="38" rx="2" fill="#15803d"/>
  <rect x="24" y="50" width="20" height="34" rx="1.5" fill="#86efac"/>
  <path d="M26 54 l16 0 l-16 16 z" fill="#dcfce7" opacity=".7"/>
  <circle cx="40" cy="68" r="1.8" fill="#166534"/>
  <rect x="54" y="48" width="28" height="20" rx="2" fill="#dcfce7" stroke="#16a34a" stroke-width="1.5"/>
  <g transform="rotate(-20 62 57)"><rect x="57" y="54" width="11" height="6" rx="3" fill="#ef4444"/><rect x="57" y="54" width="5.5" height="6" rx="2.7" fill="#f8fafc"/></g>
  <path d="M72 56 q4 0 4 4 q0 4 -4 4 q-4 0 -4 -4 q0 -4 4 -4" fill="#3b82f6"/>
  <rect x="54" y="72" width="28" height="14" rx="2" fill="#dcfce7" stroke="#16a34a" stroke-width="1.5"/>
  <rect x="60" y="76" width="16" height="6" rx="2" fill="#fbbf24"/>
</svg>
