<svg xmlns="http://www.w3.org/2000/svg" viewBox="0 0 100 100">
  <defs><linearGradient id="frnr_bg" x1="0" y1="0" x2="0" y2="1"><stop offset="0" stop-color="#bae6fd"/><stop offset="1" stop-color="#e0f2fe"/></linearGradient></defs>
  <rect width="100" height="100" rx="16" fill="url(#frnr_bg)"/>
  <ellipse cx="56" cy="80" rx="36" ry="4" fill="#0f172a" opacity=".1"/>
  <path d="M36 48 l5 -11 q2 -4 6 -4 h18 q4 0 6 4 l5 11" fill="#ef4444"/>
  <path d="M43 40 q1 -3 4 -3 h7 v11 h-14 z" fill="#7dd3fc"/>
  <path d="M26 56 q0 -8 8 -8 h50 q8 0 8 8 v10 q0 5 -5 5 H31 q-5 0 -5 -5 z" fill="#dc2626"/>
  <circle cx="40" cy="70" r="7.5" fill="#1e293b"/>
  <circle cx="40" cy="70" r="3" fill="#94a3b8"/>
  <circle cx="78" cy="70" r="7.5" fill="#1e293b"/>
  <circle cx="78" cy="70" r="3" fill="#94a3b8"/>
  <rect x="84" y="56" width="7" height="6" rx="3" fill="#fde047"/>
  <rect x="27" y="56" width="6" height="6" rx="3" fill="#7f1d1d"/>
  <g stroke="#475569" stroke-width="3.5" stroke-linecap="round">
    <path d="M18 60 q-5 -2 -6 -8"/>
    <path d="M14 70 q-6 0 -8 -5"/>
  </g>
  <path d="M30 84 h16 M56 84 h16" stroke="#1e293b" stroke-width="3" stroke-linecap="round" opacity=".5"/>
  <path d="M62 24 v-8 m-3.5 3 l3.5 -3.5 l3.5 3.5" stroke="#dc2626" stroke-width="0"/>
  <circle cx="20" cy="26" r="9" fill="#dc2626"/>
  <rect x="14" y="24" width="12" height="4" rx="2" fill="#f8fafc"/>
</svg>
