<svg xmlns="http://www.w3.org/2000/svg" viewBox="0 0 100 100">
  <defs><linearGradient id="crr_bg" x1="0" y1="0" x2="0" y2="1"><stop offset="0" stop-color="#bae6fd"/><stop offset="1" stop-color="#e0f2fe"/></linearGradient></defs>
  <rect width="100" height="100" rx="16" fill="url(#crr_bg)"/>
  <rect x="8" y="14" width="22" height="36" fill="#fbbf24"/>
  <g fill="#bfdbfe" stroke="#1e40af" stroke-width="1">
    <rect x="12" y="18" width="6" height="6"/><rect x="21" y="18" width="6" height="6"/>
    <rect x="12" y="28" width="6" height="6"/><rect x="21" y="28" width="6" height="6"/>
    <rect x="12" y="38" width="6" height="6"/><rect x="21" y="38" width="6" height="6"/>
  </g>
  <rect x="70" y="10" width="24" height="40" fill="#f97316"/>
  <g fill="#bfdbfe" stroke="#1e40af" stroke-width="1">
    <rect x="74" y="14" width="6" height="6"/><rect x="84" y="14" width="6" height="6"/>
    <rect x="74" y="24" width="6" height="6"/><rect x="84" y="24" width="6" height="6"/>
    <rect x="74" y="34" width="6" height="6"/><rect x="84" y="34" width="6" height="6"/>
  </g>
  <path d="M0 88 L34 50 h32 L100 88 v0 q0 12 -16 12 H16 Q0 100 0 88" fill="#475569"/>
  <path d="M50 54 v8 M50 68 v8 M50 82 v8" stroke="#fde047" stroke-width="3.5" stroke-linecap="round"/>
  <path d="M8 50 h84" stroke="#94a3b8" stroke-width="4"/>
  <path d="M30 50 h8 M62 50 h8" stroke="#e2e8f0" stroke-width="0"/>
</svg>
