<svg xmlns="http://www.w3.org/2000/svg" viewBox="0 0 100 100">
  <defs><linearGradient id="dir_bg" x1="0" y1="0" x2="1" y2="1"><stop offset="0" stop-color="#f8fafc"/><stop offset="1" stop-color="#e2e8f0"/></linearGradient></defs>
  <rect width="100" height="100" rx="16" fill="url(#dir_bg)"/>
  <ellipse cx="50" cy="90" rx="28" ry="4" fill="#0f172a" opacity=".08"/>
  <polygon points="20,52 80,52 84,60 16,60" fill="#92400e"/>
  <rect x="18" y="60" width="6" height="26" fill="#78350f"/>
  <rect x="76" y="60" width="6" height="26" fill="#78350f"/>
  <circle cx="50" cy="26" r="11" fill="#fcd9b8"/>
  <path d="M39 24 q0 -10 11 -10 q11 0 11 10 q-4 -5 -11 -5 q-7 0 -11 5" fill="#404040"/>
  <path d="M39 24 q-1 3 0 5 M61 24 q1 3 0 5" stroke="#404040" stroke-width="2"/>
  <circle cx="46" cy="26" r="1.6" fill="#1e293b"/>
  <circle cx="54" cy="26" r="1.6" fill="#1e293b"/>
  <path d="M47 32 q3 2 6 0" fill="none" stroke="#92400e" stroke-width="1.5" stroke-linecap="round"/>
  <path d="M34 52 q0 -16 16 -16 q16 0 16 16 z" fill="#1e293b"/>
  <polygon points="50,38 46,42 50,52 54,42" fill="#f8fafc"/>
  <polygon points="50,42 47.5,44.5 50,52 52.5,44.5" fill="#dc2626"/>
  <path d="M34 52 q0 -16 16 -16 q3 0 6 1.5 l-6 6.5 z" fill="#334155"/>
  <path d="M66 52 q0 -16 -16 -16 q-3 0 -6 1.5 l6 6.5 z" fill="#334155"/>
  <rect x="40" y="44" width="20" height="8" rx="1" fill="#f8fafc" opacity="0"/>
  <rect x="58" y="42" width="14" height="10" rx="1.5" fill="#fbbf24"/>
  <rect x="58" y="42" width="14" height="3.5" rx="1.5" fill="#fde047"/>
</svg>
