<svg xmlns="http://www.w3.org/2000/svg" viewBox="0 0 100 100">
  <defs><linearGradient id="tjd_bg" x1="0" y1="0" x2="1" y2="1"><stop offset="0" stop-color="#fff7ed"/><stop offset="1" stop-color="#ffedd5"/></linearGradient>
  <linearGradient id="tjd_llauna" x1="0" y1="0" x2="1" y2="0"><stop offset="0" stop-color="#fb923c"/><stop offset=".5" stop-color="#f97316"/><stop offset="1" stop-color="#c2410c"/></linearGradient></defs>
  <rect width="100" height="100" rx="16" fill="url(#tjd_bg)"/>
  <ellipse cx="50" cy="88" rx="22" ry="4" fill="#0f172a" opacity=".1"/>
  <path d="M34 22 h32 q3 0 3 4 v54 q0 4 -3 4 H34 q-3 0 -3 -4 V26 q0 -4 3 -4" fill="url(#tjd_llauna)"/>
  <ellipse cx="50" cy="22" rx="16" ry="4" fill="#e2e8f0"/>
  <ellipse cx="50" cy="22" rx="13" ry="3" fill="#cbd5e1"/>
  <rect x="46" y="18.5" width="8" height="3" rx="1.5" fill="#94a3b8"/>
  <circle cx="50" cy="52" r="13" fill="#fdba74"/>
  <circle cx="50" cy="52" r="11" fill="#ffedd5"/>
  <g stroke="#f97316" stroke-width="1.6">
    <path d="M50 43 v18 M41 52 h18 M44 46 l12 12 M56 46 l-12 12"/>
  </g>
  <circle cx="50" cy="52" r="2.4" fill="#f97316"/>
  <path d="M36 28 q-1 24 0 50 M64 28 q1 24 0 50" stroke="#ffedd5" stroke-width="1.6" opacity=".5" fill="none"/>
</svg>
