<svg xmlns="http://www.w3.org/2000/svg" viewBox="0 0 100 100">
  <defs><linearGradient id="fus_bg" x1="0" y1="0" x2="1" y2="1"><stop offset="0" stop-color="#fff7ed"/><stop offset="1" stop-color="#ffedd5"/></linearGradient></defs>
  <rect width="100" height="100" rx="16" fill="url(#fus_bg)"/>
  <ellipse cx="46" cy="90" rx="28" ry="3.5" fill="#0f172a" opacity=".08"/>
  <circle cx="40" cy="26" r="11" fill="#fcd9b8"/>
  <path d="M29 24 q0 -10 11 -10 q11 0 11 10 q-4.5 -5 -11 -5 q-6.5 0 -11 5" fill="#92400e"/>
  <circle cx="36.5" cy="26" r="1.5" fill="#1e293b"/><circle cx="43.5" cy="26" r="1.5" fill="#1e293b"/>
  <path d="M37 31.5 q3 2 6 0" stroke="#92400e" stroke-width="1.4" stroke-linecap="round" fill="none"/>
  <path d="M26 78 q-2 -27 14 -27 q16 0 14 27 z" fill="#b45309"/>
  <path d="M26 78 q-2 -27 14 -27 q5 0 8 3.5 l-8 10 z" fill="#d97706"/>
  <path d="M30 62 h20 v10 h-20 z" fill="#fbbf24" opacity="0"/>
  <rect x="32" y="60" width="16" height="11" rx="2" fill="#78350f"/>
  <path d="M52 56 q9 -1 12 6" stroke="#fcd9b8" stroke-width="5" stroke-linecap="round" fill="none"/>
  <g transform="rotate(20 70 56)">
    <rect x="64" y="50" width="20" height="9" fill="#94a3b8"/>
    <path d="M64 59 l3 4 l3 -4 l3 4 l3 -4 l3 4 l3 -4 l2 0 v-9 h-20 z" fill="#94a3b8" opacity="0"/>
    <path d="M64 59 h20 l-2.5 4 l-2.5 -4 l-2.5 4 l-2.5 -4 l-2.5 4 l-2.5 -4 l-2.5 4 z" fill="#cbd5e1"/>
    <rect x="84" y="48" width="8" height="12" rx="3" fill="#92400e"/>
  </g>
  <rect x="10" y="78" width="80" height="9" rx="2" fill="#d6a35c"/>
  <path d="M16 82 h12 M36 82 h10 M58 82 h12" stroke="#b45309" stroke-width="1.8" stroke-linecap="round"/>
</svg>
