<svg xmlns="http://www.w3.org/2000/svg" viewBox="0 0 100 100">
  <defs><linearGradient id="tec_bg" x1="0" y1="0" x2="1" y2="1"><stop offset="0" stop-color="#f0fdfa"/><stop offset="1" stop-color="#ccfbf1"/></linearGradient>
  <linearGradient id="tec_metall" x1="0" y1="0" x2="0" y2="1"><stop offset="0" stop-color="#cbd5e1"/><stop offset="1" stop-color="#64748b"/></linearGradient></defs>
  <rect width="100" height="100" rx="16" fill="url(#tec_bg)"/>
  <ellipse cx="50" cy="84" rx="32" ry="5" fill="#0f172a" opacity=".08"/>
  <g transform="rotate(-30 38 46)">
    <path d="M20 30 a11 11 0 0 1 14 -4 l-6 8 l3 6 l7 -1 a11 11 0 0 1 -12 9 l-22 26 a5 5 0 0 1 -8 -6 l26 -23 a11 11 0 0 1 -2 -15" fill="url(#tec_metall)" transform="scale(.9) translate(8 6)"/>
  </g>
  <g transform="rotate(40 64 50)">
    <rect x="58" y="22" width="9" height="40" rx="2.5" fill="#f59e0b"/>
    <rect x="58" y="22" width="9" height="40" rx="2.5" fill="#fbbf24" opacity=".5"/>
    <polygon points="58,62 67,62 64.5,72 60.5,72" fill="#94a3b8"/>
    <polygon points="61.5,72 63.5,72 62.5,77" fill="#334155"/>
    <rect x="58" y="28" width="9" height="6" fill="#b45309"/>
  </g>
  <circle cx="72" cy="26" r="8" fill="none" stroke="#0d9488" stroke-width="3.5"/>
  <g stroke="#0d9488" stroke-width="3" stroke-linecap="round">
    <line x1="72" y1="14" x2="72" y2="18"/><line x1="72" y1="34" x2="72" y2="38"/>
    <line x1="60" y1="26" x2="64" y2="26"/><line x1="80" y1="26" x2="84" y2="26"/>
    <line x1="63.5" y1="17.5" x2="66.5" y2="20.5"/><line x1="77.5" y1="31.5" x2="80.5" y2="34.5"/>
    <line x1="63.5" y1="34.5" x2="66.5" y2="31.5"/><line x1="77.5" y1="20.5" x2="80.5" y2="17.5"/>
  </g>
</svg>
