<svg xmlns="http://www.w3.org/2000/svg" viewBox="0 0 100 100">
  <defs><linearGradient id="ugr_bg" x1="0" y1="0" x2="1" y2="1"><stop offset="0" stop-color="#fff7ed"/><stop offset="1" stop-color="#ffedd5"/></linearGradient></defs>
  <rect width="100" height="100" rx="16" fill="url(#ugr_bg)"/>
  <circle cx="50" cy="50" r="32" fill="#fcd9b8"/>
  <path d="M18 45 q0 -28 32 -28 q32 0 32 28 q-13 -13 -32 -13 q-19 0 -32 13" fill="#57534e"/>
  <ellipse cx="38" cy="52" rx="11" ry="12" fill="#f8fafc" stroke="#cbd5e1" stroke-width="1"/>
  <ellipse cx="62" cy="52" rx="11" ry="12" fill="#f8fafc" stroke="#cbd5e1" stroke-width="1"/>
  <circle cx="38" cy="53" r="6.5" fill="#713f12"/>
  <circle cx="62" cy="53" r="6.5" fill="#713f12"/>
  <circle cx="38" cy="53" r="3" fill="#0f172a"/>
  <circle cx="62" cy="53" r="3" fill="#0f172a"/>
  <circle cx="36" cy="50.5" r="1.8" fill="#fff" opacity=".9"/>
  <circle cx="60" cy="50.5" r="1.8" fill="#fff" opacity=".9"/>
  <path d="M30 37 q7 -4 15 -2 M55 35 q8 -2 15 2" stroke="#44403c" stroke-width="2.4" stroke-linecap="round" fill="none"/>
  <path d="M44 74 q6 3.5 12 0" fill="none" stroke="#92400e" stroke-width="2" stroke-linecap="round"/>
</svg>
