<svg xmlns="http://www.w3.org/2000/svg" viewBox="0 0 100 100">
  <defs><linearGradient id="ins_bg" x1="0" y1="0" x2="0" y2="1"><stop offset="0" stop-color="#bae6fd"/><stop offset="1" stop-color="#e0f2fe"/></linearGradient>
  <linearGradient id="ins_mur" x1="0" y1="0" x2="0" y2="1"><stop offset="0" stop-color="#fde68a"/><stop offset="1" stop-color="#f59e0b"/></linearGradient></defs>
  <rect width="100" height="100" rx="16" fill="url(#ins_bg)"/>
  <ellipse cx="50" cy="88" rx="38" ry="4" fill="#0f172a" opacity=".08"/>
  <rect x="12" y="40" width="76" height="46" rx="3" fill="url(#ins_mur)"/>
  <polygon points="50,16 90,42 10,42" fill="#dc2626"/>
  <polygon points="50,20 82,41 18,41" fill="#ef4444"/>
  <rect x="44" y="22" width="12" height="12" rx="2" fill="#fef3c7"/>
  <circle cx="50" cy="28" r="3.5" fill="#1e293b"/>
  <path d="M50 25.5 v2.5 h2" fill="none" stroke="#fbbf24" stroke-width="1.2" stroke-linecap="round"/>
  <rect x="42" y="58" width="16" height="28" rx="2" fill="#7c2d12"/>
  <rect x="44" y="60" width="12" height="26" rx="1.5" fill="#9a3412"/>
  <circle cx="54" cy="73" r="1.3" fill="#fbbf24"/>
  <g fill="#bfdbfe" stroke="#1e40af" stroke-width="1.4">
    <rect x="18" y="48" width="13" height="12" rx="1.5"/>
    <rect x="18" y="66" width="13" height="12" rx="1.5"/>
    <rect x="69" y="48" width="13" height="12" rx="1.5"/>
    <rect x="69" y="66" width="13" height="12" rx="1.5"/>
  </g>
  <rect x="34" y="44" width="32" height="4" rx="2" fill="#b45309"/>
  <path d="M12 86 h76" stroke="#92400e" stroke-width="2.5"/>
</svg>
