<svg xmlns="http://www.w3.org/2000/svg" viewBox="0 0 100 100">
  <defs><linearGradient id="flc_bg" x1="0" y1="0" x2="0" y2="1"><stop offset="0" stop-color="#bae6fd"/><stop offset="1" stop-color="#e0f2fe"/></linearGradient></defs>
  <rect width="100" height="100" rx="16" fill="url(#flc_bg)"/>
  <ellipse cx="50" cy="89" rx="36" ry="4" fill="#0f172a" opacity=".08"/>
  <rect x="14" y="34" width="72" height="52" rx="3" fill="#fef3c7"/>
  <path d="M12 22 h76 v8 q0 6 -6.3 6 q-6.4 0 -6.4 -6 q0 6 -6.3 6 q-6.3 0 -6.3 -6 q0 6 -6.3 6 q-6.4 0 -6.4 -6 q0 6 -6.3 6 q-6.3 0 -6.3 -6 q0 6 -6.4 6 q-6.3 0 -6.3 -6 q0 6 -6.3 6 q-6.4 0 -6.4 -6 z" fill="#92400e"/>
  <path d="M12 22 h12.7 v8 q0 6 -6.4 6 q-6.3 0 -6.3 -6 z M37.4 22 h12.7 v8 q0 6 -6.4 6 q-6.3 0 -6.3 -6 z M62.7 22 h12.7 v8 q0 6 -6.3 6 q-6.4 0 -6.4 -6 z" fill="#d97706"/>
  <rect x="18" y="46" width="64" height="36" rx="3" fill="#b45309"/>
  <rect x="20" y="48" width="60" height="14" fill="#92400e"/>
  <g transform="rotate(-15 32 55)">
    <ellipse cx="32" cy="55" rx="11" ry="4.5" fill="#f59e0b"/>
    <path d="M25 53.5 l3 0 M30 53 l3 0 M35 53.5 l3 0" stroke="#92400e" stroke-width="1.4" stroke-linecap="round"/>
  </g>
  <g transform="rotate(12 62 56)">
    <ellipse cx="62" cy="56" rx="11" ry="4.5" fill="#d97706"/>
    <path d="M55 54.5 l3 0 M60 54 l3 0 M65 54.5 l3 0" stroke="#78350f" stroke-width="1.4" stroke-linecap="round"/>
  </g>
  <rect x="20" y="64" width="60" height="16" fill="#a16207"/>
  <path d="M26 72 q0 -6 6 -6 q6 0 6 6 q-3 3 -6 1 q-3 2 -6 -1" fill="#fbbf24"/>
  <circle cx="50" cy="71" r="5.5" fill="#f59e0b"/>
  <circle cx="50" cy="71" r="2" fill="#92400e"/>
  <path d="M62 68 q8 -3 12 2 q-2 5 -7 5 q-5 0 -5 -7" fill="#fde047"/>
</svg>
