<svg xmlns="http://www.w3.org/2000/svg" viewBox="0 0 100 100">
  <defs><linearGradient id="big_bg" x1="0" y1="0" x2="1" y2="1"><stop offset="0" stop-color="#fff7ed"/><stop offset="1" stop-color="#ffedd5"/></linearGradient></defs>
  <rect width="100" height="100" rx="16" fill="url(#big_bg)"/>
  <ellipse cx="50" cy="88" rx="24" ry="4" fill="#0f172a" opacity=".08"/>
  <circle cx="50" cy="48" r="26" fill="#fcd9b8"/>
  <path d="M24 43 q0 -23 26 -23 q26 0 26 23 q-10 -11 -26 -11 q-16 0 -26 11" fill="#44403c"/>
  <circle cx="42" cy="48" r="2.4" fill="#1e293b"/>
  <circle cx="58" cy="48" r="2.4" fill="#1e293b"/>
  <path d="M50 50 q-1.5 4 .5 5.5" stroke="#e7b08a" stroke-width="1.8" stroke-linecap="round" fill="none"/>
  <path d="M50 60 q-12 -4 -16 2 q-3 5 4 5 q8 0 12 -4 q4 4 12 4 q7 0 4 -5 q-4 -6 -16 -2" fill="#44403c"/>
  <path d="M46 70 q4 2.5 8 0" fill="none" stroke="#92400e" stroke-width="2" stroke-linecap="round"/>
</svg>
