<svg xmlns="http://www.w3.org/2000/svg" viewBox="0 0 100 100">
  <defs><linearGradient id="llu_bg" x1="0" y1="0" x2="1" y2="1"><stop offset="0" stop-color="#f0f9ff"/><stop offset="1" stop-color="#e0f2fe"/></linearGradient>
  <linearGradient id="llu_cos" x1="0" y1="0" x2="0" y2="1"><stop offset="0" stop-color="#cbd5e1"/><stop offset=".55" stop-color="#94a3b8"/><stop offset="1" stop-color="#475569"/></linearGradient></defs>
  <rect width="100" height="100" rx="16" fill="url(#llu_bg)"/>
  <ellipse cx="50" cy="78" rx="34" ry="4" fill="#0f172a" opacity=".08"/>
  <g transform="rotate(6 50 52)">
    <path d="M12 52 q14 -14 40 -14 q18 0 26 8 l8 -8 v28 l-8 -8 q-8 8 -26 8 q-26 0 -40 -14" fill="url(#llu_cos)"/>
    <path d="M14 50 q14 -11 38 -11 q16 0 24 6 q-30 4 -62 5" fill="#e2e8f0" opacity=".6"/>
    <circle cx="22" cy="50" r="3" fill="#1e293b"/>
    <circle cx="21" cy="49" r="1" fill="#fff"/>
    <path d="M12 56 q5 3 10 2" stroke="#334155" stroke-width="1.6" fill="none" stroke-linecap="round"/>
    <path d="M40 40 v22 M52 39 v24 M64 41 v20" stroke="#64748b" stroke-width="1.3" opacity=".5"/>
    <path d="M44 64 l4 5 l4 -5" fill="#64748b"/>
  </g>
  <circle cx="20" cy="22" r="2" fill="#bae6fd"/><circle cx="26" cy="15" r="1.5" fill="#bae6fd"/>
</svg>
