<svg xmlns="http://www.w3.org/2000/svg" viewBox="0 0 100 100">
  <defs><linearGradient id="net_bg" x1="0" y1="0" x2="1" y2="1"><stop offset="0" stop-color="#f0f9ff"/><stop offset="1" stop-color="#e0f2fe"/></linearGradient>
  <linearGradient id="net_cos" x1="0" y1="0" x2="0" y2="1"><stop offset="0" stop-color="#ffffff"/><stop offset="1" stop-color="#e0f2fe"/></linearGradient></defs>
  <rect width="100" height="100" rx="16" fill="url(#net_bg)"/>
  <ellipse cx="50" cy="86" rx="28" ry="4" fill="#0f172a" opacity=".08"/>
  <path d="M38 22 q12 -7 24 0 l13 8 q4 2 2 6 l-4 7 q-2 4 -6 2 l-3 -2 v37 h-28 V43 l-3 2 q-4 2 -6 -2 l-4 -7 q-2 -4 2 -6 z" fill="url(#net_cos)" stroke="#bae6fd" stroke-width="1"/>
  <path d="M40 23.5 q10 -5 20 0 q-3.5 4.5 -10 4.5 q-6.5 0 -10 -4.5" fill="#bae6fd"/>
  <path d="M36 50 l16 -20 M42 62 l20 -26" stroke="#ffffff" stroke-width="3" stroke-linecap="round" opacity=".9"/>
  <g stroke="#38bdf8" stroke-width="2.4" stroke-linecap="round">
    <path d="M22 16 v9 M17.5 20.5 h9"/>
    <path d="M80 52 v7 M76.5 55.5 h7"/>
    <path d="M70 14 v6 M67 17 h6"/>
  </g>
  <circle cx="28" cy="62" r="2" fill="#7dd3fc"/>
</svg>
