<svg xmlns="http://www.w3.org/2000/svg" viewBox="0 0 100 100">
  <defs><linearGradient id="ber_bg" x1="0" y1="0" x2="0" y2="1"><stop offset="0" stop-color="#fed7aa"/><stop offset="1" stop-color="#ffedd5"/></linearGradient></defs>
  <rect width="100" height="100" rx="16" fill="url(#ber_bg)"/>
  <circle cx="78" cy="22" r="9" fill="#fb923c"/>
  <circle cx="78" cy="22" r="12" fill="#fb923c" opacity=".3"/>
  <ellipse cx="46" cy="86" rx="32" ry="4" fill="#0f172a" opacity=".08"/>
  <g transform="rotate(-8 44 56)">
    <path d="M18 48 q0 -8 8 -8 h36 q8 0 8 8 l-2 6 q-24 8 -48 0 z" fill="#d97706"/>
    <path d="M18 48 q0 -8 8 -8 h18 l-4 12 q-12 2 -22 -4" fill="#f59e0b"/>
    <path d="M16 56 q28 10 56 0 l-1 5 q-27 9 -54 0 z" fill="#16a34a"/>
    <path d="M14 62 q30 10 60 0 q2 6 -4 8 h-52 q-6 -2 -4 -8" fill="#d97706"/>
    <path d="M14 62 q15 5 30 6 l-1 6 h-25 q-6 -2 -4 -8 q0 -2 0 -4" fill="#f59e0b" opacity=".7"/>
  </g>
  <g transform="rotate(12 74 60)">
    <path d="M68 44 l10 0 l-2 26 q0 4 -3 4 q-3 0 -3 -4 z" fill="#7f1d1d"/>
    <path d="M68 44 q-2 -10 5 -16 q7 6 5 16 z" fill="#451a03"/>
    <path d="M70 42 q-1 -8 3 -12" stroke="#92400e" stroke-width="1.4" fill="none"/>
  </g>
</svg>
