<svg xmlns="http://www.w3.org/2000/svg" viewBox="0 0 100 100">
  <defs><linearGradient id="pxt_bg" x1="0" y1="0" x2="0" y2="1"><stop offset="0" stop-color="#bae6fd"/><stop offset="1" stop-color="#e0f2fe"/></linearGradient></defs>
  <rect width="100" height="100" rx="16" fill="url(#pxt_bg)"/>
  <ellipse cx="50" cy="89" rx="36" ry="4" fill="#0f172a" opacity=".08"/>
  <rect x="14" y="34" width="72" height="52" rx="3" fill="#e0f2fe"/>
  <path d="M12 22 h76 v8 q0 6 -6.3 6 q-6.4 0 -6.4 -6 q0 6 -6.3 6 q-6.3 0 -6.3 -6 q0 6 -6.3 6 q-6.4 0 -6.4 -6 q0 6 -6.3 6 q-6.3 0 -6.3 -6 q0 6 -6.4 6 q-6.3 0 -6.3 -6 q0 6 -6.3 6 q-6.4 0 -6.4 -6 z" fill="#0369a1"/>
  <path d="M12 22 h12.7 v8 q0 6 -6.4 6 q-6.3 0 -6.3 -6 z M37.4 22 h12.7 v8 q0 6 -6.4 6 q-6.3 0 -6.3 -6 z M62.7 22 h12.7 v8 q0 6 -6.3 6 q-6.4 0 -6.4 -6 z" fill="#38bdf8"/>
  <path d="M18 50 h64 q4 0 4 4 v24 q0 4 -4 4 H18 q-4 0 -4 -4 V54 q0 -4 4 -4" fill="#f1f5f9"/>
  <path d="M16 56 q34 -8 68 0 v-2 q0 -4 -4 -4 H18 q-4 0 -4 4 z" fill="#cbd5e1" opacity="0"/>
  <ellipse cx="50" cy="66" rx="30" ry="11" fill="#e2e8f0"/>
  <ellipse cx="50" cy="64" rx="30" ry="11" fill="#f8fafc"/>
  <g>
    <ellipse cx="36" cy="62" rx="10" ry="4.5" fill="#60a5fa" transform="rotate(-8 36 62)"/>
    <polygon points="45,61 51,58 51,66" fill="#3b82f6" transform="rotate(-8 48 62)"/>
    <circle cx="30" cy="61" r="1.2" fill="#1e293b"/>
  </g>
  <g>
    <ellipse cx="60" cy="68" rx="10" ry="4.5" fill="#94a3b8" transform="rotate(6 60 68)"/>
    <polygon points="69,68 75,65 75,73" fill="#64748b" transform="rotate(6 72 69)"/>
    <circle cx="54" cy="67.5" r="1.2" fill="#1e293b"/>
  </g>
  <circle cx="24" cy="58" r="1.6" fill="#bae6fd"/><circle cx="74" cy="60" r="1.6" fill="#bae6fd"/><circle cx="68" cy="56" r="1.3" fill="#bae6fd"/>
</svg>
