<svg xmlns="http://www.w3.org/2000/svg" viewBox="0 0 100 100">
  <defs><linearGradient id="mul_bg" x1="0" y1="0" x2="1" y2="1"><stop offset="0" stop-color="#fdf2f8"/><stop offset="1" stop-color="#fce7f3"/></linearGradient></defs>
  <rect width="100" height="100" rx="16" fill="url(#mul_bg)"/>
  <ellipse cx="50" cy="90" rx="32" ry="3.5" fill="#0f172a" opacity=".08"/>
  <circle cx="32" cy="28" r="10" fill="#fcd9b8" opacity=".5"/>
  <path d="M22 26 q0 -9 10 -9 q10 0 10 9 q-4 -4.5 -10 -4.5 q-6 0 -10 4.5" fill="#44403c" opacity=".5"/>
  <path d="M19 64 q0 -25 13 -25 q13 0 13 25 z" fill="#1e293b" opacity=".5"/>
  <path d="M58 26 q0 -11 10 -11 q10 0 10 11 l1 12 q0 4.5 -4 4.5 h-14 q-4 0 -4 -4.5 z" fill="#713f12"/>
  <circle cx="68" cy="28" r="11" fill="#fcd9b8"/>
  <path d="M57 26 q0 -10 11 -10 q11 0 11 10 q-4.5 -5 -11 -5 q-6.5 0 -11 5" fill="#854d0e"/>
  <circle cx="64.5" cy="28" r="1.5" fill="#1e293b"/><circle cx="71.5" cy="28" r="1.5" fill="#1e293b"/>
  <path d="M65 33.5 q3 2 6 0" stroke="#92400e" stroke-width="1.4" stroke-linecap="round" fill="none"/>
  <path d="M60 14 q8 -5 16 0" stroke="#f8fafc" stroke-width="3" stroke-linecap="round" fill="none"/>
  <circle cx="77" cy="18" r="2.4" fill="#f8fafc"/>
  <path d="M54 68 q1 -29 14 -29 q13 0 14 29 q-14 5 -28 0" fill="#f8fafc" stroke="#e2e8f0" stroke-width="1.2"/>
  <path d="M58 50 q10 4 20 0" stroke="#e2e8f0" stroke-width="1.8" fill="none"/>
  <circle cx="68" cy="48" r="25" fill="none" stroke="#db2777" stroke-width="2.5" stroke-dasharray="6 4"/>
  <path d="M50 18 q3 -3.4 6.5 -1 q3 2.5 0 5.5 q-3 3 -6.5 5 q-3.5 -2 -6.5 -5 q-3 -3 0 -5.5 q3.5 -2.4 6.5 1" fill="#ef4444" transform="scale(.8) translate(13 4)"/>
</svg>
