<svg xmlns="http://www.w3.org/2000/svg" viewBox="0 0 100 100">
  <defs><linearGradient id="fr_bg" x1="0" y1="0" x2="1" y2="1"><stop offset="0" stop-color="#f0fdf4"/><stop offset="1" stop-color="#dcfce7"/></linearGradient></defs>
  <rect width="100" height="100" rx="16" fill="url(#fr_bg)"/>
  <ellipse cx="50" cy="88" rx="32" ry="4" fill="#0f172a" opacity=".08"/>
  <path d="M14 42 h44 v36 a4 4 0 0 1 -4 4 H18 a4 4 0 0 1 -4 -4 z" fill="#92400e"/>
  <path d="M14 42 q0 24 22 24 q22 0 22 -24 v36 a4 4 0 0 1 -4 4 H18 a4 4 0 0 1 -4 -4 z" fill="#b45309"/>
  <path d="M14 42 h44 v8 q-22 8 -44 0 z" fill="#78350f" opacity=".7"/>
  <circle cx="76" cy="68" r="12" fill="#ef4444"/>
  <circle cx="76" cy="68" r="12" fill="none" stroke="#b91c1c" stroke-width="1.5"/>
  <ellipse cx="71" cy="63" rx="4" ry="3" fill="#fca5a5" opacity=".8"/>
  <path d="M76 44 v-14 m-4 4 l4 -4 l4 4" stroke="#16a34a" stroke-width="3" stroke-linecap="round" stroke-linejoin="round" fill="none"/>
</svg>
