<svg xmlns="http://www.w3.org/2000/svg" viewBox="0 0 100 100">
  <defs><linearGradient id="pap_bg" x1="0" y1="0" x2="1" y2="1"><stop offset="0" stop-color="#eff6ff"/><stop offset="1" stop-color="#dbeafe"/></linearGradient></defs>
  <rect width="100" height="100" rx="16" fill="url(#pap_bg)"/>
  <ellipse cx="50" cy="90" rx="30" ry="3.5" fill="#0f172a" opacity=".08"/>
  <circle cx="42" cy="26" r="12" fill="#fcd9b8"/>
  <path d="M30 24 q0 -11 12 -11 q12 0 12 11 q-5 -5.5 -12 -5.5 q-7 0 -12 5.5" fill="#44403c"/>
  <path d="M38 28 q1.5 -2 3 0 M45 28 q1.5 -2 3 0" stroke="#1e293b" stroke-width="1.5" stroke-linecap="round" fill="none"/>
  <path d="M39 32.5 q3 2.4 6 0" stroke="#92400e" stroke-width="1.5" stroke-linecap="round" fill="none"/>
  <path d="M28 88 q-2 -30 14 -30 q16 0 14 30 z" fill="#2563eb"/>
  <path d="M28 88 q-2 -30 14 -30 q5 0 8 3.5 l-8 10 z" fill="#3b82f6"/>
  <path d="M52 62 q8 4 10 12" stroke="#fcd9b8" stroke-width="6" stroke-linecap="round" fill="none"/>
  <circle cx="68" cy="62" r="8" fill="#fcd9b8"/>
  <path d="M60 60.5 q0 -7.5 8 -7.5 q8 0 8 7.5 q-3.5 -3.7 -8 -3.7 q-4.5 0 -8 3.7" fill="#92400e"/>
  <circle cx="65.5" cy="62" r="1.1" fill="#1e293b"/><circle cx="70.5" cy="62" r="1.1" fill="#1e293b"/>
  <path d="M66 65.5 q2 1.5 4 0" stroke="#92400e" stroke-width="1.1" stroke-linecap="round" fill="none"/>
  <path d="M62 78 q6 -8 12 0 l-2 8 h-8 z" fill="#f97316"/>
  <path d="M80 38 q3 -3.4 6.5 -1 q3 2.5 0 5.5 q-3 3 -6.5 5 q-3.5 -2 -6.5 -5 q-3 -3 0 -5.5 q3.5 -2.4 6.5 1" fill="#ef4444"/>
</svg>
