<svg xmlns="http://www.w3.org/2000/svg" viewBox="0 0 100 100">
  <defs><linearGradient id="mrt_bg" x1="0" y1="0" x2="1" y2="1"><stop offset="0" stop-color="#f8fafc"/><stop offset="1" stop-color="#e2e8f0"/></linearGradient></defs>
  <rect width="100" height="100" rx="16" fill="url(#mrt_bg)"/>
  <ellipse cx="50" cy="90" rx="32" ry="3.5" fill="#0f172a" opacity=".08"/>
  <path d="M58 26 q0 -10 10 -10 q10 0 10 10 l.8 11 q0 4.5 -3.8 4.5 h-14 q-3.8 0 -3.8 -4.5 z" fill="#713f12" opacity=".5"/>
  <circle cx="68" cy="28" r="10" fill="#fcd9b8" opacity=".5"/>
  <path d="M58 26 q0 -9 10 -9 q10 0 10 9 q-4 -4.5 -10 -4.5 q-6 0 -10 4.5" fill="#854d0e" opacity=".5"/>
  <path d="M56 64 q1 -24 12 -24 q11 0 12 24 q-12 4 -24 0" fill="#f8fafc" opacity=".6" stroke="#cbd5e1" stroke-width="1"/>
  <circle cx="32" cy="28" r="11" fill="#fcd9b8"/>
  <path d="M21 26 q0 -10 11 -10 q11 0 11 10 q-4.5 -5 -11 -5 q-6.5 0 -11 5" fill="#44403c"/>
  <circle cx="28.5" cy="28" r="1.5" fill="#1e293b"/><circle cx="35.5" cy="28" r="1.5" fill="#1e293b"/>
  <path d="M29 33.5 q3 2 6 0" stroke="#92400e" stroke-width="1.4" stroke-linecap="round" fill="none"/>
  <path d="M18 66 q0 -27 14 -27 q14 0 14 27 z" fill="#1e293b"/>
  <polygon points="32,42 28.5,46 32,56 35.5,46" fill="#f8fafc"/>
  <polygon points="32,46 30,48 32,55 34,48" fill="#dc2626"/>
  <rect x="22" y="64" width="8" height="24" rx="3.5" fill="#0f172a"/>
  <rect x="34" y="64" width="8" height="24" rx="3.5" fill="#1e293b"/>
  <circle cx="32" cy="52" r="25" fill="none" stroke="#0d9488" stroke-width="2.5" stroke-dasharray="6 4"/>
  <path d="M47 74 q3 -3.4 6.5 -1 q3 2.5 0 5.5 q-3 3 -6.5 5 q-3.5 -2 -6.5 -5 q-3 -3 0 -5.5 q3.5 -2.4 6.5 1" fill="#ef4444" transform="translate(18 -56) scale(.8)"/>
</svg>
