<svg xmlns="http://www.w3.org/2000/svg" viewBox="0 0 100 100">
  <defs><linearGradient id="onc_bg" x1="0" y1="0" x2="1" y2="1"><stop offset="0" stop-color="#f0fdfa"/><stop offset="1" stop-color="#ccfbf1"/></linearGradient></defs>
  <rect width="100" height="100" rx="16" fill="url(#onc_bg)"/>
  <ellipse cx="50" cy="90" rx="26" ry="3.5" fill="#0f172a" opacity=".08"/>
  <circle cx="50" cy="26" r="12" fill="#fcd9b8"/>
  <path d="M38 24 q0 -11 12 -11 q12 0 12 11 q-5 -5.5 -12 -5.5 q-7 0 -12 5.5" fill="#1c1917"/>
  <path d="M44 31 q-2 4 1 6 q2 2 5 2 q3 0 5 -2 q3 -2 1 -6 q-3 3 -6 3 q-3 0 -6 -3" fill="#1c1917" opacity="0"/>
  <circle cx="46" cy="26" r="1.6" fill="#1e293b"/><circle cx="54" cy="26" r="1.6" fill="#1e293b"/>
  <path d="M46.5 32 q3.5 2.4 7 0" stroke="#92400e" stroke-width="1.5" stroke-linecap="round" fill="none"/>
  <path d="M44 20 q2 -2 5 -1 M52 19 q3 -1 5 1" stroke="#1c1917" stroke-width="1.8" stroke-linecap="round" fill="none"/>
  <path d="M34 68 q-2 -30 16 -30 q18 0 16 30 z" fill="#0d9488"/>
  <path d="M34 68 q-2 -30 16 -30 q5 0 9 3.5 l-9 10.5 z" fill="#14b8a6"/>
  <rect x="38" y="66" width="8" height="22" rx="3.5" fill="#334155"/>
  <rect x="50" y="66" width="8" height="22" rx="3.5" fill="#1e293b"/>
  <path d="M62 44 q8 -2 9 -12" stroke="#fcd9b8" stroke-width="5.5" stroke-linecap="round" fill="none"/>
  <ellipse cx="72" cy="28" rx="4.5" ry="5" fill="#fcd9b8"/>
  <path d="M30 46 q-7 4 -7 13" stroke="#fcd9b8" stroke-width="5.5" stroke-linecap="round" fill="none"/>
</svg>
