<svg xmlns="http://www.w3.org/2000/svg" viewBox="0 0 100 100">
  <defs><linearGradient id="pre_bg" x1="0" y1="0" x2="1" y2="1"><stop offset="0" stop-color="#fff7ed"/><stop offset="1" stop-color="#ffedd5"/></linearGradient></defs>
  <rect width="100" height="100" rx="16" fill="url(#pre_bg)"/>
  <ellipse cx="50" cy="88" rx="32" ry="4" fill="#0f172a" opacity=".08"/>
  <rect x="18" y="34" width="64" height="6" rx="2" fill="#92400e"/>
  <rect x="18" y="34" width="64" height="2.5" rx="1.2" fill="#b45309"/>
  <rect x="18" y="66" width="64" height="6" rx="2" fill="#92400e"/>
  <rect x="18" y="66" width="64" height="2.5" rx="1.2" fill="#b45309"/>
  <rect x="22" y="18" width="6" height="16" rx="1" fill="#ef4444"/>
  <rect x="30" y="20" width="6" height="14" rx="1" fill="#3b82f6"/>
  <rect x="38" y="17" width="6" height="17" rx="1" fill="#16a34a"/>
  <rect x="46" y="21" width="6" height="13" rx="1" fill="#fbbf24"/>
  <rect x="56" y="24" width="16" height="10" rx="2" fill="#0d9488"/>
  <circle cx="64" cy="29" r="3" fill="#5eead4"/>
  <rect x="24" y="50" width="6" height="16" rx="1" fill="#9333ea"/>
  <rect x="32" y="52" width="6" height="14" rx="1" fill="#f97316"/>
  <rect x="40" y="49" width="6" height="17" rx="1" fill="#0ea5e9"/>
  <path d="M58 58 q0 -7 7 -7 q7 0 7 7 v8 h-14 z" fill="#dc2626"/>
  <circle cx="65" cy="55" r="2" fill="#fca5a5"/>
</svg>
