<svg xmlns="http://www.w3.org/2000/svg" viewBox="0 0 100 100">
  <defs><linearGradient id="mes_bg" x1="0" y1="0" x2="1" y2="1"><stop offset="0" stop-color="#eef2ff"/><stop offset="1" stop-color="#e0e7ff"/></linearGradient></defs>
  <rect width="100" height="100" rx="16" fill="url(#mes_bg)"/>
  <ellipse cx="42" cy="90" rx="24" ry="3.5" fill="#0f172a" opacity=".08"/>
  <rect x="54" y="16" width="36" height="26" rx="3" fill="#b45309"/>
  <rect x="56.5" y="18.5" width="31" height="21" rx="1.5" fill="#166534"/>
  <path d="M62 26 h14 M62 33 h9" stroke="#f8fafc" stroke-width="2" stroke-linecap="round" opacity=".85"/>
  <circle cx="38" cy="28" r="11" fill="#fcd9b8"/>
  <path d="M27 26 q0 -10 11 -10 q11 0 11 10 q-4.5 -5 -11 -5 q-6.5 0 -11 5" fill="#7c2d12"/>
  <circle cx="34.5" cy="28" r="1.5" fill="#1e293b"/><circle cx="41.5" cy="28" r="1.5" fill="#1e293b"/>
  <path d="M35 33.5 q3 2 6 0" stroke="#92400e" stroke-width="1.4" stroke-linecap="round" fill="none"/>
  <path d="M24 90 q-2 -30 14 -30 q16 0 14 30 z" fill="#4f46e5"/>
  <path d="M24 90 q-2 -30 14 -30 q5 0 8 3.5 l-8 10 z" fill="#6366f1"/>
  <path d="M50 64 L62 48" stroke="#fcd9b8" stroke-width="5" stroke-linecap="round"/>
  <path d="M62 48 L70 38" stroke="#b45309" stroke-width="3" stroke-linecap="round"/>
  <path d="M26 64 q-6 5 -5 14" stroke="#fcd9b8" stroke-width="5" stroke-linecap="round" fill="none"/>
  <rect x="16" y="76" width="12" height="9" rx="2" fill="#dc2626"/>
  <path d="M18 76 v9 M22 76 v9" stroke="#7f1d1d" stroke-width="0"/>
</svg>
