<svg xmlns="http://www.w3.org/2000/svg" viewBox="0 0 100 100">
  <defs><linearGradient id="vdu_bg" x1="0" y1="0" x2="1" y2="1"><stop offset="0" stop-color="#f7fee7"/><stop offset="1" stop-color="#ecfccb"/></linearGradient></defs>
  <rect width="100" height="100" rx="16" fill="url(#vdu_bg)"/>
  <ellipse cx="50" cy="84" rx="32" ry="5" fill="#0f172a" opacity=".08"/>
  <path d="M44 28 q6 6 2 14 L28 80 q-5 7 -10 3 q-5 -4 0 -11 l22 -40 q2 -3 4 -4" fill="#f97316" transform="rotate(-4 36 56)"/>
  <path d="M46 26 q-3 -8 3 -14 q2 6 -1 12 q5 -6 12 -6 q-3 7 -10 8 q6 0 9 5 q-7 3 -12 -1 z" fill="#16a34a"/>
  <ellipse cx="62" cy="62" rx="16" ry="14" fill="#dc2626"/>
  <path d="M62 50 l-9 -5 q5 -1 7 1 l-3 -5 q4 1 5 5 q1 -4 5 -5 l-3 5 q2 -2 7 -1 z" fill="#16a34a"/>
  <ellipse cx="55" cy="58" rx="4" ry="5" fill="#fca5a5" opacity=".6"/>
  <path d="M74 34 q10 -4 14 4 q-2 8 -10 8 q-8 0 -8 -8 q1 -3 4 -4" fill="#84cc16"/>
  <path d="M76 38 q5 -2 9 1" stroke="#4d7c0f" stroke-width="1.4" fill="none"/>
</svg>
