<svg xmlns="http://www.w3.org/2000/svg" viewBox="0 0 100 100">
  <defs><linearGradient id="cnt_bg" x1="0" y1="0" x2="1" y2="1"><stop offset="0" stop-color="#fdf2f8"/><stop offset="1" stop-color="#fce7f3"/></linearGradient></defs>
  <rect width="100" height="100" rx="16" fill="url(#cnt_bg)"/>
  <ellipse cx="42" cy="88" rx="24" ry="4" fill="#0f172a" opacity=".08"/>
  <circle cx="42" cy="34" r="13" fill="#fcd9b8"/>
  <path d="M29 32 q0 -12 13 -12 q13 0 13 12 q-5 -6 -13 -6 q-8 0 -13 6" fill="#7c2d12"/>
  <circle cx="37.5" cy="33" r="1.8" fill="#1e293b"/>
  <circle cx="46.5" cy="33" r="1.8" fill="#1e293b"/>
  <ellipse cx="42" cy="41" rx="3.5" ry="4.5" fill="#7f1d1d"/>
  <ellipse cx="42" cy="42.5" rx="2" ry="2" fill="#fda4af"/>
  <path d="M28 88 q-2 -28 14 -28 q16 0 14 28 z" fill="#db2777"/>
  <path d="M28 88 q-2 -28 14 -28 q5 0 8 3.5 l-8 9.5 z" fill="#ec4899"/>
  <path d="M54 64 q8 -2 10 -10" stroke="#fcd9b8" stroke-width="6" stroke-linecap="round" fill="none"/>
  <rect x="60" y="44" width="5" height="12" rx="2.5" fill="#475569" transform="rotate(25 62 50)"/>
  <circle cx="60" cy="44" r="4.5" fill="#1e293b"/>
  <circle cx="58.5" cy="42.5" r="1.5" fill="#64748b"/>
  <g fill="#9333ea">
    <path d="M72 24 v12 q0 3 -3 3 q-3 0 -3 -3 q0 -3 3 -3 q2 0 3 1 v-10 l8 -2 v10 q0 3 -3 3 q-3 0 -3 -3 q0 -3 3 -3 q2 0 3 1" stroke="#9333ea" stroke-width="2" fill="none" stroke-linejoin="round"/>
    <circle cx="69" cy="36" r="3"/>
    <circle cx="77" cy="33" r="3"/>
  </g>
  <path d="M84 46 q4 4 0 9" stroke="#ec4899" stroke-width="2.5" stroke-linecap="round" fill="none"/>
</svg>
