<svg xmlns="http://www.w3.org/2000/svg" viewBox="0 0 100 100">
  <defs><linearGradient id="adv_bg" x1="0" y1="0" x2="1" y2="1"><stop offset="0" stop-color="#1e1b4b"/><stop offset="1" stop-color="#312e81"/></linearGradient>
  <linearGradient id="adv_llum" x1="0" y1="0" x2="1" y2="0"><stop offset="0" stop-color="#fde047" stop-opacity=".9"/><stop offset="1" stop-color="#fde047" stop-opacity=".15"/></linearGradient></defs>
  <rect width="100" height="100" rx="16" fill="url(#adv_bg)"/>
  <rect x="14" y="26" width="46" height="34" rx="2" fill="#f8fafc"/>
  <rect x="14" y="26" width="46" height="34" rx="2" fill="#e0f2fe" opacity=".7"/>
  <path d="M30 50 l8 -10 l6 7 l5 -6 l8 9 z" fill="#38bdf8"/>
  <circle cx="34" cy="36" r="3.5" fill="#fbbf24"/>
  <rect x="12" y="24" width="50" height="3" rx="1.5" fill="#475569"/>
  <polygon points="86,38 60,44 60,50 86,56" fill="url(#adv_llum)"/>
  <rect x="78" y="40" width="14" height="14" rx="3" fill="#334155"/>
  <circle cx="85" cy="47" r="4.5" fill="#0ea5e9"/>
  <circle cx="83.5" cy="45.5" r="1.5" fill="#bae6fd"/>
  <rect x="80" y="54" width="10" height="3" rx="1.5" fill="#1e293b"/>
  <ellipse cx="30" cy="78" rx="9" ry="5" fill="#475569"/>
  <rect x="26" y="70" width="8" height="6" rx="2" fill="#64748b"/>
  <ellipse cx="56" cy="80" rx="9" ry="5" fill="#475569"/>
  <rect x="52" y="72" width="8" height="6" rx="2" fill="#64748b"/>
</svg>
