<svg xmlns="http://www.w3.org/2000/svg" viewBox="0 0 100 100">
  <defs><linearGradient id="drr_bg" x1="0" y1="0" x2="1" y2="1"><stop offset="0" stop-color="#f0fdf4"/><stop offset="1" stop-color="#dcfce7"/></linearGradient>
  <linearGradient id="drr_caixa" x1="0" y1="0" x2="0" y2="1"><stop offset="0" stop-color="#d97706"/><stop offset="1" stop-color="#92400e"/></linearGradient></defs>
  <rect width="100" height="100" rx="16" fill="url(#drr_bg)"/>
  <ellipse cx="50" cy="88" rx="32" ry="4" fill="#0f172a" opacity=".08"/>
  <path d="M66 44 a13 13 0 0 1 0 26" fill="#b91c1c"/>
  <circle cx="66" cy="57" r="13" fill="#ef4444" opacity="0"/>
  <path d="M66 44 a13 13 0 0 0 0 26 z" fill="#ef4444" opacity="0"/>
  <polygon points="26,30 66,30 72,38 20,38" fill="#b45309"/>
  <rect x="20" y="38" width="52" height="28" rx="3" fill="url(#drr_caixa)"/>
  <rect x="20" y="38" width="52" height="9" fill="#f59e0b" opacity=".4"/>
  <path d="M72 38 l6 6 v22 l-6 -4 z" fill="#78350f" opacity="0"/>
  <path d="M28 80 h14 m-4 -4 l4 4 l-4 4" stroke="#16a34a" stroke-width="3" stroke-linecap="round" stroke-linejoin="round" fill="none" transform="rotate(180 35 80)"/>
</svg>
