<svg xmlns="http://www.w3.org/2000/svg" viewBox="0 0 100 100">
  <defs><linearGradient id="gim_bg" x1="0" y1="0" x2="1" y2="1"><stop offset="0" stop-color="#fff7ed"/><stop offset="1" stop-color="#fed7aa"/></linearGradient>
  <linearGradient id="gim_pes" x1="0" y1="0" x2="0" y2="1"><stop offset="0" stop-color="#64748b"/><stop offset="1" stop-color="#334155"/></linearGradient></defs>
  <rect width="100" height="100" rx="16" fill="url(#gim_bg)"/>
  <ellipse cx="50" cy="80" rx="34" ry="5" fill="#0f172a" opacity=".08"/>
  <rect x="14" y="50" width="44" height="6" rx="3" fill="#94a3b8"/>
  <rect x="14" y="50" width="44" height="2.5" rx="1.2" fill="#cbd5e1"/>
  <rect x="10" y="38" width="9" height="30" rx="3.5" fill="url(#gim_pes)"/>
  <rect x="21" y="42" width="7" height="22" rx="3" fill="#475569"/>
  <rect x="53" y="38" width="9" height="30" rx="3.5" fill="url(#gim_pes)"/>
  <rect x="44" y="42" width="7" height="22" rx="3" fill="#475569"/>
  <circle cx="76" cy="32" r="11" fill="#f97316"/>
  <circle cx="76" cy="32" r="11" fill="none" stroke="#c2410c" stroke-width="1.6"/>
  <path d="M65 32 a11 11 0 0 1 22 0 M76 21 a11 11 0 0 1 0 22" fill="none" stroke="#c2410c" stroke-width="1.4"/>
  <path d="M76 21 q-4 11 0 22 M76 21 q4 11 0 22" fill="none" stroke="#c2410c" stroke-width="1.4"/>
  <circle cx="73" cy="29" r="3" fill="#fdba74" opacity=".7"/>
  <path d="M64 66 q12 -8 24 0 l-2 6 q-10 -6 -20 0 z" fill="#16a34a"/>
  <rect x="70" y="70" width="12" height="8" rx="2" fill="#15803d"/>
</svg>
