<svg xmlns="http://www.w3.org/2000/svg" viewBox="0 0 100 100">
  <defs><linearGradient id="aul_bg" x1="0" y1="0" x2="1" y2="1"><stop offset="0" stop-color="#eef2ff"/><stop offset="1" stop-color="#e0e7ff"/></linearGradient></defs>
  <rect width="100" height="100" rx="16" fill="url(#aul_bg)"/>
  <rect x="14" y="18" width="44" height="28" rx="3" fill="#b45309"/>
  <rect x="16" y="20" width="40" height="24" rx="2" fill="#166534"/>
  <path d="M22 28 h18 M22 35 h12" stroke="#f8fafc" stroke-width="2" stroke-linecap="round" opacity=".8"/>
  <rect x="64" y="14" width="22" height="40" rx="2" fill="#92400e"/>
  <rect x="66" y="16" width="18" height="36" rx="1" fill="#b45309"/>
  <circle cx="81" cy="34" r="1.8" fill="#fbbf24"/>
  <ellipse cx="50" cy="88" rx="36" ry="4" fill="#0f172a" opacity=".08"/>
  <g>
    <polygon points="20,60 48,60 52,84 16,84" fill="#d97706"/>
    <polygon points="20,60 48,60 49,64 19,64" fill="#f59e0b"/>
    <rect x="18" y="84" width="4" height="2" fill="#92400e"/>
  </g>
  <g>
    <polygon points="56,60 84,60 88,84 52,84" fill="#d97706"/>
    <polygon points="56,60 84,60 85,64 55,64" fill="#f59e0b"/>
  </g>
  <rect x="28" y="52" width="14" height="10" rx="3" fill="#ef4444"/>
  <rect x="62" y="52" width="14" height="10" rx="3" fill="#3b82f6"/>
</svg>
