<svg xmlns="http://www.w3.org/2000/svg" viewBox="0 0 100 100">
  <defs><linearGradient id="inf_bg" x1="0" y1="0" x2="1" y2="1"><stop offset="0" stop-color="#eff6ff"/><stop offset="1" stop-color="#dbeafe"/></linearGradient>
  <linearGradient id="inf_scr" x1="0" y1="0" x2="1" y2="1"><stop offset="0" stop-color="#1d4ed8"/><stop offset="1" stop-color="#1e3a8a"/></linearGradient></defs>
  <rect width="100" height="100" rx="16" fill="url(#inf_bg)"/>
  <ellipse cx="50" cy="88" rx="36" ry="4" fill="#0f172a" opacity=".08"/>
  <rect x="16" y="20" width="32" height="24" rx="3" fill="#475569"/>
  <rect x="18.5" y="22.5" width="27" height="19" rx="1.5" fill="url(#inf_scr)"/>
  <rect x="22" y="26" width="12" height="3" rx="1.5" fill="#93c5fd"/>
  <rect x="22" y="32" width="18" height="2.5" rx="1.2" fill="#60a5fa" opacity=".7"/>
  <rect x="28" y="44" width="8" height="5" fill="#64748b"/>
  <rect x="22" y="49" width="20" height="3" rx="1.5" fill="#94a3b8"/>
  <rect x="52" y="20" width="32" height="24" rx="3" fill="#475569"/>
  <rect x="54.5" y="22.5" width="27" height="19" rx="1.5" fill="url(#inf_scr)"/>
  <rect x="58" y="26" width="14" height="3" rx="1.5" fill="#93c5fd"/>
  <rect x="58" y="32" width="10" height="2.5" rx="1.2" fill="#60a5fa" opacity=".7"/>
  <rect x="64" y="44" width="8" height="5" fill="#64748b"/>
  <rect x="58" y="49" width="20" height="3" rx="1.5" fill="#94a3b8"/>
  <rect x="20" y="62" width="28" height="10" rx="3" fill="#e2e8f0"/>
  <g fill="#94a3b8"><rect x="23" y="65" width="3" height="2" rx=".5"/><rect x="28" y="65" width="3" height="2" rx=".5"/><rect x="33" y="65" width="3" height="2" rx=".5"/><rect x="38" y="65" width="3" height="2" rx=".5"/><rect x="26" y="68.5" width="14" height="2" rx=".5"/></g>
  <ellipse cx="66" cy="68" rx="7" ry="9" fill="#e2e8f0" transform="rotate(-15 66 68)"/>
  <ellipse cx="64.5" cy="65" rx="4" ry="5" fill="#cbd5e1" transform="rotate(-15 64.5 65)"/>
</svg>
