<svg xmlns="http://www.w3.org/2000/svg" viewBox="0 0 100 100">
  <defs><linearGradient id="noi_bg" x1="0" y1="0" x2="1" y2="1"><stop offset="0" stop-color="#eff6ff"/><stop offset="1" stop-color="#dbeafe"/></linearGradient></defs>
  <rect width="100" height="100" rx="16" fill="url(#noi_bg)"/>
  <ellipse cx="50" cy="90" rx="22" ry="4" fill="#0f172a" opacity=".08"/>
  <circle cx="50" cy="26" r="12" fill="#fcd9b8"/>
  <path d="M38 24 q0 -11 12 -11 q12 0 12 11 q-5 -5.5 -12 -5.5 q-7 0 -12 5.5" fill="#57534e"/>
  <circle cx="45.5" cy="26" r="1.7" fill="#1e293b"/>
  <circle cx="54.5" cy="26" r="1.7" fill="#1e293b"/>
  <path d="M46.5 32.5 q3.5 2.8 7 0" fill="none" stroke="#92400e" stroke-width="1.6" stroke-linecap="round"/>
  <path d="M36 64 q-2 -25 14 -25 q16 0 14 25 z" fill="#2563eb"/>
  <path d="M36 64 q-2 -25 14 -25 q5 0 8 3.5 l-8 9.5 z" fill="#3b82f6"/>
  <path d="M38 46 q-7 5 -6 15" stroke="#fcd9b8" stroke-width="5.5" stroke-linecap="round" fill="none"/>
  <path d="M62 46 q7 5 6 15" stroke="#fcd9b8" stroke-width="5.5" stroke-linecap="round" fill="none"/>
  <rect x="40" y="62" width="9" height="22" rx="4" fill="#1e3a8a"/>
  <rect x="51" y="62" width="9" height="22" rx="4" fill="#1e40af"/>
  <ellipse cx="44" cy="86" rx="6" ry="3.5" fill="#374151"/>
  <ellipse cx="56" cy="86" rx="6" ry="3.5" fill="#374151"/>
</svg>
