<svg xmlns="http://www.w3.org/2000/svg" viewBox="0 0 100 100">
  <defs><linearGradient id="srt_bg" x1="0" y1="0" x2="1" y2="1"><stop offset="0" stop-color="#fff7ed"/><stop offset="1" stop-color="#ffedd5"/></linearGradient></defs>
  <rect width="100" height="100" rx="16" fill="url(#srt_bg)"/>
  <ellipse cx="50" cy="89" rx="32" ry="4" fill="#0f172a" opacity=".08"/>
  <rect x="12" y="14" width="32" height="74" rx="3" fill="#92400e"/>
  <rect x="16" y="18" width="24" height="70" fill="#1e293b" opacity=".25"/>
  <rect x="30" y="18" width="10" height="70" fill="#b45309"/>
  <circle cx="33" cy="52" r="1.6" fill="#fbbf24"/>
  <circle cx="60" cy="30" r="10" fill="#fcd9b8"/>
  <path d="M50 28 q0 -9 10 -9 q10 0 10 9 q-4 -4.5 -10 -4.5 q-6 0 -10 4.5" fill="#57534e"/>
  <circle cx="57" cy="30" r="1.4" fill="#1e293b"/>
  <circle cx="63.5" cy="30" r="1.4" fill="#1e293b"/>
  <path d="M58 35.5 q2.5 2 5 0" fill="none" stroke="#92400e" stroke-width="1.4" stroke-linecap="round"/>
  <path d="M52 64 q-2 -22 8 -23 q10 -1 12 21 l-6 1 q-1 -14 -5 -14 q-4 0 -3 14 z" fill="#ea580c"/>
  <path d="M56 62 l-2 24 h6 l3 -18 l5 17 h6 l-5 -25 z" fill="#1e40af"/>
  <path d="M70 46 q8 1 10 8" stroke="#fcd9b8" stroke-width="5" stroke-linecap="round" fill="none"/>
  <path d="M76 64 h14 m-4.5 -4.5 l4.5 4.5 l-4.5 4.5" stroke="#ea580c" stroke-width="3" stroke-linecap="round" stroke-linejoin="round" fill="none"/>
</svg>
