<svg xmlns="http://www.w3.org/2000/svg" viewBox="0 0 100 100">
  <defs><linearGradient id="alm_bg" x1="0" y1="0" x2="1" y2="1"><stop offset="0" stop-color="#fefce8"/><stop offset="1" stop-color="#fef3c7"/></linearGradient></defs>
  <rect width="100" height="100" rx="16" fill="url(#alm_bg)"/>
  <ellipse cx="50" cy="90" rx="32" ry="4" fill="#0f172a" opacity=".08"/>
  <polygon points="24,62 76,62 80,70 20,70" fill="#d97706"/>
  <polygon points="24,62 76,62 77.5,64.5 22.5,64.5" fill="#f59e0b"/>
  <rect x="24" y="70" width="5" height="18" fill="#92400e"/>
  <rect x="71" y="70" width="5" height="18" fill="#78350f"/>
  <circle cx="50" cy="30" r="11" fill="#fcd9b8"/>
  <path d="M39 28 q0 -10 11 -10 q11 0 11 10 q-4 -5 -11 -5 q-7 0 -11 5" fill="#92400e"/>
  <circle cx="46" cy="30" r="1.6" fill="#1e293b"/>
  <circle cx="54" cy="30" r="1.6" fill="#1e293b"/>
  <path d="M47 36 q3 2.5 6 0" fill="none" stroke="#92400e" stroke-width="1.5" stroke-linecap="round"/>
  <path d="M38 62 q-1 -18 12 -18 q13 0 12 18 z" fill="#16a34a"/>
  <path d="M38 62 q-1 -18 12 -18 q4 0 7 3 l-7 8 z" fill="#22c55e"/>
  <path d="M40 50 q-7 4 -6 12" stroke="#fcd9b8" stroke-width="5.5" stroke-linecap="round" fill="none"/>
  <path d="M60 50 q7 4 6 12" stroke="#fcd9b8" stroke-width="5.5" stroke-linecap="round" fill="none"/>
  <rect x="38" y="56" width="24" height="5" rx="2" fill="#f8fafc"/>
  <rect x="40" y="57.2" width="20" height="1.4" fill="#cbd5e1"/>
  <g transform="rotate(20 67 56)"><rect x="64" y="50" width="3.5" height="12" rx="1.5" fill="#fbbf24"/><polygon points="64,62 67.5,62 65.8,66" fill="#92400e"/></g>
</svg>
