<svg xmlns="http://www.w3.org/2000/svg" viewBox="0 0 100 100">
  <defs><linearGradient id="noa_bg" x1="0" y1="0" x2="1" y2="1"><stop offset="0" stop-color="#fdf2f8"/><stop offset="1" stop-color="#fce7f3"/></linearGradient></defs>
  <rect width="100" height="100" rx="16" fill="url(#noa_bg)"/>
  <ellipse cx="50" cy="90" rx="22" ry="4" fill="#0f172a" opacity=".08"/>
  <path d="M37 24 q0 -12 13 -12 q13 0 13 12 l1 16 q0 6 -5 6 l-18 0 q-5 0 -5 -6 z" fill="#713f12"/>
  <circle cx="50" cy="26" r="12" fill="#fcd9b8"/>
  <path d="M38 24 q0 -11 12 -11 q12 0 12 11 q-5 -5.5 -12 -5.5 q-7 0 -12 5.5" fill="#854d0e"/>
  <path d="M38 24 q-2 8 0 16 l4 -1 q-1.5 -8 -1 -13 z" fill="#854d0e"/>
  <path d="M62 24 q2 8 0 16 l-4 -1 q1.5 -8 1 -13 z" fill="#854d0e"/>
  <circle cx="45.5" cy="26" r="1.7" fill="#1e293b"/>
  <circle cx="54.5" cy="26" r="1.7" fill="#1e293b"/>
  <path d="M46.5 32.5 q3.5 2.8 7 0" fill="none" stroke="#92400e" stroke-width="1.6" stroke-linecap="round"/>
  <circle cx="61" cy="15" r="3" fill="#ec4899"/>
  <path d="M34 68 q1 -29 16 -29 q15 0 16 29 q-16 5 -32 0" fill="#db2777"/>
  <path d="M34 68 q1 -29 16 -29 q5 0 8 4 l-8 10 z" fill="#ec4899"/>
  <path d="M37 47 q-7 5 -6 14" stroke="#fcd9b8" stroke-width="5.5" stroke-linecap="round" fill="none"/>
  <path d="M63 47 q7 5 6 14" stroke="#fcd9b8" stroke-width="5.5" stroke-linecap="round" fill="none"/>
  <rect x="42" y="68" width="6" height="16" rx="3" fill="#fcd9b8"/>
  <rect x="52" y="68" width="6" height="16" rx="3" fill="#fcd9b8"/>
  <ellipse cx="45" cy="86" rx="5.5" ry="3.2" fill="#be185d"/>
  <ellipse cx="55" cy="86" rx="5.5" ry="3.2" fill="#be185d"/>
</svg>
