<svg xmlns="http://www.w3.org/2000/svg" viewBox="0 0 100 100">
  <defs><linearGradient id="dm_bg" x1="0" y1="0" x2="1" y2="1"><stop offset="0" stop-color="#eef2ff"/><stop offset="1" stop-color="#e0e7ff"/></linearGradient></defs>
  <rect width="100" height="100" rx="16" fill="url(#dm_bg)"/>
  <ellipse cx="50" cy="88" rx="30" ry="4" fill="#0f172a" opacity=".08"/>
  <rect x="18" y="20" width="64" height="60" rx="6" fill="#f8fafc"/>
  <rect x="18" y="20" width="64" height="14" rx="6" fill="#ef4444"/>
  <rect x="18" y="28" width="64" height="6" fill="#ef4444"/>
  <rect x="28" y="14" width="4" height="10" rx="2" fill="#64748b"/>
  <rect x="68" y="14" width="4" height="10" rx="2" fill="#64748b"/>
  <g transform="translate(22 40)">
    <rect x="0" y="0" width="6.5" height="12" rx="2" fill="#e2e8f0"/>
    <rect x="8.3" y="0" width="6.5" height="12" rx="2" fill="#6366f1"/>
    <rect x="16.6" y="0" width="6.5" height="12" rx="2" fill="#e2e8f0"/>
    <rect x="24.9" y="0" width="6.5" height="12" rx="2" fill="#e2e8f0"/>
    <rect x="33.2" y="0" width="6.5" height="12" rx="2" fill="#e2e8f0"/>
    <rect x="41.5" y="0" width="6.5" height="12" rx="2" fill="#fecaca"/>
    <rect x="49.8" y="0" width="6.5" height="12" rx="2" fill="#fecaca"/>
  </g>
  <circle cx="50" cy="66" r="9" fill="#6366f1"/>
  <text x="50" y="71" font-family="Arial,sans-serif" font-size="13" font-weight="700" fill="#ffffff" text-anchor="middle">2</text>
</svg>
