<svg xmlns="http://www.w3.org/2000/svg" viewBox="0 0 100 100">
  <defs><linearGradient id="ore_bg" x1="0" y1="0" x2="1" y2="1"><stop offset="0" stop-color="#fff7ed"/><stop offset="1" stop-color="#ffedd5"/></linearGradient></defs>
  <rect width="100" height="100" rx="16" fill="url(#ore_bg)"/>
  <ellipse cx="50" cy="86" rx="20" ry="4" fill="#0f172a" opacity=".08"/>
  <path d="M36 38 q-2 -22 16 -22 q20 0 18 24 q-1 14 -10 22 q-7 7 -8 14 q-1 8 -9 7 q-9 -1 -8 -10 l7 -2 q0 5 2 4 q2 0 2 -3 q1 -10 9 -17 q8 -8 8 -16 q1 -16 -11 -16 q-11 0 -10 14 z" fill="#fcd9b8"/>
  <path d="M44 40 q-2 -16 9 -15 q10 1 8 15 q-1 9 -7 14 l-4 -4 q5 -4 5 -10 q1 -8 -3 -8 q-4 0 -3 8 z" fill="#f0b990"/>
  <path d="M48 44 q0 -10 5 -9" stroke="#d99c6b" stroke-width="2" stroke-linecap="round" fill="none"/>
  <path d="M20 30 q-5 7 0 16 M14 24 q-9 12 0 28" stroke="#f59e0b" stroke-width="2.8" stroke-linecap="round" fill="none" opacity=".8"/>
</svg>
