<svg xmlns="http://www.w3.org/2000/svg" viewBox="0 0 100 100">
  <defs><linearGradient id="ego_bg" x1="0" y1="0" x2="1" y2="1"><stop offset="0" stop-color="#f8fafc"/><stop offset="1" stop-color="#e2e8f0"/></linearGradient></defs>
  <rect width="100" height="100" rx="16" fill="url(#ego_bg)"/>
  <ellipse cx="50" cy="88" rx="28" ry="4" fill="#0f172a" opacity=".08"/>
  <circle cx="40" cy="30" r="12" fill="#fcd9b8"/>
  <path d="M28 28 q0 -11 12 -11 q12 0 12 11 q-5 -5.5 -12 -5.5 q-7 0 -12 5.5" fill="#57534e"/>
  <circle cx="36.5" cy="30" r="1.6" fill="#1e293b"/><circle cx="44.5" cy="30" r="1.6" fill="#1e293b"/>
  <path d="M35 28 l4 -2 M46 26 l-4 2" stroke="#44403c" stroke-width="1.6" stroke-linecap="round"/>
  <path d="M37 37 q3 -1.5 6 0" stroke="#92400e" stroke-width="1.5" stroke-linecap="round" fill="none"/>
  <path d="M26 88 q-2 -28 14 -28 q16 0 14 28 z" fill="#7c3aed"/>
  <path d="M26 88 q-2 -28 14 -28 q5 0 8 3.5 l-8 9.5 z" fill="#8b5cf6"/>
  <path d="M50 62 q10 2 12 10" stroke="#fcd9b8" stroke-width="6" stroke-linecap="round" fill="none"/>
  <path d="M28 64 q-8 4 -6 12" stroke="#fcd9b8" stroke-width="6" stroke-linecap="round" fill="none"/>
  <circle cx="70" cy="76" r="9" fill="#fbbf24"/>
  <circle cx="70" cy="76" r="9" fill="none" stroke="#d97706" stroke-width="1.6"/>
  <circle cx="67" cy="73" r="3" fill="#fde68a" opacity=".8"/>
  <path d="M84 60 q6 8 0 16" stroke="#94a3b8" stroke-width="2.2" stroke-linecap="round" fill="none"/>
  <path d="M88 54 q10 12 0 26" stroke="#cbd5e1" stroke-width="2.2" stroke-linecap="round" fill="none"/>
</svg>
