<svg xmlns="http://www.w3.org/2000/svg" viewBox="0 0 100 100">
  <defs><linearGradient id="cll_bg" x1="0" y1="0" x2="1" y2="1"><stop offset="0" stop-color="#fff7ed"/><stop offset="1" stop-color="#ffedd5"/></linearGradient></defs>
  <rect width="100" height="100" rx="16" fill="url(#cll_bg)"/>
  <ellipse cx="50" cy="90" rx="26" ry="4" fill="#0f172a" opacity=".08"/>
  <circle cx="50" cy="26" r="14" fill="#fcd9b8"/>
  <path d="M36 24 q0 -13 14 -13 q14 0 14 13 q-5.5 -6.5 -14 -6.5 q-8.5 0 -14 6.5" fill="#57534e"/>
  <circle cx="45.5" cy="26" r="1.8" fill="#1e293b"/><circle cx="54.5" cy="26" r="1.8" fill="#1e293b"/>
  <path d="M46.5 32.5 q3.5 2.4 7 0" fill="none" stroke="#92400e" stroke-width="1.6" stroke-linecap="round"/>
  <path d="M44 38 h12 q1 8 4 12 h-20 q3 -4 4 -12" fill="#fcd9b8"/>
  <path d="M44 38 h12 v3 q-6 2 -12 0 z" fill="#f0b990"/>
  <path d="M28 88 q-4 -40 22 -40 q26 0 22 40 z" fill="#0d9488"/>
  <path d="M28 88 q-4 -40 22 -40 q8 0 13 4.5 l-13 13 z" fill="#14b8a6"/>
  <ellipse cx="50" cy="44" rx="14" ry="9" fill="none" stroke="#ef4444" stroke-width="2.5" stroke-dasharray="5 3"/>
  <path d="M80 20 l-18 20" stroke="#ef4444" stroke-width="2.8" stroke-linecap="round"/>
  <circle cx="82" cy="17" r="3.2" fill="#ef4444"/>
</svg>
