<svg xmlns="http://www.w3.org/2000/svg" viewBox="0 0 100 100">
  <defs><linearGradient id="cam_bg" x1="0" y1="0" x2="1" y2="1"><stop offset="0" stop-color="#f0fdf4"/><stop offset="1" stop-color="#dcfce7"/></linearGradient></defs>
  <rect width="100" height="100" rx="16" fill="url(#cam_bg)"/>
  <ellipse cx="50" cy="92" rx="26" ry="3.5" fill="#0f172a" opacity=".08"/>
  <circle cx="50" cy="16" r="8" fill="#fcd9b8"/>
  <path d="M42 14.5 q0 -7.5 8 -7.5 q8 0 8 7.5 q-3.5 -3.7 -8 -3.7 q-4.5 0 -8 3.7" fill="#57534e"/>
  <path d="M40 42 q-2 -20 10 -20 q12 0 10 20 z" fill="#f97316"/>
  <rect x="40" y="40" width="9" height="34" rx="4" fill="#fcd9b8"/>
  <rect x="51" y="40" width="9" height="34" rx="4" fill="#fcd9b8"/>
  <ellipse cx="43" cy="78" rx="6.5" ry="4" fill="#374151"/>
  <ellipse cx="57" cy="78" rx="6.5" ry="4" fill="#374151"/>
  <ellipse cx="55.5" cy="57" rx="9" ry="24" fill="none" stroke="#ef4444" stroke-width="2.5" stroke-dasharray="5 3"/>
  <path d="M80 30 l-18 22" stroke="#ef4444" stroke-width="2.8" stroke-linecap="round"/>
  <circle cx="82" cy="27" r="3.2" fill="#ef4444"/>
</svg>
