<svg xmlns="http://www.w3.org/2000/svg" viewBox="0 0 100 100">
  <defs><linearGradient id="cry_bg" x1="0" y1="0" x2="1" y2="1"><stop offset="0" stop-color="#fdf2f8"/><stop offset="1" stop-color="#fce7f3"/></linearGradient></defs>
  <rect width="100" height="100" rx="16" fill="url(#cry_bg)"/>
  <ellipse cx="50" cy="86" rx="26" ry="4" fill="#0f172a" opacity=".08"/>
  <circle cx="50" cy="50" r="30" fill="#fcd9b8"/>
  <path d="M20 45 q0 -26 30 -26 q30 0 30 26 q-12 -12 -30 -12 q-18 0 -30 12" fill="#7c2d12"/>
  <path d="M34 48 q3 -7 7.5 -3.5 q4.5 3.5 0 8 q-4 4 -7.5 -1 q-1.5 -2 0 -3.5" fill="#dc2626" transform="rotate(-6 38 50)"/>
  <path d="M66 48 q-3 -7 -7.5 -3.5 q-4.5 3.5 0 8 q4 4 7.5 -1 q1.5 -2 0 -3.5" fill="#dc2626" transform="rotate(6 62 50)"/>
  <path d="M42 66 q8 7 16 0" fill="none" stroke="#92400e" stroke-width="2.8" stroke-linecap="round"/>
  <circle cx="30" cy="60" r="4.5" fill="#f9a8d4" opacity=".7"/>
  <circle cx="70" cy="60" r="4.5" fill="#f9a8d4" opacity=".7"/>
  <path d="M80 18 q-2.5 -5 -7 -2.5 q-4 2.5 -.5 6.5 q3 3.5 7.5 5.5 q4.5 -2 7.5 -5.5 q3.5 -4 -.5 -6.5 q-4.5 -2.5 -7 2.5" fill="#ef4444"/>
  <path d="M18 26 q-1.7 -3.4 -4.8 -1.7 q-2.7 1.7 -.3 4.4 q2 2.4 5.1 3.7 q3.1 -1.3 5.1 -3.7 q2.4 -2.7 -.3 -4.4 q-3.1 -1.7 -4.8 1.7" fill="#f472b6"/>
</svg>
