<svg xmlns="http://www.w3.org/2000/svg" viewBox="0 0 100 100">
  <defs><linearGradient id="vll_bg" x1="0" y1="0" x2="1" y2="1"><stop offset="0" stop-color="#f8fafc"/><stop offset="1" stop-color="#e2e8f0"/></linearGradient></defs>
  <rect width="100" height="100" rx="16" fill="url(#vll_bg)"/>
  <ellipse cx="50" cy="86" rx="24" ry="4" fill="#0f172a" opacity=".08"/>
  <path d="M30 82 q-2 -16 20 -16 q22 0 20 16 z" fill="#64748b"/>
  <circle cx="50" cy="42" r="17" fill="#fcd9b8"/>
  <path d="M33 38 q0 -15 17 -15 q17 0 17 15 q-3 -4 -7 -5.5 q1 3 -2 3 q-8 -4 -15 -2 q-6 1 -10 4.5" fill="#e2e8f0"/>
  <path d="M33 38 q-1 6 1 10 M67 38 q1 6 -1 10" stroke="#e2e8f0" stroke-width="3" stroke-linecap="round"/>
  <circle cx="44" cy="42" r="2" fill="#1e293b"/>
  <circle cx="56" cy="42" r="2" fill="#1e293b"/>
  <path d="M40 38.5 q4 -2 8 0 M52 38.5 q4 -2 8 0" stroke="#cbd5e1" stroke-width="2.2" stroke-linecap="round" fill="none"/>
  <path d="M40 46 q-2 2 -1.5 4 M60 46 q2 2 1.5 4 M37 51 q-1.5 1.5 -1 3 M63 51 q1.5 1.5 1 3" stroke="#d9b48f" stroke-width="1.3" stroke-linecap="round" fill="none"/>
  <path d="M44 52 q6 4 12 0" fill="none" stroke="#92400e" stroke-width="2" stroke-linecap="round"/>
  <path d="M42 56 q1 2 2.5 2 M58 56 q-1 2 -2.5 2" stroke="#d9b48f" stroke-width="1.2" stroke-linecap="round" fill="none"/>
</svg>
