<svg xmlns="http://www.w3.org/2000/svg" viewBox="0 0 100 100">
  <defs><linearGradient id="clz_bg" x1="0" y1="0" x2="1" y2="1"><stop offset="0" stop-color="#eff6ff"/><stop offset="1" stop-color="#dbeafe"/></linearGradient></defs>
  <rect width="100" height="100" rx="16" fill="url(#clz_bg)"/>
  <ellipse cx="50" cy="86" rx="28" ry="4" fill="#0f172a" opacity=".08"/>
  <path d="M18 26 q10 -6 20 0 l8 26 q2 6 8 4 l22 -8" stroke="#fcd9b8" stroke-width="14" stroke-linecap="round" fill="none"/>
  <path d="M18 26 q10 -6 20 0" stroke="#3b82f6" stroke-width="16" stroke-linecap="round" fill="none"/>
  <ellipse cx="78" cy="46" rx="8" ry="6" fill="#fcd9b8" transform="rotate(-18 78 46)"/>
  <path d="M84 42 q5 -1 4 3 M84 46 q5 -1 4 3" stroke="#e7b08a" stroke-width="1.6" stroke-linecap="round" fill="none"/>
  <circle cx="48" cy="56" r="12" fill="#ef4444" opacity=".25"/>
  <circle cx="48" cy="56" r="12" fill="none" stroke="#ef4444" stroke-width="2.5" stroke-dasharray="5 3"/>
  <path d="M30 82 l13 -19" stroke="#ef4444" stroke-width="2.8" stroke-linecap="round"/>
  <circle cx="28" cy="85" r="3.2" fill="#ef4444"/>
</svg>
