<svg xmlns="http://www.w3.org/2000/svg" viewBox="0 0 100 100">
  <defs><linearGradient id="ma_bg" x1="0" y1="0" x2="1" y2="1"><stop offset="0" stop-color="#fff7ed"/><stop offset="1" stop-color="#ffedd5"/></linearGradient>
  <linearGradient id="ma_pell" x1="0" y1="0" x2="0" y2="1"><stop offset="0" stop-color="#fde0bd"/><stop offset="1" stop-color="#f0b990"/></linearGradient></defs>
  <rect width="100" height="100" rx="16" fill="url(#ma_bg)"/>
  <ellipse cx="50" cy="90" rx="20" ry="3.5" fill="#0f172a" opacity=".08"/>
  <path d="M40 88 v-22 q-12 -8 -14 -22 q-1 -5 4 -5 q4 0 5 5 q2 8 7 10 v-34 q0 -5 5 -5 q5 0 5 5 v-6 q0 -5 5 -5 q5 0 5 5 v8 q0 -5 5 -5 q5 0 5 5 v10 q1 -4 5 -4 q5 0 5 5 v22 q0 18 -12 26 v7 z" fill="url(#ma_pell)"/>
  <path d="M52 20 v22 M62 22 v20 M72 32 v14" stroke="#e7b08a" stroke-width="1.8" stroke-linecap="round"/>
  <path d="M44 64 q10 6 22 2" stroke="#e7b08a" stroke-width="1.8" stroke-linecap="round" fill="none"/>
  <path d="M42 14 q3 -2 6 0" stroke="#e7b08a" stroke-width="1.4" stroke-linecap="round" fill="none" opacity="0"/>
</svg>
