<svg xmlns="http://www.w3.org/2000/svg" viewBox="0 0 100 100">
  <defs><linearGradient id="cel_bg" x1="0" y1="0" x2="1" y2="1"><stop offset="0" stop-color="#fff7ed"/><stop offset="1" stop-color="#ffedd5"/></linearGradient></defs>
  <rect width="100" height="100" rx="16" fill="url(#cel_bg)"/>
  <rect x="10" y="10" width="80" height="80" rx="14" fill="#fcd9b8"/>
  <path d="M20 40 q10 -10 24 -6 q2 1 1 3 q-1 2 -3 1.5 q-11 -3 -19 5 q-2 2 -3.5 0 q-1.5 -2 .5 -3.5" fill="#44403c"/>
  <path d="M80 40 q-10 -10 -24 -6 q-2 1 -1 3 q1 2 3 1.5 q11 -3 19 5 q2 2 3.5 0 q1.5 -2 -.5 -3.5" fill="#44403c"/>
  <path d="M26 60 q8 -8 18 -2 q-9 8 -18 2 M74 60 q-8 -8 -18 -2 q9 8 18 2" fill="#f8fafc"/>
  <circle cx="35" cy="59" r="4" fill="#78350f"/>
  <circle cx="65" cy="59" r="4" fill="#78350f"/>
  <circle cx="33.7" cy="57.7" r="1.4" fill="#0f172a"/>
  <circle cx="63.7" cy="57.7" r="1.4" fill="#0f172a"/>
  <path d="M44 78 q6 4 12 0" fill="none" stroke="#92400e" stroke-width="2" stroke-linecap="round"/>
</svg>
