<svg xmlns="http://www.w3.org/2000/svg" viewBox="0 0 100 100">
  <defs><linearGradient id="trq_bg" x1="0" y1="0" x2="1" y2="1"><stop offset="0" stop-color="#f0fdfa"/><stop offset="1" stop-color="#ccfbf1"/></linearGradient></defs>
  <rect width="100" height="100" rx="16" fill="url(#trq_bg)"/>
  <ellipse cx="50" cy="86" rx="26" ry="4" fill="#0f172a" opacity=".08"/>
  <circle cx="50" cy="48" r="30" fill="#fcd9b8"/>
  <path d="M20 43 q0 -26 30 -26 q30 0 30 26 q-12 -12 -30 -12 q-18 0 -30 12" fill="#57534e"/>
  <path d="M35 47 q4 3 8 0 M57 47 q4 3 8 0" stroke="#1e293b" stroke-width="2.2" stroke-linecap="round" fill="none"/>
  <path d="M42 62 q8 5 16 0" fill="none" stroke="#92400e" stroke-width="2.6" stroke-linecap="round"/>
  <circle cx="29" cy="55" r="4" fill="#f9a8d4" opacity=".45"/>
  <circle cx="71" cy="55" r="4" fill="#f9a8d4" opacity=".45"/>
  <path d="M76 22 q5 -2 6 2 q4 -1 3 3 q3 2 -1 4 h-9 q-3 -3 1 -9" fill="#bae6fd" opacity="0"/>
  <path d="M14 26 q4 -4 8 0 q4 4 8 0 M70 18 q4 -4 8 0 q4 4 8 0" stroke="#14b8a6" stroke-width="2.2" stroke-linecap="round" fill="none" opacity=".7"/>
</svg>
