<svg xmlns="http://www.w3.org/2000/svg" viewBox="0 0 100 100">
  <defs><linearGradient id="cbl_bg" x1="0" y1="0" x2="1" y2="1"><stop offset="0" stop-color="#fff7ed"/><stop offset="1" stop-color="#ffedd5"/></linearGradient>
  <linearGradient id="cbl_pel" x1="0" y1="0" x2="0" y2="1"><stop offset="0" stop-color="#78350f"/><stop offset="1" stop-color="#451a03"/></linearGradient></defs>
  <rect width="100" height="100" rx="16" fill="url(#cbl_bg)"/>
  <ellipse cx="50" cy="88" rx="24" ry="4" fill="#0f172a" opacity=".08"/>
  <circle cx="50" cy="52" r="22" fill="#fcd9b8"/>
  <path d="M26 56 q-4 -38 24 -38 q28 0 24 38 q-3 -8 -6 -10 q2 -16 -18 -16 q-20 0 -18 16 q-3 2 -6 10" fill="url(#cbl_pel)"/>
  <path d="M28 46 q-6 14 -2 24 l6 -3 q-3 -9 0 -19 z" fill="url(#cbl_pel)"/>
  <path d="M72 46 q6 14 2 24 l-6 -3 q3 -9 0 -19 z" fill="url(#cbl_pel)"/>
  <path d="M34 22 q6 -5 12 -3 M52 18 q8 -2 14 4" stroke="#92603a" stroke-width="2" stroke-linecap="round" fill="none" opacity=".6"/>
  <circle cx="43" cy="54" r="2.2" fill="#1e293b"/>
  <circle cx="57" cy="54" r="2.2" fill="#1e293b"/>
  <path d="M46 63 q4 2.6 8 0" fill="none" stroke="#92400e" stroke-width="1.8" stroke-linecap="round"/>
</svg>
