<svg xmlns="http://www.w3.org/2000/svg" viewBox="0 0 100 100">
  <defs><linearGradient id="prm_bg" x1="0" y1="0" x2="1" y2="1"><stop offset="0" stop-color="#fefce8"/><stop offset="1" stop-color="#fef3c7"/></linearGradient></defs>
  <rect width="100" height="100" rx="16" fill="url(#prm_bg)"/>
  <ellipse cx="50" cy="90" rx="20" ry="4" fill="#0f172a" opacity=".08"/>
  <circle cx="50" cy="22" r="11" fill="#fcd9b8"/>
  <path d="M39 20 q0 -10 11 -10 q11 0 11 10 q-4.5 -5 -11 -5 q-6.5 0 -11 5" fill="#7c2d12"/>
  <circle cx="46.5" cy="22" r="1.5" fill="#1e293b"/><circle cx="53.5" cy="22" r="1.5" fill="#1e293b"/>
  <path d="M47 27 q3 2 6 0" stroke="#92400e" stroke-width="1.4" stroke-linecap="round" fill="none"/>
  <path d="M44 36 q6 -3 12 0 l-1 32 h-10 z" fill="#dc2626"/>
  <path d="M44 36 q3 -1.5 6 -1 l-1 33 h-5 z" fill="#ef4444"/>
  <path d="M43 40 q-5 6 -4 16 M57 40 q5 6 4 16" stroke="#fcd9b8" stroke-width="4.5" stroke-linecap="round" fill="none"/>
  <rect x="44" y="66" width="5.5" height="22" rx="2.7" fill="#1e40af"/>
  <rect x="51" y="66" width="5.5" height="22" rx="2.7" fill="#1e3a8a"/>
</svg>
