<svg xmlns="http://www.w3.org/2000/svg" viewBox="0 0 100 100">
  <defs><linearGradient id="peu_bg" x1="0" y1="0" x2="1" y2="1"><stop offset="0" stop-color="#fff7ed"/><stop offset="1" stop-color="#ffedd5"/></linearGradient>
  <linearGradient id="peu_pell" x1="0" y1="0" x2="0" y2="1"><stop offset="0" stop-color="#fde0bd"/><stop offset="1" stop-color="#f0b990"/></linearGradient></defs>
  <rect width="100" height="100" rx="16" fill="url(#peu_bg)"/>
  <ellipse cx="50" cy="82" rx="34" ry="5" fill="#0f172a" opacity=".1"/>
  <path d="M58 14 h18 q1 22 -2 34 q-2 10 -12 14 l-32 10 q-12 3 -14 -8 q-1 -8 8 -10 l20 -5 q8 -2 9 -12 q2 -12 5 -23" fill="url(#peu_pell)"/>
  <path d="M58 14 h18 l.5 12 q-10 3 -19.5 0 q.5 -6 1 -12" fill="#1e40af"/>
  <g fill="#fde0bd" stroke="#e7b08a" stroke-width="1.2">
    <ellipse cx="18" cy="60" rx="5.5" ry="6.5"/>
    <ellipse cx="27" cy="68" rx="4" ry="4.5"/>
    <ellipse cx="35" cy="72" rx="3.6" ry="4"/>
    <ellipse cx="43" cy="74" rx="3.4" ry="3.8"/>
    <ellipse cx="51" cy="74.5" rx="3.2" ry="3.6"/>
  </g>
  <path d="M60 50 q6 4 12 2" stroke="#e7b08a" stroke-width="1.8" stroke-linecap="round" fill="none"/>
</svg>
