<svg xmlns="http://www.w3.org/2000/svg" viewBox="0 0 100 100">
  <defs><linearGradient id="apl_bg" x1="0" y1="0" x2="1" y2="1"><stop offset="0" stop-color="#fefce8"/><stop offset="1" stop-color="#fef3c7"/></linearGradient>
  <linearGradient id="apl_pell" x1="0" y1="0" x2="0" y2="1"><stop offset="0" stop-color="#fde0bd"/><stop offset="1" stop-color="#f0b990"/></linearGradient></defs>
  <rect width="100" height="100" rx="16" fill="url(#apl_bg)"/>
  <ellipse cx="50" cy="88" rx="26" ry="4" fill="#0f172a" opacity=".08"/>
  <g transform="rotate(-15 36 60)">
    <path d="M26 84 v-16 q-8 -6 -9 -16 q0 -4 3.5 -4 q3 0 4 4 q1 5 4 7 v-24 q0 -4 4 -4 q4 0 4 4 v-5 q0 -4 4 -4 q4 0 4 4 v6 q0 -4 4 -4 q4 0 4 4 v8 q.8 -3 4 -3 q4 0 4 4 v16 q0 13 -9 19 v4 z" fill="url(#apl_pell)"/>
  </g>
  <g transform="rotate(15 66 60) scale(-1 1) translate(-132 0)">
    <path d="M26 84 v-16 q-8 -6 -9 -16 q0 -4 3.5 -4 q3 0 4 4 q1 5 4 7 v-24 q0 -4 4 -4 q4 0 4 4 v-5 q0 -4 4 -4 q4 0 4 4 v6 q0 -4 4 -4 q4 0 4 4 v8 q.8 -3 4 -3 q4 0 4 4 v16 q0 13 -9 19 v4 z" fill="url(#apl_pell)"/>
  </g>
  <g stroke="#f59e0b" stroke-width="3" stroke-linecap="round">
    <path d="M50 22 v-8"/><path d="M40 26 l-5 -7"/><path d="M60 26 l5 -7"/><path d="M33 34 l-7 -4"/><path d="M67 34 l7 -4"/>
  </g>
</svg>
