<svg xmlns="http://www.w3.org/2000/svg" viewBox="0 0 100 100">
  <defs><linearGradient id="afc_bg" x1="0" y1="0" x2="1" y2="1"><stop offset="0" stop-color="#fdf2f8"/><stop offset="1" stop-color="#fce7f3"/></linearGradient></defs>
  <rect width="100" height="100" rx="16" fill="url(#afc_bg)"/>
  <ellipse cx="50" cy="88" rx="28" ry="4" fill="#0f172a" opacity=".08"/>
  <circle cx="36" cy="30" r="10" fill="#fcd9b8"/>
  <path d="M26 28 q0 -9 10 -9 q10 0 10 9 q-4 -4.5 -10 -4.5 q-6 0 -10 4.5" fill="#57534e"/>
  <path d="M32 30 q1.5 -2 3 0 M39 30 q1.5 -2 3 0" stroke="#1e293b" stroke-width="1.4" stroke-linecap="round" fill="none"/>
  <path d="M33 34.5 q3 2.2 6 0" stroke="#92400e" stroke-width="1.4" stroke-linecap="round" fill="none"/>
  <circle cx="64" cy="30" r="10" fill="#fcd9b8"/>
  <path d="M54 28 q0 -9 10 -9 q10 0 10 9 q-4 -4.5 -10 -4.5 q-6 0 -10 4.5" fill="#7c2d12"/>
  <path d="M54 28 q-1 7 1 12 l3 -1 q-1.5 -6 -1 -11 z M74 28 q1 7 -1 12 l-3 -1 q1.5 -6 1 -11 z" fill="#7c2d12"/>
  <path d="M60 30 q1.5 -2 3 0 M67 30 q1.5 -2 3 0" stroke="#1e293b" stroke-width="1.4" stroke-linecap="round" fill="none"/>
  <path d="M61 34.5 q3 2.2 6 0" stroke="#92400e" stroke-width="1.4" stroke-linecap="round" fill="none"/>
  <path d="M24 88 q-2 -26 12 -26 q8 0 14 6 q6 -6 14 -6 q14 0 12 26 z" fill="#db2777"/>
  <path d="M24 88 q-2 -26 12 -26 q5 0 9 2.5 l-7 10 z" fill="#ec4899"/>
  <path d="M38 56 q12 8 24 0" stroke="#be185d" stroke-width="3" stroke-linecap="round" fill="none"/>
  <path d="M50 18 q-3 -6 -8 -3 q-5 3 -1 8 q4 5 9 7 q5 -2 9 -7 q4 -5 -1 -8 q-5 -3 -8 3" fill="#ef4444" transform="translate(0 -4) scale(.7) translate(21 8)"/>
</svg>
