<svg xmlns="http://www.w3.org/2000/svg" viewBox="0 0 100 100">
  <defs><linearGradient id="dnt_bg" x1="0" y1="0" x2="1" y2="1"><stop offset="0" stop-color="#f0f9ff"/><stop offset="1" stop-color="#e0f2fe"/></linearGradient>
  <linearGradient id="dnt_dent" x1="0" y1="0" x2="0" y2="1"><stop offset="0" stop-color="#ffffff"/><stop offset="1" stop-color="#e2e8f0"/></linearGradient></defs>
  <rect width="100" height="100" rx="16" fill="url(#dnt_bg)"/>
  <path d="M20 46 q15 -14 30 -2 q15 -12 30 2 q-8 22 -30 22 q-22 0 -30 -22" fill="#ef4444"/>
  <g fill="url(#dnt_dent)" stroke="#cbd5e1" stroke-width="1">
    <path d="M26 48 q0 -8 6 -8 q6 0 6 8 l-1 8 q-5 3 -10 0 z"/>
    <path d="M40 44 q0 -9 5.5 -9 q5.5 0 5.5 9 l-.8 10 q-4.7 3 -9.4 0 z"/>
    <path d="M53 44 q0 -9 5.5 -9 q5.5 0 5.5 9 l-.8 10 q-4.7 3 -9.4 0 z"/>
    <path d="M66 48 q0 -8 6 -8 q6 0 6 8 l-1 8 q-5 3 -10 0 z"/>
  </g>
  <path d="M30 76 q20 8 40 0" stroke="#b91c1c" stroke-width="3" stroke-linecap="round" fill="none"/>
  <path d="M84 24 l-3 5 l5 1 l-3 5" stroke="#fde047" stroke-width="2.5" stroke-linecap="round" stroke-linejoin="round" fill="none"/>
  <circle cx="18" cy="26" r="2" fill="#7dd3fc"/>
</svg>
