<svg xmlns="http://www.w3.org/2000/svg" viewBox="0 0 100 100">
  <defs><linearGradient id="upt_bg" x1="0" y1="0" x2="1" y2="1"><stop offset="0" stop-color="#fff7ed"/><stop offset="1" stop-color="#ffedd5"/></linearGradient></defs>
  <rect width="100" height="100" rx="16" fill="url(#upt_bg)"/>
  <circle cx="50" cy="50" r="32" fill="#fcd9b8"/>
  <path d="M18 45 q0 -28 32 -28 q32 0 32 28 q-13 -13 -32 -13 q-19 0 -32 13" fill="#57534e"/>
  <path d="M32 50 q6 -5 13 0 q-6 5 -13 0" fill="#f8fafc" stroke="#475569" stroke-width="1.6"/>
  <path d="M55 50 q6 -5 13 0 q-6 5 -13 0" fill="#f8fafc" stroke="#475569" stroke-width="1.6"/>
  <circle cx="38.5" cy="50" r="2.2" fill="#0f172a"/>
  <circle cx="61.5" cy="50" r="2.2" fill="#0f172a"/>
  <path d="M31 40 q7 -3 14 -1 M55 39 q7 -2 14 1" stroke="#44403c" stroke-width="2.2" stroke-linecap="round" fill="none"/>
  <path d="M44 72 q6 3.5 12 0" fill="none" stroke="#92400e" stroke-width="2" stroke-linecap="round"/>
</svg>
