<svg xmlns="http://www.w3.org/2000/svg" viewBox="0 0 100 100">
  <defs><linearGradient id="por_bg" x1="0" y1="0" x2="1" y2="1"><stop offset="0" stop-color="#faf5ff"/><stop offset="1" stop-color="#f3e8ff"/></linearGradient></defs>
  <rect width="100" height="100" rx="16" fill="url(#por_bg)"/>
  <ellipse cx="50" cy="86" rx="26" ry="4" fill="#0f172a" opacity=".08"/>
  <circle cx="50" cy="48" r="30" fill="#fcd9b8"/>
  <path d="M20 43 q0 -26 30 -26 q30 0 30 26 q-12 -12 -30 -12 q-18 0 -30 12" fill="#57534e"/>
  <path d="M34 41 q4 -4 9 -2 M66 41 q-4 -4 -9 -2" stroke="#44403c" stroke-width="2.2" stroke-linecap="round" fill="none"/>
  <circle cx="41" cy="50" r="4.5" fill="#f8fafc"/>
  <circle cx="59" cy="50" r="4.5" fill="#f8fafc"/>
  <circle cx="41" cy="51" r="2.2" fill="#1e293b"/>
  <circle cx="59" cy="51" r="2.2" fill="#1e293b"/>
  <ellipse cx="50" cy="67" rx="6" ry="7" fill="#7f1d1d"/>
  <ellipse cx="50" cy="69" rx="3.5" ry="3.5" fill="#fda4af"/>
  <path d="M24 36 q-2 6 1 10 M76 36 q2 6 -1 10" stroke="#7dd3fc" stroke-width="0" fill="none"/>
  <path d="M26 28 q3 5 0 10 M22 40 q2 4 0 8" stroke="#38bdf8" stroke-width="2.4" stroke-linecap="round" fill="none"/>
  <ellipse cx="25" cy="56" rx="2.5" ry="3.5" fill="#38bdf8"/>
</svg>
