<svg xmlns="http://www.w3.org/2000/svg" viewBox="0 0 100 100">
  <defs><linearGradient id="hon_bg" x1="0" y1="0" x2="1" y2="1"><stop offset="0" stop-color="#faf5ff"/><stop offset="1" stop-color="#f3e8ff"/></linearGradient></defs>
  <rect width="100" height="100" rx="16" fill="url(#hon_bg)"/>
  <ellipse cx="50" cy="86" rx="24" ry="4" fill="#0f172a" opacity=".08"/>
  <path d="M30 82 q-2 -16 20 -16 q22 0 20 16 z" fill="#ea580c"/>
  <circle cx="50" cy="42" r="16" fill="#fcd9b8"/>
  <path d="M33 38 q0 -16 17 -16 q17 0 17 16 q1 6 -1 12 q-3 2 -4 -2 q-2 4 -5 1 q1 -8 -1 -13 q-6 -5 -12 0 q-2 5 -1 13 q-3 3 -5 -1 q-1 4 -4 2 q-2 -6 -1 -12" fill="#7c2d12"/>
  <path d="M36 28 q4 3 1 7 q4 1 2 6 M64 28 q-4 3 -1 7 q-4 1 -2 6" stroke="#9a3412" stroke-width="1.8" stroke-linecap="round" fill="none"/>
  <circle cx="44.5" cy="43" r="2" fill="#1e293b"/>
  <circle cx="55.5" cy="43" r="2" fill="#1e293b"/>
  <path d="M46 50 q4 2.6 8 0" fill="none" stroke="#92400e" stroke-width="1.7" stroke-linecap="round"/>
</svg>
