<svg xmlns="http://www.w3.org/2000/svg" viewBox="0 0 100 100">
  <defs><linearGradient id="brb_bg" x1="0" y1="0" x2="1" y2="1"><stop offset="0" stop-color="#fff7ed"/><stop offset="1" stop-color="#ffedd5"/></linearGradient></defs>
  <rect width="100" height="100" rx="16" fill="url(#brb_bg)"/>
  <ellipse cx="50" cy="88" rx="24" ry="4" fill="#0f172a" opacity=".08"/>
  <circle cx="50" cy="46" r="26" fill="#fcd9b8"/>
  <path d="M24 41 q0 -23 26 -23 q26 0 26 23 q-10 -11 -26 -11 q-16 0 -26 11" fill="#78350f"/>
  <circle cx="42" cy="46" r="2.4" fill="#1e293b"/>
  <circle cx="58" cy="46" r="2.4" fill="#1e293b"/>
  <path d="M50 48 q-1.5 4 .5 5" stroke="#e7b08a" stroke-width="1.8" stroke-linecap="round" fill="none"/>
  <path d="M26 50 q-2 26 24 28 q26 -2 24 -28 q-4 14 -10 16 q-4 2 -4 -2 q-10 4 -20 0 q0 4 -4 2 q-6 -2 -10 -16" fill="#78350f"/>
  <path d="M40 60 q-10 -3 -13 2 q-2 4 3 4 q6 0 10 -3 q4 3 10 3 q5 0 3 -4 q-3 -5 -13 -2" fill="#92400e" opacity="0"/>
  <ellipse cx="50" cy="64" rx="5" ry="3" fill="#7f1d1d"/>
  <path d="M34 56 q4 8 8 10 M66 56 q-4 8 -8 10" stroke="#92400e" stroke-width="1.6" stroke-linecap="round" fill="none" opacity=".7"/>
</svg>
