<svg xmlns="http://www.w3.org/2000/svg" viewBox="0 0 100 100">
  <defs><linearGradient id="frt_bg" x1="0" y1="0" x2="1" y2="1"><stop offset="0" stop-color="#fff7ed"/><stop offset="1" stop-color="#ffedd5"/></linearGradient></defs>
  <rect width="100" height="100" rx="16" fill="url(#frt_bg)"/>
  <ellipse cx="50" cy="88" rx="24" ry="4" fill="#0f172a" opacity=".08"/>
  <circle cx="50" cy="52" r="26" fill="#fcd9b8"/>
  <path d="M24 46 q0 -23 26 -23 q26 0 26 23 q-10 -11 -26 -11 q-16 0 -26 11" fill="#57534e"/>
  <path d="M38 56 q3 -2 7 -1 M55 55 q4 -1 7 1" stroke="#44403c" stroke-width="2" stroke-linecap="round" fill="none"/>
  <circle cx="42" cy="61" r="2.4" fill="#1e293b"/>
  <circle cx="58" cy="61" r="2.4" fill="#1e293b"/>
  <path d="M44 73 q6 4 12 0" fill="none" stroke="#92400e" stroke-width="2" stroke-linecap="round"/>
  <path d="M34 44 q16 -8 32 0" fill="none" stroke="#ef4444" stroke-width="0"/>
  <ellipse cx="50" cy="45" rx="17" ry="8" fill="#ef4444" opacity=".25"/>
  <ellipse cx="50" cy="45" rx="17" ry="8" fill="none" stroke="#ef4444" stroke-width="2.5" stroke-dasharray="5 3"/>
  <path d="M78 22 l-9 14" stroke="#ef4444" stroke-width="3" stroke-linecap="round"/>
  <circle cx="80" cy="19" r="3.5" fill="#ef4444"/>
</svg>
