<svg xmlns="http://www.w3.org/2000/svg" viewBox="0 0 100 100">
  <defs><linearGradient id="gnl_bg" x1="0" y1="0" x2="1" y2="1"><stop offset="0" stop-color="#f0fdf4"/><stop offset="1" stop-color="#dcfce7"/></linearGradient></defs>
  <rect width="100" height="100" rx="16" fill="url(#gnl_bg)"/>
  <ellipse cx="50" cy="90" rx="28" ry="4" fill="#0f172a" opacity=".08"/>
  <path d="M34 12 q14 -4 16 10 l4 26 q1 6 8 7 l18 2 q6 1 5 7 q-1 6 -7 5 l-22 -3 q-12 -2 -14 -14 l-5 -28 q-1 -6 -3 -12" fill="#fcd9b8"/>
  <path d="M34 12 q14 -4 16 10 l1 8 l-14 2 z" fill="#1e40af"/>
  <circle cx="53" cy="50" r="13" fill="#ef4444" opacity=".25"/>
  <circle cx="53" cy="50" r="13" fill="none" stroke="#ef4444" stroke-width="2.5" stroke-dasharray="5 3"/>
  <path d="M50 48 q4 2 3 6" stroke="#e7b08a" stroke-width="1.8" stroke-linecap="round" fill="none"/>
  <path d="M24 80 l22 -22" stroke="#ef4444" stroke-width="2.8" stroke-linecap="round"/>
  <circle cx="21" cy="83" r="3.2" fill="#ef4444"/>
</svg>
