<svg xmlns="http://www.w3.org/2000/svg" viewBox="0 0 100 100">
  <defs><linearGradient id="har_bg" x1="0" y1="0" x2="1" y2="1"><stop offset="0" stop-color="#faf5ff"/><stop offset="1" stop-color="#f3e8ff"/></linearGradient></defs>
  <rect width="100" height="100" rx="16" fill="url(#har_bg)"/>
  <ellipse cx="50" cy="86" rx="24" ry="4" fill="#0f172a" opacity=".08"/>
  <path d="M30 82 q-2 -16 20 -16 q22 0 20 16 z" fill="#0d9488"/>
  <circle cx="50" cy="42" r="16" fill="#fcd9b8"/>
  <g fill="#451a03">
    <circle cx="36" cy="32" r="7"/><circle cx="45" cy="26" r="7.5"/><circle cx="55" cy="26" r="7.5"/><circle cx="64" cy="32" r="7"/>
    <circle cx="31" cy="41" r="6"/><circle cx="69" cy="41" r="6"/>
    <circle cx="40" cy="24" r="5"/><circle cx="60" cy="24" r="5"/><circle cx="50" cy="22" r="6"/>
  </g>
  <circle cx="44.5" cy="43" r="2" fill="#1e293b"/>
  <circle cx="55.5" cy="43" r="2" fill="#1e293b"/>
  <path d="M46 50 q4 2.6 8 0" fill="none" stroke="#92400e" stroke-width="1.7" stroke-linecap="round"/>
</svg>
