<svg xmlns="http://www.w3.org/2000/svg" viewBox="0 0 100 100">
  <defs><linearGradient id="cap_bg" x1="0" y1="0" x2="1" y2="1"><stop offset="0" stop-color="#fff7ed"/><stop offset="1" stop-color="#ffedd5"/></linearGradient></defs>
  <rect width="100" height="100" rx="16" fill="url(#cap_bg)"/>
  <ellipse cx="50" cy="90" rx="22" ry="4" fill="#0f172a" opacity=".08"/>
  <path d="M34 88 q-2 -26 16 -26 q18 0 16 26 z" fill="#94a3b8"/>
  <circle cx="50" cy="34" r="17" fill="#fcd9b8"/>
  <path d="M33 31 q0 -15 17 -15 q17 0 17 15 q-7 -7.5 -17 -7.5 q-10 0 -17 7.5" fill="#57534e"/>
  <circle cx="44" cy="34" r="2.2" fill="#1e293b"/>
  <circle cx="56" cy="34" r="2.2" fill="#1e293b"/>
  <path d="M46 42 q4 3 8 0" fill="none" stroke="#92400e" stroke-width="1.8" stroke-linecap="round"/>
  <circle cx="50" cy="33" r="23" fill="none" stroke="#ef4444" stroke-width="3" stroke-dasharray="6 4"/>
  <path d="M82 18 l-8 8" stroke="#ef4444" stroke-width="3" stroke-linecap="round"/>
  <circle cx="84" cy="16" r="3.5" fill="#ef4444"/>
</svg>
