<svg xmlns="http://www.w3.org/2000/svg" viewBox="0 0 100 100">
  <defs><linearGradient id="jov_bg" x1="0" y1="0" x2="1" y2="1"><stop offset="0" stop-color="#f0fdf4"/><stop offset="1" stop-color="#dcfce7"/></linearGradient></defs>
  <rect width="100" height="100" rx="16" fill="url(#jov_bg)"/>
  <ellipse cx="50" cy="86" rx="24" ry="4" fill="#0f172a" opacity=".08"/>
  <path d="M30 82 q-2 -16 20 -16 q22 0 20 16 z" fill="#16a34a"/>
  <circle cx="50" cy="42" r="17" fill="#fcd9b8"/>
  <path d="M33 39 q0 -16 17 -16 q17 0 17 16 q-7 -7.5 -17 -7.5 q-10 0 -17 7.5" fill="#57534e"/>
  <circle cx="44" cy="42" r="2.2" fill="#1e293b"/>
  <circle cx="56" cy="42" r="2.2" fill="#1e293b"/>
  <circle cx="38" cy="48" r="3" fill="#f9a8d4" opacity=".55"/>
  <circle cx="62" cy="48" r="3" fill="#f9a8d4" opacity=".55"/>
  <path d="M44 50 q6 5 12 0" fill="none" stroke="#92400e" stroke-width="2" stroke-linecap="round"/>
</svg>
