<svg xmlns="http://www.w3.org/2000/svg" viewBox="0 0 100 100">
  <defs><linearGradient id="dts_bg" x1="0" y1="0" x2="1" y2="1"><stop offset="0" stop-color="#fff7ed"/><stop offset="1" stop-color="#ffedd5"/></linearGradient>
  <linearGradient id="dts_pell" x1="0" y1="0" x2="0" y2="1"><stop offset="0" stop-color="#fde0bd"/><stop offset="1" stop-color="#f0b990"/></linearGradient></defs>
  <rect width="100" height="100" rx="16" fill="url(#dts_bg)"/>
  <ellipse cx="50" cy="90" rx="20" ry="3.5" fill="#0f172a" opacity=".08"/>
  <path d="M40 88 v-22 q-12 -8 -14 -22 q-1 -5 4 -5 q4 0 5 5 q2 8 7 10 v-34 q0 -5 5 -5 q5 0 5 5 v-6 q0 -5 5 -5 q5 0 5 5 v8 q0 -5 5 -5 q5 0 5 5 v10 q1 -4 5 -4 q5 0 5 5 v22 q0 18 -12 26 v7 z" fill="url(#dts_pell)"/>
  <path d="M52 20 v22 M62 22 v20 M72 32 v14" stroke="#e7b08a" stroke-width="1.8" stroke-linecap="round"/>
  <g fill="none" stroke="#ef4444" stroke-width="2.4" stroke-dasharray="4 2.5">
    <ellipse cx="47" cy="17" rx="6.5" ry="8"/>
    <ellipse cx="57" cy="12" rx="6.5" ry="8"/>
    <ellipse cx="67" cy="20" rx="6.5" ry="8"/>
    <ellipse cx="76" cy="32" rx="6" ry="7.5"/>
    <ellipse cx="31" cy="42" rx="6.5" ry="8" transform="rotate(25 31 42)"/>
  </g>
</svg>
