<svg xmlns="http://www.w3.org/2000/svg" viewBox="0 0 100 100">
  <defs><linearGradient id="car_bg" x1="0" y1="0" x2="1" y2="1"><stop offset="0" stop-color="#fff7ed"/><stop offset="1" stop-color="#ffedd5"/></linearGradient></defs>
  <rect width="100" height="100" rx="16" fill="url(#car_bg)"/>
  <ellipse cx="50" cy="88" rx="26" ry="4" fill="#0f172a" opacity=".08"/>
  <circle cx="50" cy="48" r="28" fill="#fcd9b8"/>
  <path d="M22 43 q0 -25 28 -25 q28 0 28 25 q-11 -12 -28 -12 q-17 0 -28 12" fill="#57534e"/>
  <path d="M38 44 q3 -2.5 7 -1 M55 43 q4 -1.5 7 1" stroke="#44403c" stroke-width="2.2" stroke-linecap="round" fill="none"/>
  <circle cx="41" cy="50" r="2.8" fill="#1e293b"/>
  <circle cx="59" cy="50" r="2.8" fill="#1e293b"/>
  <path d="M50 52 q-2 5 1 7" stroke="#e7b08a" stroke-width="2" stroke-linecap="round" fill="none"/>
  <path d="M43 65 q7 5 14 0" fill="none" stroke="#92400e" stroke-width="2.2" stroke-linecap="round"/>
  <circle cx="34" cy="58" r="4" fill="#f9a8d4" opacity=".5"/>
  <circle cx="66" cy="58" r="4" fill="#f9a8d4" opacity=".5"/>
</svg>
