<svg xmlns="http://www.w3.org/2000/svg" viewBox="0 0 100 100">
  <defs><linearGradient id="esq_bg" x1="0" y1="0" x2="1" y2="1"><stop offset="0" stop-color="#eff6ff"/><stop offset="1" stop-color="#dbeafe"/></linearGradient></defs>
  <rect width="100" height="100" rx="16" fill="url(#esq_bg)"/>
  <ellipse cx="50" cy="90" rx="26" ry="4" fill="#0f172a" opacity=".08"/>
  <circle cx="50" cy="22" r="12" fill="#fcd9b8"/>
  <path d="M38 22 q0 -11 12 -11 q12 0 12 11 q0 6 -2 9 q-10 5 -20 0 q-2 -3 -2 -9" fill="#57534e"/>
  <path d="M44 34 h12 q1 6 3 9 h-18 q2 -3 3 -9" fill="#fcd9b8"/>
  <path d="M30 88 q-4 -46 20 -46 q24 0 20 46 z" fill="#6366f1"/>
  <path d="M30 88 q-4 -46 20 -46 q6 0 10 3 l-10 12 z" fill="#818cf8"/>
  <path d="M50 46 v36" stroke="#4338ca" stroke-width="2.5" stroke-linecap="round" stroke-dasharray="4 4"/>
  <ellipse cx="50" cy="64" rx="17" ry="20" fill="none" stroke="#ef4444" stroke-width="2.5" stroke-dasharray="5 3"/>
  <path d="M82 28 l-16 24" stroke="#ef4444" stroke-width="2.8" stroke-linecap="round"/>
  <circle cx="84" cy="25" r="3.2" fill="#ef4444"/>
</svg>
