<svg xmlns="http://www.w3.org/2000/svg" viewBox="0 0 100 100">
  <defs><linearGradient id="brc_bg" x1="0" y1="0" x2="1" y2="1"><stop offset="0" stop-color="#eff6ff"/><stop offset="1" stop-color="#dbeafe"/></linearGradient></defs>
  <rect width="100" height="100" rx="16" fill="url(#brc_bg)"/>
  <ellipse cx="46" cy="92" rx="20" ry="3.5" fill="#0f172a" opacity=".08"/>
  <circle cx="46" cy="20" r="10" fill="#fcd9b8"/>
  <path d="M36 18 q0 -9 10 -9 q10 0 10 9 q-4 -4.5 -10 -4.5 q-6 0 -10 4.5" fill="#57534e"/>
  <circle cx="43" cy="20" r="1.4" fill="#1e293b"/><circle cx="49.5" cy="20" r="1.4" fill="#1e293b"/>
  <path d="M44 25.5 q2.5 1.8 5 0" fill="none" stroke="#92400e" stroke-width="1.3" stroke-linecap="round"/>
  <path d="M34 58 q-2 -28 12 -28 q14 0 12 28 z" fill="#3b82f6"/>
  <path d="M36 34 q-8 6 -8 18" stroke="#fcd9b8" stroke-width="6" stroke-linecap="round" fill="none"/>
  <rect x="36" y="56" width="8" height="32" rx="3.5" fill="#1e40af"/>
  <rect x="48" y="56" width="8" height="32" rx="3.5" fill="#1e3a8a"/>
  <path d="M58 34 q14 4 14 24 q0 8 -6 8" stroke="#ef4444" stroke-width="8" stroke-linecap="round" fill="none"/>
  <path d="M58 34 q14 4 14 24 q0 8 -6 8" stroke="#fcd9b8" stroke-width="5" stroke-linecap="round" fill="none"/>
  <ellipse cx="71" cy="50" rx="13" ry="22" fill="none" stroke="#ef4444" stroke-width="2.5" stroke-dasharray="5 3"/>
  <circle cx="87" cy="18" r="3.2" fill="#ef4444"/>
  <path d="M85 21 l-8 9" stroke="#ef4444" stroke-width="2.8" stroke-linecap="round"/>
</svg>
