<svg xmlns="http://www.w3.org/2000/svg" viewBox="0 0 100 100">
  <defs><linearGradient id="hcs_bg" x1="0" y1="0" x2="1" y2="1"><stop offset="0" stop-color="#fefce8"/><stop offset="1" stop-color="#fef3c7"/></linearGradient></defs>
  <rect width="100" height="100" rx="16" fill="url(#hcs_bg)"/>
  <ellipse cx="50" cy="86" rx="24" ry="4" fill="#0f172a" opacity=".08"/>
  <path d="M30 82 q-2 -16 20 -16 q22 0 20 16 z" fill="#9333ea"/>
  <circle cx="50" cy="42" r="16" fill="#fcd9b8"/>
  <path d="M33 38 q0 -16 17 -16 q17 0 17 16 q0 6 -2 10 q-2 1 -2.5 -2 q0 -9 -2.5 -12 q-5 -5 -10 -5 q-5 0 -10 5 q-2.5 3 -2.5 12 q-.5 3 -2.5 2 q-2 -4 -2 -10" fill="#78350f"/>
  <path d="M38 26 q5 -3 9 -2 M52 23 q6 0 9 5" stroke="#a16207" stroke-width="1.6" stroke-linecap="round" fill="none" opacity=".8"/>
  <circle cx="44.5" cy="43" r="2" fill="#1e293b"/>
  <circle cx="55.5" cy="43" r="2" fill="#1e293b"/>
  <path d="M46 50 q4 2.6 8 0" fill="none" stroke="#92400e" stroke-width="1.7" stroke-linecap="round"/>
</svg>
