<svg xmlns="http://www.w3.org/2000/svg" viewBox="0 0 100 100">
  <defs><linearGradient id="ull_bg" x1="0" y1="0" x2="1" y2="1"><stop offset="0" stop-color="#eff6ff"/><stop offset="1" stop-color="#dbeafe"/></linearGradient>
  <radialGradient id="ull_iris" cx=".4" cy=".4" r=".8"><stop offset="0" stop-color="#7dd3fc"/><stop offset="1" stop-color="#0369a1"/></radialGradient></defs>
  <rect width="100" height="100" rx="16" fill="url(#ull_bg)"/>
  <path d="M14 50 q36 -34 72 0 q-36 34 -72 0" fill="#f8fafc"/>
  <path d="M14 50 q36 -34 72 0 q-36 34 -72 0" fill="none" stroke="#cbd5e1" stroke-width="1.5"/>
  <circle cx="50" cy="50" r="16" fill="url(#ull_iris)"/>
  <circle cx="50" cy="50" r="7.5" fill="#0f172a"/>
  <circle cx="45" cy="44" r="4" fill="#ffffff" opacity=".9"/>
  <circle cx="56" cy="56" r="2" fill="#ffffff" opacity=".5"/>
  <path d="M14 50 q36 -34 72 0" fill="none" stroke="#475569" stroke-width="3" stroke-linecap="round"/>
  <g stroke="#475569" stroke-width="2.2" stroke-linecap="round">
    <path d="M26 36 l-4 -5"/><path d="M38 29 l-2.5 -6"/><path d="M50 26 v-6.5"/><path d="M62 29 l2.5 -6"/><path d="M74 36 l4 -5"/>
  </g>
</svg>
