<svg xmlns="http://www.w3.org/2000/svg" viewBox="0 0 100 100">
  <defs><linearGradient id="gen_bg" x1="0" y1="0" x2="1" y2="1"><stop offset="0" stop-color="#f0fdf4"/><stop offset="1" stop-color="#dcfce7"/></linearGradient></defs>
  <rect width="100" height="100" rx="16" fill="url(#gen_bg)"/>
  <ellipse cx="50" cy="88" rx="28" ry="4" fill="#0f172a" opacity=".08"/>
  <circle cx="36" cy="28" r="12" fill="#fcd9b8"/>
  <path d="M24 26 q0 -11 12 -11 q12 0 12 11 q-5 -5.5 -12 -5.5 q-7 0 -12 5.5" fill="#7c2d12"/>
  <path d="M32 28 q1.5 -2 3 0 M40 28 q1.5 -2 3 0" stroke="#1e293b" stroke-width="1.5" stroke-linecap="round" fill="none"/>
  <path d="M33 33.5 q3 2.4 6 0" stroke="#92400e" stroke-width="1.5" stroke-linecap="round" fill="none"/>
  <path d="M22 88 q-2 -28 14 -28 q16 0 14 28 z" fill="#16a34a"/>
  <path d="M22 88 q-2 -28 14 -28 q5 0 8 3.5 l-8 9.5 z" fill="#22c55e"/>
  <path d="M46 64 q10 0 14 6" stroke="#fcd9b8" stroke-width="6" stroke-linecap="round" fill="none"/>
  <g transform="rotate(-8 70 60)">
    <rect x="58" y="52" width="26" height="20" rx="3" fill="#ef4444"/>
    <rect x="58" y="52" width="26" height="7" rx="3" fill="#f87171"/>
    <rect x="69" y="52" width="4.5" height="20" fill="#fde047"/>
    <path d="M71 52 q-6 -8 -10 -3 q-3 4 4 5 q-11 1 -5 6 l11 -6 q6 8 10 3 q3 -4 -4 -5 q11 -1 5 -6 z" fill="#fbbf24" transform="translate(0 -1)"/>
  </g>
</svg>
