<svg xmlns="http://www.w3.org/2000/svg" viewBox="0 0 100 100">
  <defs><linearGradient id="trm_bg" x1="0" y1="0" x2="1" y2="1"><stop offset="0" stop-color="#f0fdf4"/><stop offset="1" stop-color="#dcfce7"/></linearGradient></defs>
  <rect width="100" height="100" rx="16" fill="url(#trm_bg)"/>
  <ellipse cx="54" cy="84" rx="30" ry="4" fill="#0f172a" opacity=".1"/>
  <path d="M40 10 h16 l2 38 q0 8 6 10 l14 4 q6 2 4 8 l-2 4 q-2 5 -8 4 l-26 -2 q-8 -1 -8 -10 z" fill="#fcd9b8"/>
  <path d="M40 10 h16 l1 16 q-9 3 -18 0 z" fill="#1e40af"/>
  <ellipse cx="52" cy="56" rx="11" ry="10" fill="none" stroke="#ef4444" stroke-width="2.5" stroke-dasharray="5 3"/>
  <circle cx="52" cy="56" r="3" fill="#e7b08a"/>
  <path d="M20 36 l22 16" stroke="#ef4444" stroke-width="2.8" stroke-linecap="round"/>
  <circle cx="17" cy="33" r="3.2" fill="#ef4444"/>
  <path d="M48 78 h28" stroke="#e7b08a" stroke-width="1.8" stroke-linecap="round" opacity=".6"/>
</svg>
