<svg xmlns="http://www.w3.org/2000/svg" viewBox="0 0 100 100">
  <defs><linearGradient id="boc_bg" x1="0" y1="0" x2="1" y2="1"><stop offset="0" stop-color="#fef2f2"/><stop offset="1" stop-color="#fee2e2"/></linearGradient></defs>
  <rect width="100" height="100" rx="16" fill="url(#boc_bg)"/>
  <path d="M22 48 q14 -16 28 -2 q14 -14 28 2 q-12 26 -28 26 q-16 0 -28 -26" fill="#dc2626"/>
  <path d="M24 50 q13 -13 26 -1 q13 -12 26 1 q-4 8 -10 13 q-22 -8 -32 0 q-6 -5 -10 -13" fill="#ef4444"/>
  <path d="M28 52 q22 10 44 0 q-8 16 -22 16 q-14 0 -22 -16" fill="#7f1d1d"/>
  <path d="M30 53 q20 8 40 0 l-2 4 q-18 6 -36 0 z" fill="#f8fafc"/>
  <ellipse cx="50" cy="64" rx="10" ry="4.5" fill="#fda4af"/>
  <ellipse cx="33" cy="48" rx="5" ry="3" fill="#fca5a5" opacity=".6" transform="rotate(-15 33 48)"/>
</svg>
