<svg xmlns="http://www.w3.org/2000/svg" viewBox="0 0 100 100">
  <defs><linearGradient id="pnx_bg" x1="0" y1="0" x2="1" y2="1"><stop offset="0" stop-color="#fefce8"/><stop offset="1" stop-color="#fef3c7"/></linearGradient></defs>
  <rect width="100" height="100" rx="16" fill="url(#pnx_bg)"/>
  <ellipse cx="50" cy="90" rx="26" ry="4" fill="#0f172a" opacity=".08"/>
  <circle cx="50" cy="22" r="11" fill="#fcd9b8"/>
  <path d="M39 20 q0 -10 11 -10 q11 0 11 10 q-4.5 -5 -11 -5 q-6.5 0 -11 5" fill="#57534e"/>
  <circle cx="46.5" cy="22" r="1.5" fill="#1e293b"/><circle cx="53.5" cy="22" r="1.5" fill="#1e293b"/>
  <path d="M47 27.5 q3 2 6 0" fill="none" stroke="#92400e" stroke-width="1.4" stroke-linecap="round"/>
  <path d="M36 36 h28 q4 0 4 5 q2 24 -4 34 h-28 q-6 -10 -4 -34 q0 -5 4 -5" fill="#f97316"/>
  <path d="M36 36 h12 q-6 18 -2 39 h-10 q-6 -10 -4 -34 q0 -5 4 -5" fill="#fb923c"/>
  <ellipse cx="50" cy="58" rx="14" ry="13" fill="#fcd9b8"/>
  <circle cx="50" cy="60" r="2.6" fill="none" stroke="#d99c6b" stroke-width="1.8"/>
  <ellipse cx="50" cy="58" rx="17" ry="15" fill="none" stroke="#ef4444" stroke-width="2.5" stroke-dasharray="5 3"/>
  <path d="M78 84 l-13 -18" stroke="#ef4444" stroke-width="2.8" stroke-linecap="round"/>
  <circle cx="80" cy="87" r="3.2" fill="#ef4444"/>
  <rect x="38" y="74" width="24" height="14" rx="3" fill="#1e40af"/>
</svg>
