<svg xmlns="http://www.w3.org/2000/svg" viewBox="0 0 100 100">
  <defs><linearGradient id="bax_bg" x1="0" y1="0" x2="1" y2="1"><stop offset="0" stop-color="#eff6ff"/><stop offset="1" stop-color="#dbeafe"/></linearGradient></defs>
  <rect width="100" height="100" rx="16" fill="url(#bax_bg)"/>
  <ellipse cx="50" cy="91" rx="32" ry="3.5" fill="#0f172a" opacity=".08"/>
  <circle cx="62" cy="18" r="8" fill="#fcd9b8" opacity=".25"/>
  <path d="M54 56 q-2 -31 8 -31 q10 0 8 31 z" fill="#94a3b8" opacity=".25"/>
  <rect x="55" y="54" width="6" height="34" rx="3" fill="#94a3b8" opacity=".25"/>
  <rect x="63" y="54" width="6" height="34" rx="3" fill="#94a3b8" opacity=".25"/>
  <circle cx="38" cy="50" r="8" fill="#fcd9b8"/>
  <path d="M30 48.5 q0 -7.5 8 -7.5 q8 0 8 7.5 q-3.5 -3.7 -8 -3.7 q-4.5 0 -8 3.7" fill="#7c2d12"/>
  <circle cx="35.5" cy="50" r="1.2" fill="#1e293b"/><circle cx="40.5" cy="50" r="1.2" fill="#1e293b"/>
  <path d="M36 54 q2 1.4 4 0" stroke="#92400e" stroke-width="1.2" stroke-linecap="round" fill="none"/>
  <path d="M30 76 q-2 -19 8 -19 q10 0 8 19 z" fill="#f97316"/>
  <rect x="31" y="74" width="6" height="14" rx="3" fill="#9a3412"/>
  <rect x="39" y="74" width="6" height="14" rx="3" fill="#7c2d12"/>
  <path d="M16 42 v46 m-3.5 -7 l3.5 7 l3.5 -7 m-7 -32 l3.5 -7 l3.5 7" stroke="#16a34a" stroke-width="2.5" stroke-linecap="round" stroke-linejoin="round" fill="none"/>
</svg>
