<svg xmlns="http://www.w3.org/2000/svg" viewBox="0 0 100 100">
  <defs><linearGradient id="hll_bg" x1="0" y1="0" x2="1" y2="1"><stop offset="0" stop-color="#faf5ff"/><stop offset="1" stop-color="#f3e8ff"/></linearGradient></defs>
  <rect width="100" height="100" rx="16" fill="url(#hll_bg)"/>
  <ellipse cx="50" cy="90" rx="26" ry="4" fill="#0f172a" opacity=".08"/>
  <path d="M30 30 q0 -18 20 -18 q20 0 20 18 l2 48 q0 8 -8 8 h-28 q-8 0 -8 -8 z" fill="#713f12"/>
  <circle cx="50" cy="34" r="16" fill="#fcd9b8"/>
  <path d="M34 31 q0 -15 16 -15 q16 0 16 15 q-6.5 -7 -16 -7 q-9.5 0 -16 7" fill="#854d0e"/>
  <path d="M34 30 q-3 26 -2 52 l6 0 q-2 -26 0 -46 z" fill="#854d0e"/>
  <path d="M66 30 q3 26 2 52 l-6 0 q2 -26 0 -46 z" fill="#854d0e"/>
  <path d="M38 44 q-1 20 0 36 M62 44 q1 20 0 36" stroke="#a16207" stroke-width="1.8" stroke-linecap="round" fill="none" opacity=".6"/>
  <circle cx="44.5" cy="34" r="2" fill="#1e293b"/>
  <circle cx="55.5" cy="34" r="2" fill="#1e293b"/>
  <path d="M46 41 q4 2.6 8 0" fill="none" stroke="#92400e" stroke-width="1.7" stroke-linecap="round"/>
</svg>
