<svg xmlns="http://www.w3.org/2000/svg" viewBox="0 0 100 100">
  <defs><linearGradient id="bny_bg" x1="0" y1="0" x2="0" y2="1"><stop offset="0" stop-color="#bae6fd"/><stop offset="1" stop-color="#e0f2fe"/></linearGradient>
  <linearGradient id="bny_cos" x1="0" y1="0" x2="0" y2="1"><stop offset="0" stop-color="#f97316"/><stop offset="1" stop-color="#c2410c"/></linearGradient></defs>
  <rect width="100" height="100" rx="16" fill="url(#bny_bg)"/>
  <path d="M0 78 q20 -6 40 0 t40 0 q10 -3 20 0 v6 q0 16 -16 16 H16 Q0 100 0 84 z" fill="#38bdf8" opacity=".5"/>
  <path d="M26 30 h48 v14 l-14 26 q-2 4 -6 4 h-8 q-4 0 -6 -4 l-14 -26 z" fill="url(#bny_cos)"/>
  <path d="M26 30 h48 v8 q-24 5 -48 0 z" fill="#9a3412"/>
  <path d="M28 40 q22 5 44 0" stroke="#fdba74" stroke-width="2" fill="none" opacity=".8"/>
  <path d="M34 48 q16 4 32 0" stroke="#fdba74" stroke-width="2" fill="none" opacity=".6"/>
  <path d="M44 30 v-6 q0 -3 3 -3 h6 q3 0 3 3 v6" fill="none" stroke="#9a3412" stroke-width="2.5"/>
  <circle cx="50" cy="60" r="3" fill="#fde047"/>
</svg>
