<svg xmlns="http://www.w3.org/2000/svg" viewBox="0 0 100 100">
  <defs><linearGradient id="jrs_bg" x1="0" y1="0" x2="1" y2="1"><stop offset="0" stop-color="#f0fdf4"/><stop offset="1" stop-color="#dcfce7"/></linearGradient>
  <linearGradient id="jrs_cos" x1="0" y1="0" x2="0" y2="1"><stop offset="0" stop-color="#16a34a"/><stop offset="1" stop-color="#15803d"/></linearGradient></defs>
  <rect width="100" height="100" rx="16" fill="url(#jrs_bg)"/>
  <ellipse cx="50" cy="88" rx="30" ry="4" fill="#0f172a" opacity=".08"/>
  <path d="M38 20 q12 -8 24 0 l14 8 q4 2 2 6 l-4 8 q-2 4 -6 2 l-4 -3 v40 h-28 V41 l-4 3 q-4 2 -6 -2 l-4 -8 q-2 -4 2 -6 z" fill="url(#jrs_cos)"/>
  <path d="M38 20 q12 -8 24 0 q-4 8 -12 8 q-8 0 -12 -8" fill="#166534"/>
  <path d="M40 22 q10 -6 20 0 q-3 5 -10 5 q-7 0 -10 -5" fill="#dcfce7"/>
  <path d="M30 44 q20 6 40 0 M30 54 q20 6 40 0 M30 64 q20 6 40 0" stroke="#166534" stroke-width="2.2" fill="none" opacity=".7"/>
  <path d="M36 75 h28 v6 h-28 z" fill="#166534"/>
  <path d="M38 76 v4 M43 76 v4 M48 76 v4 M53 76 v4 M58 76 v4 M62 76 v4" stroke="#bbf7d0" stroke-width="1.4"/>
</svg>
