<svg xmlns="http://www.w3.org/2000/svg" viewBox="0 0 100 100">
  <defs><linearGradient id="bru_bg" x1="0" y1="0" x2="1" y2="1"><stop offset="0" stop-color="#faf5ff"/><stop offset="1" stop-color="#f3e8ff"/></linearGradient>
  <linearGradient id="bru_cos" x1="0" y1="0" x2="0" y2="1"><stop offset="0" stop-color="#e9d5ff"/><stop offset="1" stop-color="#c084fc"/></linearGradient></defs>
  <rect width="100" height="100" rx="16" fill="url(#bru_bg)"/>
  <ellipse cx="50" cy="88" rx="30" ry="4" fill="#0f172a" opacity=".08"/>
  <path d="M38 18 h24 l14 10 q4 2 2 6 l-4 8 q-2 4 -6 2 l-4 -3 v41 q-14 5 -28 0 V41 l-4 3 q-4 2 -6 -2 l-4 -8 q-2 -4 2 -6 z" fill="url(#bru_cos)"/>
  <path d="M38 18 q5 8 12 8 q7 0 12 -8 l-3 -1 q-4 6 -9 6 q-5 0 -9 -6 z" fill="#a855f7"/>
  <path d="M50 26 v56" stroke="#a855f7" stroke-width="1.6"/>
  <circle cx="50" cy="36" r="1.5" fill="#7e22ce"/>
  <circle cx="50" cy="48" r="1.5" fill="#7e22ce"/>
  <circle cx="50" cy="60" r="1.5" fill="#7e22ce"/>
  <path d="M34 70 q4 -5 8 0 M58 70 q4 -5 8 0" stroke="#a855f7" stroke-width="1.8" fill="none" stroke-linecap="round"/>
  <path d="M40 30 q-3 4 -2 8 M60 30 q3 4 2 8" stroke="#d8b4fe" stroke-width="1.8" stroke-linecap="round" fill="none"/>
</svg>
