<svg xmlns="http://www.w3.org/2000/svg" viewBox="0 0 100 100">
  <defs><linearGradient id="ncl_bg" x1="0" y1="0" x2="1" y2="1"><stop offset="0" stop-color="#f0fdf4"/><stop offset="1" stop-color="#dcfce7"/></linearGradient>
  <linearGradient id="ncl_cos" x1="0" y1="0" x2="0" y2="1"><stop offset="0" stop-color="#4ade80"/><stop offset="1" stop-color="#16a34a"/></linearGradient></defs>
  <rect width="100" height="100" rx="16" fill="url(#ncl_bg)"/>
  <ellipse cx="50" cy="86" rx="28" ry="4" fill="#0f172a" opacity=".08"/>
  <path d="M38 22 q12 -7 24 0 l13 8 q4 2 2 6 l-4 7 q-2 4 -6 2 l-3 -2 v37 h-28 V43 l-3 2 q-4 2 -6 -2 l-4 -7 q-2 -4 2 -6 z" fill="url(#ncl_cos)"/>
  <path d="M40 23.5 q10 -5 20 0 q-3.5 4.5 -10 4.5 q-6.5 0 -10 -4.5" fill="#dcfce7"/>
  <g transform="rotate(20 70 30)">
    <rect x="64" y="20" width="13" height="18" rx="2" fill="#fef3c7" stroke="#d97706" stroke-width="1.4"/>
    <circle cx="70.5" cy="24" r="1.5" fill="#d97706"/>
    <path d="M67 29 h7 M67 33 h5" stroke="#d97706" stroke-width="1.4" stroke-linecap="round"/>
    <path d="M70.5 20 q0 -6 -6 -4" stroke="#d97706" stroke-width="1.4" fill="none"/>
  </g>
  <g stroke="#fde047" stroke-width="2.4" stroke-linecap="round">
    <path d="M22 18 v8 M18 22 h8"/>
    <path d="M80 56 v6 M77 59 h6"/>
    <path d="M28 64 v5 M25.5 66.5 h5"/>
  </g>
</svg>
