<svg xmlns="http://www.w3.org/2000/svg" viewBox="0 0 100 100">
  <defs><linearGradient id="bot_bg" x1="0" y1="0" x2="1" y2="1"><stop offset="0" stop-color="#fff7ed"/><stop offset="1" stop-color="#ffedd5"/></linearGradient>
  <linearGradient id="bot_cuir" x1="0" y1="0" x2="0" y2="1"><stop offset="0" stop-color="#b45309"/><stop offset="1" stop-color="#78350f"/></linearGradient></defs>
  <rect width="100" height="100" rx="16" fill="url(#bot_bg)"/>
  <ellipse cx="50" cy="86" rx="34" ry="5" fill="#0f172a" opacity=".1"/>
  <path d="M20 18 h18 v32 q14 2 16 16 l1 8 h-35 z" fill="url(#bot_cuir)"/>
  <path d="M20 18 h18 v6 q-9 3 -18 0 z" fill="#92400e"/>
  <path d="M18 74 h38 q3 0 3 4 q0 4 -4 4 H20 q-3 0 -3 -4 z" fill="#44403c"/>
  <path d="M26 30 h6 M26 38 h6 M26 46 h6" stroke="#fbbf24" stroke-width="2.2" stroke-linecap="round"/>
  <path d="M56 26 h16 v24 q10 2 12 12 l1 6 h-29 z" fill="#92400e"/>
  <path d="M56 26 h16 v5 q-8 3 -16 0 z" fill="#b45309"/>
  <path d="M55 68 h30 q3 0 3 3.5 q0 3.5 -4 3.5 H57 q-3 0 -3 -3.5 z" fill="#57534e"/>
  <path d="M61 36 h5 M61 43 h5" stroke="#fbbf24" stroke-width="2" stroke-linecap="round"/>
</svg>
