<svg xmlns="http://www.w3.org/2000/svg" viewBox="0 0 100 100">
  <defs><linearGradient id="gnt_bg" x1="0" y1="0" x2="1" y2="1"><stop offset="0" stop-color="#eff6ff"/><stop offset="1" stop-color="#dbeafe"/></linearGradient>
  <linearGradient id="gnt_cos" x1="0" y1="0" x2="0" y2="1"><stop offset="0" stop-color="#3b82f6"/><stop offset="1" stop-color="#1d4ed8"/></linearGradient></defs>
  <rect width="100" height="100" rx="16" fill="url(#gnt_bg)"/>
  <ellipse cx="50" cy="88" rx="30" ry="4" fill="#0f172a" opacity=".08"/>
  <g transform="rotate(-10 32 50)">
    <path d="M22 78 v-14 q-7 -6 -8 -14 q0 -4 3.5 -3.5 q3 0 4 3.5 q1 4 3.5 5.5 v-22 q0 -4 3.5 -4 q3.5 0 3.5 4 v-4 q0 -4 3.5 -4 q3.5 0 3.5 4 v5 q0 -3.5 3.5 -3.5 q3.5 0 3.5 4 v7 q.7 -2.7 3.5 -2.7 q3.5 0 3.5 3.7 v13 q0 11 -8 16.5 v6 z" fill="url(#gnt_cos)"/>
    <path d="M22 72 h27 v6 h-27 z" fill="#1e3a8a"/>
  </g>
  <g transform="rotate(10 72 56) scale(-1 1) translate(-144 6)">
    <path d="M22 78 v-14 q-7 -6 -8 -14 q0 -4 3.5 -3.5 q3 0 4 3.5 q1 4 3.5 5.5 v-22 q0 -4 3.5 -4 q3.5 0 3.5 4 v-4 q0 -4 3.5 -4 q3.5 0 3.5 4 v5 q0 -3.5 3.5 -3.5 q3.5 0 3.5 4 v7 q.7 -2.7 3.5 -2.7 q3.5 0 3.5 3.7 v13 q0 11 -8 16.5 v6 z" fill="#2563eb"/>
    <path d="M22 72 h27 v6 h-27 z" fill="#1e40af"/>
  </g>
  <path d="M82 16 l-3 4 M86 22 l-4 2" stroke="#93c5fd" stroke-width="2" stroke-linecap="round" opacity="0"/>
  <path d="M14 18 q3 -3 6 0 M80 14 q3 -3 6 0" stroke="#bfdbfe" stroke-width="2.2" stroke-linecap="round" fill="none"/>
</svg>
