<svg xmlns="http://www.w3.org/2000/svg" viewBox="0 0 100 100">
  <defs><linearGradient id="anr_bg" x1="0" y1="0" x2="1" y2="1"><stop offset="0" stop-color="#eff6ff"/><stop offset="1" stop-color="#dbeafe"/></linearGradient>
  <linearGradient id="anr_cos" x1="0" y1="0" x2="0" y2="1"><stop offset="0" stop-color="#3b82f6"/><stop offset="1" stop-color="#1e40af"/></linearGradient></defs>
  <rect width="100" height="100" rx="16" fill="url(#anr_bg)"/>
  <ellipse cx="50" cy="88" rx="30" ry="4" fill="#0f172a" opacity=".08"/>
  <path d="M36 20 q14 -10 28 0 l12 8 q4 3 2 8 l-4 10 q-2 4 -6 2 l-2 -2 v36 h-32 V46 l-2 2 q-4 2 -6 -2 l-4 -10 q-2 -5 2 -8 z" fill="url(#anr_cos)"/>
  <path d="M36 20 q14 -10 28 0 l-4 4 q-10 -7 -20 0 z" fill="#1e3a8a"/>
  <path d="M38 28 h24 M37 38 h26 M36 48 h28 M34 58 h32 M34 68 h32" stroke="#1d4ed8" stroke-width="2.2" stroke-linecap="round"/>
  <rect x="47.5" y="24" width="5" height="58" fill="#1e3a8a"/>
  <rect x="49" y="26" width="2" height="54" fill="#93c5fd"/>
  <circle cx="50" cy="84" r="3" fill="#fbbf24"/>
  <path d="M24 36 l-4 10 q-1 3 2 4 l4 1" fill="none" stroke="#1e3a8a" stroke-width="2"/>
  <path d="M76 36 l4 10 q1 3 -2 4 l-4 1" fill="none" stroke="#1e3a8a" stroke-width="2"/>
</svg>
