<svg xmlns="http://www.w3.org/2000/svg" viewBox="0 0 100 100">
  <defs><linearGradient id="brut_bg" x1="0" y1="0" x2="1" y2="1"><stop offset="0" stop-color="#fafaf9"/><stop offset="1" stop-color="#e7e5e4"/></linearGradient>
  <linearGradient id="brut_cos" x1="0" y1="0" x2="0" y2="1"><stop offset="0" stop-color="#f5f5f4"/><stop offset="1" stop-color="#d6d3d1"/></linearGradient></defs>
  <rect width="100" height="100" rx="16" fill="url(#brut_bg)"/>
  <ellipse cx="50" cy="86" rx="28" ry="4" fill="#0f172a" opacity=".08"/>
  <path d="M38 22 q12 -7 24 0 l13 8 q4 2 2 6 l-4 7 q-2 4 -6 2 l-3 -2 v37 h-28 V43 l-3 2 q-4 2 -6 -2 l-4 -7 q-2 -4 2 -6 z" fill="url(#brut_cos)"/>
  <path d="M40 23.5 q10 -5 20 0 q-3.5 4.5 -10 4.5 q-6.5 0 -10 -4.5" fill="#a8a29e"/>
  <path d="M42 44 q4 -3 7 0 q4 -2 5 2 q3 2 -1 4 q-2 3 -5 1 q-4 1 -5 -2 q-3 -2 -1 -5" fill="#92400e" opacity=".75"/>
  <ellipse cx="60" cy="62" rx="6" ry="4.5" fill="#713f12" opacity=".65"/>
  <ellipse cx="40" cy="70" rx="4" ry="3" fill="#a16207" opacity=".6"/>
  <circle cx="55" cy="50" r="2" fill="#92400e" opacity=".5"/>
  <circle cx="46" cy="58" r="1.6" fill="#713f12" opacity=".5"/>
  <path d="M64 40 q3 5 -1 8" stroke="#a16207" stroke-width="2" stroke-linecap="round" fill="none" opacity=".55"/>
  <path d="M74 74 q3 -2 4 -5 M22 70 q-2 -3 -2 -6" stroke="#a8a29e" stroke-width="1.6" stroke-linecap="round" fill="none"/>
  <circle cx="74" cy="22" r="1.6" fill="#78716c" opacity=".7"/>
  <circle cx="79" cy="27" r="1.2" fill="#78716c" opacity=".6"/>
</svg>
