<svg xmlns="http://www.w3.org/2000/svg" viewBox="0 0 100 100">
  <defs><linearGradient id="snd_bg" x1="0" y1="0" x2="1" y2="1"><stop offset="0" stop-color="#fefce8"/><stop offset="1" stop-color="#fef3c7"/></linearGradient></defs>
  <rect width="100" height="100" rx="16" fill="url(#snd_bg)"/>
  <ellipse cx="50" cy="84" rx="34" ry="5" fill="#0f172a" opacity=".08"/>
  <g transform="rotate(-12 34 50)">
    <ellipse cx="34" cy="52" rx="14" ry="30" fill="#b45309"/>
    <ellipse cx="34" cy="52" rx="11.5" ry="27" fill="#d97706"/>
    <path d="M24 38 q10 8 20 0" stroke="#92400e" stroke-width="4.5" fill="none" stroke-linecap="round"/>
    <path d="M24 52 q10 8 20 0" stroke="#92400e" stroke-width="4.5" fill="none" stroke-linecap="round"/>
  </g>
  <g transform="rotate(12 68 50)">
    <ellipse cx="68" cy="52" rx="14" ry="30" fill="#92400e"/>
    <ellipse cx="68" cy="52" rx="11.5" ry="27" fill="#b45309"/>
    <path d="M58 38 q10 8 20 0" stroke="#78350f" stroke-width="4.5" fill="none" stroke-linecap="round"/>
    <path d="M58 52 q10 8 20 0" stroke="#78350f" stroke-width="4.5" fill="none" stroke-linecap="round"/>
  </g>
  <circle cx="18" cy="22" r="5" fill="#fde047"/>
  <circle cx="18" cy="22" r="7.5" fill="#fde047" opacity=".3"/>
</svg>
