<svg xmlns="http://www.w3.org/2000/svg" viewBox="0 0 100 100">
  <defs><linearGradient id="smr_bg" x1="0" y1="0" x2="1" y2="1"><stop offset="0" stop-color="#fefce8"/><stop offset="1" stop-color="#fef3c7"/></linearGradient>
  <linearGradient id="smr_cos" x1="0" y1="0" x2="0" y2="1"><stop offset="0" stop-color="#fbbf24"/><stop offset="1" stop-color="#d97706"/></linearGradient></defs>
  <rect width="100" height="100" rx="16" fill="url(#smr_bg)"/>
  <ellipse cx="50" cy="88" rx="30" ry="4" fill="#0f172a" opacity=".08"/>
  <path d="M38 18 q12 -7 24 0 l14 9 q4 2 2 6 l-4 8 q-2 4 -6 2 l-4 -3 v42 h-28 V40 l-4 3 q-4 2 -6 -2 l-4 -8 q-2 -4 2 -6 z" fill="url(#smr_cos)"/>
  <path d="M38 18 q12 -7 24 0 q-4 7 -12 7 q-8 0 -12 -7" fill="#b45309"/>
  <path d="M40 19.5 q10 -5 20 0 q-3.5 4 -10 4 q-6.5 0 -10 -4" fill="#fefce8"/>
  <circle cx="50" cy="52" r="11" fill="#f8fafc"/>
  <path d="M44 52 q3 -6 6 0 q3 6 6 0" stroke="#f97316" stroke-width="2.5" fill="none" stroke-linecap="round"/>
  <path d="M24 33 l-4 8 q-1 2 1 3" fill="none" stroke="#b45309" stroke-width="1.6"/>
</svg>
