<svg xmlns="http://www.w3.org/2000/svg" viewBox="0 0 100 100">
  <defs><linearGradient id="mtj_bg" x1="0" y1="0" x2="1" y2="1"><stop offset="0" stop-color="#f0fdfa"/><stop offset="1" stop-color="#ccfbf1"/></linearGradient></defs>
  <rect width="100" height="100" rx="16" fill="url(#mtj_bg)"/>
  <ellipse cx="50" cy="86" rx="32" ry="4" fill="#0f172a" opacity=".08"/>
  <path d="M24 14 h18 v30 q0 4 3 6 l8 6 q6 5 1 11 q-5 6 -12 2 l-14 -10 q-4 -3 -4 -8 z" fill="#14b8a6"/>
  <path d="M24 14 h18 v8 q-9 3 -18 0 z" fill="#0f766e"/>
  <path d="M26 24 v8 M31 25 v8 M36 25 v8 M41 24 v8" stroke="#5eead4" stroke-width="1.6" opacity="0"/>
  <path d="M27 30 h12 M27 36 h12" stroke="#5eead4" stroke-width="2" stroke-linecap="round" opacity=".8"/>
  <path d="M54 18 h16 v26 q0 4 2.5 5.5 l7 5 q5.5 4.5 1 10 q-4.5 5 -10.5 1.5 l-12.5 -9 q-3.5 -2.5 -3.5 -7 z" fill="#f8fafc"/>
  <path d="M54 18 h16 v7 q-8 3 -16 0 z" fill="#cbd5e1"/>
  <path d="M57 32 h10 M57 38 h10" stroke="#94a3b8" stroke-width="2" stroke-linecap="round" opacity=".8"/>
  <circle cx="34" cy="62" r="2" fill="#99f6e4" opacity=".9"/>
  <circle cx="66" cy="58" r="2" fill="#e2e8f0"/>
</svg>
