<svg xmlns="http://www.w3.org/2000/svg" viewBox="0 0 100 100">
  <defs><linearGradient id="crb_bg" x1="0" y1="0" x2="1" y2="1"><stop offset="0" stop-color="#fef2f2"/><stop offset="1" stop-color="#fee2e2"/></linearGradient>
  <linearGradient id="crb_cos" x1="0" y1="0" x2="0" y2="1"><stop offset="0" stop-color="#ef4444"/><stop offset="1" stop-color="#991b1b"/></linearGradient></defs>
  <rect width="100" height="100" rx="16" fill="url(#crb_bg)"/>
  <ellipse cx="50" cy="90" rx="20" ry="3.5" fill="#0f172a" opacity=".08"/>
  <polygon points="40,12 60,12 55,24 45,24" fill="url(#crb_cos)"/>
  <path d="M45 24 h10 l6 40 q.5 4 -2.5 7 l-6 7 q-2.5 3 -5 0 l-6 -7 q-3 -3 -2.5 -7 z" fill="url(#crb_cos)"/>
  <path d="M45 24 h4 l-8 44 q-1.5 -2 -1.5 -4 z" fill="#f87171" opacity=".7"/>
  <path d="M42 36 l14 -8 M40 48 l16 -9 M39 60 l17 -9" stroke="#7f1d1d" stroke-width="3" opacity=".55"/>
  <polygon points="40,12 60,12 58,16 42,16" fill="#7f1d1d" opacity=".4"/>
</svg>
