<svg xmlns="http://www.w3.org/2000/svg" viewBox="0 0 100 100">
  <defs><linearGradient id="pij_bg" x1="0" y1="0" x2="1" y2="1"><stop offset="0" stop-color="#1e1b4b"/><stop offset="1" stop-color="#312e81"/></linearGradient>
  <linearGradient id="pij_cos" x1="0" y1="0" x2="0" y2="1"><stop offset="0" stop-color="#a5b4fc"/><stop offset="1" stop-color="#6366f1"/></linearGradient></defs>
  <rect width="100" height="100" rx="16" fill="url(#pij_bg)"/>
  <path d="M30 14 q10 -6 20 0 l11 7 q3 2 1.5 5 l-3 5 q-1.5 3 -4.5 1.5 l-3 -2 v19.5 h-24 V30.5 l-3 2 q-3 1.5 -4.5 -1.5 l-3 -5 q-1.5 -3 1.5 -5 z" fill="url(#pij_cos)"/>
  <path d="M40 15 q-5 16 -6 35 h3.5 q1 -17 5.5 -32 z M60 15 q5 16 6 35 h-3.5 q-1 -17 -5.5 -32 z" fill="#e0e7ff" opacity=".8"/>
  <circle cx="50" cy="28" r="1.4" fill="#312e81"/>
  <circle cx="50" cy="36" r="1.4" fill="#312e81"/>
  <circle cx="50" cy="44" r="1.4" fill="#312e81"/>
  <path d="M38 54 h24 l2 32 h-9 l-4 -22 h-2 l-4 22 h-9 z" fill="#818cf8"/>
  <path d="M40 56 l-1 28 M60 56 l1 28" stroke="#e0e7ff" stroke-width="1.8" fill="none" opacity=".7"/>
  <path d="M76 20 a8 8 0 1 0 6 13 a 6.5 6.5 0 0 1 -6 -13" fill="#fde047"/>
  <circle cx="22" cy="20" r="1.4" fill="#fde047"/><circle cx="82" cy="44" r="1.2" fill="#fde047"/><circle cx="16" cy="38" r="1" fill="#e0e7ff"/>
</svg>
