<svg xmlns="http://www.w3.org/2000/svg" viewBox="0 0 100 100">
  <defs><linearGradient id="fld_bg" x1="0" y1="0" x2="1" y2="1"><stop offset="0" stop-color="#fdf2f8"/><stop offset="1" stop-color="#fce7f3"/></linearGradient>
  <linearGradient id="fld_cos" x1="0" y1="0" x2="0" y2="1"><stop offset="0" stop-color="#ec4899"/><stop offset="1" stop-color="#be185d"/></linearGradient></defs>
  <rect width="100" height="100" rx="16" fill="url(#fld_bg)"/>
  <ellipse cx="50" cy="84" rx="34" ry="5" fill="#0f172a" opacity=".08"/>
  <rect x="34" y="18" width="32" height="9" rx="4" fill="#9d174d"/>
  <path d="M36 27 h28 l12 46 q1 4 -3 5 q-23 6 -46 0 q-4 -1 -3 -5 z" fill="url(#fld_cos)"/>
  <path d="M36 27 h9 l-8 50 q-7 -1 -9 -4 q-1 -2 0 -4 z" fill="#f472b6" opacity=".7"/>
  <path d="M45 27 l-8 51 M55 27 l8 51 M50 27 v52" stroke="#9d174d" stroke-width="1.8" fill="none" opacity=".6"/>
  <path d="M24 73 q26 8 52 0" stroke="#9d174d" stroke-width="2.5" fill="none"/>
  <circle cx="50" cy="22.5" r="1.8" fill="#fbcfe8"/>
</svg>
