<svg xmlns="http://www.w3.org/2000/svg" viewBox="0 0 100 100">
  <defs><linearGradient id="ame_bg" x1="0" y1="0" x2="1" y2="1"><stop offset="0" stop-color="#f8fafc"/><stop offset="1" stop-color="#e2e8f0"/></linearGradient>
  <linearGradient id="ame_cos" x1="0" y1="0" x2="0" y2="1"><stop offset="0" stop-color="#334155"/><stop offset="1" stop-color="#0f172a"/></linearGradient></defs>
  <rect width="100" height="100" rx="16" fill="url(#ame_bg)"/>
  <ellipse cx="50" cy="88" rx="30" ry="4" fill="#0f172a" opacity=".08"/>
  <path d="M38 16 h24 l14 10 q4 2 2 6 l-4 8 q-2 4 -6 2 l-4 -3 v43 h-28 V39 l-4 3 q-4 2 -6 -2 l-4 -8 q-2 -4 2 -6 z" fill="url(#ame_cos)"/>
  <path d="M38 16 l12 14 l-9 8 l-7 -16 q0 -4 4 -6" fill="#1e293b"/>
  <path d="M62 16 l-12 14 l9 8 l7 -16 q0 -4 -4 -6" fill="#1e293b"/>
  <path d="M38 16 l12 14 l12 -14" fill="none" stroke="#475569" stroke-width="1.6"/>
  <path d="M50 30 l-8 52 M50 30 l8 52" stroke="#0f172a" stroke-width="1.8" fill="none"/>
  <path d="M50 30 l-7 52 h14 z" fill="#f8fafc" opacity=".9"/>
  <path d="M50 36 l-5 46 h10 z" fill="#cbd5e1"/>
  <circle cx="50" cy="60" r="1.6" fill="#334155"/>
  <circle cx="50" cy="70" r="1.6" fill="#334155"/>
  <rect x="58" y="52" width="10" height="3.5" rx="1.7" fill="#475569"/>
  <rect x="32" y="52" width="10" height="3.5" rx="1.7" fill="#475569"/>
</svg>
