<svg xmlns="http://www.w3.org/2000/svg" viewBox="0 0 100 100">
  <defs><linearGradient id="sbt_bg" x1="0" y1="0" x2="1" y2="1"><stop offset="0" stop-color="#fef2f2"/><stop offset="1" stop-color="#fee2e2"/></linearGradient>
  <linearGradient id="sbt_cos" x1="0" y1="0" x2="0" y2="1"><stop offset="0" stop-color="#ef4444"/><stop offset="1" stop-color="#b91c1c"/></linearGradient></defs>
  <rect width="100" height="100" rx="16" fill="url(#sbt_bg)"/>
  <ellipse cx="50" cy="82" rx="36" ry="5" fill="#0f172a" opacity=".1"/>
  <path d="M14 64 q0 -18 12 -22 q6 -2 10 2 q6 6 16 8 q16 3 28 12 l2 4 q1 4 -4 4 H18 q-4 0 -4 -8" fill="url(#sbt_cos)"/>
  <path d="M26 42 q6 -2 10 2 q6 6 16 8 l-4 8 q-12 -2 -22 -10 q-2 -6 0 -8" fill="#f8fafc"/>
  <path d="M32 48 l6 6 M38 44 l6 6" stroke="#cbd5e1" stroke-width="2" stroke-linecap="round"/>
  <path d="M14 68 q36 6 68 0 v2 q0 4 -4 4 H18 q-4 0 -4 -6" fill="#f8fafc"/>
  <path d="M48 52 q4 1 8 1 M44 58 q6 2 12 1" stroke="#7f1d1d" stroke-width="2" stroke-linecap="round" fill="none"/>
  <circle cx="30" cy="46" r="1.6" fill="#475569"/><circle cx="36" cy="52" r="1.6" fill="#475569"/>
</svg>
