<svg xmlns="http://www.w3.org/2000/svg" viewBox="0 0 100 100">
  <defs><linearGradient id="cin_bg" x1="0" y1="0" x2="1" y2="1"><stop offset="0" stop-color="#fff7ed"/><stop offset="1" stop-color="#ffedd5"/></linearGradient>
  <linearGradient id="cin_cuir" x1="0" y1="0" x2="0" y2="1"><stop offset="0" stop-color="#92400e"/><stop offset="1" stop-color="#451a03"/></linearGradient></defs>
  <rect width="100" height="100" rx="16" fill="url(#cin_bg)"/>
  <ellipse cx="50" cy="78" rx="34" ry="4" fill="#0f172a" opacity=".08"/>
  <path d="M12 42 q38 -12 64 0 l-2 18 q-28 -10 -60 0 z" fill="url(#cin_cuir)" transform="rotate(-4 50 50)"/>
  <path d="M14 44 q36 -11 60 0 l-.7 5 q-28 -10 -58.5 0 z" fill="#b45309" opacity=".5" transform="rotate(-4 50 50)"/>
  <g transform="rotate(-4 78 52)">
    <rect x="68" y="38" width="20" height="24" rx="4" fill="none" stroke="#fbbf24" stroke-width="5"/>
    <rect x="76" y="40" width="4" height="20" rx="2" fill="#fbbf24"/>
  </g>
  <circle cx="24" cy="49" r="1.8" fill="#fbbf24"/>
  <circle cx="34" cy="47" r="1.8" fill="#fbbf24"/>
  <circle cx="44" cy="45.5" r="1.8" fill="#fbbf24"/>
  <circle cx="54" cy="45" r="1.8" fill="#fbbf24"/>
</svg>
