<svg xmlns="http://www.w3.org/2000/svg" viewBox="0 0 100 100">
  <defs><linearGradient id="buf_bg" x1="0" y1="0" x2="1" y2="1"><stop offset="0" stop-color="#fef2f2"/><stop offset="1" stop-color="#fee2e2"/></linearGradient></defs>
  <rect width="100" height="100" rx="16" fill="url(#buf_bg)"/>
  <ellipse cx="50" cy="88" rx="28" ry="4" fill="#0f172a" opacity=".08"/>
  <path d="M24 30 q26 -14 52 0 q4 2 3 7 q-2 8 -10 9 q-18 5 -38 0 q-8 -1 -10 -9 q-1 -5 3 -7" fill="#dc2626"/>
  <path d="M24 30 q26 -14 52 0 l-2 4 q-24 -11 -48 0 z" fill="#ef4444"/>
  <path d="M34 46 l-4 34 q0 4 5 4 h8 q4 0 4 -4 l1 -32" fill="#dc2626"/>
  <path d="M34 46 l-1 8 q8 3 15 1 l.5 -7 q-7 2 -14.5 -2" fill="#b91c1c"/>
  <path d="M30 80 h17 M31 74 h16" stroke="#b91c1c" stroke-width="0"/>
  <g stroke="#fca5a5" stroke-width="2.2" stroke-linecap="round">
    <path d="M32 60 h14 M31 68 h15"/>
  </g>
  <g stroke="#7f1d1d" stroke-width="2.5" stroke-linecap="round">
    <path d="M32 84 v6 M37 84 v6 M42 84 v6"/>
  </g>
  <path d="M30 34 q20 -8 40 0" stroke="#fca5a5" stroke-width="2.2" stroke-linecap="round" fill="none"/>
</svg>
