<svg xmlns="http://www.w3.org/2000/svg" viewBox="0 0 100 100">
  <defs><linearGradient id="abr_bg" x1="0" y1="0" x2="1" y2="1"><stop offset="0" stop-color="#fff7ed"/><stop offset="1" stop-color="#ffedd5"/></linearGradient>
  <linearGradient id="abr_cos" x1="0" y1="0" x2="0" y2="1"><stop offset="0" stop-color="#a16207"/><stop offset="1" stop-color="#713f12"/></linearGradient></defs>
  <rect width="100" height="100" rx="16" fill="url(#abr_bg)"/>
  <ellipse cx="50" cy="90" rx="30" ry="3.5" fill="#0f172a" opacity=".08"/>
  <path d="M36 14 h28 l12 9 q4 3 2 7 l-3 7 q-2 4 -6 2 l-3 -2 v49 h-32 V37 l-3 2 q-4 2 -6 -2 l-3 -7 q-2 -4 2 -7 z" fill="url(#abr_cos)"/>
  <path d="M36 14 l14 12 l-10 7 l-8 -13 q1 -4 4 -6" fill="#854d0e"/>
  <path d="M64 14 l-14 12 l10 7 l8 -13 q-1 -4 -4 -6" fill="#854d0e"/>
  <path d="M36 14 l14 12 l14 -12" fill="none" stroke="#fbbf24" stroke-width="1.5" opacity=".5"/>
  <path d="M50 26 v60" stroke="#451a03" stroke-width="2.5"/>
  <circle cx="44" cy="42" r="2.2" fill="#451a03"/>
  <circle cx="44" cy="56" r="2.2" fill="#451a03"/>
  <circle cx="44" cy="70" r="2.2" fill="#451a03"/>
  <rect x="56" y="56" width="11" height="4" rx="2" fill="#451a03"/>
  <rect x="33" y="56" width="0" height="4" rx="2" fill="#451a03"/>
  <path d="M32 86 h36" stroke="#451a03" stroke-width="2.5"/>
</svg>
