<svg xmlns="http://www.w3.org/2000/svg" viewBox="0 0 100 100">
  <defs><linearGradient id="xnd_bg" x1="0" y1="0" x2="1" y2="1"><stop offset="0" stop-color="#eff6ff"/><stop offset="1" stop-color="#dbeafe"/></linearGradient></defs>
  <rect width="100" height="100" rx="16" fill="url(#xnd_bg)"/>
  <ellipse cx="50" cy="90" rx="32" ry="3.5" fill="#0f172a" opacity=".08"/>
  <path d="M30 12 q10 -6 20 0 l11 6 q3 2 1.5 5 l-3 6 q-1.5 3 -4.5 1.5 l-3 -2 v22 h-24 V28.5 l-3 2 q-3 1.5 -4.5 -1.5 l-3 -6 q-1.5 -3 1.5 -5 z" fill="#1d4ed8"/>
  <path d="M30 12 q10 -6 20 0 q-3.5 6 -10 6 q-6.5 0 -10 -6" fill="#1e3a8a"/>
  <path d="M40 13 q-6 18 -7 37 h4 q1 -18 6 -34 z" fill="#f8fafc"/>
  <path d="M60 13 q6 18 7 37 h-4 q-1 -18 -6 -34 z" fill="#f8fafc"/>
  <rect x="38" y="54" width="24" height="6" fill="#1e40af"/>
  <path d="M38 60 h24 l2 26 h-10 l-3.5 -18 h-1 l-3.5 18 h-10 z" fill="#2563eb"/>
  <path d="M40 62 l-1 22 M60 62 l1 22" stroke="#f8fafc" stroke-width="2.2" fill="none"/>
</svg>
