<svg xmlns="http://www.w3.org/2000/svg" viewBox="0 0 100 100">
  <defs><linearGradient id="cms_bg" x1="0" y1="0" x2="1" y2="1"><stop offset="0" stop-color="#f0f9ff"/><stop offset="1" stop-color="#e0f2fe"/></linearGradient>
  <linearGradient id="cms_cos" x1="0" y1="0" x2="0" y2="1"><stop offset="0" stop-color="#e0f2fe"/><stop offset="1" stop-color="#bae6fd"/></linearGradient></defs>
  <rect width="100" height="100" rx="16" fill="url(#cms_bg)"/>
  <ellipse cx="50" cy="88" rx="30" ry="4" fill="#0f172a" opacity=".08"/>
  <path d="M38 18 h24 l14 10 q4 2 2 6 l-4 8 q-2 4 -6 2 l-4 -3 v41 h-28 V41 l-4 3 q-4 2 -6 -2 l-4 -8 q-2 -4 2 -6 z" fill="url(#cms_cos)"/>
  <path d="M38 18 l12 10 l-8 6 l-8 -10 q1 -4 4 -6" fill="#f8fafc"/>
  <path d="M62 18 l-12 10 l8 6 l8 -10 q-1 -4 -4 -6" fill="#f8fafc"/>
  <path d="M38 18 l12 10 l12 -10" fill="none" stroke="#7dd3fc" stroke-width="1.6"/>
  <path d="M50 28 v54" stroke="#7dd3fc" stroke-width="1.8"/>
  <circle cx="50" cy="38" r="1.6" fill="#0284c7"/>
  <circle cx="50" cy="50" r="1.6" fill="#0284c7"/>
  <circle cx="50" cy="62" r="1.6" fill="#0284c7"/>
  <circle cx="50" cy="74" r="1.6" fill="#0284c7"/>
  <rect x="56" y="44" width="11" height="13" rx="1.5" fill="none" stroke="#7dd3fc" stroke-width="1.5"/>
</svg>
