<svg xmlns="http://www.w3.org/2000/svg" viewBox="0 0 100 100">
  <defs><linearGradient id="jaq_bg" x1="0" y1="0" x2="1" y2="1"><stop offset="0" stop-color="#f0fdfa"/><stop offset="1" stop-color="#ccfbf1"/></linearGradient>
  <linearGradient id="jaq_cos" x1="0" y1="0" x2="0" y2="1"><stop offset="0" stop-color="#0d9488"/><stop offset="1" stop-color="#115e59"/></linearGradient></defs>
  <rect width="100" height="100" rx="16" fill="url(#jaq_bg)"/>
  <ellipse cx="50" cy="88" rx="30" ry="4" fill="#0f172a" opacity=".08"/>
  <path d="M38 16 h24 l14 10 q4 2 2 6 l-4 8 q-2 4 -6 2 l-4 -3 v43 h-28 V39 l-4 3 q-4 2 -6 -2 l-4 -8 q-2 -4 2 -6 z" fill="url(#jaq_cos)"/>
  <path d="M38 16 l10 10 l-7 6 l-7 -10 q1 -4 4 -6" fill="#134e4a"/>
  <path d="M62 16 l-10 10 l7 6 l7 -10 q-1 -4 -4 -6" fill="#134e4a"/>
  <rect x="47.8" y="26" width="4.4" height="56" fill="#134e4a"/>
  <rect x="49.3" y="28" width="1.6" height="52" fill="#5eead4"/>
  <circle cx="50" cy="84" r="2.5" fill="#fbbf24"/>
  <rect x="32" y="56" width="11" height="9" rx="2" fill="#134e4a"/>
  <rect x="57" y="56" width="11" height="9" rx="2" fill="#134e4a"/>
  <rect x="32" y="56" width="11" height="3" fill="#0f766e"/>
  <rect x="57" y="56" width="11" height="3" fill="#0f766e"/>
  <path d="M30 80 h16 M54 80 h16" stroke="#134e4a" stroke-width="3"/>
</svg>
