<svg xmlns="http://www.w3.org/2000/svg" viewBox="0 0 100 100">
  <defs><linearGradient id="grm_bg" x1="0" y1="0" x2="1" y2="1"><stop offset="0" stop-color="#eff6ff"/><stop offset="1" stop-color="#dbeafe"/></linearGradient></defs>
  <rect width="100" height="100" rx="16" fill="url(#grm_bg)"/>
  <ellipse cx="50" cy="90" rx="32" ry="3.5" fill="#0f172a" opacity=".08"/>
  <path d="M60 30 q0 -9 9 -9 q9 0 9 9 l.7 10 q0 4 -3.4 4 h-12.6 q-3.4 0 -3.4 -4 z" fill="#713f12" opacity=".5"/>
  <circle cx="69" cy="32" r="9" fill="#fcd9b8" opacity=".5"/>
  <path d="M60 30 q0 -8 9 -8 q9 0 9 8 q-3.6 -4 -9 -4 q-5.4 0 -9 4" fill="#854d0e" opacity=".5"/>
  <path d="M58 62 q1 -18 11 -18 q10 0 11 18 q-11 3.5 -22 0" fill="#db2777" opacity=".5"/>
  <rect x="64" y="62" width="4.5" height="13" rx="2.2" fill="#fcd9b8" opacity=".5"/>
  <rect x="70.5" y="62" width="4.5" height="13" rx="2.2" fill="#fcd9b8" opacity=".5"/>
  <circle cx="33" cy="30" r="10" fill="#fcd9b8"/>
  <path d="M23 28 q0 -9 10 -9 q10 0 10 9 q-4 -4.5 -10 -4.5 q-6 0 -10 4.5" fill="#92400e"/>
  <circle cx="30" cy="30" r="1.4" fill="#1e293b"/><circle cx="36.5" cy="30" r="1.4" fill="#1e293b"/>
  <path d="M31 35 q2.5 1.8 5 0" stroke="#92400e" stroke-width="1.3" stroke-linecap="round" fill="none"/>
  <path d="M21 64 q-2 -23 12 -23 q14 0 12 23 z" fill="#2563eb"/>
  <path d="M21 64 q-2 -23 12 -23 q4 0 7 3 l-7 8.5 z" fill="#3b82f6"/>
  <rect x="25" y="62" width="6.5" height="20" rx="3" fill="#1e3a8a"/>
  <rect x="34" y="62" width="6.5" height="20" rx="3" fill="#1e40af"/>
  <circle cx="33" cy="50" r="23" fill="none" stroke="#2563eb" stroke-width="2.5" stroke-dasharray="6 4"/>
</svg>
