<svg xmlns="http://www.w3.org/2000/svg" viewBox="0 0 100 100">
  <defs><linearGradient id="mar_bg" x1="0" y1="0" x2="1" y2="1"><stop offset="0" stop-color="#fdf2f8"/><stop offset="1" stop-color="#fce7f3"/></linearGradient></defs>
  <rect width="100" height="100" rx="16" fill="url(#mar_bg)"/>
  <ellipse cx="50" cy="90" rx="32" ry="3.5" fill="#0f172a" opacity=".08"/>
  <path d="M29 20 q0 -11 11 -11 q11 0 11 11 l1 12 q0 5 -4 5 h-15 q-4 0 -4 -5 z" fill="#713f12"/>
  <circle cx="40" cy="22" r="11" fill="#fcd9b8"/>
  <path d="M29 20 q0 -10 11 -10 q11 0 11 10 q-4.5 -5 -11 -5 q-6.5 0 -11 5" fill="#854d0e"/>
  <circle cx="36.5" cy="22" r="1.5" fill="#1e293b"/><circle cx="43.5" cy="22" r="1.5" fill="#1e293b"/>
  <path d="M37 27.5 q3 2 6 0" stroke="#92400e" stroke-width="1.4" stroke-linecap="round" fill="none"/>
  <path d="M24 64 q0 -31 16 -31 q16 0 16 31 q-16 5 -32 0" fill="#db2777"/>
  <path d="M24 64 q0 -31 16 -31 q5 0 8 3.5 l-8 10 z" fill="#ec4899"/>
  <rect x="32" y="64" width="6" height="24" rx="3" fill="#fcd9b8"/>
  <rect x="42" y="64" width="6" height="24" rx="3" fill="#fcd9b8"/>
  <ellipse cx="35" cy="88" rx="5" ry="2.8" fill="#9d174d"/>
  <ellipse cx="45" cy="88" rx="5" ry="2.8" fill="#9d174d"/>
  <path d="M52 40 q10 6 14 18" stroke="#fcd9b8" stroke-width="5.5" stroke-linecap="round" fill="none"/>
  <path d="M65 49 q0 -7 7 -7 q7 0 7 7 l.6 8 q0 3.4 -2.6 3.4 h-10 q-2.6 0 -2.6 -3.4 z" fill="#854d0e"/>
  <circle cx="72" cy="52" r="7" fill="#fcd9b8"/>
  <path d="M65 50.5 q0 -6.5 7 -6.5 q7 0 7 6.5 q-3 -3.2 -7 -3.2 q-4 0 -7 3.2" fill="#92400e"/>
  <circle cx="70" cy="52" r="1" fill="#1e293b"/><circle cx="74.5" cy="52" r="1" fill="#1e293b"/>
  <path d="M70.5 55.5 q1.8 1.3 3.6 0" stroke="#92400e" stroke-width="1" stroke-linecap="round" fill="none"/>
  <path d="M65 77 q0 -17 7 -17 q7 0 7 17 q-7 2.5 -14 0" fill="#a855f7"/>
  <rect x="68.5" y="76" width="3.2" height="11" rx="1.6" fill="#fcd9b8"/>
  <rect x="73" y="76" width="3.2" height="11" rx="1.6" fill="#fcd9b8"/>
</svg>
