<svg xmlns="http://www.w3.org/2000/svg" viewBox="0 0 100 100">
  <defs><linearGradient id="cnr_bg" x1="0" y1="0" x2="1" y2="1"><stop offset="0" stop-color="#f0fdfa"/><stop offset="1" stop-color="#ccfbf1"/></linearGradient>
  <linearGradient id="cnr_cos" x1="0" y1="0" x2="0" y2="1"><stop offset="0" stop-color="#fde047"/><stop offset="1" stop-color="#eab308"/></linearGradient></defs>
  <rect width="100" height="100" rx="16" fill="url(#cnr_bg)"/>
  <ellipse cx="50" cy="88" rx="26" ry="4" fill="#0f172a" opacity=".08"/>
  <path d="M24 84 h52" stroke="#92400e" stroke-width="3.5" stroke-linecap="round"/>
  <ellipse cx="50" cy="52" rx="20" ry="23" fill="url(#cnr_cos)"/>
  <circle cx="50" cy="32" r="13" fill="#fde047"/>
  <path d="M62 30 l10 3 l-10 4 z" fill="#f97316"/>
  <circle cx="55" cy="28" r="2.4" fill="#1e293b"/>
  <circle cx="54.3" cy="27.3" r=".8" fill="#fff"/>
  <path d="M38 50 q-8 6 -6 16 q6 -2 12 -8 z" fill="#facc15"/>
  <path d="M36 54 q-4 4 -3 9" stroke="#ca8a04" stroke-width="1.4" fill="none"/>
  <path d="M50 75 l-7 10 M50 75 l7 10" stroke="#f97316" stroke-width="0"/>
  <path d="M46 74 v8 m-3 -2 l3 2 l3 -2 M54 74 v8 m-3 -2 l3 2 l3 -2" stroke="#f97316" stroke-width="2.2" stroke-linecap="round" stroke-linejoin="round" fill="none"/>
  <path d="M44 18 q2 -4 6 -2" stroke="#eab308" stroke-width="2" stroke-linecap="round" fill="none"/>
  <path d="M70 18 q4 0 4 4 M76 14 q5 1 5 6" stroke="#14b8a6" stroke-width="2" stroke-linecap="round" fill="none" opacity=".7"/>
</svg>
