<svg xmlns="http://www.w3.org/2000/svg" viewBox="0 0 100 100">
  <defs><linearGradient id="avi_bg" x1="0" y1="0" x2="1" y2="1"><stop offset="0" stop-color="#f8fafc"/><stop offset="1" stop-color="#e2e8f0"/></linearGradient></defs>
  <rect width="100" height="100" rx="16" fill="url(#avi_bg)"/>
  <ellipse cx="50" cy="90" rx="28" ry="3.5" fill="#0f172a" opacity=".08"/>
  <circle cx="46" cy="24" r="12" fill="#fcd9b8"/>
  <path d="M34 22 q0 -8 6 -10 q1 3 6 3 q8 -1 11 3 q2 2 1 5 q-5 -4 -12 -4 q-7 0 -12 3" fill="#e2e8f0"/>
  <circle cx="42.5" cy="24" r="1.5" fill="#1e293b"/><circle cx="49.5" cy="24" r="1.5" fill="#1e293b"/>
  <circle cx="42.5" cy="24" r="3.2" fill="none" stroke="#475569" stroke-width="1.2"/>
  <circle cx="49.5" cy="24" r="3.2" fill="none" stroke="#475569" stroke-width="1.2"/>
  <line x1="45.7" y1="24" x2="46.3" y2="24" stroke="#475569" stroke-width="1.2"/>
  <path d="M40 22 q2 -1.5 4 -.5 M48 21.5 q2 -1 4 .5" stroke="#cbd5e1" stroke-width="1.6" stroke-linecap="round" fill="none"/>
  <path d="M43 30 q3 2 6 0" stroke="#92400e" stroke-width="1.4" stroke-linecap="round" fill="none"/>
  <path d="M32 64 q-2 -29 14 -29 q16 0 14 29 z" fill="#57534e"/>
  <path d="M32 64 q-2 -29 14 -29 q5 0 8 3.5 l-8 10 z" fill="#78716c"/>
  <path d="M38 44 v8 M38 48 h16 M54 44 v8" stroke="#44403c" stroke-width="0"/>
  <rect x="36" y="62" width="7.5" height="26" rx="3.5" fill="#44403c"/>
  <rect x="47" y="62" width="7.5" height="26" rx="3.5" fill="#292524"/>
  <path d="M58 42 q8 4 9 14" stroke="#fcd9b8" stroke-width="5" stroke-linecap="round" fill="none"/>
  <path d="M68 58 v28" stroke="#92400e" stroke-width="4" stroke-linecap="round"/>
  <path d="M68 58 q0 -5 4 -5" stroke="#92400e" stroke-width="4" stroke-linecap="round" fill="none"/>
</svg>
