<svg xmlns="http://www.w3.org/2000/svg" viewBox="0 0 100 100">
  <defs><linearGradient id="fil_bg" x1="0" y1="0" x2="1" y2="1"><stop offset="0" stop-color="#eff6ff"/><stop offset="1" stop-color="#dbeafe"/></linearGradient></defs>
  <rect width="100" height="100" rx="16" fill="url(#fil_bg)"/>
  <ellipse cx="50" cy="90" rx="32" ry="3.5" fill="#0f172a" opacity=".08"/>
  <circle cx="32" cy="24" r="10" fill="#fcd9b8" opacity=".45"/>
  <path d="M22 22 q0 -9 10 -9 q10 0 10 9 q-4 -4.5 -10 -4.5 q-6 0 -10 4.5" fill="#44403c" opacity=".45"/>
  <path d="M20 60 q-2 -26 12 -26 q14 0 12 26 z" fill="#64748b" opacity=".45"/>
  <rect x="24" y="58" width="7" height="28" rx="3" fill="#475569" opacity=".45"/>
  <rect x="33" y="58" width="7" height="28" rx="3" fill="#334155" opacity=".45"/>
  <circle cx="66" cy="42" r="10" fill="#fcd9b8"/>
  <path d="M56 40 q0 -9 10 -9 q10 0 10 9 q-4 -4.5 -10 -4.5 q-6 0 -10 4.5" fill="#92400e"/>
  <circle cx="63" cy="42" r="1.4" fill="#1e293b"/><circle cx="69.5" cy="42" r="1.4" fill="#1e293b"/>
  <path d="M64 47 q2.5 1.8 5 0" stroke="#92400e" stroke-width="1.3" stroke-linecap="round" fill="none"/>
  <path d="M54 74 q-2 -22 12 -22 q14 0 12 22 z" fill="#16a34a"/>
  <path d="M54 74 q-2 -22 12 -22 q4 0 7 3 l-7 8 z" fill="#22c55e"/>
  <rect x="58" y="72" width="6.5" height="16" rx="3" fill="#1e40af"/>
  <rect x="67" y="72" width="6.5" height="16" rx="3" fill="#1e3a8a"/>
  <circle cx="66" cy="58" r="24" fill="none" stroke="#16a34a" stroke-width="2.5" stroke-dasharray="6 4"/>
</svg>
