<svg xmlns="http://www.w3.org/2000/svg" viewBox="0 0 100 100">
  <defs><linearGradient id="tia_bg" x1="0" y1="0" x2="1" y2="1"><stop offset="0" stop-color="#fff7ed"/><stop offset="1" stop-color="#ffedd5"/></linearGradient></defs>
  <rect width="100" height="100" rx="16" fill="url(#tia_bg)"/>
  <ellipse cx="50" cy="90" rx="26" ry="3.5" fill="#0f172a" opacity=".08"/>
  <path d="M38 24 q0 -12 12 -12 q12 0 12 12 l1 14 q0 5 -4.5 5 h-17 q-4.5 0 -4.5 -5 z" fill="#1c1917"/>
  <circle cx="50" cy="26" r="12" fill="#fcd9b8"/>
  <path d="M38 24 q0 -11 12 -11 q12 0 12 11 q-5 -5.5 -12 -5.5 q-7 0 -12 5.5" fill="#292524"/>
  <circle cx="46" cy="26" r="1.6" fill="#1e293b"/><circle cx="54" cy="26" r="1.6" fill="#1e293b"/>
  <path d="M46.5 32 q3.5 2.4 7 0" stroke="#92400e" stroke-width="1.5" stroke-linecap="round" fill="none"/>
  <circle cx="40" cy="32" r="2" fill="#fbbf24"/>
  <circle cx="60" cy="32" r="2" fill="#fbbf24"/>
  <path d="M32 70 q0 -32 18 -32 q18 0 18 32 q-18 5 -36 0" fill="#ea580c"/>
  <path d="M32 70 q0 -32 18 -32 q5 0 9 4 l-9 10 z" fill="#f97316"/>
  <rect x="42" y="70" width="6" height="18" rx="3" fill="#fcd9b8"/>
  <rect x="52" y="70" width="6" height="18" rx="3" fill="#fcd9b8"/>
  <ellipse cx="45" cy="88" rx="5" ry="2.6" fill="#7c2d12"/>
  <ellipse cx="55" cy="88" rx="5" ry="2.6" fill="#7c2d12"/>
</svg>
