<svg xmlns="http://www.w3.org/2000/svg" viewBox="0 0 100 100">
  <defs><linearGradient id="fll_bg" x1="0" y1="0" x2="1" y2="1"><stop offset="0" stop-color="#fdf2f8"/><stop offset="1" stop-color="#fce7f3"/></linearGradient></defs>
  <rect width="100" height="100" rx="16" fill="url(#fll_bg)"/>
  <ellipse cx="50" cy="90" rx="32" ry="3.5" fill="#0f172a" opacity=".08"/>
  <circle cx="32" cy="24" r="10" fill="#fcd9b8" opacity=".45"/>
  <path d="M22 22 q0 -9 10 -9 q10 0 10 9 q-4 -4.5 -10 -4.5 q-6 0 -10 4.5" fill="#44403c" opacity=".45"/>
  <path d="M20 60 q-2 -26 12 -26 q14 0 12 26 z" fill="#64748b" opacity=".45"/>
  <rect x="24" y="58" width="7" height="28" rx="3" fill="#475569" opacity=".45"/>
  <rect x="33" y="58" width="7" height="28" rx="3" fill="#334155" opacity=".45"/>
  <path d="M56 40 q0 -10 10 -10 q10 0 10 10 l.8 11 q0 4.5 -3.8 4.5 h-14 q-3.8 0 -3.8 -4.5 z" fill="#713f12"/>
  <circle cx="66" cy="42" r="10" fill="#fcd9b8"/>
  <path d="M56 40 q0 -9 10 -9 q10 0 10 9 q-4 -4.5 -10 -4.5 q-6 0 -10 4.5" fill="#854d0e"/>
  <circle cx="63" cy="42" r="1.4" fill="#1e293b"/><circle cx="69.5" cy="42" r="1.4" fill="#1e293b"/>
  <path d="M64 47 q2.5 1.8 5 0" stroke="#92400e" stroke-width="1.3" stroke-linecap="round" fill="none"/>
  <circle cx="75" cy="31" r="2.4" fill="#ec4899"/>
  <path d="M53 72 q1 -20 13 -20 q12 0 13 20 q-13 4 -26 0" fill="#db2777"/>
  <rect x="60" y="72" width="5" height="14" rx="2.5" fill="#fcd9b8"/>
  <rect x="67" y="72" width="5" height="14" rx="2.5" fill="#fcd9b8"/>
  <ellipse cx="62.5" cy="87" rx="4.5" ry="2.5" fill="#9d174d"/>
  <ellipse cx="69.5" cy="87" rx="4.5" ry="2.5" fill="#9d174d"/>
  <circle cx="66" cy="58" r="24" fill="none" stroke="#db2777" stroke-width="2.5" stroke-dasharray="6 4"/>
</svg>
