<svg xmlns="http://www.w3.org/2000/svg" viewBox="0 0 100 100">
  <defs><linearGradient id="ava_bg" x1="0" y1="0" x2="1" y2="1"><stop offset="0" stop-color="#faf5ff"/><stop offset="1" stop-color="#f3e8ff"/></linearGradient></defs>
  <rect width="100" height="100" rx="16" fill="url(#ava_bg)"/>
  <ellipse cx="50" cy="90" rx="28" ry="3.5" fill="#0f172a" opacity=".08"/>
  <circle cx="46" cy="12" r="6" fill="#e2e8f0"/>
  <circle cx="46" cy="24" r="12" fill="#fcd9b8"/>
  <path d="M34 22 q0 -10 12 -10 q12 0 12 10 q-5 -5 -12 -5 q-7 0 -12 5" fill="#e2e8f0"/>
  <circle cx="42.5" cy="24" r="1.5" fill="#1e293b"/><circle cx="49.5" cy="24" r="1.5" fill="#1e293b"/>
  <circle cx="42.5" cy="24" r="3.2" fill="none" stroke="#7e22ce" stroke-width="1.2"/>
  <circle cx="49.5" cy="24" r="3.2" fill="none" stroke="#7e22ce" stroke-width="1.2"/>
  <line x1="45.7" y1="24" x2="46.3" y2="24" stroke="#7e22ce" stroke-width="1.2"/>
  <path d="M43 30 q3 2 6 0" stroke="#92400e" stroke-width="1.4" stroke-linecap="round" fill="none"/>
  <path d="M30 68 q0 -33 16 -33 q16 0 16 33 q-16 5 -32 0" fill="#9333ea"/>
  <path d="M30 68 q0 -33 16 -33 q5 0 8 3.5 l-8 10 z" fill="#a855f7"/>
  <circle cx="40" cy="52" r="2" fill="#e9d5ff"/><circle cx="52" cy="48" r="2" fill="#e9d5ff"/><circle cx="46" cy="60" r="2" fill="#e9d5ff"/>
  <rect x="38" y="68" width="6" height="20" rx="3" fill="#fcd9b8"/>
  <rect x="48" y="68" width="6" height="20" rx="3" fill="#fcd9b8"/>
  <ellipse cx="41" cy="88" rx="5" ry="2.6" fill="#581c87"/>
  <ellipse cx="51" cy="88" rx="5" ry="2.6" fill="#581c87"/>
  <path d="M60 42 q8 4 9 14" stroke="#fcd9b8" stroke-width="5" stroke-linecap="round" fill="none"/>
  <path d="M70 58 v28" stroke="#92400e" stroke-width="4" stroke-linecap="round"/>
  <path d="M70 58 q0 -5 4 -5" stroke="#92400e" stroke-width="4" stroke-linecap="round" fill="none"/>
</svg>
