<svg xmlns="http://www.w3.org/2000/svg" viewBox="0 0 100 100">
  <defs><linearGradient id="par_bg" x1="0" y1="0" x2="1" y2="1"><stop offset="0" stop-color="#eff6ff"/><stop offset="1" stop-color="#dbeafe"/></linearGradient></defs>
  <rect width="100" height="100" rx="16" fill="url(#par_bg)"/>
  <ellipse cx="50" cy="90" rx="32" ry="3.5" fill="#0f172a" opacity=".08"/>
  <circle cx="40" cy="22" r="11" fill="#fcd9b8"/>
  <path d="M29 20 q0 -10 11 -10 q11 0 11 10 q-4.5 -5 -11 -5 q-6.5 0 -11 5" fill="#44403c"/>
  <circle cx="36.5" cy="22" r="1.5" fill="#1e293b"/><circle cx="43.5" cy="22" r="1.5" fill="#1e293b"/>
  <path d="M37 27.5 q3 2 6 0" stroke="#92400e" stroke-width="1.4" stroke-linecap="round" fill="none"/>
  <path d="M26 62 q-2 -29 14 -29 q16 0 14 29 z" fill="#2563eb"/>
  <path d="M26 62 q-2 -29 14 -29 q5 0 8 3.5 l-8 10 z" fill="#3b82f6"/>
  <rect x="30" y="60" width="8" height="28" rx="3.5" fill="#334155"/>
  <rect x="42" y="60" width="8" height="28" rx="3.5" fill="#1e293b"/>
  <path d="M52 40 q10 6 14 18" stroke="#fcd9b8" stroke-width="5.5" stroke-linecap="round" fill="none"/>
  <circle cx="72" cy="52" r="7" fill="#fcd9b8"/>
  <path d="M65 50.5 q0 -6.5 7 -6.5 q7 0 7 6.5 q-3 -3.2 -7 -3.2 q-4 0 -7 3.2" fill="#92400e"/>
  <circle cx="70" cy="52" r="1" fill="#1e293b"/><circle cx="74.5" cy="52" r="1" fill="#1e293b"/>
  <path d="M70.5 55.5 q1.8 1.3 3.6 0" stroke="#92400e" stroke-width="1" stroke-linecap="round" fill="none"/>
  <path d="M66 76 q-1 -16 6.5 -16 q7.5 0 6.5 16 z" fill="#f97316"/>
  <rect x="68" y="74" width="4" height="14" rx="2" fill="#9a3412"/>
  <rect x="73.5" y="74" width="4" height="14" rx="2" fill="#7c2d12"/>
  <path d="M66 60 q-2 -3 -.5 -5" stroke="#fcd9b8" stroke-width="4" stroke-linecap="round" fill="none"/>
</svg>
