<svg xmlns="http://www.w3.org/2000/svg" viewBox="0 0 100 100">
  <defs><linearGradient id="pex_bg" x1="0" y1="0" x2="1" y2="1"><stop offset="0" stop-color="#f0f9ff"/><stop offset="1" stop-color="#e0f2fe"/></linearGradient>
  <linearGradient id="pex_cos" x1="0" y1="0" x2="0" y2="1"><stop offset="0" stop-color="#fb923c"/><stop offset="1" stop-color="#ea580c"/></linearGradient></defs>
  <rect width="100" height="100" rx="16" fill="url(#pex_bg)"/>
  <ellipse cx="50" cy="86" rx="30" ry="4" fill="#0f172a" opacity=".08"/>
  <path d="M20 30 q-4 24 8 40 q10 12 22 12 q12 0 22 -12 q12 -16 8 -40 q-30 -10 -60 0" fill="#bae6fd" opacity=".55"/>
  <ellipse cx="50" cy="28" rx="31" ry="7" fill="none" stroke="#7dd3fc" stroke-width="3"/>
  <path d="M24 56 q4 -3 8 0 t8 0 t8 0 t8 0 t8 0 t8 0" stroke="#7dd3fc" stroke-width="2" fill="none" opacity=".7"/>
  <ellipse cx="48" cy="60" rx="14" ry="10" fill="url(#pex_cos)"/>
  <polygon points="62,60 74,52 74,68" fill="#f97316"/>
  <path d="M44 50 q4 -4 8 0 l-4 4 z" fill="#f97316"/>
  <circle cx="42" cy="58" r="2.2" fill="#1e293b"/>
  <circle cx="41.3" cy="57.3" r=".8" fill="#fff"/>
  <path d="M48 56 q3 4 0 8 M53 55 q3 5 0 10" stroke="#c2410c" stroke-width="1.4" fill="none"/>
  <circle cx="38" cy="44" r="2" fill="#bae6fd"/>
  <circle cx="34" cy="36" r="1.5" fill="#bae6fd"/>
</svg>
