<svg xmlns="http://www.w3.org/2000/svg" viewBox="0 0 100 100">
  <defs><linearGradient id="ham_bg" x1="0" y1="0" x2="1" y2="1"><stop offset="0" stop-color="#fff7ed"/><stop offset="1" stop-color="#ffedd5"/></linearGradient>
  <linearGradient id="ham_cos" x1="0" y1="0" x2="0" y2="1"><stop offset="0" stop-color="#fdba74"/><stop offset="1" stop-color="#ea580c"/></linearGradient></defs>
  <rect width="100" height="100" rx="16" fill="url(#ham_bg)"/>
  <ellipse cx="50" cy="84" rx="30" ry="5" fill="#0f172a" opacity=".08"/>
  <circle cx="34" cy="28" r="9" fill="#ea580c"/>
  <circle cx="34" cy="30" r="5" fill="#fdba74"/>
  <circle cx="66" cy="28" r="9" fill="#ea580c"/>
  <circle cx="66" cy="30" r="5" fill="#fdba74"/>
  <ellipse cx="50" cy="54" rx="30" ry="28" fill="url(#ham_cos)"/>
  <ellipse cx="50" cy="62" rx="20" ry="16" fill="#fef3c7"/>
  <circle cx="40" cy="44" r="3" fill="#1e293b"/>
  <circle cx="60" cy="44" r="3" fill="#1e293b"/>
  <circle cx="39" cy="43" r="1" fill="#fff"/>
  <circle cx="59" cy="43" r="1" fill="#fff"/>
  <ellipse cx="50" cy="52" rx="3" ry="2.2" fill="#be185d"/>
  <path d="M50 54 v4 M50 58 q-3 3 -6 1 M50 58 q3 3 6 1" stroke="#9a3412" stroke-width="1.5" stroke-linecap="round" fill="none"/>
  <path d="M44 60 q2 2 4 0 M52 60 q2 2 4 0" stroke="#fff" stroke-width="0"/>
  <path d="M40 51 h-8 M40 54 h-7 M60 51 h8 M60 54 h7" stroke="#9a3412" stroke-width="1.2" stroke-linecap="round"/>
  <ellipse cx="38" cy="78" rx="5" ry="3" fill="#fdba74"/>
  <ellipse cx="62" cy="78" rx="5" ry="3" fill="#fdba74"/>
</svg>
