<svg xmlns="http://www.w3.org/2000/svg" viewBox="0 0 100 100">
  <defs><linearGradient id="bny2_bg" x1="0" y1="0" x2="1" y2="1"><stop offset="0" stop-color="#f0f9ff"/><stop offset="1" stop-color="#e0f2fe"/></linearGradient></defs>
  <rect width="100" height="100" rx="16" fill="url(#bny2_bg)"/>
  <ellipse cx="50" cy="88" rx="36" ry="4" fill="#0f172a" opacity=".08"/>
  <path d="M12 56 h44 q3 0 3 3 q0 12 -10 16 h-30 q-10 -4 -10 -16 q0 -3 3 -3" fill="#f8fafc" stroke="#cbd5e1" stroke-width="1.5"/>
  <path d="M16 50 v-26 q0 -8 8 -8 q8 0 8 8" fill="none" stroke="#94a3b8" stroke-width="4"/>
  <path d="M30 26 q3 5 0 8 M36 28 q2 4 0 7 M26 28 q-2 4 0 7" stroke="#38bdf8" stroke-width="2" stroke-linecap="round" fill="none" opacity="0"/>
  <path d="M28 32 q2 4 0 7 M34 30 q2 4 0 7" stroke="#38bdf8" stroke-width="2.2" stroke-linecap="round" fill="none"/>
  <rect x="20" y="75" width="5" height="10" fill="#94a3b8"/>
  <rect x="44" y="75" width="5" height="10" fill="#94a3b8"/>
  <path d="M66 42 h22 v10 q0 10 -8 12 v6 h-6 v-6 q-8 -2 -8 -12 z" fill="#f8fafc" stroke="#cbd5e1" stroke-width="1.5"/>
  <rect x="62" y="36" width="30" height="8" rx="3" fill="#e2e8f0"/>
  <ellipse cx="77" cy="40" rx="9" ry="2.5" fill="#bae6fd"/>
  <rect x="72" y="72" width="10" height="4" rx="2" fill="#cbd5e1"/>
  <circle cx="58" cy="22" r="1.8" fill="#7dd3fc"/>
  <circle cx="64" cy="16" r="1.4" fill="#bae6fd"/>
</svg>
