<svg xmlns="http://www.w3.org/2000/svg" viewBox="0 0 100 100">
  <defs><linearGradient id="ctn_bg" x1="0" y1="0" x2="1" y2="1"><stop offset="0" stop-color="#fdf2f8"/><stop offset="1" stop-color="#fce7f3"/></linearGradient>
  <linearGradient id="ctn_tela" x1="0" y1="0" x2="0" y2="1"><stop offset="0" stop-color="#f472b6"/><stop offset="1" stop-color="#db2777"/></linearGradient></defs>
  <rect width="100" height="100" rx="16" fill="url(#ctn_bg)"/>
  <rect x="26" y="22" width="48" height="58" fill="#bae6fd"/>
  <circle cx="58" cy="34" r="5" fill="#fde047"/>
  <path d="M14 14 h72" stroke="#92400e" stroke-width="4" stroke-linecap="round"/>
  <circle cx="14" cy="14" r="3.5" fill="#78350f"/>
  <circle cx="86" cy="14" r="3.5" fill="#78350f"/>
  <path d="M18 16 q0 30 -2 62 q10 4 16 0 q6 -20 4 -44 q-4 -10 -4 -18 z" fill="url(#ctn_tela)"/>
  <path d="M22 16 q2 30 0 60 M28 16 q3 26 2 56" stroke="#9d174d" stroke-width="1.6" fill="none" opacity=".6"/>
  <path d="M82 16 q0 30 2 62 q-10 4 -16 0 q-6 -20 -4 -44 q4 -10 4 -18 z" fill="url(#ctn_tela)"/>
  <path d="M78 16 q-2 30 0 60 M72 16 q-3 26 -2 56" stroke="#9d174d" stroke-width="1.6" fill="none" opacity=".6"/>
  <path d="M14 78 q10 -6 22 0 M86 78 q-10 -6 -22 0" stroke="#9d174d" stroke-width="0" fill="none"/>
</svg>
