<svg xmlns="http://www.w3.org/2000/svg" viewBox="0 0 100 100">
  <defs><linearGradient id="bera_bg" x1="0" y1="0" x2="1" y2="1"><stop offset="0" stop-color="#f0f9ff"/><stop offset="1" stop-color="#e0f2fe"/></linearGradient>
  <linearGradient id="bera_cer" x1="0" y1="0" x2="0" y2="1"><stop offset="0" stop-color="#ffffff"/><stop offset="1" stop-color="#cbd5e1"/></linearGradient></defs>
  <rect width="100" height="100" rx="16" fill="url(#bera_bg)"/>
  <ellipse cx="50" cy="88" rx="34" ry="4" fill="#0f172a" opacity=".08"/>
  <path d="M10 48 h80 q3 0 3 3 q0 16 -14 20 h-58 q-14 -4 -14 -20 q0 -3 3 -3" fill="url(#bera_cer)" stroke="#cbd5e1" stroke-width="1.2"/>
  <ellipse cx="50" cy="50" rx="36" ry="4" fill="#7dd3fc" opacity=".8"/>
  <path d="M22 24 q0 -8 8 -8 q8 0 8 8 v4" fill="none" stroke="#94a3b8" stroke-width="4"/>
  <path d="M36 30 q0 4 2 4 q2 0 2 -4 q0 -2.5 -2 -5 q-2 2.5 -2 5" fill="#38bdf8"/>
  <path d="M34 40 q0 3.5 1.8 3.5 q1.8 0 1.8 -3.5 q0 -2 -1.8 -4.5 q-1.8 2.5 -1.8 4.5" fill="#0ea5e9"/>
  <circle cx="60" cy="42" r="4" fill="#f8fafc" stroke="#bae6fd" stroke-width="1"/>
  <circle cx="68" cy="38" r="3" fill="#f8fafc" stroke="#bae6fd" stroke-width="1"/>
  <circle cx="74" cy="43" r="2.4" fill="#f8fafc" stroke="#bae6fd" stroke-width="1"/>
  <rect x="22" y="70" width="6" height="14" rx="2" fill="#94a3b8"/>
  <rect x="72" y="70" width="6" height="14" rx="2" fill="#94a3b8"/>
  <circle cx="84" cy="22" r="2" fill="#bae6fd"/>
</svg>
