<svg xmlns="http://www.w3.org/2000/svg" viewBox="0 0 100 100">
  <defs><linearGradient id="sal_bg" x1="0" y1="0" x2="1" y2="1"><stop offset="0" stop-color="#fff7ed"/><stop offset="1" stop-color="#ffedd5"/></linearGradient></defs>
  <rect width="100" height="100" rx="16" fill="url(#sal_bg)"/>
  <ellipse cx="50" cy="88" rx="36" ry="4" fill="#0f172a" opacity=".08"/>
  <path d="M12 50 q0 -6 6 -6 h28 q6 0 6 6 v8 q4 0 4 5 v12 q0 5 -5 5 H13 q-5 0 -5 -5 V63 q0 -5 4 -5 z" fill="#0d9488"/>
  <path d="M12 50 q0 -6 6 -6 h28 q6 0 6 6 v8 q-20 6 -40 0 z" fill="#14b8a6"/>
  <rect x="14" y="58" width="16" height="10" rx="3" fill="#5eead4"/>
  <rect x="32" y="58" width="16" height="10" rx="3" fill="#5eead4"/>
  <rect x="62" y="34" width="28" height="20" rx="2" fill="#1e293b"/>
  <rect x="64" y="36" width="24" height="16" rx="1" fill="#38bdf8"/>
  <path d="M64 36 l24 0 l-16 16 l-8 0 z" fill="#7dd3fc" opacity=".5"/>
  <rect x="72" y="54" width="8" height="4" fill="#475569"/>
  <rect x="66" y="58" width="20" height="3" rx="1.5" fill="#475569"/>
  <ellipse cx="74" cy="78" rx="18" ry="6" fill="#dc2626" opacity=".7"/>
  <ellipse cx="74" cy="77" rx="14" ry="4" fill="#ef4444" opacity=".7"/>
  <rect x="20" y="20" width="18" height="13" rx="2" fill="#92400e"/>
  <rect x="22" y="22" width="14" height="9" fill="#4ade80"/>
  <circle cx="29" cy="26.5" r="2.5" fill="#fde047"/>
</svg>
