<svg xmlns="http://www.w3.org/2000/svg" viewBox="0 0 100 100">
  <defs><linearGradient id="lit_bg" x1="0" y1="0" x2="1" y2="1"><stop offset="0" stop-color="#eef2ff"/><stop offset="1" stop-color="#e0e7ff"/></linearGradient>
  <linearGradient id="lit_manta" x1="0" y1="0" x2="0" y2="1"><stop offset="0" stop-color="#818cf8"/><stop offset="1" stop-color="#4f46e5"/></linearGradient></defs>
  <rect width="100" height="100" rx="16" fill="url(#lit_bg)"/>
  <ellipse cx="50" cy="86" rx="36" ry="4" fill="#0f172a" opacity=".08"/>
  <rect x="12" y="30" width="11" height="50" rx="4" fill="#92400e"/>
  <rect x="12" y="30" width="5" height="50" fill="#b45309"/>
  <rect x="78" y="46" width="10" height="34" rx="4" fill="#78350f"/>
  <path d="M20 52 q8 -10 20 -3 q3 2 2 5 l-1 2 h-18 q-4 0 -3 -4" fill="#f8fafc"/>
  <rect x="18" y="56" width="66" height="14" rx="4" fill="url(#lit_manta)"/>
  <path d="M18 62 q24 5 66 0 v4 q0 4 -4 4 H22 q-4 0 -4 -4 z" fill="#4338ca"/>
  <path d="M30 56 v12 M44 57 v12 M58 57 v12 M72 56 v12" stroke="#6366f1" stroke-width="1.6" opacity=".6"/>
  <rect x="18" y="70" width="66" height="6" rx="3" fill="#a5b4fc"/>
  <rect x="22" y="76" width="5" height="8" fill="#78350f"/>
  <rect x="76" y="76" width="5" height="8" fill="#78350f"/>
</svg>
