<svg xmlns="http://www.w3.org/2000/svg" viewBox="0 0 100 100">
  <defs><linearGradient id="xem_bg" x1="0" y1="0" x2="0" y2="1"><stop offset="0" stop-color="#bae6fd"/><stop offset="1" stop-color="#e0f2fe"/></linearGradient></defs>
  <rect width="100" height="100" rx="16" fill="url(#xem_bg)"/>
  <polygon points="50,40 90,80 10,80" fill="#dc2626"/>
  <polygon points="50,48 80,78 20,78" fill="#b91c1c" opacity=".4"/>
  <rect x="58" y="34" width="16" height="32" fill="#92400e"/>
  <rect x="58" y="34" width="6" height="32" fill="#b45309"/>
  <rect x="55" y="28" width="22" height="8" rx="2" fill="#78350f"/>
  <path d="M60 40 h12 M60 48 h12 M60 56 h12" stroke="#78350f" stroke-width="1.6" opacity=".7"/>
  <circle cx="66" cy="20" r="5" fill="#e2e8f0" opacity=".9"/>
  <circle cx="72" cy="13" r="6.5" fill="#cbd5e1" opacity=".8"/>
  <circle cx="80" cy="8" r="5" fill="#e2e8f0" opacity=".6"/>
  <ellipse cx="66" cy="46" rx="16" ry="24" fill="none" stroke="#0ea5e9" stroke-width="2.5" stroke-dasharray="6 4"/>
  <path d="M22 30 l24 14" stroke="#0ea5e9" stroke-width="2.8" stroke-linecap="round"/>
  <circle cx="19" cy="28" r="3.2" fill="#0ea5e9"/>
</svg>
