<svg xmlns="http://www.w3.org/2000/svg" viewBox="0 0 100 100">
  <defs><linearGradient id="aig_bg" x1="0" y1="0" x2="1" y2="1"><stop offset="0" stop-color="#f0f9ff"/><stop offset="1" stop-color="#e0f2fe"/></linearGradient>
  <linearGradient id="aig_inox" x1="0" y1="0" x2="0" y2="1"><stop offset="0" stop-color="#e2e8f0"/><stop offset="1" stop-color="#94a3b8"/></linearGradient></defs>
  <rect width="100" height="100" rx="16" fill="url(#aig_bg)"/>
  <ellipse cx="50" cy="88" rx="34" ry="4" fill="#0f172a" opacity=".08"/>
  <rect x="12" y="50" width="76" height="10" rx="3" fill="url(#aig_inox)"/>
  <path d="M22 60 h56 l-6 22 q-1 4 -5 4 H33 q-4 0 -5 -4 z" fill="#cbd5e1"/>
  <path d="M26 60 h48 l-4 16 q-1 3 -4 3 H34 q-3 0 -4 -3 z" fill="#64748b"/>
  <ellipse cx="50" cy="66" rx="20" ry="4" fill="#7dd3fc" opacity=".7"/>
  <circle cx="50" cy="76" r="2.5" fill="#334155"/>
  <path d="M36 22 q0 -6 7 -6 q7 0 7 6 v18 h-6 v-16 q0 -2 -1 -2 q-1 0 -1 2 v4 h-6 z" fill="#94a3b8"/>
  <path d="M48 40 q0 4 1.8 4 q1.8 0 1.8 -4 q0 -2.5 -1.8 -5 q-1.8 2.5 -1.8 5" fill="#38bdf8"/>
  <circle cx="30" cy="42" r="3.5" fill="#e2e8f0"/><rect x="28.5" y="38" width="3" height="2.6" fill="#94a3b8"/>
  <circle cx="62" cy="42" r="3.5" fill="#fda4af"/><rect x="60.5" y="38" width="3" height="2.6" fill="#94a3b8"/>
</svg>
