<svg xmlns="http://www.w3.org/2000/svg" viewBox="0 0 100 100">
  <defs><linearGradient id="lav_bg" x1="0" y1="0" x2="1" y2="1"><stop offset="0" stop-color="#f0f9ff"/><stop offset="1" stop-color="#e0f2fe"/></linearGradient>
  <linearGradient id="lav_pica" x1="0" y1="0" x2="0" y2="1"><stop offset="0" stop-color="#ffffff"/><stop offset="1" stop-color="#cbd5e1"/></linearGradient></defs>
  <rect width="100" height="100" rx="16" fill="url(#lav_bg)"/>
  <ellipse cx="50" cy="88" rx="30" ry="4" fill="#0f172a" opacity=".08"/>
  <path d="M24 44 h52 q0 18 -16 22 h-20 q-16 -4 -16 -22" fill="url(#lav_pica)"/>
  <ellipse cx="50" cy="44" rx="26" ry="7" fill="#f8fafc"/>
  <ellipse cx="50" cy="44" rx="19" ry="4.5" fill="#bae6fd"/>
  <ellipse cx="50" cy="44" rx="19" ry="4.5" fill="#7dd3fc" opacity=".5"/>
  <circle cx="50" cy="45.5" r="2" fill="#475569"/>
  <rect x="46" y="64" width="8" height="20" rx="2" fill="#cbd5e1"/>
  <rect x="46" y="64" width="3" height="20" fill="#e2e8f0"/>
  <path d="M50 22 q12 0 12 12 v4 h-6 v-4 q0 -6 -6 -6 q-6 0 -6 6 h-6 q0 -12 12 -12" fill="#94a3b8"/>
  <path d="M50 22 q12 0 12 12 v1 h-3 v-1 q0 -9 -9 -9 q-7 0 -8 7 l-3 -1 q1 -9 11 -9" fill="#cbd5e1"/>
  <circle cx="38" cy="28" r="3.5" fill="#e2e8f0"/><rect x="36.5" y="24" width="3" height="3" fill="#94a3b8"/>
  <circle cx="62" cy="28" r="3.5" fill="#fda4af"/><rect x="60.5" y="24" width="3" height="3" fill="#94a3b8"/>
  <path d="M56 38 q0 3 1.6 3 q1.6 0 1.6 -3 q0 -2 -1.6 -4.5 q-1.6 2.5 -1.6 4.5" fill="#38bdf8"/>
</svg>
