<svg xmlns="http://www.w3.org/2000/svg" viewBox="0 0 100 100">
  <defs><linearGradient id="nev_bg" x1="0" y1="0" x2="1" y2="1"><stop offset="0" stop-color="#f0f9ff"/><stop offset="1" stop-color="#e0f2fe"/></linearGradient>
  <linearGradient id="nev_cos" x1="0" y1="0" x2="1" y2="0"><stop offset="0" stop-color="#f8fafc"/><stop offset="1" stop-color="#cbd5e1"/></linearGradient></defs>
  <rect width="100" height="100" rx="16" fill="url(#nev_bg)"/>
  <ellipse cx="50" cy="90" rx="26" ry="3.5" fill="#0f172a" opacity=".08"/>
  <rect x="28" y="10" width="44" height="78" rx="6" fill="url(#nev_cos)"/>
  <rect x="28" y="10" width="44" height="30" rx="6" fill="#e2e8f0"/>
  <rect x="28" y="36" width="44" height="4" fill="#94a3b8"/>
  <rect x="33" y="18" width="4" height="14" rx="2" fill="#64748b"/>
  <rect x="33" y="46" width="4" height="20" rx="2" fill="#64748b"/>
  <path d="M48 52 l4 -3 l-1 5 l4 -1 l-6 8 l1 -5 l-4 1 z" fill="#38bdf8" opacity="0"/>
  <circle cx="56" cy="58" r="8" fill="none" stroke="#7dd3fc" stroke-width="2"/>
  <path d="M56 50 v16 M48 58 h16 M50.3 52.3 l11.4 11.4 M61.7 52.3 l-11.4 11.4" stroke="#7dd3fc" stroke-width="1.6"/>
  <rect x="28" y="84" width="8" height="5" fill="#64748b"/>
  <rect x="64" y="84" width="8" height="5" fill="#64748b"/>
</svg>
