<svg xmlns="http://www.w3.org/2000/svg" viewBox="0 0 100 100">
  <defs><linearGradient id="ban_bg" x1="0" y1="0" x2="0" y2="1"><stop offset="0" stop-color="#bae6fd"/><stop offset="1" stop-color="#e0f2fe"/></linearGradient>
  <linearGradient id="ban_fusta" x1="0" y1="0" x2="0" y2="1"><stop offset="0" stop-color="#d97706"/><stop offset="1" stop-color="#92400e"/></linearGradient></defs>
  <rect width="100" height="100" rx="16" fill="url(#ban_bg)"/>
  <path d="M0 80 q25 -6 50 0 t50 0 v4 q0 16 -16 16 H16 Q0 100 0 84 z" fill="#86efac"/>
  <circle cx="20" cy="18" r="7" fill="#fde047"/>
  <g fill="url(#ban_fusta)">
    <rect x="18" y="28" width="64" height="6" rx="3"/>
    <rect x="18" y="37" width="64" height="6" rx="3"/>
    <rect x="18" y="52" width="64" height="7" rx="3"/>
    <rect x="18" y="61" width="64" height="7" rx="3"/>
  </g>
  <path d="M24 28 v56 M76 28 v56" stroke="#44403c" stroke-width="5" stroke-linecap="round"/>
  <path d="M24 70 h52" stroke="#44403c" stroke-width="0"/>
  <path d="M20 84 h10 M70 84 h10" stroke="#44403c" stroke-width="3" stroke-linecap="round"/>
</svg>
