<svg xmlns="http://www.w3.org/2000/svg" viewBox="0 0 100 100">
  <defs><linearGradient id="tv_bg" x1="0" y1="0" x2="1" y2="1"><stop offset="0" stop-color="#f8fafc"/><stop offset="1" stop-color="#e2e8f0"/></linearGradient>
  <linearGradient id="tv_scr" x1="0" y1="0" x2="1" y2="1"><stop offset="0" stop-color="#0ea5e9"/><stop offset="1" stop-color="#1e40af"/></linearGradient></defs>
  <rect width="100" height="100" rx="16" fill="url(#tv_bg)"/>
  <ellipse cx="50" cy="86" rx="32" ry="4" fill="#0f172a" opacity=".08"/>
  <rect x="14" y="20" width="72" height="46" rx="4" fill="#1e293b"/>
  <rect x="18" y="24" width="64" height="38" rx="2" fill="url(#tv_scr)"/>
  <path d="M18 24 L82 24 L40 62 L18 62 Z" fill="#7dd3fc" opacity=".25"/>
  <circle cx="62" cy="38" r="7" fill="#fde047"/>
  <path d="M28 52 q4 -6 9 -3 q2 -5 7 -3 q5 1 5 6 q4 2 1 5 l-21 0 q-3 -2 -1 -5" fill="#f8fafc" opacity=".9"/>
  <rect x="44" y="66" width="12" height="6" fill="#334155"/>
  <rect x="32" y="72" width="36" height="4" rx="2" fill="#475569"/>
  <circle cx="78" cy="62" r="1.5" fill="#ef4444"/>
</svg>
