<svg xmlns="http://www.w3.org/2000/svg" viewBox="0 0 100 100">
  <defs><linearGradient id="mjd_bg" x1="0" y1="0" x2="1" y2="1"><stop offset="0" stop-color="#fffbeb"/><stop offset="1" stop-color="#fef3c7"/></linearGradient>
  <linearGradient id="mjd_taula" x1="0" y1="0" x2="0" y2="1"><stop offset="0" stop-color="#f59e0b"/><stop offset="1" stop-color="#b45309"/></linearGradient></defs>
  <rect width="100" height="100" rx="16" fill="url(#mjd_bg)"/>
  <ellipse cx="50" cy="88" rx="36" ry="4" fill="#0f172a" opacity=".08"/>
  <polygon points="18,46 82,46 88,56 12,56" fill="url(#mjd_taula)"/>
  <polygon points="18,46 82,46 83.5,48.5 16.5,48.5" fill="#fbbf24"/>
  <rect x="16" y="56" width="6" height="30" rx="2" fill="#92400e"/>
  <rect x="78" y="56" width="6" height="30" rx="2" fill="#78350f"/>
  <ellipse cx="36" cy="42" rx="11" ry="4" fill="#f8fafc"/>
  <ellipse cx="36" cy="41" rx="8" ry="2.8" fill="#e2e8f0"/>
  <ellipse cx="36" cy="40.5" rx="5" ry="1.8" fill="#fbbf24"/>
  <ellipse cx="64" cy="42" rx="11" ry="4" fill="#f8fafc"/>
  <ellipse cx="64" cy="41" rx="8" ry="2.8" fill="#e2e8f0"/>
  <ellipse cx="64" cy="40.5" rx="5" ry="1.8" fill="#ef4444"/>
  <rect x="48.5" y="34" width="3" height="10" rx="1.5" fill="#94a3b8"/>
  <path d="M50 26 q-7 0 -7 8 h14 q0 -8 -7 -8" fill="#fde047"/>
  <path d="M50 26 q-7 0 -7 8 h4 q0 -6 5 -7.5 q-1 -.5 -2 -.5" fill="#fef08a"/>
  <circle cx="50" cy="25" r="1.5" fill="#94a3b8"/>
  <rect x="22" y="20" width="14" height="10" rx="2" fill="#7dd3fc" opacity=".5"/>
  <rect x="64" y="20" width="14" height="10" rx="2" fill="#7dd3fc" opacity=".5"/>
</svg>
