<svg xmlns="http://www.w3.org/2000/svg" viewBox="0 0 100 100">
  <defs><linearGradient id="rel_bg" x1="0" y1="0" x2="1" y2="1"><stop offset="0" stop-color="#eff6ff"/><stop offset="1" stop-color="#dbeafe"/></linearGradient>
  <radialGradient id="rel_cara" cx=".4" cy=".35" r="1"><stop offset="0" stop-color="#ffffff"/><stop offset="1" stop-color="#e2e8f0"/></radialGradient></defs>
  <rect width="100" height="100" rx="16" fill="url(#rel_bg)"/>
  <ellipse cx="50" cy="88" rx="26" ry="4" fill="#0f172a" opacity=".08"/>
  <circle cx="50" cy="50" r="34" fill="#1e40af"/>
  <circle cx="50" cy="50" r="28" fill="url(#rel_cara)"/>
  <g stroke="#475569" stroke-width="2.2" stroke-linecap="round">
    <path d="M50 26 v5 M50 69 v5 M26 50 h5 M69 50 h5"/>
  </g>
  <g stroke="#94a3b8" stroke-width="1.5" stroke-linecap="round">
    <path d="M62 29 l-2 4 M71 38 l-4 2 M71 62 l-4 -2 M62 71 l-2 -4 M38 71 l2 -4 M29 62 l4 -2 M29 38 l4 2 M38 29 l2 4"/>
  </g>
  <path d="M50 50 V34" stroke="#1e293b" stroke-width="4" stroke-linecap="round"/>
  <path d="M50 50 L62 56" stroke="#1e293b" stroke-width="3" stroke-linecap="round"/>
  <path d="M50 50 L42 62" stroke="#dc2626" stroke-width="1.8" stroke-linecap="round"/>
  <circle cx="50" cy="50" r="3" fill="#1e40af"/>
</svg>
