<svg xmlns="http://www.w3.org/2000/svg" viewBox="0 0 100 100">
  <defs><linearGradient id="pgu_bg" x1="0" y1="0" x2="0" y2="1"><stop offset="0" stop-color="#cbd5e1"/><stop offset="1" stop-color="#e2e8f0"/></linearGradient>
  <linearGradient id="pgu_tela" x1="0" y1="0" x2="0" y2="1"><stop offset="0" stop-color="#f87171"/><stop offset="1" stop-color="#dc2626"/></linearGradient></defs>
  <rect width="100" height="100" rx="16" fill="url(#pgu_bg)"/>
  <g stroke="#60a5fa" stroke-width="2.4" stroke-linecap="round">
    <path d="M18 14 l-3 8 M84 12 l-3 8 M90 30 l-3 8"/>
    <path d="M12 34 l-2 6"/>
  </g>
  <path d="M50 22 q-34 0 -36 32 q6 -6 12 0 q6 -6 12 0 q6 -6 12 0 q6 -6 12 0 q6 -6 12 0 q6 -6 12 0 q-2 -32 -36 -32" fill="url(#pgu_tela)"/>
  <path d="M50 22 q-34 0 -36 32 q6 -6 12 0 q3 -3 6 -2 q2 -22 18 -30" fill="#fca5a5" opacity=".6"/>
  <path d="M38 24 q-4 12 -3 29 M62 24 q4 12 3 29" stroke="#991b1b" stroke-width="1.6" fill="none" opacity=".7"/>
  <path d="M50 14 v8 M50 54 v24 q0 8 -8 8 q-7 0 -7 -7" fill="none" stroke="#44403c" stroke-width="3.5" stroke-linecap="round"/>
  <circle cx="50" cy="13" r="2.5" fill="#44403c"/>
</svg>
