<svg xmlns="http://www.w3.org/2000/svg" viewBox="0 0 100 100">
  <defs><linearGradient id="prt_bg" x1="0" y1="0" x2="1" y2="1"><stop offset="0" stop-color="#fff7ed"/><stop offset="1" stop-color="#ffedd5"/></linearGradient>
  <linearGradient id="prt_mao" x1="0" y1="0" x2="0" y2="1"><stop offset="0" stop-color="#ef4444"/><stop offset="1" stop-color="#b91c1c"/></linearGradient></defs>
  <rect width="100" height="100" rx="16" fill="url(#prt_bg)"/>
  <rect x="14" y="18" width="72" height="64" rx="4" fill="#e7e5e4"/>
  <g fill="url(#prt_mao)">
    <rect x="17" y="21" width="20" height="11" rx="1.5"/><rect x="40" y="21" width="20" height="11" rx="1.5"/><rect x="63" y="21" width="20" height="11" rx="1.5"/>
    <rect x="17" y="35" width="9" height="11" rx="1.5"/><rect x="29" y="35" width="20" height="11" rx="1.5"/><rect x="52" y="35" width="20" height="11" rx="1.5"/><rect x="75" y="35" width="8" height="11" rx="1.5"/>
    <rect x="17" y="49" width="20" height="11" rx="1.5"/><rect x="40" y="49" width="20" height="11" rx="1.5"/><rect x="63" y="49" width="20" height="11" rx="1.5"/>
    <rect x="17" y="63" width="9" height="11" rx="1.5"/><rect x="29" y="63" width="20" height="11" rx="1.5"/><rect x="52" y="63" width="20" height="11" rx="1.5"/><rect x="75" y="63" width="8" height="11" rx="1.5"/>
  </g>
  <path d="M19 23 h7 M42 23 h7 M65 23 h7 M31 37 h7 M54 37 h7 M19 51 h7 M42 51 h7 M65 51 h7 M31 65 h7 M54 65 h7" stroke="#fca5a5" stroke-width="1.6" stroke-linecap="round" opacity=".7"/>
</svg>
