<svg xmlns="http://www.w3.org/2000/svg" viewBox="0 0 100 100">
  <defs><linearGradient id="vat_bg" x1="0" y1="0" x2="1" y2="1"><stop offset="0" stop-color="#f0f9ff"/><stop offset="1" stop-color="#e0f2fe"/></linearGradient>
  <linearGradient id="vat_cer" x1="0" y1="0" x2="0" y2="1"><stop offset="0" stop-color="#ffffff"/><stop offset="1" stop-color="#cbd5e1"/></linearGradient></defs>
  <rect width="100" height="100" rx="16" fill="url(#vat_bg)"/>
  <ellipse cx="50" cy="88" rx="28" ry="4" fill="#0f172a" opacity=".08"/>
  <rect x="28" y="14" width="26" height="30" rx="4" fill="url(#vat_cer)" stroke="#cbd5e1" stroke-width="1"/>
  <rect x="36" y="8" width="10" height="6" rx="2" fill="#94a3b8"/>
  <path d="M28 44 h44 q4 0 4 5 q0 9 -7 12 q-2 14 -15 17 v6 h-10 v-6 q-13 -3 -16 -17 V49 q0 -5 4 -5 z" fill="url(#vat_cer)" stroke="#cbd5e1" stroke-width="1"/>
  <ellipse cx="52" cy="50" rx="20" ry="6" fill="#e2e8f0"/>
  <ellipse cx="52" cy="49" rx="14" ry="3.6" fill="#bae6fd"/>
  <rect x="38" y="82" width="26" height="5" rx="2" fill="#cbd5e1"/>
  <circle cx="41" cy="22" r="2" fill="#94a3b8"/>
</svg>
