<svg xmlns="http://www.w3.org/2000/svg" viewBox="0 0 100 100">
  <defs><linearGradient id="cat_bg" x1="0" y1="0" x2="1" y2="1"><stop offset="0" stop-color="#fdf2f8"/><stop offset="1" stop-color="#fce7f3"/></linearGradient>
  <linearGradient id="cat_tela" x1="0" y1="0" x2="1" y2="1"><stop offset="0" stop-color="#e11d48"/><stop offset="1" stop-color="#9f1239"/></linearGradient></defs>
  <rect width="100" height="100" rx="16" fill="url(#cat_bg)"/>
  <g transform="rotate(-6 50 52)">
    <rect x="14" y="28" width="72" height="48" rx="6" fill="url(#cat_tela)"/>
    <rect x="20" y="34" width="60" height="36" rx="4" fill="none" stroke="#fda4af" stroke-width="2"/>
    <rect x="27" y="41" width="46" height="22" rx="3" fill="none" stroke="#fb7185" stroke-width="1.6"/>
    <circle cx="50" cy="52" r="7" fill="#fda4af"/>
    <path d="M50 45 l2 5 l5 0 l-4 3 l2 5 l-5 -3 l-5 3 l2 -5 l-4 -3 l5 0 z" fill="#9f1239"/>
    <g stroke="#fda4af" stroke-width="2.2" stroke-linecap="round">
      <path d="M14 32 h-5 M14 42 h-5 M14 52 h-5 M14 62 h-5 M14 72 h-5"/>
      <path d="M86 32 h5 M86 42 h5 M86 52 h5 M86 62 h5 M86 72 h5"/>
    </g>
  </g>
</svg>
