<svg xmlns="http://www.w3.org/2000/svg" viewBox="0 0 100 100">
  <defs><linearGradient id="teu_bg" x1="0" y1="0" x2="0" y2="1"><stop offset="0" stop-color="#bae6fd"/><stop offset="1" stop-color="#e0f2fe"/></linearGradient></defs>
  <rect width="100" height="100" rx="16" fill="url(#teu_bg)"/>
  <ellipse cx="50" cy="88" rx="34" ry="4" fill="#0f172a" opacity=".08"/>
  <rect x="24" y="56" width="52" height="30" fill="#fef3c7" opacity=".6"/>
  <polygon points="50,18 92,58 84,58 50,26 16,58 8,58" fill="#b91c1c"/>
  <polygon points="50,26 84,58 16,58" fill="#dc2626"/>
  <g stroke="#991b1b" stroke-width="1.8" fill="none">
    <path d="M50 32 l-22 22 M50 32 l22 22"/>
    <path d="M50 40 l-14 14 M50 40 l14 14"/>
    <path d="M50 48 l-7 7 M50 48 l7 7"/>
    <path d="M36 46 q14 5 28 0" opacity="0"/>
  </g>
  <ellipse cx="50" cy="42" rx="22" ry="14" fill="none" stroke="#0ea5e9" stroke-width="2.5" stroke-dasharray="6 4"/>
  <path d="M14 22 l14 14" stroke="#0ea5e9" stroke-width="2.8" stroke-linecap="round"/>
  <circle cx="12" cy="19" r="3.2" fill="#0ea5e9"/>
</svg>
