<svg xmlns="http://www.w3.org/2000/svg" viewBox="0 0 100 100">
  <defs><linearGradient id="frn_bg" x1="0" y1="0" x2="1" y2="1"><stop offset="0" stop-color="#fff7ed"/><stop offset="1" stop-color="#ffedd5"/></linearGradient>
  <linearGradient id="frn_cos" x1="0" y1="0" x2="0" y2="1"><stop offset="0" stop-color="#94a3b8"/><stop offset="1" stop-color="#475569"/></linearGradient></defs>
  <rect width="100" height="100" rx="16" fill="url(#frn_bg)"/>
  <ellipse cx="50" cy="90" rx="30" ry="3.5" fill="#0f172a" opacity=".08"/>
  <rect x="18" y="20" width="64" height="66" rx="5" fill="url(#frn_cos)"/>
  <rect x="18" y="20" width="64" height="14" rx="5" fill="#334155"/>
  <circle cx="28" cy="27" r="3.2" fill="#cbd5e1"/>
  <circle cx="40" cy="27" r="3.2" fill="#cbd5e1"/>
  <circle cx="60" cy="27" r="3.2" fill="#cbd5e1"/>
  <circle cx="72" cy="27" r="3.2" fill="#cbd5e1"/>
  <rect x="24" y="40" width="52" height="38" rx="4" fill="#1e293b"/>
  <rect x="28" y="44" width="44" height="30" rx="3" fill="#451a03"/>
  <path d="M28 58 h44" stroke="#78350f" stroke-width="2"/>
  <ellipse cx="50" cy="54" rx="14" ry="6" fill="#d97706"/>
  <ellipse cx="50" cy="52.5" rx="14" ry="6" fill="#f59e0b"/>
  <circle cx="44" cy="51" r="1.6" fill="#fde68a"/>
  <circle cx="54" cy="53" r="1.4" fill="#fde68a"/>
  <path d="M40 66 q3 -4 6 0 q3 4 6 0 q3 -4 6 0" stroke="#fb923c" stroke-width="2" fill="none" opacity=".7"/>
  <rect x="30" y="46" width="40" height="4" rx="2" fill="#fbbf24" opacity=".15"/>
</svg>
