<svg xmlns="http://www.w3.org/2000/svg" viewBox="0 0 100 100">
  <defs><linearGradient id="esl_bg" x1="0" y1="0" x2="1" y2="1"><stop offset="0" stop-color="#faf5ff"/><stop offset="1" stop-color="#f3e8ff"/></linearGradient>
  <linearGradient id="esl_fusta" x1="0" y1="0" x2="0" y2="1"><stop offset="0" stop-color="#d97706"/><stop offset="1" stop-color="#92400e"/></linearGradient></defs>
  <rect width="100" height="100" rx="16" fill="url(#esl_bg)"/>
  <ellipse cx="50" cy="88" rx="34" ry="4" fill="#0f172a" opacity=".08"/>
  <g fill="url(#esl_fusta)">
    <rect x="14" y="74" width="20" height="12" rx="2"/>
    <rect x="28" y="62" width="20" height="24" rx="2"/>
    <rect x="42" y="50" width="20" height="36" rx="2"/>
    <rect x="56" y="38" width="20" height="48" rx="2"/>
    <rect x="70" y="26" width="16" height="60" rx="2"/>
  </g>
  <g fill="#f59e0b">
    <rect x="14" y="74" width="20" height="3.5" rx="1.7"/>
    <rect x="28" y="62" width="20" height="3.5" rx="1.7"/>
    <rect x="42" y="50" width="20" height="3.5" rx="1.7"/>
    <rect x="56" y="38" width="20" height="3.5" rx="1.7"/>
    <rect x="70" y="26" width="16" height="3.5" rx="1.7"/>
  </g>
  <path d="M14 70 l60 -52 m-6 0 h7 v7" stroke="#9333ea" stroke-width="2.5" stroke-linecap="round" stroke-linejoin="round" fill="none"/>
</svg>
