<svg xmlns="http://www.w3.org/2000/svg" viewBox="0 0 100 100">
  <defs><linearGradient id="ter_bg" x1="0" y1="0" x2="0" y2="1"><stop offset="0" stop-color="#bae6fd"/><stop offset="1" stop-color="#e0f2fe"/></linearGradient></defs>
  <rect width="100" height="100" rx="16" fill="url(#ter_bg)"/>
  <circle cx="20" cy="18" r="7" fill="#fde047"/>
  <path d="M10 84 h80" stroke="#92400e" stroke-width="5" stroke-linecap="round"/>
  <path d="M50 24 v56" stroke="#78716c" stroke-width="3"/>
  <path d="M50 26 l-26 12 q-3 8 2 14 l24 -10 l24 10 q5 -6 2 -14 z" fill="#f97316"/>
  <path d="M50 26 l-26 12 q-3 8 2 14 l24 -10 z" fill="#fb923c"/>
  <path d="M30 40 l40 0" stroke="#ea580c" stroke-width="0"/>
  <ellipse cx="50" cy="78" rx="22" ry="5" fill="#e7e5e4"/>
  <ellipse cx="50" cy="76" rx="22" ry="5" fill="#f5f5f4"/>
  <path d="M30 76 v8 M70 76 v8" stroke="#a8a29e" stroke-width="2.5"/>
  <ellipse cx="22" cy="70" rx="5" ry="3" fill="#16a34a"/>
  <rect x="19" y="72" width="6" height="8" rx="1.5" fill="#b45309"/>
  <ellipse cx="80" cy="68" rx="5" ry="3" fill="#22c55e"/>
  <rect x="77" y="70" width="6" height="9" rx="1.5" fill="#92400e"/>
</svg>
