<svg xmlns="http://www.w3.org/2000/svg" viewBox="0 0 100 100">
  <defs><linearGradient id="mnt_bg" x1="0" y1="0" x2="1" y2="1"><stop offset="0" stop-color="#fff7ed"/><stop offset="1" stop-color="#ffedd5"/></linearGradient>
  <linearGradient id="mnt_tela" x1="0" y1="0" x2="0" y2="1"><stop offset="0" stop-color="#fb923c"/><stop offset="1" stop-color="#ea580c"/></linearGradient></defs>
  <rect width="100" height="100" rx="16" fill="url(#mnt_bg)"/>
  <ellipse cx="50" cy="84" rx="32" ry="5" fill="#0f172a" opacity=".08"/>
  <path d="M20 26 h60 q4 0 4 4 v34 q0 4 -4 4 h-12 q-4 8 -16 8 q-12 0 -16 -8 H20 q-4 0 -4 -4 V30 q0 -4 4 -4" fill="url(#mnt_tela)" opacity="0"/>
  <path d="M22 24 q28 -8 56 0 q4 1 4 6 v30 q0 5 -4 6 q-12 4 -20 10 q-8 6 -16 2 q-10 -6 -20 -8 q-4 -1 -4 -6 V30 q0 -5 4 -6" fill="url(#mnt_tela)"/>
  <path d="M22 36 q28 -7 56 0 M22 48 q28 -7 56 0 M22 60 q28 -7 56 0" stroke="#c2410c" stroke-width="2.2" fill="none" opacity=".6"/>
  <path d="M30 28 v44 M50 25 v51 M70 28 v44" stroke="#fdba74" stroke-width="2" fill="none" opacity=".55"/>
  <g stroke="#9a3412" stroke-width="2.2" stroke-linecap="round">
    <path d="M24 70 l-3 6 M34 73 l-2 6 M48 76 l0 6 M62 73 l2 6 M74 70 l3 6"/>
  </g>
</svg>
