<svg xmlns="http://www.w3.org/2000/svg" viewBox="0 0 100 100">
  <defs><linearGradient id="pny_bg" x1="0" y1="0" x2="1" y2="1"><stop offset="0" stop-color="#fefce8"/><stop offset="1" stop-color="#fef3c7"/></linearGradient>
  <linearGradient id="pny_metall" x1="0" y1="0" x2="0" y2="1"><stop offset="0" stop-color="#fde047"/><stop offset="1" stop-color="#ca8a04"/></linearGradient></defs>
  <rect width="100" height="100" rx="16" fill="url(#pny_bg)"/>
  <rect x="14" y="12" width="38" height="76" fill="#0d9488"/>
  <rect x="14" y="12" width="10" height="76" fill="#0f766e"/>
  <ellipse cx="56" cy="84" rx="26" ry="4" fill="#0f172a" opacity=".1"/>
  <rect x="40" y="28" width="26" height="44" rx="6" fill="url(#pny_metall)"/>
  <rect x="40" y="28" width="26" height="14" rx="6" fill="#fef08a" opacity=".7"/>
  <circle cx="53" cy="46" r="6" fill="#713f12"/>
  <path d="M50.5 46 l5 0 l-2.5 10 l-2.5 0 z" fill="#713f12" transform="rotate(0 53 46)"/>
  <path d="M53 44 v14" stroke="#713f12" stroke-width="4" stroke-linecap="round"/>
  <g transform="rotate(35 80 56)">
    <circle cx="80" cy="48" r="6" fill="none" stroke="#94a3b8" stroke-width="3.5"/>
    <rect x="78.3" y="53" width="3.4" height="16" fill="#94a3b8"/>
    <rect x="81" y="62" width="5" height="3" fill="#94a3b8"/>
    <rect x="81" y="66.5" width="4" height="2.6" fill="#94a3b8"/>
  </g>
</svg>
