<svg xmlns="http://www.w3.org/2000/svg" viewBox="0 0 100 100">
  <defs><linearGradient id="tov_bg" x1="0" y1="0" x2="1" y2="1"><stop offset="0" stop-color="#fdf2f8"/><stop offset="1" stop-color="#fce7f3"/></linearGradient>
  <linearGradient id="tov_tela" x1="0" y1="0" x2="0" y2="1"><stop offset="0" stop-color="#f9a8d4"/><stop offset="1" stop-color="#ec4899"/></linearGradient></defs>
  <rect width="100" height="100" rx="16" fill="url(#tov_bg)"/>
  <ellipse cx="50" cy="88" rx="28" ry="4" fill="#0f172a" opacity=".08"/>
  <path d="M18 16 h64" stroke="#92400e" stroke-width="4.5" stroke-linecap="round"/>
  <path d="M30 16 q-2 4 0 8 h40 q2 -4 0 -8" fill="#db2777"/>
  <rect x="30" y="22" width="40" height="56" rx="3" fill="url(#tov_tela)"/>
  <path d="M30 34 h40 M30 42 h40" stroke="#fbcfe8" stroke-width="2.5"/>
  <path d="M30 64 h40" stroke="#be185d" stroke-width="2" opacity=".5"/>
  <g stroke="#be185d" stroke-width="2.4" stroke-linecap="round">
    <path d="M34 78 v6 M40 78 v6 M46 78 v6 M52 78 v6 M58 78 v6 M64 78 v6"/>
  </g>
  <path d="M36 52 q4 -4 8 0 q4 4 8 0 q4 -4 8 0" stroke="#fbcfe8" stroke-width="2" fill="none" stroke-linecap="round"/>
</svg>
