<svg xmlns="http://www.w3.org/2000/svg" viewBox="0 0 100 100">
  <defs><linearGradient id="aix_bg" x1="0" y1="0" x2="1" y2="1"><stop offset="0" stop-color="#f0f9ff"/><stop offset="1" stop-color="#e0f2fe"/></linearGradient>
  <linearGradient id="aix_inox" x1="0" y1="0" x2="0" y2="1"><stop offset="0" stop-color="#e2e8f0"/><stop offset="1" stop-color="#64748b"/></linearGradient></defs>
  <rect width="100" height="100" rx="16" fill="url(#aix_bg)"/>
  <ellipse cx="50" cy="88" rx="28" ry="4" fill="#0f172a" opacity=".08"/>
  <path d="M34 36 q0 -14 16 -14 q16 0 16 14 v8 h-10 v-8 q0 -5 -6 -5 q-6 0 -6 5 v6 h-10 z" fill="url(#aix_inox)"/>
  <rect x="30" y="40" width="18" height="10" rx="3" fill="#94a3b8"/>
  <rect x="32" y="50" width="14" height="34" rx="4" fill="url(#aix_inox)"/>
  <rect x="56" y="44" width="20" height="8" rx="4" fill="#94a3b8"/>
  <circle cx="76" cy="48" r="7" fill="#cbd5e1"/>
  <path d="M70 48 h12 M76 42 v12" stroke="#64748b" stroke-width="2" stroke-linecap="round"/>
  <path d="M61 56 q0 5 2.2 5 q2.2 0 2.2 -5 q0 -3 -2.2 -6 q-2.2 3 -2.2 6" fill="#38bdf8"/>
  <path d="M58 70 q0 6 2.6 6 q2.6 0 2.6 -6 q0 -3.5 -2.6 -7 q-2.6 3.5 -2.6 7" fill="#0ea5e9"/>
  <ellipse cx="62" cy="84" rx="9" ry="2.5" fill="#7dd3fc" opacity=".7"/>
</svg>
