<svg xmlns="http://www.w3.org/2000/svg" viewBox="0 0 100 100">
  <defs><linearGradient id="dor_bg" x1="0" y1="0" x2="1" y2="1"><stop offset="0" stop-color="#eef2ff"/><stop offset="1" stop-color="#e0e7ff"/></linearGradient></defs>
  <rect width="100" height="100" rx="16" fill="url(#dor_bg)"/>
  <ellipse cx="50" cy="88" rx="36" ry="4" fill="#0f172a" opacity=".08"/>
  <rect x="14" y="40" width="10" height="40" rx="3" fill="#92400e"/>
  <rect x="78" y="52" width="8" height="28" rx="3" fill="#92400e"/>
  <rect x="20" y="58" width="62" height="14" rx="4" fill="#6366f1"/>
  <rect x="20" y="52" width="62" height="10" rx="4" fill="#a5b4fc"/>
  <path d="M24 52 q8 -8 18 -2 q2 1 1 3 l-1 1 h-16 q-3 0 -2 -2" fill="#f8fafc"/>
  <rect x="20" y="70" width="62" height="4" fill="#4f46e5"/>
  <path d="M40 56 h40" stroke="#818cf8" stroke-width="2" opacity="0"/>
  <circle cx="68" cy="22" r="8" fill="#fde047" opacity=".9"/>
  <path d="M64 18 a8 8 0 1 0 9 11 a6.5 6.5 0 0 1 -9 -11" fill="#eab308" opacity="0"/>
  <rect x="56" y="14" width="24" height="18" rx="2" fill="#1e1b4b"/>
  <circle cx="63" cy="21" r="3" fill="#fde047"/>
  <circle cx="72" cy="26" r="1.2" fill="#e0e7ff"/>
  <circle cx="74" cy="19" r="1" fill="#e0e7ff"/>
  <circle cx="68" cy="28" r=".9" fill="#e0e7ff"/>
  <path d="M30 30 q2 -4 6 -2 q1 -3 5 -2 q4 1 3 5 q2 2 -1 3 h-12 q-3 -1 -1 -4" fill="#c7d2fe" opacity="0"/>
</svg>
