<svg xmlns="http://www.w3.org/2000/svg" viewBox="0 0 100 100">
  <defs><linearGradient id="blc_bg" x1="0" y1="0" x2="1" y2="1"><stop offset="0" stop-color="#fefce8"/><stop offset="1" stop-color="#fef3c7"/></linearGradient></defs>
  <rect width="100" height="100" rx="16" fill="url(#blc_bg)"/>
  <rect x="10" y="10" width="80" height="80" rx="14" fill="#fde68a"/>
  <rect x="32" y="14" width="36" height="46" rx="3" fill="#92400e"/>
  <rect x="35" y="17" width="14" height="40" fill="#7dd3fc"/>
  <rect x="51" y="17" width="14" height="40" fill="#38bdf8"/>
  <path d="M35 17 l14 0 l-14 16 z" fill="#bae6fd" opacity=".7"/>
  <rect x="22" y="58" width="56" height="6" rx="3" fill="#57534e"/>
  <g fill="#44403c">
    <rect x="26" y="64" width="4" height="20" rx="2"/>
    <rect x="36" y="64" width="4" height="20" rx="2"/>
    <rect x="48" y="64" width="4" height="20" rx="2"/>
    <rect x="60" y="64" width="4" height="20" rx="2"/>
    <rect x="70" y="64" width="4" height="20" rx="2"/>
  </g>
  <rect x="22" y="82" width="56" height="5" rx="2.5" fill="#57534e"/>
  <path d="M20 60 q-5 0 -5 6 q0 5 5 5" fill="none" stroke="#16a34a" stroke-width="2.5"/>
  <circle cx="17" cy="58" r="4" fill="#16a34a"/>
  <circle cx="13" cy="61" r="3" fill="#22c55e"/>
  <circle cx="19" cy="63" r="3" fill="#4ade80"/>
  <circle cx="16" cy="56" r="2" fill="#f472b6"/>
</svg>
