<svg xmlns="http://www.w3.org/2000/svg" viewBox="0 0 100 100">
  <defs><linearGradient id="dut_bg" x1="0" y1="0" x2="1" y2="1"><stop offset="0" stop-color="#f0f9ff"/><stop offset="1" stop-color="#e0f2fe"/></linearGradient></defs>
  <rect width="100" height="100" rx="16" fill="url(#dut_bg)"/>
  <ellipse cx="50" cy="88" rx="30" ry="4" fill="#0f172a" opacity=".08"/>
  <path d="M26 84 v-62 q0 -10 10 -10 h14 q10 0 12 10" fill="none" stroke="#94a3b8" stroke-width="5"/>
  <path d="M54 20 q14 0 14 12 l-22 0 q0 -12 8 -12" fill="#cbd5e1"/>
  <ellipse cx="57" cy="33" rx="12" ry="3.5" fill="#94a3b8"/>
  <g stroke="#38bdf8" stroke-width="2.4" stroke-linecap="round">
    <path d="M48 40 q-1 5 -2 9"/>
    <path d="M55 40 q0 5 0 9"/>
    <path d="M62 40 q1 5 2 9"/>
    <path d="M46 54 q-1 5 -2 9"/>
    <path d="M55 54 q0 5 0 9"/>
    <path d="M64 54 q1 5 2 9"/>
    <path d="M48 68 q-1 5 -2 8"/>
    <path d="M62 68 q1 5 2 8"/>
  </g>
  <ellipse cx="56" cy="82" rx="14" ry="3" fill="#7dd3fc" opacity=".7"/>
  <circle cx="20" cy="40" r="2" fill="#bae6fd"/>
</svg>
