<svg xmlns="http://www.w3.org/2000/svg" viewBox="0 0 100 100">
  <defs><linearGradient id="fin_bg" x1="0" y1="0" x2="1" y2="1"><stop offset="0" stop-color="#fff7ed"/><stop offset="1" stop-color="#ffedd5"/></linearGradient>
  <linearGradient id="fin_cel" x1="0" y1="0" x2="0" y2="1"><stop offset="0" stop-color="#7dd3fc"/><stop offset="1" stop-color="#bae6fd"/></linearGradient></defs>
  <rect width="100" height="100" rx="16" fill="url(#fin_bg)"/>
  <rect x="18" y="12" width="64" height="70" rx="4" fill="#92400e"/>
  <rect x="22" y="16" width="56" height="62" rx="2" fill="#fef3c7"/>
  <rect x="25" y="19" width="50" height="56" fill="url(#fin_cel)"/>
  <circle cx="62" cy="30" r="6" fill="#fde047"/>
  <path d="M30 36 q3 -4 7 -2 q1 -3 5 -2 q4 0 4 4 q3 1 1 4 l-16 0 q-3 -2 -1 -4" fill="#ffffff" opacity=".9"/>
  <rect x="47.5" y="19" width="5" height="56" fill="#fef3c7"/>
  <rect x="25" y="44" width="50" height="5" fill="#fef3c7"/>
  <path d="M25 19 L42 19 L25 36 Z" fill="#ffffff" opacity=".3"/>
  <rect x="14" y="80" width="72" height="7" rx="3" fill="#78350f"/>
  <circle cx="26" cy="78" r="4" fill="#ef4444"/>
  <circle cx="32" cy="80" r="3" fill="#f472b6"/>
  <path d="M26 74 q0 -3 3 -4" stroke="#16a34a" stroke-width="1.6" fill="none"/>
</svg>
