<svg xmlns="http://www.w3.org/2000/svg" viewBox="0 0 100 100">
  <defs><linearGradient id="sof_bg" x1="0" y1="0" x2="1" y2="1"><stop offset="0" stop-color="#f0fdfa"/><stop offset="1" stop-color="#ccfbf1"/></linearGradient>
  <linearGradient id="sof_cos" x1="0" y1="0" x2="0" y2="1"><stop offset="0" stop-color="#14b8a6"/><stop offset="1" stop-color="#0f766e"/></linearGradient></defs>
  <rect width="100" height="100" rx="16" fill="url(#sof_bg)"/>
  <ellipse cx="50" cy="86" rx="36" ry="4" fill="#0f172a" opacity=".08"/>
  <path d="M20 36 q0 -8 8 -8 h44 q8 0 8 8 v16 h-60 z" fill="url(#sof_cos)"/>
  <path d="M12 50 q0 -7 7 -7 q7 0 7 7 v8 h48 v-8 q0 -7 7 -7 q7 0 7 7 v20 q0 6 -6 6 H18 q-6 0 -6 -6 z" fill="#0d9488"/>
  <rect x="26" y="56" width="23" height="12" rx="4" fill="#2dd4bf"/>
  <rect x="51" y="56" width="23" height="12" rx="4" fill="#2dd4bf"/>
  <path d="M26 62 h48" stroke="#0f766e" stroke-width="0"/>
  <rect x="18" y="76" width="6" height="8" rx="2" fill="#134e4a"/>
  <rect x="76" y="76" width="6" height="8" rx="2" fill="#134e4a"/>
  <rect x="28" y="38" width="12" height="10" rx="3" fill="#fbbf24" transform="rotate(-8 34 43)"/>
</svg>
