<svg xmlns="http://www.w3.org/2000/svg" viewBox="0 0 100 100">
  <defs><linearGradient id="all_bg" x1="0" y1="0" x2="1" y2="1"><stop offset="0" stop-color="#fafaf9"/><stop offset="1" stop-color="#f5f5f4"/></linearGradient>
  <radialGradient id="all_cos" cx=".4" cy=".3" r="1"><stop offset="0" stop-color="#ffffff"/><stop offset="1" stop-color="#d6d3d1"/></radialGradient></defs>
  <rect width="100" height="100" rx="16" fill="url(#all_bg)"/>
  <ellipse cx="50" cy="84" rx="26" ry="4" fill="#0f172a" opacity=".08"/>
  <path d="M50 26 q4 10 12 16 q12 9 12 22 q0 18 -24 18 q-24 0 -24 -18 q0 -13 12 -22 q8 -6 12 -16" fill="url(#all_cos)"/>
  <path d="M50 28 q-3 24 -10 52 M50 28 q3 24 10 52 M50 28 q-10 26 -19 44 M50 28 q10 26 19 44" stroke="#a8a29e" stroke-width="1.6" fill="none" opacity=".7"/>
  <path d="M47 24 q-1 -6 1 -10 q3 -2 5 0 q2 4 1 10 q-3 2 -7 0" fill="#bef264"/>
  <path d="M49 18 v6" stroke="#84cc16" stroke-width="1.4"/>
  <ellipse cx="38" cy="56" rx="5" ry="10" fill="#fafaf9" opacity=".8" transform="rotate(-10 38 56)"/>
</svg>
