<svg xmlns="http://www.w3.org/2000/svg" viewBox="0 0 100 100">
  <defs><linearGradient id="cal_bg" x1="0" y1="0" x2="1" y2="1"><stop offset="0" stop-color="#f0f9ff"/><stop offset="1" stop-color="#e0f2fe"/></linearGradient>
  <linearGradient id="cal_cos" x1="0" y1="0" x2="0" y2="1"><stop offset="0" stop-color="#fda4af"/><stop offset="1" stop-color="#e11d48"/></linearGradient></defs>
  <rect width="100" height="100" rx="16" fill="url(#cal_bg)"/>
  <ellipse cx="50" cy="86" rx="26" ry="4" fill="#0f172a" opacity=".08"/>
  <path d="M50 10 q14 10 8 28 h-16 q-6 -18 8 -28" fill="url(#cal_cos)"/>
  <path d="M50 12 q-10 8 -6 24 l-8 -4 q-2 -14 14 -20" fill="#fb7185" opacity=".6"/>
  <ellipse cx="50" cy="42" rx="14" ry="12" fill="url(#cal_cos)"/>
  <circle cx="44" cy="42" r="3" fill="#1e293b"/>
  <circle cx="56" cy="42" r="3" fill="#1e293b"/>
  <circle cx="43" cy="41" r="1" fill="#fff"/>
  <circle cx="55" cy="41" r="1" fill="#fff"/>
  <g stroke="#e11d48" stroke-width="4" stroke-linecap="round" fill="none">
    <path d="M38 52 q-8 12 -16 14"/>
    <path d="M44 54 q-4 14 -10 20"/>
    <path d="M50 55 q0 14 -2 22"/>
    <path d="M56 54 q4 14 10 20"/>
    <path d="M62 52 q8 12 16 14"/>
  </g>
  <circle cx="24" cy="20" r="2" fill="#bae6fd"/><circle cx="78" cy="24" r="1.6" fill="#bae6fd"/>
</svg>
