<svg xmlns="http://www.w3.org/2000/svg" viewBox="0 0 100 100">
  <defs><linearGradient id="tar_bg" x1="0" y1="0" x2="1" y2="1"><stop offset="0" stop-color="#fff7ed"/><stop offset="1" stop-color="#ffedd5"/></linearGradient>
  <radialGradient id="tar_cos" cx=".35" cy=".3" r="1"><stop offset="0" stop-color="#fb923c"/><stop offset="1" stop-color="#c2410c"/></radialGradient></defs>
  <rect width="100" height="100" rx="16" fill="url(#tar_bg)"/>
  <ellipse cx="50" cy="84" rx="26" ry="4" fill="#0f172a" opacity=".08"/>
  <circle cx="50" cy="54" r="28" fill="url(#tar_cos)"/>
  <ellipse cx="38" cy="44" rx="7" ry="10" fill="#fdba74" opacity=".6" transform="rotate(-20 38 44)"/>
  <g fill="#ea580c" opacity=".5">
    <circle cx="58" cy="64" r="1.2"/><circle cx="64" cy="56" r="1.2"/><circle cx="56" cy="48" r="1.2"/><circle cx="44" cy="68" r="1.2"/><circle cx="36" cy="58" r="1.2"/><circle cx="50" cy="74" r="1.2"/>
  </g>
  <path d="M50 26 q-1 -6 3 -10" stroke="#78350f" stroke-width="3" stroke-linecap="round" fill="none"/>
  <path d="M54 14 q9 -3 11 4 q-7 4 -11 -4" fill="#16a34a"/>
  <ellipse cx="50" cy="27" rx="4" ry="2" fill="#9a3412"/>
</svg>
