<svg xmlns="http://www.w3.org/2000/svg" viewBox="0 0 100 100">
  <defs><linearGradient id="pes_bg" x1="0" y1="0" x2="1" y2="1"><stop offset="0" stop-color="#f7fee7"/><stop offset="1" stop-color="#ecfccb"/></linearGradient>
  <linearGradient id="pes_beina" x1="0" y1="0" x2="0" y2="1"><stop offset="0" stop-color="#4d7c0f"/><stop offset="1" stop-color="#365314"/></linearGradient></defs>
  <rect width="100" height="100" rx="16" fill="url(#pes_bg)"/>
  <ellipse cx="50" cy="80" rx="32" ry="4" fill="#0f172a" opacity=".08"/>
  <g transform="rotate(-12 50 52)">
    <path d="M14 50 q8 -18 36 -18 q28 0 36 18 q-8 18 -36 18 q-28 0 -36 -18" fill="url(#pes_beina)"/>
    <path d="M14 50 q8 -16 36 -16 q28 0 36 16 q-36 8 -72 0" fill="#65a30d"/>
    <circle cx="30" cy="50" r="8.5" fill="#84cc16"/>
    <circle cx="27" cy="47" r="3" fill="#bef264" opacity=".8"/>
    <circle cx="50" cy="51" r="8.5" fill="#a3e635"/>
    <circle cx="47" cy="48" r="3" fill="#d9f99d" opacity=".8"/>
    <circle cx="70" cy="50" r="8.5" fill="#84cc16"/>
    <circle cx="67" cy="47" r="3" fill="#bef264" opacity=".8"/>
    <path d="M14 50 q-5 -4 -4 -10" stroke="#15803d" stroke-width="2.5" stroke-linecap="round" fill="none"/>
  </g>
</svg>
