<svg xmlns="http://www.w3.org/2000/svg" viewBox="0 0 100 100">
  <defs><linearGradient id="bis_bg" x1="0" y1="0" x2="1" y2="1"><stop offset="0" stop-color="#fef2f2"/><stop offset="1" stop-color="#fee2e2"/></linearGradient>
  <radialGradient id="bis_carn" cx=".4" cy=".4" r="1"><stop offset="0" stop-color="#f87171"/><stop offset="1" stop-color="#991b1b"/></radialGradient></defs>
  <rect width="100" height="100" rx="16" fill="url(#bis_bg)"/>
  <ellipse cx="50" cy="80" rx="32" ry="5" fill="#0f172a" opacity=".08"/>
  <ellipse cx="50" cy="74" rx="36" ry="8" fill="#e2e8f0"/>
  <ellipse cx="50" cy="72" rx="36" ry="8" fill="#f8fafc"/>
  <g transform="rotate(-8 50 48)">
    <path d="M22 46 q0 -18 24 -18 q32 0 32 20 q0 16 -22 18 q-34 2 -34 -20" fill="url(#bis_carn)"/>
    <path d="M22 46 q0 -16 20 -17 q-12 6 -12 18 q-4 4 -8 -1" fill="#fca5a5" opacity=".55"/>
    <path d="M30 36 q20 -6 40 4 q6 10 -2 18" stroke="#fecaca" stroke-width="3" fill="none" opacity=".8"/>
    <path d="M70 30 q8 4 8 14 q0 8 -6 12 q-3 -2 -2 -5 q4 -3 4 -8 q0 -7 -6 -9 q-1 -3 2 -4" fill="#fef3c7"/>
  </g>
</svg>
