<svg xmlns="http://www.w3.org/2000/svg" viewBox="0 0 100 100">
  <defs><linearGradient id="gmb_bg" x1="0" y1="0" x2="1" y2="1"><stop offset="0" stop-color="#fff7ed"/><stop offset="1" stop-color="#ffedd5"/></linearGradient>
  <linearGradient id="gmb_cos" x1="0" y1="0" x2="0" y2="1"><stop offset="0" stop-color="#fdba74"/><stop offset="1" stop-color="#ea580c"/></linearGradient></defs>
  <rect width="100" height="100" rx="16" fill="url(#gmb_bg)"/>
  <ellipse cx="50" cy="82" rx="30" ry="4" fill="#0f172a" opacity=".08"/>
  <path d="M28 30 q24 -10 40 4 q14 12 6 30 q-6 14 -22 12 q4 -6 2 -10 q8 -2 10 -10 q2 -10 -8 -16 q-14 -8 -28 -2 q-6 -4 0 -8" fill="url(#gmb_cos)"/>
  <path d="M40 32 q-2 8 4 12 M52 32 q-2 8 4 12 M64 38 q-4 8 2 13" stroke="#c2410c" stroke-width="2" fill="none" opacity=".7"/>
  <circle cx="30" cy="33" r="2.6" fill="#1e293b"/>
  <path d="M26 30 q-8 -4 -12 -10 M28 28 q-4 -8 -2 -14" stroke="#ea580c" stroke-width="2" stroke-linecap="round" fill="none"/>
  <path d="M52 74 q-6 2 -10 0 q2 -5 7 -5 q3 2 3 5" fill="#fb923c"/>
  <path d="M44 70 l-6 6 M48 72 l-4 8" stroke="#ea580c" stroke-width="2" stroke-linecap="round"/>
  <path d="M30 42 q-4 6 -10 7 M34 46 q-3 6 -8 8" stroke="#f97316" stroke-width="2" stroke-linecap="round" fill="none"/>
</svg>
