<svg xmlns="http://www.w3.org/2000/svg" viewBox="0 0 100 100">
  <defs><linearGradient id="enc_bg" x1="0" y1="0" x2="1" y2="1"><stop offset="0" stop-color="#f7fee7"/><stop offset="1" stop-color="#ecfccb"/></linearGradient>
  <radialGradient id="enc_cos" cx=".4" cy=".4" r="1"><stop offset="0" stop-color="#bef264"/><stop offset="1" stop-color="#4d7c0f"/></radialGradient></defs>
  <rect width="100" height="100" rx="16" fill="url(#enc_bg)"/>
  <ellipse cx="50" cy="84" rx="30" ry="4" fill="#0f172a" opacity=".08"/>
  <circle cx="50" cy="52" r="28" fill="url(#enc_cos)"/>
  <path d="M24 44 q6 -12 16 -14 q-4 10 -2 16 q-8 2 -14 -2" fill="#84cc16"/>
  <path d="M76 44 q-6 -12 -16 -14 q4 10 2 16 q8 2 14 -2" fill="#a3e635"/>
  <path d="M38 30 q12 -8 24 0 q-6 10 -12 10 q-6 0 -12 -10" fill="#bef264"/>
  <path d="M28 62 q10 14 22 14 q12 0 22 -14 q-10 6 -22 6 q-12 0 -22 -6" fill="#65a30d"/>
  <path d="M40 46 q10 -6 20 0 q-4 12 -10 12 q-6 0 -10 -12" fill="#d9f99d"/>
  <path d="M50 48 v8 M44 50 q2 4 6 6 M56 50 q-2 4 -6 6" stroke="#65a30d" stroke-width="1.6" fill="none"/>
</svg>
