<svg xmlns="http://www.w3.org/2000/svg" viewBox="0 0 100 100">
  <defs><linearGradient id="xar_bg" x1="0" y1="0" x2="1" y2="1"><stop offset="0" stop-color="#fef2f2"/><stop offset="1" stop-color="#fee2e2"/></linearGradient>
  <linearGradient id="xar_vidre" x1="0" y1="0" x2="0" y2="1"><stop offset="0" stop-color="#fca5a5"/><stop offset="1" stop-color="#b91c1c"/></linearGradient></defs>
  <rect width="100" height="100" rx="16" fill="url(#xar_bg)"/>
  <ellipse cx="50" cy="88" rx="26" ry="4" fill="#0f172a" opacity=".08"/>
  <rect x="38" y="10" width="18" height="10" rx="3" fill="#f8fafc" stroke="#cbd5e1" stroke-width="1.4"/>
  <path d="M40 20 h14 v6 q8 6 8 16 v36 q0 8 -8 8 H40 q-8 0 -8 -8 V42 q0 -10 8 -16 z" fill="url(#xar_vidre)"/>
  <path d="M40 22 h5 v5 q-8 5 -8 15 v36 q0 6 5 7 h-2 q-8 0 -8 -8 V42 q0 -10 8 -16 z" fill="#fecaca" opacity=".6"/>
  <rect x="38" y="44" width="24" height="22" rx="3" fill="#fef9c3"/>
  <path d="M46 50 h8 M50 46 v8 M44 60 h12" stroke="#dc2626" stroke-width="2.5" stroke-linecap="round" opacity="0"/>
  <path d="M47 49 h6 v4 h-6 z M49 47 v8" stroke="#dc2626" stroke-width="0"/>
  <path d="M50 47 v9 M45.5 51.5 h9" stroke="#dc2626" stroke-width="3" stroke-linecap="round"/>
  <path d="M42 60 h16" stroke="#a16207" stroke-width="1.8" stroke-linecap="round" opacity=".5"/>
  <ellipse cx="74" cy="74" rx="10" ry="5" fill="#e2e8f0"/>
  <path d="M68 72 q0 -4 6 -4 q6 0 6 4 l-1 3 h-10 z" fill="#f8fafc"/>
  <path d="M74 70 q4 1 4 4" stroke="#b91c1c" stroke-width="2.5" stroke-linecap="round" fill="none" opacity="0"/>
  <ellipse cx="74" cy="73" rx="4" ry="2" fill="#ef4444" opacity=".7"/>
</svg>
