<svg xmlns="http://www.w3.org/2000/svg" viewBox="0 0 100 100">
  <defs><linearGradient id="fru_bg" x1="0" y1="0" x2="0" y2="1"><stop offset="0" stop-color="#bae6fd"/><stop offset="1" stop-color="#e0f2fe"/></linearGradient></defs>
  <rect width="100" height="100" rx="16" fill="url(#fru_bg)"/>
  <ellipse cx="50" cy="89" rx="36" ry="4" fill="#0f172a" opacity=".08"/>
  <rect x="14" y="34" width="72" height="52" rx="3" fill="#fef3c7"/>
  <g>
    <path d="M12 22 h76 v8 q0 6 -6.3 6 q-6.4 0 -6.4 -6 q0 6 -6.3 6 q-6.3 0 -6.3 -6 q0 6 -6.3 6 q-6.4 0 -6.4 -6 q0 6 -6.3 6 q-6.3 0 -6.3 -6 q0 6 -6.4 6 q-6.3 0 -6.3 -6 q0 6 -6.3 6 q-6.4 0 -6.4 -6 z" fill="#16a34a"/>
    <path d="M12 22 h12.7 v8 q0 6 -6.4 6 q-6.3 0 -6.3 -6 z M37.4 22 h12.7 v8 q0 6 -6.4 6 q-6.3 0 -6.3 -6 z M62.7 22 h12.7 v8 q0 6 -6.3 6 q-6.4 0 -6.4 -6 z" fill="#4ade80"/>
  </g>
  <rect x="20" y="46" width="60" height="34" rx="2" fill="#92400e"/>
  <rect x="22" y="48" width="56" height="9" fill="#b45309"/>
  <circle cx="28" cy="52" r="3.6" fill="#ef4444"/><circle cx="36" cy="52" r="3.6" fill="#dc2626"/><circle cx="44" cy="52" r="3.6" fill="#ef4444"/>
  <rect x="22" y="59" width="56" height="9" fill="#a16207"/>
  <circle cx="30" cy="63.5" r="3.6" fill="#f97316"/><circle cx="38" cy="63.5" r="3.6" fill="#fb923c"/><circle cx="46" cy="63.5" r="3.6" fill="#f97316"/>
  <rect x="22" y="70" width="56" height="9" fill="#b45309"/>
  <path d="M28 70 q3 -4 6 0 q3 4 6 0" stroke="#fde047" stroke-width="4" fill="none"/>
  <circle cx="64" cy="56" r="5" fill="#fde047"/>
  <circle cx="70" cy="66" r="4.5" fill="#84cc16"/>
  <circle cx="62" cy="74" r="4" fill="#a855f7"/>
</svg>
