<svg xmlns="http://www.w3.org/2000/svg" viewBox="0 0 100 100">
  <defs><linearGradient id="pst_bg" x1="0" y1="0" x2="1" y2="1"><stop offset="0" stop-color="#fff7ed"/><stop offset="1" stop-color="#ffedd5"/></linearGradient>
  <linearGradient id="pst_cos" x1="0" y1="0" x2="1" y2="1"><stop offset="0" stop-color="#fb923c"/><stop offset="1" stop-color="#c2410c"/></linearGradient></defs>
  <rect width="100" height="100" rx="16" fill="url(#pst_bg)"/>
  <ellipse cx="50" cy="86" rx="28" ry="4" fill="#0f172a" opacity=".08"/>
  <path d="M64 36 q6 6 2 12 L36 82 q-8 8 -14 2 q-6 -6 2 -14 l34 -30 q4 -3 6 -4" fill="url(#pst_cos)" transform="rotate(2 50 60)"/>
  <path d="M48 50 l8 8 M40 58 l8 8 M33 66 l7 7" stroke="#9a3412" stroke-width="2" stroke-linecap="round" opacity=".6"/>
  <path d="M66 34 q-4 -10 4 -18 q2 8 -1 14 q6 -8 16 -8 q-4 9 -12 10 q8 0 12 6 q-9 4 -16 -1 z" fill="#16a34a"/>
  <path d="M68 28 q1 -5 4 -8" stroke="#15803d" stroke-width="1.4" fill="none"/>
</svg>
