<svg xmlns="http://www.w3.org/2000/svg" viewBox="0 0 100 100">
  <defs><linearGradient id="peb_bg" x1="0" y1="0" x2="1" y2="1"><stop offset="0" stop-color="#fef2f2"/><stop offset="1" stop-color="#fee2e2"/></linearGradient>
  <radialGradient id="peb_cos" cx=".35" cy=".3" r="1"><stop offset="0" stop-color="#f87171"/><stop offset="1" stop-color="#991b1b"/></radialGradient></defs>
  <rect width="100" height="100" rx="16" fill="url(#peb_bg)"/>
  <ellipse cx="50" cy="86" rx="26" ry="4" fill="#0f172a" opacity=".08"/>
  <path d="M36 32 q-14 4 -14 26 q0 24 28 24 q28 0 28 -24 q0 -22 -14 -26 q-6 8 -14 8 q-8 0 -14 -8" fill="url(#peb_cos)"/>
  <path d="M38 36 q-2 22 2 42 M62 36 q2 22 -2 42 M50 40 v42" stroke="#7f1d1d" stroke-width="1.8" fill="none" opacity=".45"/>
  <ellipse cx="36" cy="50" rx="5.5" ry="11" fill="#fca5a5" opacity=".6" transform="rotate(-8 36 50)"/>
  <path d="M50 32 q-1 -8 4 -13" stroke="#15803d" stroke-width="3.5" stroke-linecap="round" fill="none"/>
  <path d="M44 30 q6 -5 12 0 q-2 6 -6 6 q-4 0 -6 -6" fill="#16a34a"/>
</svg>
