<svg xmlns="http://www.w3.org/2000/svg" viewBox="0 0 100 100">
  <defs><linearGradient id="vrd_bg" x1="0" y1="0" x2="0" y2="1"><stop offset="0" stop-color="#bae6fd"/><stop offset="1" stop-color="#e0f2fe"/></linearGradient></defs>
  <rect width="100" height="100" rx="16" fill="url(#vrd_bg)"/>
  <ellipse cx="50" cy="89" rx="36" ry="4" fill="#0f172a" opacity=".08"/>
  <rect x="14" y="34" width="72" height="52" rx="3" fill="#fef3c7"/>
  <path d="M12 22 h76 v8 q0 6 -6.3 6 q-6.4 0 -6.4 -6 q0 6 -6.3 6 q-6.3 0 -6.3 -6 q0 6 -6.3 6 q-6.4 0 -6.4 -6 q0 6 -6.3 6 q-6.3 0 -6.3 -6 q0 6 -6.4 6 q-6.3 0 -6.3 -6 q0 6 -6.3 6 q-6.4 0 -6.4 -6 z" fill="#ea580c"/>
  <path d="M12 22 h12.7 v8 q0 6 -6.4 6 q-6.3 0 -6.3 -6 z M37.4 22 h12.7 v8 q0 6 -6.4 6 q-6.3 0 -6.3 -6 z M62.7 22 h12.7 v8 q0 6 -6.3 6 q-6.4 0 -6.4 -6 z" fill="#fb923c"/>
  <rect x="20" y="46" width="60" height="34" rx="2" fill="#92400e"/>
  <rect x="22" y="48" width="27" height="14" fill="#b45309"/>
  <path d="M26 56 q0 -5 5 -5 q2 -3 6 -1 q4 -1 5 3 q3 2 1 3 z" fill="#4ade80"/>
  <path d="M28 51 q4 -3 8 0" stroke="#16a34a" stroke-width="1.6" fill="none"/>
  <rect x="51" y="48" width="27" height="14" fill="#a16207"/>
  <g transform="rotate(20 64 55)"><rect x="60" y="51" width="9" height="4" rx="2" fill="#f97316"/><path d="M69 52 l4 1 l-4 1.6 z" fill="#16a34a"/></g>
  <g transform="rotate(-12 64 58)"><rect x="58" y="56" width="10" height="4.5" rx="2.2" fill="#fb923c"/></g>
  <rect x="22" y="64" width="56" height="14" fill="#b45309"/>
  <circle cx="32" cy="71" r="4.5" fill="#dc2626"/><path d="M32 67 q1 -2 3 -2" stroke="#16a34a" stroke-width="1.6" fill="none"/>
  <circle cx="46" cy="71" r="4.5" fill="#a855f7"/>
  <ellipse cx="62" cy="71" rx="6" ry="4" fill="#84cc16"/>
  <circle cx="73" cy="71" r="4" fill="#f8fafc"/><path d="M73 67 q-2 -2 0 -3" stroke="#a3a3a3" stroke-width="1.4" fill="none"/>
</svg>
