<svg xmlns="http://www.w3.org/2000/svg" viewBox="0 0 100 100">
  <defs><linearGradient id="ptt_bg" x1="0" y1="0" x2="1" y2="1"><stop offset="0" stop-color="#fefce8"/><stop offset="1" stop-color="#fef3c7"/></linearGradient>
  <radialGradient id="ptt_cos" cx=".4" cy=".35" r="1"><stop offset="0" stop-color="#d6a35c"/><stop offset="1" stop-color="#92400e"/></radialGradient></defs>
  <rect width="100" height="100" rx="16" fill="url(#ptt_bg)"/>
  <ellipse cx="50" cy="82" rx="30" ry="4" fill="#0f172a" opacity=".08"/>
  <path d="M26 42 q6 -14 24 -14 q20 0 26 16 q4 12 -4 22 q-8 10 -24 10 q-16 0 -22 -12 q-4 -10 0 -22" fill="url(#ptt_cos)" transform="rotate(-8 50 54)"/>
  <ellipse cx="38" cy="42" rx="7" ry="9" fill="#e7c08a" opacity=".5" transform="rotate(-15 38 42)"/>
  <g fill="#78350f" opacity=".7">
    <ellipse cx="40" cy="58" rx="2" ry="1.4"/>
    <ellipse cx="58" cy="44" rx="2" ry="1.4"/>
    <ellipse cx="64" cy="62" rx="2" ry="1.4"/>
    <ellipse cx="48" cy="70" rx="1.8" ry="1.3"/>
    <ellipse cx="30" cy="50" rx="1.6" ry="1.2"/>
  </g>
</svg>
