<svg xmlns="http://www.w3.org/2000/svg" viewBox="0 0 100 100">
  <defs><linearGradient id="hmb_bg" x1="0" y1="0" x2="1" y2="1"><stop offset="0" stop-color="#fff7ed"/><stop offset="1" stop-color="#ffedd5"/></linearGradient>
  <linearGradient id="hmb_pa" x1="0" y1="0" x2="0" y2="1"><stop offset="0" stop-color="#fbbf24"/><stop offset="1" stop-color="#d97706"/></linearGradient></defs>
  <rect width="100" height="100" rx="16" fill="url(#hmb_bg)"/>
  <ellipse cx="50" cy="86" rx="30" ry="4" fill="#0f172a" opacity=".1"/>
  <path d="M20 46 q0 -24 30 -24 q30 0 30 24 z" fill="url(#hmb_pa)"/>
  <g fill="#fef3c7"><ellipse cx="38" cy="32" rx="1.8" ry="1.2"/><ellipse cx="50" cy="28" rx="1.8" ry="1.2"/><ellipse cx="62" cy="32" rx="1.8" ry="1.2"/><ellipse cx="44" cy="38" rx="1.6" ry="1.1"/><ellipse cx="57" cy="38" rx="1.6" ry="1.1"/></g>
  <path d="M18 46 h64 l-4 6 l-8 -4 l-8 5 l-8 -5 l-8 5 l-8 -5 l-8 4 z" fill="#4ade80"/>
  <rect x="20" y="52" width="60" height="7" rx="3.5" fill="#fde047"/>
  <rect x="18" y="58" width="64" height="11" rx="5" fill="#78350f"/>
  <rect x="18" y="58" width="64" height="4" rx="2" fill="#92400e"/>
  <ellipse cx="30" cy="72" rx="7" ry="3" fill="#ef4444"/>
  <ellipse cx="50" cy="72" rx="7" ry="3" fill="#ef4444"/>
  <ellipse cx="70" cy="72" rx="7" ry="3" fill="#ef4444"/>
  <path d="M20 72 q0 10 10 10 h40 q10 0 10 -10 z" fill="url(#hmb_pa)"/>
</svg>
