<svg xmlns="http://www.w3.org/2000/svg" viewBox="0 0 100 100">
  <defs><linearGradient id="gal_bg" x1="0" y1="0" x2="1" y2="1"><stop offset="0" stop-color="#fff7ed"/><stop offset="1" stop-color="#ffedd5"/></linearGradient>
  <radialGradient id="gal_cos" cx=".4" cy=".35" r="1"><stop offset="0" stop-color="#e7b86c"/><stop offset="1" stop-color="#a16207"/></radialGradient></defs>
  <rect width="100" height="100" rx="16" fill="url(#gal_bg)"/>
  <ellipse cx="50" cy="84" rx="28" ry="4" fill="#0f172a" opacity=".08"/>
  <path d="M50 22 a30 30 0 1 0 0.1 0 z" fill="url(#gal_cos)"/>
  <path d="M76 38 a30 30 0 0 0 -10 -11 a8 8 0 0 0 10 11" fill="#fef3c7" opacity="0"/>
  <path d="M68 26 a8 8 0 0 0 9 10 a30 30 0 0 0 -9 -10" fill="#ffedd5"/>
  <g fill="#451a03">
    <circle cx="38" cy="42" r="4"/>
    <circle cx="58" cy="50" r="4.5"/>
    <circle cx="42" cy="64" r="4"/>
    <circle cx="64" cy="68" r="3.4"/>
    <circle cx="28" cy="54" r="3"/>
    <circle cx="52" cy="34" r="3"/>
  </g>
  <circle cx="36.5" cy="40.5" r="1.3" fill="#92400e"/>
  <circle cx="56.5" cy="48.5" r="1.4" fill="#92400e"/>
  <circle cx="40.5" cy="62.5" r="1.3" fill="#92400e"/>
</svg>
