<svg xmlns="http://www.w3.org/2000/svg" viewBox="0 0 100 100">
  <defs><linearGradient id="pti_bg" x1="0" y1="0" x2="1" y2="1"><stop offset="0" stop-color="#f0fdf4"/><stop offset="1" stop-color="#dcfce7"/></linearGradient></defs>
  <rect width="100" height="100" rx="16" fill="url(#pti_bg)"/>
  <ellipse cx="50" cy="82" rx="30" ry="5" fill="#0f172a" opacity=".08"/>
  <g transform="rotate(-25 38 42)">
    <rect x="22" y="30" width="34" height="20" rx="10" fill="#dc2626"/>
    <rect x="22" y="30" width="17" height="20" rx="10" fill="#f8fafc"/>
    <rect x="36" y="30" width="4" height="20" fill="#e2e8f0"/>
    <path d="M26 36 q4 -3 8 -1" stroke="#cbd5e1" stroke-width="1.8" stroke-linecap="round" fill="none"/>
  </g>
  <circle cx="64" cy="62" r="11" fill="#f8fafc" stroke="#cbd5e1" stroke-width="1.4"/>
  <path d="M55 60 h18" stroke="#cbd5e1" stroke-width="2.5"/>
  <circle cx="36" cy="68" r="9" fill="#fbbf24"/>
  <path d="M29 65 h14" stroke="#d97706" stroke-width="2.2"/>
  <ellipse cx="33" cy="64" rx="2.5" ry="1.6" fill="#fde68a"/>
  <g transform="rotate(20 76 34)">
    <rect x="66" y="26" width="22" height="14" rx="7" fill="#3b82f6"/>
    <rect x="66" y="26" width="11" height="14" rx="7" fill="#93c5fd"/>
  </g>
</svg>
