<svg xmlns="http://www.w3.org/2000/svg" viewBox="0 0 100 100">
  <defs><linearGradient id="mer_bg" x1="0" y1="0" x2="0" y2="1"><stop offset="0" stop-color="#bae6fd"/><stop offset="1" stop-color="#e0f2fe"/></linearGradient></defs>
  <rect width="100" height="100" rx="16" fill="url(#mer_bg)"/>
  <ellipse cx="50" cy="89" rx="36" ry="4" fill="#0f172a" opacity=".08"/>
  <rect x="20" y="40" width="60" height="46" rx="2" fill="#fef3c7"/>
  <path d="M14 26 q18 -12 36 -12 q18 0 36 12 l-4 10 q-4 4 -8 1 q-3 4 -8 2 q-3 4 -8 2 q-4 3 -8 0 q-4 3 -8 0 q-5 2 -8 -2 q-5 2 -8 -2 q-4 3 -8 -1 z" fill="#0d9488"/>
  <path d="M14 26 q18 -12 36 -12 q8 0 16 2 l-3 11 q-4 4 -8 1 q-3 4 -8 2 q-4 3 -8 0 q-5 2 -8 -2 q-4 3 -8 -1 q-5 2 -9 -1" fill="#14b8a6"/>
  <rect x="26" y="50" width="20" height="36" rx="2" fill="#78350f"/>
  <rect x="28" y="52" width="16" height="32" rx="1.5" fill="#92400e"/>
  <circle cx="41" cy="68" r="1.6" fill="#fbbf24"/>
  <rect x="54" y="50" width="22" height="18" rx="2" fill="#7dd3fc"/>
  <rect x="54" y="50" width="22" height="18" rx="2" fill="none" stroke="#0369a1" stroke-width="1.6"/>
  <path d="M56 52 l8 0 l-8 8 z" fill="#bae6fd"/>
  <circle cx="32" cy="34" r="3.4" fill="#ef4444"/>
  <circle cx="50" cy="36" r="3.4" fill="#fde047"/>
  <circle cx="68" cy="34" r="3.4" fill="#84cc16"/>
</svg>
