<svg xmlns="http://www.w3.org/2000/svg" viewBox="0 0 100 100">
  <defs><linearGradient id="mel_bg" x1="0" y1="0" x2="1" y2="1"><stop offset="0" stop-color="#f7fee7"/><stop offset="1" stop-color="#ecfccb"/></linearGradient>
  <radialGradient id="mel_cos" cx=".4" cy=".35" r="1"><stop offset="0" stop-color="#4d7c0f"/><stop offset="1" stop-color="#365314"/></radialGradient></defs>
  <rect width="100" height="100" rx="16" fill="url(#mel_bg)"/>
  <ellipse cx="50" cy="84" rx="30" ry="4" fill="#0f172a" opacity=".08"/>
  <ellipse cx="44" cy="54" rx="28" ry="24" fill="url(#mel_cos)"/>
  <path d="M22 44 q22 -10 44 0 M18 56 q26 -8 52 0 M24 66 q20 8 40 0" stroke="#84cc16" stroke-width="1.8" fill="none" opacity=".5"/>
  <ellipse cx="34" cy="44" rx="6" ry="8" fill="#65a30d" opacity=".4" transform="rotate(-15 34 44)"/>
  <path d="M44 30 q0 -5 4 -7" stroke="#78350f" stroke-width="3" stroke-linecap="round" fill="none"/>
  <g transform="rotate(15 76 56)">
    <path d="M62 38 a20 20 0 0 1 28 26 z" fill="#fde68a"/>
    <path d="M64 41 a16.5 16.5 0 0 1 23 21.5 z" fill="#fdba74"/>
    <path d="M66 44 a13 13 0 0 1 18 17 z" fill="#fb923c"/>
    <ellipse cx="73" cy="51" rx="1.4" ry="2" fill="#fef3c7" transform="rotate(45 73 51)"/>
    <ellipse cx="78" cy="56" rx="1.4" ry="2" fill="#fef3c7" transform="rotate(45 78 56)"/>
  </g>
</svg>
