<svg xmlns="http://www.w3.org/2000/svg" viewBox="0 0 100 100">
  <defs><linearGradient id="pom_bg" x1="0" y1="0" x2="1" y2="1"><stop offset="0" stop-color="#fef2f2"/><stop offset="1" stop-color="#fee2e2"/></linearGradient>
  <radialGradient id="pom_cos" cx=".35" cy=".3" r="1"><stop offset="0" stop-color="#f87171"/><stop offset="1" stop-color="#b91c1c"/></radialGradient></defs>
  <rect width="100" height="100" rx="16" fill="url(#pom_bg)"/>
  <ellipse cx="50" cy="84" rx="26" ry="4" fill="#0f172a" opacity=".08"/>
  <path d="M50 34 q-6 -8 -16 -6 q-14 3 -14 22 q0 18 12 28 q6 5 12 1 q6 -4 12 0 q6 4 12 -1 q12 -10 12 -28 q0 -19 -14 -22 q-10 -2 -16 6" fill="url(#pom_cos)"/>
  <ellipse cx="36" cy="46" rx="6" ry="9" fill="#fca5a5" opacity=".65" transform="rotate(-18 36 46)"/>
  <path d="M50 34 q-2 -10 2 -16" stroke="#78350f" stroke-width="3.5" stroke-linecap="round" fill="none"/>
  <path d="M52 22 q12 -6 16 4 q-10 6 -16 -4" fill="#16a34a"/>
  <path d="M55 23 q6 -2 10 1" stroke="#15803d" stroke-width="1.4" fill="none"/>
</svg>
