<svg xmlns="http://www.w3.org/2000/svg" viewBox="0 0 100 100">
  <defs><linearGradient id="gel_bg" x1="0" y1="0" x2="1" y2="1"><stop offset="0" stop-color="#fdf2f8"/><stop offset="1" stop-color="#fce7f3"/></linearGradient>
  <linearGradient id="gel_con" x1="0" y1="0" x2="0" y2="1"><stop offset="0" stop-color="#d97706"/><stop offset="1" stop-color="#92400e"/></linearGradient></defs>
  <rect width="100" height="100" rx="16" fill="url(#gel_bg)"/>
  <ellipse cx="50" cy="90" rx="18" ry="3.5" fill="#0f172a" opacity=".08"/>
  <circle cx="40" cy="36" r="13" fill="#f472b6"/>
  <circle cx="36" cy="31" r="4" fill="#f9a8d4"/>
  <circle cx="60" cy="36" r="13" fill="#a16207"/>
  <circle cx="56" cy="31" r="4" fill="#d6a35c"/>
  <circle cx="50" cy="26" r="13" fill="#fef9c3"/>
  <circle cx="46" cy="21" r="4" fill="#fffbeb"/>
  <polygon points="30,46 70,46 52,88 48,88" fill="url(#gel_con)"/>
  <path d="M34 52 l30 0 M38 60 l24 0 M42 68 l16 0 M46 76 l8 0" stroke="#fbbf24" stroke-width="2" opacity=".7"/>
  <path d="M36 48 l14 38 M64 48 l-12 38" stroke="#fbbf24" stroke-width="2" opacity=".5"/>
  <path d="M70 14 l-2 4 l4 1 l-2 4" stroke="#f472b6" stroke-width="1.8" stroke-linecap="round" stroke-linejoin="round" fill="none"/>
</svg>
