<svg xmlns="http://www.w3.org/2000/svg" viewBox="0 0 100 100">
  <defs><linearGradient id="te_bg" x1="0" y1="0" x2="1" y2="1"><stop offset="0" stop-color="#f7fee7"/><stop offset="1" stop-color="#ecfccb"/></linearGradient>
  <linearGradient id="te_cos" x1="0" y1="0" x2="0" y2="1"><stop offset="0" stop-color="#ffffff"/><stop offset="1" stop-color="#d9f99d"/></linearGradient></defs>
  <rect width="100" height="100" rx="16" fill="url(#te_bg)"/>
  <ellipse cx="50" cy="84" rx="30" ry="4" fill="#0f172a" opacity=".1"/>
  <ellipse cx="46" cy="80" rx="26" ry="5" fill="#d9f99d"/>
  <ellipse cx="46" cy="78" rx="26" ry="5" fill="#ecfccb"/>
  <path d="M24 44 h44 v14 q0 16 -22 16 q-22 0 -22 -16 z" fill="url(#te_cos)"/>
  <ellipse cx="46" cy="44" rx="22" ry="6" fill="#ecfccb"/>
  <ellipse cx="46" cy="43.5" rx="18" ry="4.5" fill="#a16207"/>
  <ellipse cx="46" cy="43" rx="18" ry="4.5" fill="#ca8a04"/>
  <path d="M68 50 q11 -2 11 7 q0 9 -12 9 l1 -5 q6 0 6 -4 q0 -4 -6 -3 z" fill="#d9f99d"/>
  <path d="M58 46 q6 4 4 12" stroke="#84cc16" stroke-width="2" fill="none" stroke-linecap="round"/>
  <rect x="60" y="58" width="9" height="11" rx="2" fill="#65a30d"/>
  <path d="M62 61 h5 M62 64 h5" stroke="#ecfccb" stroke-width="1.2"/>
  <path d="M38 32 q-2 -6 2 -10 M48 32 q-2 -6 2 -10" stroke="#a3e635" stroke-width="2.2" stroke-linecap="round" fill="none"/>
</svg>
