<svg xmlns="http://www.w3.org/2000/svg" viewBox="0 0 100 100">
  <defs><linearGradient id="pa_bg" x1="0" y1="0" x2="1" y2="1"><stop offset="0" stop-color="#fefce8"/><stop offset="1" stop-color="#fef3c7"/></linearGradient>
  <radialGradient id="pa_cos" cx=".4" cy=".3" r="1"><stop offset="0" stop-color="#e7b86c"/><stop offset="1" stop-color="#b45309"/></radialGradient></defs>
  <rect width="100" height="100" rx="16" fill="url(#pa_bg)"/>
  <ellipse cx="50" cy="78" rx="32" ry="5" fill="#0f172a" opacity=".08"/>
  <path d="M18 56 q0 -24 32 -24 q32 0 32 24 q0 14 -10 16 H28 q-10 -2 -10 -16" fill="url(#pa_cos)"/>
  <path d="M20 52 q2 -17 22 -19 q-12 7 -13 20 q-4 4 -9 -1" fill="#fde68a" opacity=".55"/>
  <g stroke="#92400e" stroke-width="2.6" stroke-linecap="round" fill="none">
    <path d="M36 42 q4 -2 8 0"/>
    <path d="M48 40 q4 -2 8 0"/>
    <path d="M60 44 q4 -2 8 0"/>
  </g>
  <path d="M18 60 q32 8 64 0 l-2 6 q-6 6 -12 6 H28 q-6 0 -10 -6 z" fill="#92400e" opacity=".35"/>
</svg>
