<svg xmlns="http://www.w3.org/2000/svg" viewBox="0 0 100 100">
  <defs><linearGradient id="lle_bg" x1="0" y1="0" x2="1" y2="1"><stop offset="0" stop-color="#f0f9ff"/><stop offset="1" stop-color="#e0f2fe"/></linearGradient>
  <linearGradient id="lle_cart" x1="0" y1="0" x2="1" y2="1"><stop offset="0" stop-color="#ffffff"/><stop offset="1" stop-color="#e0f2fe"/></linearGradient></defs>
  <rect width="100" height="100" rx="16" fill="url(#lle_bg)"/>
  <ellipse cx="50" cy="88" rx="24" ry="4" fill="#0f172a" opacity=".08"/>
  <path d="M34 26 h32 l6 12 v42 q0 6 -6 6 H34 q-6 0 -6 -6 V38 z" fill="url(#lle_cart)" stroke="#bae6fd" stroke-width="1.4"/>
  <path d="M34 26 h32 l6 12 h-38 z" fill="#0ea5e9"/>
  <path d="M34 26 h10 l-8 12 h-8 z" fill="#38bdf8"/>
  <path d="M28 38 h38 v6 H28 z" fill="#0284c7" opacity="0"/>
  <ellipse cx="48" cy="62" rx="13" ry="10" fill="#bae6fd" opacity=".5"/>
  <path d="M40 60 q0 -6 8 -6 q8 0 8 6 v4 q0 6 -8 6 q-8 0 -8 -6 z" fill="#f8fafc"/>
  <path d="M42 56 q-3 -3 0 -6 q4 2 3 6 z" fill="#f8fafc"/>
  <circle cx="45" cy="61" r="1.4" fill="#0284c7"/>
  <circle cx="52" cy="61" r="1.4" fill="#0284c7"/>
  <ellipse cx="48.5" cy="65" rx="3" ry="2" fill="#fda4af"/>
  <path d="M36 80 h26" stroke="#bae6fd" stroke-width="2" stroke-linecap="round"/>
</svg>
