<svg xmlns="http://www.w3.org/2000/svg" viewBox="0 0 100 100">
  <defs><linearGradient id="ou_bg" x1="0" y1="0" x2="1" y2="1"><stop offset="0" stop-color="#fefce8"/><stop offset="1" stop-color="#fef3c7"/></linearGradient></defs>
  <rect width="100" height="100" rx="16" fill="url(#ou_bg)"/>
  <ellipse cx="50" cy="80" rx="32" ry="5" fill="#0f172a" opacity=".08"/>
  <path d="M14 56 q10 -10 24 -6 q6 -12 20 -10 q16 2 22 16 q6 16 -8 22 q-8 4 -16 0 q-8 6 -18 2 q-12 -4 -16 -12 q-4 -7 -8 -12" fill="#f8fafc"/>
  <path d="M16 58 q10 -8 22 -4 q4 2 2 5 q-8 8 -2 12 q-10 2 -16 -4 q-4 -5 -6 -9" fill="#e2e8f0" opacity=".5"/>
  <circle cx="56" cy="56" r="13" fill="#fbbf24"/>
  <circle cx="56" cy="56" r="13" fill="none" stroke="#f59e0b" stroke-width="1.5"/>
  <circle cx="52" cy="52" r="4" fill="#fde68a"/>
  <path d="M40 24 q-2 -8 4 -12 q3 6 -1 12 q-1 2 -3 0" fill="#e7e5e4" opacity="0"/>
  <ellipse cx="73" cy="29" rx="11" ry="14" fill="#fde0bd"/>
  <ellipse cx="69.5" cy="24" rx="3.4" ry="5" fill="#fef3c7" opacity=".9"/>
</svg>
