<svg xmlns="http://www.w3.org/2000/svg" viewBox="0 0 100 100">
  <defs><linearGradient id="piz_bg" x1="0" y1="0" x2="1" y2="1"><stop offset="0" stop-color="#fff7ed"/><stop offset="1" stop-color="#ffedd5"/></linearGradient>
  <radialGradient id="piz_base" cx=".5" cy=".5" r=".7"><stop offset="0" stop-color="#fde047"/><stop offset="1" stop-color="#fbbf24"/></radialGradient></defs>
  <rect width="100" height="100" rx="16" fill="url(#piz_bg)"/>
  <ellipse cx="50" cy="84" rx="32" ry="5" fill="#0f172a" opacity=".08"/>
  <circle cx="50" cy="52" r="34" fill="#d97706"/>
  <circle cx="50" cy="52" r="29" fill="url(#piz_base)"/>
  <path d="M50 52 L22 32 a34 34 0 0 1 42 -8 z" fill="#fef3c7" opacity="0"/>
  <g fill="#dc2626">
    <circle cx="38" cy="38" r="5.5"/>
    <circle cx="62" cy="40" r="5.5"/>
    <circle cx="50" cy="56" r="5.5"/>
    <circle cx="32" cy="58" r="5"/>
    <circle cx="66" cy="60" r="5"/>
    <circle cx="48" cy="72" r="4.5"/>
  </g>
  <g fill="#fca5a5" opacity=".6">
    <circle cx="36.5" cy="36.5" r="2"/>
    <circle cx="60.5" cy="38.5" r="2"/>
    <circle cx="48.5" cy="54.5" r="2"/>
  </g>
  <path d="M44 46 q3 -3 6 0 M58 50 q3 -3 6 0 M40 64 q3 -3 6 0" stroke="#16a34a" stroke-width="2.2" stroke-linecap="round" fill="none"/>
  <path d="M28 44 l4 4 M68 48 l4 -4 M56 66 l4 4" stroke="#fef3c7" stroke-width="2" stroke-linecap="round" opacity=".8"/>
</svg>
