<svg xmlns="http://www.w3.org/2000/svg" viewBox="0 0 100 100">
  <defs><linearGradient id="suc_bg" x1="0" y1="0" x2="1" y2="1"><stop offset="0" stop-color="#fff7ed"/><stop offset="1" stop-color="#ffedd5"/></linearGradient></defs>
  <rect width="100" height="100" rx="16" fill="url(#suc_bg)"/>
  <ellipse cx="50" cy="88" rx="22" ry="4" fill="#0f172a" opacity=".08"/>
  <path d="M32 24 h36 l-4 56 q-1 6 -7 6 h-14 q-6 0 -7 -6 z" fill="#fed7aa" opacity=".5"/>
  <path d="M34 38 h32 l-3 42 q-1 4 -5 4 h-16 q-4 0 -5 -4 z" fill="#fb923c" opacity=".9"/>
  <ellipse cx="50" cy="38" rx="16" ry="4" fill="#fdba74"/>
  <ellipse cx="50" cy="24" rx="18" ry="4.5" fill="none" stroke="#fdba74" stroke-width="2.5"/>
  <path d="M62 28 L74 12" stroke="#ef4444" stroke-width="4" stroke-linecap="round"/>
  <path d="M74 12 q4 -3 6 0" stroke="#ef4444" stroke-width="4" stroke-linecap="round" fill="none"/>
  <circle cx="38" cy="50" r="2" fill="#fed7aa"/>
  <circle cx="56" cy="60" r="1.6" fill="#fed7aa"/>
  <circle cx="44" cy="70" r="1.4" fill="#fed7aa"/>
  <g transform="translate(24 14) rotate(-18)">
    <circle cx="0" cy="0" r="8" fill="#f97316"/>
    <path d="M-8 0 a8 8 0 0 1 16 0 z" fill="#fb923c"/>
    <path d="M0 0 v-8 M0 0 l-6 -5 M0 0 l6 -5" stroke="#ffedd5" stroke-width="1.4"/>
  </g>
</svg>
