<svg xmlns="http://www.w3.org/2000/svg" viewBox="0 0 100 100">
  <defs><linearGradient id="sop_bg" x1="0" y1="0" x2="0" y2="1"><stop offset="0" stop-color="#1e1b4b"/><stop offset="1" stop-color="#312e81"/></linearGradient></defs>
  <rect width="100" height="100" rx="16" fill="url(#sop_bg)"/>
  <path d="M74 14 a9 9 0 1 0 7 15 a7.5 7.5 0 0 1 -7 -15" fill="#fde047"/>
  <circle cx="22" cy="18" r="1.4" fill="#e0e7ff"/><circle cx="34" cy="12" r="1" fill="#e0e7ff"/><circle cx="88" cy="36" r="1.2" fill="#e0e7ff"/>
  <ellipse cx="50" cy="86" rx="36" ry="4" fill="#0f172a" opacity=".25"/>
  <ellipse cx="50" cy="64" rx="30" ry="15" fill="#c7d2fe" opacity=".9"/>
  <ellipse cx="50" cy="62" rx="30" ry="15" fill="#e0e7ff"/>
  <ellipse cx="50" cy="63" rx="20" ry="9.5" fill="#f97316"/>
  <ellipse cx="50" cy="62" rx="20" ry="9.5" fill="#fb923c"/>
  <path d="M40 60 q4 -4 8 -1 M54 64 q4 -3 8 0" stroke="#fed7aa" stroke-width="2" fill="none" stroke-linecap="round"/>
  <circle cx="46" cy="65" r="2" fill="#fde047"/>
  <circle cx="58" cy="60" r="2" fill="#dc2626"/>
  <path d="M42 48 q-2 -5 2 -8 M50 47 q-2 -5 2 -8 M58 48 q-2 -5 2 -8" stroke="#a5b4fc" stroke-width="2" stroke-linecap="round" fill="none"/>
</svg>
