<svg xmlns="http://www.w3.org/2000/svg" viewBox="0 0 100 100">
  <defs><linearGradient id="iog_bg" x1="0" y1="0" x2="1" y2="1"><stop offset="0" stop-color="#fdf2f8"/><stop offset="1" stop-color="#fce7f3"/></linearGradient>
  <linearGradient id="iog_pot" x1="0" y1="0" x2="1" y2="0"><stop offset="0" stop-color="#ffffff"/><stop offset="1" stop-color="#fbcfe8"/></linearGradient></defs>
  <rect width="100" height="100" rx="16" fill="url(#iog_bg)"/>
  <ellipse cx="50" cy="88" rx="24" ry="4" fill="#0f172a" opacity=".08"/>
  <path d="M30 30 h40 l-5 50 q-1 6 -7 6 H42 q-6 0 -7 -6 z" fill="url(#iog_pot)" stroke="#f9a8d4" stroke-width="1.4"/>
  <rect x="26" y="22" width="48" height="9" rx="3" fill="#ec4899"/>
  <rect x="26" y="22" width="48" height="4" rx="2" fill="#f472b6"/>
  <path d="M34 44 q8 -6 16 0 q8 6 16 0 v-6 q-8 6 -16 0 q-8 -6 -16 0 z" fill="#f9a8d4" opacity=".6"/>
  <circle cx="50" cy="62" r="9" fill="#fda4af"/>
  <path d="M50 56 q2 -4 5 -2 q3 2 1 5 q-2 3 -6 5 q-4 -2 -6 -5 q-2 -3 1 -5 q3 -2 5 2" fill="#e11d48"/>
  <g transform="rotate(25 76 36)">
    <ellipse cx="76" cy="26" rx="7" ry="5" fill="#cbd5e1"/>
    <rect x="73.5" y="30" width="5" height="26" rx="2.5" fill="#e2e8f0"/>
  </g>
</svg>
