<svg xmlns="http://www.w3.org/2000/svg" viewBox="0 0 100 100">
  <defs><linearGradient id="got_bg" x1="0" y1="0" x2="1" y2="1"><stop offset="0" stop-color="#f0f9ff"/><stop offset="1" stop-color="#e0f2fe"/></linearGradient></defs>
  <rect width="100" height="100" rx="16" fill="url(#got_bg)"/>
  <ellipse cx="50" cy="86" rx="22" ry="4" fill="#0f172a" opacity=".08"/>
  <path d="M30 18 h40 l-5 60 q-1 6 -7 6 h-16 q-6 0 -7 -6 z" fill="#bae6fd" opacity=".55"/>
  <path d="M33 40 h34 l-3 38 q-1 4 -5 4 h-18 q-4 0 -5 -4 z" fill="#38bdf8" opacity=".8"/>
  <ellipse cx="50" cy="40" rx="17" ry="4" fill="#7dd3fc"/>
  <path d="M32 20 h6 l-4 58 q-3 -1 -3.5 -5 z" fill="#e0f2fe" opacity=".9"/>
  <ellipse cx="50" cy="18" rx="20" ry="4.5" fill="none" stroke="#7dd3fc" stroke-width="2.5"/>
  <circle cx="58" cy="52" r="2" fill="#bae6fd"/>
  <circle cx="44" cy="62" r="1.6" fill="#bae6fd"/>
  <circle cx="54" cy="70" r="1.4" fill="#bae6fd"/>
</svg>
