<svg xmlns="http://www.w3.org/2000/svg" viewBox="0 0 100 100">
  <defs><linearGradient id="etp_bg" x1="0" y1="0" x2="1" y2="1"><stop offset="0" stop-color="#fefce8"/><stop offset="1" stop-color="#fef3c7"/></linearGradient>
  <radialGradient id="etp_pa" cx=".4" cy=".3" r="1"><stop offset="0" stop-color="#e7b86c"/><stop offset="1" stop-color="#b45309"/></radialGradient></defs>
  <rect width="100" height="100" rx="16" fill="url(#etp_bg)"/>
  <ellipse cx="50" cy="80" rx="34" ry="5" fill="#0f172a" opacity=".08"/>
  <g transform="rotate(-10 50 52)">
    <path d="M14 46 q0 -12 12 -12 h48 q12 0 12 12 l-1 4 q-35 8 -70 0 z" fill="url(#etp_pa)"/>
    <path d="M16 42 q2 -7 10 -7 h20 l-3 12 q-14 2 -26 -3 q-1 0 -1 -2" fill="#fde68a" opacity=".55"/>
    <path d="M13 50 q37 9 74 0 l-1 4 q-12 4 -18 2 q-6 4 -12 1 q-7 4 -13 0 q-7 3 -13 -1 q-9 2 -16 -3 z" fill="#dc2626"/>
    <path d="M12 55 q38 9 76 0 l-1 4 q-37 9 -74 0 z" fill="#fde047"/>
    <path d="M12 60 q38 9 76 0 q1 8 -8 9 h-60 q-9 -1 -8 -9" fill="url(#etp_pa)"/>
  </g>
</svg>
