<svg xmlns="http://www.w3.org/2000/svg" viewBox="0 0 100 100">
  <defs><linearGradient id="psts_bg" x1="0" y1="0" x2="1" y2="1"><stop offset="0" stop-color="#fdf2f8"/><stop offset="1" stop-color="#fce7f3"/></linearGradient>
  <linearGradient id="psts_cos" x1="0" y1="0" x2="0" y2="1"><stop offset="0" stop-color="#f9a8d4"/><stop offset="1" stop-color="#db2777"/></linearGradient></defs>
  <rect width="100" height="100" rx="16" fill="url(#psts_bg)"/>
  <ellipse cx="50" cy="86" rx="34" ry="4" fill="#0f172a" opacity=".1"/>
  <ellipse cx="50" cy="82" rx="36" ry="6" fill="#e2e8f0"/>
  <ellipse cx="50" cy="80" rx="36" ry="6" fill="#f8fafc"/>
  <path d="M22 56 h56 v18 q-28 8 -56 0 z" fill="url(#psts_cos)"/>
  <path d="M22 56 q28 -8 56 0 v6 q-28 8 -56 0 z" fill="#fbcfe8"/>
  <path d="M22 44 q28 -8 56 0 v12 q-28 8 -56 0 z" fill="#fde68a"/>
  <path d="M22 44 q28 -8 56 0 q-6 6 -12 2 q-4 5 -10 2 q-6 4 -12 0 q-6 3 -10 -1 q-7 3 -12 -3" fill="#fef3c7"/>
  <path d="M50 28 q-3 5 0 8 q3 -3 0 -8" fill="#f97316"/>
  <rect x="48.6" y="34" width="2.8" height="10" rx="1.4" fill="#7dd3fc"/>
  <circle cx="34" cy="64" r="2.2" fill="#9d174d"/>
  <circle cx="50" cy="68" r="2.2" fill="#9d174d"/>
  <circle cx="66" cy="64" r="2.2" fill="#9d174d"/>
</svg>
