<svg xmlns="http://www.w3.org/2000/svg" viewBox="0 0 100 100">
  <defs><linearGradient id="caf_bg" x1="0" y1="0" x2="1" y2="1"><stop offset="0" stop-color="#fff7ed"/><stop offset="1" stop-color="#ffedd5"/></linearGradient>
  <linearGradient id="caf_cos" x1="0" y1="0" x2="0" y2="1"><stop offset="0" stop-color="#f8fafc"/><stop offset="1" stop-color="#cbd5e1"/></linearGradient></defs>
  <rect width="100" height="100" rx="16" fill="url(#caf_bg)"/>
  <ellipse cx="50" cy="84" rx="30" ry="4" fill="#0f172a" opacity=".1"/>
  <ellipse cx="46" cy="80" rx="26" ry="5" fill="#e2e8f0"/>
  <ellipse cx="46" cy="78" rx="26" ry="5" fill="#f8fafc"/>
  <path d="M26 42 h40 v20 q0 16 -20 16 q-20 0 -20 -16 z" fill="url(#caf_cos)"/>
  <ellipse cx="46" cy="42" rx="20" ry="5.5" fill="#e2e8f0"/>
  <ellipse cx="46" cy="42" rx="16" ry="4" fill="#78350f"/>
  <ellipse cx="46" cy="41.5" rx="16" ry="4" fill="#92400e"/>
  <path d="M38 40.5 q4 -2 8 0" stroke="#b45309" stroke-width="1.6" fill="none" opacity=".8"/>
  <path d="M66 48 q12 -2 12 8 q0 10 -13 10 l1 -5 q7 0 7 -5 q0 -5 -7 -3 z" fill="#cbd5e1"/>
  <path d="M38 30 q-2 -6 2 -10 M46 30 q-2 -6 2 -10 M54 30 q-2 -6 2 -10" stroke="#a8a29e" stroke-width="2.2" stroke-linecap="round" fill="none"/>
</svg>
