<svg xmlns="http://www.w3.org/2000/svg" viewBox="0 0 100 100">
  <defs><linearGradient id="din_bg" x1="0" y1="0" x2="0" y2="1"><stop offset="0" stop-color="#bae6fd"/><stop offset="1" stop-color="#e0f2fe"/></linearGradient></defs>
  <rect width="100" height="100" rx="16" fill="url(#din_bg)"/>
  <circle cx="50" cy="16" r="8" fill="#fde047"/>
  <circle cx="50" cy="16" r="11" fill="#fde047" opacity=".3"/>
  <ellipse cx="50" cy="84" rx="36" ry="4" fill="#0f172a" opacity=".08"/>
  <ellipse cx="50" cy="62" rx="32" ry="17" fill="#f8fafc"/>
  <ellipse cx="50" cy="60" rx="32" ry="17" fill="#ffffff"/>
  <ellipse cx="50" cy="60" rx="32" ry="17" fill="none" stroke="#cbd5e1" stroke-width="1.5"/>
  <ellipse cx="50" cy="61" rx="22" ry="11" fill="#fbbf24"/>
  <path d="M36 58 q5 -4 9 0 q-4 5 -9 0" fill="#fb7185"/>
  <circle cx="56" cy="56" r="3" fill="#16a34a"/>
  <circle cx="60" cy="64" r="2.6" fill="#dc2626"/>
  <circle cx="46" cy="66" r="2.2" fill="#fde047"/>
  <path d="M50 52 q3 -3 6 0" stroke="#f59e0b" stroke-width="1.8" fill="none"/>
  <g stroke="#94a3b8" stroke-width="3" stroke-linecap="round">
    <path d="M12 50 v22"/>
    <path d="M10 50 q0 6 4 6 q-4 0 -4 -6" fill="none"/>
  </g>
  <path d="M12 50 v6 M9 50 v6 M15 50 v6" stroke="#94a3b8" stroke-width="1.8" stroke-linecap="round"/>
  <path d="M88 50 v22 M88 50 q-5 2 -5 8 q0 4 5 4" stroke="#94a3b8" stroke-width="3" stroke-linecap="round" fill="none"/>
</svg>
