<svg xmlns="http://www.w3.org/2000/svg" viewBox="0 0 100 100">
  <defs><linearGradient id="pae_bg" x1="0" y1="0" x2="1" y2="1"><stop offset="0" stop-color="#fefce8"/><stop offset="1" stop-color="#fef3c7"/></linearGradient></defs>
  <rect width="100" height="100" rx="16" fill="url(#pae_bg)"/>
  <ellipse cx="50" cy="82" rx="34" ry="5" fill="#0f172a" opacity=".1"/>
  <ellipse cx="50" cy="56" rx="34" ry="22" fill="#1e293b"/>
  <ellipse cx="50" cy="54" rx="34" ry="22" fill="#334155"/>
  <ellipse cx="50" cy="54" rx="28" ry="17" fill="#fbbf24"/>
  <ellipse cx="50" cy="54" rx="28" ry="17" fill="none" stroke="#d97706" stroke-width="1.5"/>
  <g>
    <path d="M34 48 q5 -4 9 0 q-4 5 -9 0" fill="#fb7185"/>
    <path d="M58 60 q5 -4 9 0 q-4 5 -9 0" fill="#fb7185"/>
    <circle cx="58" cy="46" r="3.5" fill="#16a34a"/>
    <circle cx="38" cy="60" r="3.5" fill="#16a34a"/>
    <circle cx="48" cy="52" r="2.6" fill="#dc2626"/>
    <circle cx="64" cy="52" r="2.6" fill="#dc2626"/>
    <circle cx="46" cy="62" r="2.2" fill="#fde047"/>
    <path d="M28 54 q3 -3 6 0 M68 46 q3 -3 6 0" stroke="#f59e0b" stroke-width="2" fill="none"/>
  </g>
  <rect x="2" y="50" width="16" height="7" rx="3.5" fill="#475569"/>
  <rect x="82" y="50" width="16" height="7" rx="3.5" fill="#475569"/>
</svg>
