<svg xmlns="http://www.w3.org/2000/svg" viewBox="0 0 100 100">
  <defs><linearGradient id="cml_bg" x1="0" y1="0" x2="0" y2="1"><stop offset="0" stop-color="#fde68a"/><stop offset="1" stop-color="#fef3c7"/></linearGradient>
  <linearGradient id="cml_cos" x1="0" y1="0" x2="0" y2="1"><stop offset="0" stop-color="#d6a35c"/><stop offset="1" stop-color="#b45309"/></linearGradient></defs>
  <rect width="100" height="100" rx="16" fill="url(#cml_bg)"/>
  <circle cx="82" cy="18" r="8" fill="#fde047"/>
  <path d="M0 78 q25 -6 50 0 t50 0 v6 q0 16 -16 16 H16 Q0 100 0 84 z" fill="#f59e0b" opacity=".5"/>
  <path d="M30 50 q4 -16 14 -16 q10 0 12 14 q2 -14 12 -14 q10 0 12 16" fill="none" stroke="url(#cml_cos)" stroke-width="0"/>
  <path d="M28 64 q2 -18 14 -18 q9 0 11 12 q2 -12 11 -12 q12 0 14 18 z" fill="url(#cml_cos)"/>
  <rect x="30" y="62" width="48" height="12" rx="5" fill="#b45309"/>
  <path d="M30 66 q-8 0 -10 -12 q-2 -14 -6 -18 q6 -2 10 4 q4 8 8 8 q3 6 -2 18" fill="#b45309" opacity="0"/>
  <path d="M28 68 q-8 -2 -8 -16 q0 -10 -6 -14 q7 -3 11 4 q3 7 3 12 q2 8 0 14" fill="#b45309"/>
  <ellipse cx="16" cy="34" rx="8" ry="7" fill="#d6a35c"/>
  <circle cx="13" cy="32" r="1.8" fill="#1e293b"/>
  <path d="M10 38 q3 2 6 1" stroke="#78350f" stroke-width="1.4" stroke-linecap="round" fill="none"/>
  <path d="M20 28 q1 -5 -2 -7" stroke="#b45309" stroke-width="2.5" stroke-linecap="round" fill="none"/>
  <g stroke="#92400e" stroke-width="4.5" stroke-linecap="round">
    <path d="M36 74 v12 M48 74 v12 M62 74 v12 M72 74 v12"/>
  </g>
</svg>
