<svg xmlns="http://www.w3.org/2000/svg" viewBox="0 0 100 100">
  <defs><linearGradient id="gor2_bg" x1="0" y1="0" x2="1" y2="1"><stop offset="0" stop-color="#f0fdf4"/><stop offset="1" stop-color="#dcfce7"/></linearGradient>
  <radialGradient id="gor2_cos" cx=".45" cy=".35" r="1"><stop offset="0" stop-color="#44403c"/><stop offset="1" stop-color="#1c1917"/></radialGradient></defs>
  <rect width="100" height="100" rx="16" fill="url(#gor2_bg)"/>
  <ellipse cx="50" cy="86" rx="28" ry="4" fill="#0f172a" opacity=".08"/>
  <circle cx="24" cy="44" r="9" fill="#292524"/>
  <circle cx="24" cy="45" r="4.5" fill="#78716c"/>
  <circle cx="76" cy="44" r="9" fill="#1c1917"/>
  <circle cx="76" cy="45" r="4.5" fill="#57534e"/>
  <circle cx="50" cy="50" r="30" fill="url(#gor2_cos)"/>
  <path d="M30 38 q8 -12 20 -12 q12 0 20 12 q-2 -18 -20 -18 q-18 0 -20 18" fill="#0c0a09"/>
  <path d="M36 44 q5 -6 12 -3 M64 44 q-5 -6 -12 -3" stroke="#78716c" stroke-width="0"/>
  <ellipse cx="41" cy="46" rx="4.5" ry="5.5" fill="#78716c" opacity=".4"/>
  <ellipse cx="59" cy="46" rx="4.5" ry="5.5" fill="#78716c" opacity=".4"/>
  <circle cx="41" cy="46" r="2.6" fill="#fde68a"/>
  <circle cx="41" cy="46" r="1.3" fill="#0c0a09"/>
  <circle cx="59" cy="46" r="2.6" fill="#fde68a"/>
  <circle cx="59" cy="46" r="1.3" fill="#0c0a09"/>
  <ellipse cx="50" cy="64" rx="15" ry="12" fill="#78716c"/>
  <ellipse cx="45" cy="61" rx="2.4" ry="3" fill="#1c1917"/>
  <ellipse cx="55" cy="61" rx="2.4" ry="3" fill="#1c1917"/>
  <path d="M42 70 q8 5 16 0" stroke="#44403c" stroke-width="2" stroke-linecap="round" fill="none"/>
</svg>
