<svg xmlns="http://www.w3.org/2000/svg" viewBox="0 0 100 100">
  <defs><linearGradient id="papl_bg" x1="0" y1="0" x2="1" y2="1"><stop offset="0" stop-color="#faf5ff"/><stop offset="1" stop-color="#f3e8ff"/></linearGradient>
  <radialGradient id="papl_ala" cx=".4" cy=".4" r="1"><stop offset="0" stop-color="#c084fc"/><stop offset="1" stop-color="#7e22ce"/></radialGradient></defs>
  <rect width="100" height="100" rx="16" fill="url(#papl_bg)"/>
  <ellipse cx="50" cy="86" rx="26" ry="4" fill="#0f172a" opacity=".08"/>
  <path d="M46 48 q-26 -32 -34 -16 q-6 14 14 22 q-18 4 -10 16 q8 10 30 -10 z" fill="url(#papl_ala)"/>
  <path d="M54 48 q26 -32 34 -16 q6 14 -14 22 q18 4 10 16 q-8 10 -30 -10 z" fill="#a855f7"/>
  <circle cx="28" cy="38" r="5" fill="#fde047"/>
  <circle cx="72" cy="38" r="5" fill="#fde047"/>
  <circle cx="26" cy="62" r="3.4" fill="#f0abfc"/>
  <circle cx="74" cy="62" r="3.4" fill="#f0abfc"/>
  <ellipse cx="50" cy="52" rx="6" ry="20" fill="#44403c"/>
  <circle cx="50" cy="32" r="7" fill="#57534e"/>
  <circle cx="47.5" cy="30.5" r="1.4" fill="#fff"/>
  <circle cx="52.5" cy="30.5" r="1.4" fill="#fff"/>
  <path d="M46 26 q-4 -6 -8 -8 M54 26 q4 -6 8 -8" stroke="#44403c" stroke-width="2" stroke-linecap="round" fill="none"/>
  <circle cx="38" cy="17" r="2" fill="#44403c"/>
  <circle cx="62" cy="17" r="2" fill="#44403c"/>
</svg>
