<svg xmlns="http://www.w3.org/2000/svg" viewBox="0 0 100 100">
  <defs><linearGradient id="tau_bg" x1="0" y1="0" x2="0" y2="1"><stop offset="0" stop-color="#7dd3fc"/><stop offset="1" stop-color="#bae6fd"/></linearGradient>
  <linearGradient id="tau_cos" x1="0" y1="0" x2="0" y2="1"><stop offset="0" stop-color="#64748b"/><stop offset=".6" stop-color="#94a3b8"/><stop offset="1" stop-color="#e2e8f0"/></linearGradient></defs>
  <rect width="100" height="100" rx="16" fill="url(#tau_bg)"/>
  <path d="M46 26 q4 -12 12 -14 q2 8 -2 16 z" fill="#475569"/>
  <path d="M12 56 q16 -22 42 -22 q20 0 30 12 l8 -8 q2 10 -3 16 q5 6 3 16 l-8 -8 q-10 12 -30 12 q-26 0 -42 -18" fill="url(#tau_cos)"/>
  <path d="M14 54 q16 -18 40 -18 q18 0 28 10 q-34 6 -68 8" fill="#475569" opacity=".35"/>
  <circle cx="24" cy="50" r="3" fill="#0f172a"/>
  <path d="M14 60 q6 5 14 4 l-2 4 q-7 0 -12 -8" fill="#f8fafc"/>
  <path d="M18 61 l3 4 M24 63 l2 4" stroke="#0f172a" stroke-width="0"/>
  <polygon points="20,62 24,64 21,67" fill="#f8fafc" opacity="0"/>
  <path d="M40 64 l-6 12 q10 2 12 -10 q-3 -2 -6 -2" fill="#64748b"/>
  <circle cx="78" cy="22" r="2" fill="#e0f2fe"/><circle cx="86" cy="30" r="1.5" fill="#e0f2fe"/>
</svg>
