<svg xmlns="http://www.w3.org/2000/svg" viewBox="0 0 100 100">
  <defs><linearGradient id="msq_bg" x1="0" y1="0" x2="0" y2="1"><stop offset="0" stop-color="#e0f2fe"/><stop offset="1" stop-color="#f0f9ff"/></linearGradient></defs>
  <rect width="100" height="100" rx="16" fill="url(#msq_bg)"/>
  <ellipse cx="50" cy="84" rx="22" ry="4" fill="#0f172a" opacity=".08"/>
  <ellipse cx="34" cy="30" rx="16" ry="7" fill="#e0f2fe" stroke="#bae6fd" stroke-width="1.4" transform="rotate(-35 34 30)"/>
  <ellipse cx="66" cy="30" rx="16" ry="7" fill="#f0f9ff" stroke="#bae6fd" stroke-width="1.4" transform="rotate(35 66 30)"/>
  <ellipse cx="56" cy="62" rx="14" ry="9" fill="#57534e" transform="rotate(30 56 62)"/>
  <path d="M50 56 q4 5 8 10" stroke="#44403c" stroke-width="1.6" opacity=".6"/>
  <circle cx="42" cy="46" r="9" fill="#44403c"/>
  <circle cx="38" cy="44" r="2.6" fill="#fca5a5"/>
  <circle cx="37.3" cy="43.3" r=".9" fill="#0f172a"/>
  <path d="M36 38 L24 22" stroke="#44403c" stroke-width="2" stroke-linecap="round"/>
  <path d="M34 50 L16 60" stroke="#dc2626" stroke-width="2.5" stroke-linecap="round"/>
  <g stroke="#57534e" stroke-width="2" stroke-linecap="round" fill="none">
    <path d="M50 66 l-6 14 M58 70 l-2 14 M64 66 l8 12"/>
    <path d="M48 54 l-6 -10 M58 54 l4 -12"/>
  </g>
  <path d="M22 70 q3 -3 6 0 M76 50 q3 -3 6 0" stroke="#bae6fd" stroke-width="1.8" stroke-linecap="round" fill="none"/>
</svg>
