<svg xmlns="http://www.w3.org/2000/svg" viewBox="0 0 100 100">
  <defs><linearGradient id="gos_bg" x1="0" y1="0" x2="1" y2="1"><stop offset="0" stop-color="#fff7ed"/><stop offset="1" stop-color="#ffedd5"/></linearGradient></defs>
  <rect width="100" height="100" rx="16" fill="url(#gos_bg)"/>
  <ellipse cx="50" cy="86" rx="28" ry="4" fill="#0f172a" opacity=".08"/>
  <path d="M24 34 q-4 -14 8 -16 q10 -2 12 8 z" fill="#92400e"/>
  <path d="M76 34 q4 -14 -8 -16 q-10 -2 -12 8 z" fill="#78350f"/>
  <circle cx="50" cy="52" r="30" fill="#d6a35c"/>
  <path d="M50 22 q-18 0 -26 16 q-2 -14 8 -20 q10 -5 18 4" fill="#b45309" opacity="0"/>
  <ellipse cx="50" cy="66" rx="14" ry="11" fill="#fde0bd"/>
  <circle cx="40" cy="46" r="3.4" fill="#1e293b"/>
  <circle cx="60" cy="46" r="3.4" fill="#1e293b"/>
  <circle cx="39" cy="45" r="1.1" fill="#fff"/>
  <circle cx="59" cy="45" r="1.1" fill="#fff"/>
  <ellipse cx="50" cy="60" rx="5" ry="3.6" fill="#1e293b"/>
  <path d="M50 63 v5 M50 68 q-4 4 -8 1 M50 68 q4 4 8 1" stroke="#92400e" stroke-width="2" stroke-linecap="round" fill="none"/>
  <path d="M58 70 q4 4 1 7 q-4 2 -6 -2" fill="#f87171"/>
  <ellipse cx="32" cy="38" rx="6" ry="8" fill="#92400e" opacity="0"/>
  <circle cx="62" cy="36" r="7" fill="#92400e" opacity=".55"/>
</svg>
