<svg xmlns="http://www.w3.org/2000/svg" viewBox="0 0 100 100">
  <defs><linearGradient id="vac_bg" x1="0" y1="0" x2="1" y2="1"><stop offset="0" stop-color="#f0fdf4"/><stop offset="1" stop-color="#dcfce7"/></linearGradient></defs>
  <rect width="100" height="100" rx="16" fill="url(#vac_bg)"/>
  <ellipse cx="50" cy="88" rx="28" ry="4" fill="#0f172a" opacity=".08"/>
  <path d="M28 26 q-10 -2 -12 -10 q10 -2 16 6 z" fill="#e7e5e4"/>
  <path d="M72 26 q10 -2 12 -10 q-10 -2 -16 6 z" fill="#e7e5e4"/>
  <ellipse cx="26" cy="36" rx="9" ry="6" fill="#d6a35c" transform="rotate(-18 26 36)"/>
  <ellipse cx="74" cy="36" rx="9" ry="6" fill="#d6a35c" transform="rotate(18 74 36)"/>
  <circle cx="50" cy="52" r="29" fill="#f8fafc"/>
  <path d="M30 34 q8 -8 16 -2 q-2 10 -10 12 q-8 0 -6 -10" fill="#1e293b"/>
  <path d="M70 60 q6 8 -2 14 q-8 4 -12 -4 q2 -10 14 -10" fill="#1e293b"/>
  <circle cx="40" cy="46" r="2.8" fill="#1e293b"/>
  <circle cx="60" cy="46" r="2.8" fill="#1e293b"/>
  <ellipse cx="50" cy="68" rx="16" ry="11" fill="#f9a8d4"/>
  <ellipse cx="44" cy="68" rx="2.6" ry="3.6" fill="#be185d"/>
  <ellipse cx="56" cy="68" rx="2.6" ry="3.6" fill="#be185d"/>
  <path d="M40 30 q4 -6 8 -2" stroke="#1e293b" stroke-width="0" fill="none"/>
</svg>
