<svg xmlns="http://www.w3.org/2000/svg" viewBox="0 0 100 100">
  <defs><linearGradient id="ele_bg" x1="0" y1="0" x2="1" y2="1"><stop offset="0" stop-color="#f0f9ff"/><stop offset="1" stop-color="#e0f2fe"/></linearGradient>
  <radialGradient id="ele_cos" cx=".45" cy=".4" r="1"><stop offset="0" stop-color="#94a3b8"/><stop offset="1" stop-color="#64748b"/></radialGradient></defs>
  <rect width="100" height="100" rx="16" fill="url(#ele_bg)"/>
  <ellipse cx="50" cy="88" rx="30" ry="4" fill="#0f172a" opacity=".08"/>
  <ellipse cx="22" cy="50" rx="14" ry="18" fill="#64748b"/>
  <ellipse cx="22" cy="50" rx="9" ry="13" fill="#94a3b8"/>
  <ellipse cx="78" cy="50" rx="14" ry="18" fill="#475569"/>
  <ellipse cx="78" cy="50" rx="9" ry="13" fill="#64748b"/>
  <circle cx="50" cy="48" r="26" fill="url(#ele_cos)"/>
  <circle cx="42" cy="44" r="2.8" fill="#1e293b"/>
  <circle cx="58" cy="44" r="2.8" fill="#1e293b"/>
  <circle cx="41" cy="43" r="1" fill="#fff"/>
  <circle cx="57" cy="43" r="1" fill="#fff"/>
  <path d="M44 56 q0 -4 6 -4 q6 0 6 4 l-1 14 q0 10 6 14 q2 4 -3 5 q-8 -4 -9 -14 q-1 10 -9 14 q-5 -1 -3 -5 q6 -4 6 -14 z" fill="#64748b"/>
  <path d="M46 58 q4 -2 8 0 M46 66 q4 -2 8 0 M46 74 q4 -2 8 0" stroke="#475569" stroke-width="1.6" fill="none"/>
  <path d="M36 58 q-4 4 -2 9 q4 1 6 -3 q1 -4 -4 -6" fill="#f8fafc"/>
  <path d="M64 58 q4 4 2 9 q-4 1 -6 -3 q-1 -4 4 -6" fill="#f8fafc"/>
</svg>
