<svg xmlns="http://www.w3.org/2000/svg" viewBox="0 0 100 100">
  <defs><linearGradient id="ali_bg" x1="0" y1="0" x2="0" y2="1"><stop offset="0" stop-color="#bae6fd"/><stop offset="1" stop-color="#e0f2fe"/></linearGradient></defs>
  <rect width="100" height="100" rx="16" fill="url(#ali_bg)"/>
  <path d="M50 46 L14 22 q-4 14 10 24 q-10 0 -14 -4 q2 14 20 16 z" fill="#78350f"/>
  <path d="M50 46 L86 22 q4 14 -10 24 q10 0 14 -4 q-2 14 -20 16 z" fill="#92400e"/>
  <path d="M18 26 l24 18 M14 42 l22 10" stroke="#451a03" stroke-width="1.6" opacity=".5"/>
  <path d="M82 26 l-24 18 M86 42 l-22 10" stroke="#451a03" stroke-width="1.6" opacity=".5"/>
  <ellipse cx="50" cy="58" rx="14" ry="18" fill="#92400e"/>
  <circle cx="50" cy="40" r="12" fill="#f8fafc"/>
  <circle cx="45" cy="38" r="2.6" fill="#1e293b"/>
  <circle cx="55" cy="38" r="2.6" fill="#1e293b"/>
  <path d="M41 34 l6 2 M59 34 l-6 2" stroke="#475569" stroke-width="1.8" stroke-linecap="round"/>
  <path d="M50 42 q6 1 4 7 q-4 2 -6 -2 q-1 -3 2 -5" fill="#f59e0b"/>
  <path d="M44 74 q6 5 12 0 l-2 8 h-8 z" fill="#78350f"/>
  <path d="M44 80 v4 m-3 -1 l3 1 l3 -1 M53 80 v4 m-3 -1 l3 1 l3 -1" stroke="#f59e0b" stroke-width="2" stroke-linecap="round" stroke-linejoin="round" fill="none"/>
</svg>
