<svg xmlns="http://www.w3.org/2000/svg" viewBox="0 0 100 100">
  <defs><linearGradient id="mus_bg" x1="0" y1="0" x2="0" y2="1"><stop offset="0" stop-color="#1e1b4b"/><stop offset="1" stop-color="#312e81"/></linearGradient>
  <radialGradient id="mus_cos" cx=".4" cy=".35" r="1"><stop offset="0" stop-color="#b45309"/><stop offset="1" stop-color="#78350f"/></radialGradient></defs>
  <rect width="100" height="100" rx="16" fill="url(#mus_bg)"/>
  <circle cx="80" cy="16" r="6" fill="#fde047"/>
  <circle cx="20" cy="22" r="1.2" fill="#e0e7ff"/><circle cx="30" cy="14" r="1" fill="#e0e7ff"/>
  <path d="M22 84 h56" stroke="#92400e" stroke-width="4" stroke-linecap="round"/>
  <path d="M30 26 q-2 -8 6 -8 l4 6 z M70 26 q2 -8 -6 -8 l-4 6 z" fill="#78350f"/>
  <ellipse cx="50" cy="52" rx="27" ry="30" fill="url(#mus_cos)"/>
  <path d="M30 60 q6 -4 8 2 q2 -6 8 -3 q-2 8 -8 8 q-6 0 -8 -7" fill="#92400e" opacity="0"/>
  <ellipse cx="50" cy="64" rx="14" ry="13" fill="#fde68a"/>
  <path d="M42 58 q4 -3 4 4 M50 60 q4 -3 4 4 M46 68 q4 -3 4 4" stroke="#b45309" stroke-width="1.6" fill="none" opacity=".7"/>
  <circle cx="40" cy="40" r="10" fill="#fef3c7"/>
  <circle cx="60" cy="40" r="10" fill="#fef3c7"/>
  <circle cx="40" cy="40" r="5" fill="#1e293b"/>
  <circle cx="60" cy="40" r="5" fill="#1e293b"/>
  <circle cx="38.5" cy="38.5" r="1.6" fill="#fff"/>
  <circle cx="58.5" cy="38.5" r="1.6" fill="#fff"/>
  <polygon points="50,46 46,52 54,52" fill="#f59e0b"/>
  <path d="M42 80 v4 m-2.5 -1 l2.5 1 l2.5 -1 M58 80 v4 m-2.5 -1 l2.5 1 l2.5 -1" stroke="#f59e0b" stroke-width="2" stroke-linecap="round" stroke-linejoin="round" fill="none"/>
</svg>
