<svg xmlns="http://www.w3.org/2000/svg" viewBox="0 0 100 100">
  <defs><linearGradient id="srg_bg" x1="0" y1="0" x2="1" y2="1"><stop offset="0" stop-color="#fefce8"/><stop offset="1" stop-color="#fef3c7"/></linearGradient>
  <linearGradient id="srg_cos" x1="0" y1="0" x2="1" y2="1"><stop offset="0" stop-color="#84cc16"/><stop offset="1" stop-color="#4d7c0f"/></linearGradient></defs>
  <rect width="100" height="100" rx="16" fill="url(#srg_bg)"/>
  <ellipse cx="50" cy="84" rx="30" ry="4" fill="#0f172a" opacity=".08"/>
  <path d="M30 22 q10 -2 14 8 l8 20 q3 8 12 10 l12 2 q8 2 6 10 q-8 -4 -16 -4 q-12 0 -18 -8 l-12 -18 q-4 -8 -6 -20" fill="none" stroke="url(#srg_cos)" stroke-width="11" stroke-linecap="round"/>
  <ellipse cx="30" cy="26" rx="11" ry="9" fill="#84cc16" transform="rotate(20 30 26)"/>
  <circle cx="26" cy="22" r="2.2" fill="#1e293b"/>
  <circle cx="34" cy="25" r="2.2" fill="#1e293b" opacity="0"/>
  <path d="M22 30 q3 2 6 1" stroke="#3f6212" stroke-width="1.4" stroke-linecap="round" fill="none"/>
  <g stroke="#4d7c0f" stroke-width="2.5" stroke-linecap="round" fill="none">
    <path d="M40 38 l-12 4 M44 48 l-10 10 M58 56 l-6 12 M66 60 l2 12"/>
  </g>
  <circle cx="44" cy="34" r="1.6" fill="#bef264"/>
  <circle cx="50" cy="44" r="1.6" fill="#bef264"/>
  <circle cx="58" cy="52" r="1.6" fill="#bef264"/>
</svg>
