<svg xmlns="http://www.w3.org/2000/svg" viewBox="0 0 100 100">
  <defs><linearGradient id="tig_bg" x1="0" y1="0" x2="1" y2="1"><stop offset="0" stop-color="#fff7ed"/><stop offset="1" stop-color="#ffedd5"/></linearGradient></defs>
  <rect width="100" height="100" rx="16" fill="url(#tig_bg)"/>
  <ellipse cx="50" cy="88" rx="28" ry="4" fill="#0f172a" opacity=".08"/>
  <circle cx="26" cy="28" r="9" fill="#f97316"/>
  <circle cx="26" cy="29" r="4.5" fill="#fed7aa"/>
  <circle cx="74" cy="28" r="9" fill="#ea580c"/>
  <circle cx="74" cy="29" r="4.5" fill="#fed7aa"/>
  <circle cx="50" cy="54" r="30" fill="#f97316"/>
  <ellipse cx="50" cy="66" rx="15" ry="12" fill="#fef3c7"/>
  <g fill="#1e293b">
    <path d="M30 34 q6 -4 10 0 l-2 6 q-4 -3 -8 -2 z" transform="rotate(-8 35 36)"/>
    <path d="M70 34 q-6 -4 -10 0 l2 6 q4 -3 8 -2 z" transform="rotate(8 65 36)"/>
    <path d="M48 28 h4 l-1 7 h-2 z"/>
    <path d="M20 52 l8 2 l-1 5 l-7 -3 z"/>
    <path d="M80 52 l-8 2 l1 5 l7 -3 z"/>
  </g>
  <circle cx="40" cy="48" r="3" fill="#1e293b"/>
  <circle cx="60" cy="48" r="3" fill="#1e293b"/>
  <circle cx="39" cy="47" r="1" fill="#fff"/>
  <circle cx="59" cy="47" r="1" fill="#fff"/>
  <polygon points="50,58 46,62.5 54,62.5" fill="#f9a8d4"/>
  <path d="M50 62.5 v3.5 M50 66 q-4 4 -8 1 M50 66 q4 4 8 1" stroke="#92400e" stroke-width="1.8" stroke-linecap="round" fill="none"/>
</svg>
