<svg xmlns="http://www.w3.org/2000/svg" viewBox="0 0 100 100">
  <defs><linearGradient id="gallina_bg" x1="0" y1="0" x2="1" y2="1"><stop offset="0" stop-color="#fff7ed"/><stop offset="1" stop-color="#ffedd5"/></linearGradient>
  <radialGradient id="gallina_cos" cx=".4" cy=".35" r="1"><stop offset="0" stop-color="#fef3c7"/><stop offset="1" stop-color="#e7b86c"/></radialGradient></defs>
  <rect width="100" height="100" rx="16" fill="url(#gallina_bg)"/>
  <ellipse cx="50" cy="86" rx="28" ry="4" fill="#0f172a" opacity=".08"/>
  <path d="M42 20 q-2 -8 5 -8 q1 4 0 7 q3 -5 8 -3 q1 5 -3 7 q5 -1 6 4 q-4 4 -9 1 z" fill="#dc2626"/>
  <ellipse cx="50" cy="58" rx="28" ry="26" fill="url(#gallina_cos)"/>
  <circle cx="50" cy="36" r="15" fill="#fef3c7"/>
  <circle cx="44.5" cy="34" r="2.6" fill="#1e293b"/>
  <circle cx="55.5" cy="34" r="2.6" fill="#1e293b"/>
  <polygon points="50,38 44,43 56,43" fill="#f97316"/>
  <path d="M48 46 q-3 4 0 7 q3 -2 4 -7 q-2 -1 -4 0" fill="#ef4444"/>
  <path d="M24 56 q-10 4 -10 14 q8 2 14 -6 q2 -6 -4 -8" fill="#e7b86c"/>
  <path d="M76 56 q10 4 10 14 q-8 2 -14 -6 q-2 -6 4 -8" fill="#d6a35c"/>
  <path d="M30 62 q6 8 14 8 M70 62 q-6 8 -14 8" stroke="#d6a35c" stroke-width="2" fill="none" opacity=".7"/>
  <path d="M44 84 v4 m-3 -1 l3 1 l3 -1 M56 84 v4 m-3 -1 l3 1 l3 -1" stroke="#f97316" stroke-width="2.2" stroke-linecap="round" stroke-linejoin="round" fill="none"/>
</svg>
