<svg xmlns="http://www.w3.org/2000/svg" viewBox="0 0 100 100">
  <defs><linearGradient id="pol_bg" x1="0" y1="0" x2="1" y2="1"><stop offset="0" stop-color="#fefce8"/><stop offset="1" stop-color="#fef9c3"/></linearGradient>
  <radialGradient id="pol_cos" cx=".4" cy=".35" r="1"><stop offset="0" stop-color="#fef08a"/><stop offset="1" stop-color="#facc15"/></radialGradient></defs>
  <rect width="100" height="100" rx="16" fill="url(#pol_bg)"/>
  <ellipse cx="50" cy="86" rx="24" ry="4" fill="#0f172a" opacity=".08"/>
  <circle cx="50" cy="54" r="28" fill="url(#pol_cos)"/>
  <path d="M44 26 q0 -4 3 -3 M50 25 q0 -5 3 -4 M56 27 q1 -4 4 -2" stroke="#eab308" stroke-width="2" stroke-linecap="round" fill="none"/>
  <circle cx="41" cy="48" r="3.4" fill="#1e293b"/>
  <circle cx="59" cy="48" r="3.4" fill="#1e293b"/>
  <circle cx="40" cy="47" r="1.2" fill="#fff"/>
  <circle cx="58" cy="47" r="1.2" fill="#fff"/>
  <polygon points="50,54 44,60 56,60" fill="#f97316"/>
  <circle cx="36" cy="60" r="4" fill="#fdba74" opacity=".7"/>
  <circle cx="64" cy="60" r="4" fill="#fdba74" opacity=".7"/>
  <path d="M24 54 q-6 4 -6 10 q6 1 9 -5" fill="#facc15"/>
  <path d="M76 54 q6 4 6 10 q-6 1 -9 -5" fill="#eab308"/>
  <path d="M44 82 v4 m-3 -1 l3 1 l3 -1 M56 82 v4 m-3 -1 l3 1 l3 -1" stroke="#f97316" stroke-width="2.2" stroke-linecap="round" stroke-linejoin="round" fill="none"/>
</svg>
