<svg xmlns="http://www.w3.org/2000/svg" viewBox="0 0 100 100">
  <defs><linearGradient id="ore2_bg" x1="0" y1="0" x2="0" y2="1"><stop offset="0" stop-color="#bae6fd"/><stop offset="1" stop-color="#e0f2fe"/></linearGradient></defs>
  <rect width="100" height="100" rx="16" fill="url(#ore2_bg)"/>
  <circle cx="20" cy="18" r="7" fill="#fde047" opacity=".8"/>
  <path d="M50 44 L20 28 q-2 12 12 20 z" fill="#1e40af"/>
  <path d="M50 44 L80 28 q2 12 -12 20" fill="#1e3a8a"/>
  <ellipse cx="50" cy="52" rx="13" ry="16" fill="#1e40af"/>
  <path d="M42 60 q8 -6 16 0 q-2 -10 -8 -10 q-6 0 -8 10" fill="#f8fafc" opacity="0"/>
  <ellipse cx="50" cy="60" rx="8" ry="9" fill="#fef3c7"/>
  <circle cx="50" cy="38" r="10" fill="#1e40af"/>
  <circle cx="50" cy="42" r="4.5" fill="#dc2626"/>
  <circle cx="46" cy="35" r="2.2" fill="#f8fafc"/>
  <circle cx="54" cy="35" r="2.2" fill="#f8fafc"/>
  <circle cx="46.5" cy="35.5" r="1.1" fill="#0f172a"/>
  <circle cx="54.5" cy="35.5" r="1.1" fill="#0f172a"/>
  <polygon points="50,28 47,24 53,24" fill="#f59e0b" transform="rotate(180 50 26)"/>
  <path d="M44 66 L34 84 l8 -6 l8 8 l8 -8 l8 6 L56 66 q-6 4 -12 0" fill="#1e3a8a"/>
  <path d="M44 66 L34 84 l8 -6 l4 4 l0 -14 q-3 1 -6 -2" fill="#1e40af" opacity="0"/>
</svg>
