<svg xmlns="http://www.w3.org/2000/svg" viewBox="0 0 100 100">
  <defs><linearGradient id="frm_bg" x1="0" y1="0" x2="1" y2="1"><stop offset="0" stop-color="#fefce8"/><stop offset="1" stop-color="#fef3c7"/></linearGradient></defs>
  <rect width="100" height="100" rx="16" fill="url(#frm_bg)"/>
  <ellipse cx="50" cy="80" rx="32" ry="4" fill="#0f172a" opacity=".08"/>
  <ellipse cx="76" cy="56" rx="14" ry="11" fill="#7f1d1d"/>
  <ellipse cx="50" cy="56" rx="10" ry="8" fill="#991b1b"/>
  <circle cx="28" cy="52" r="11" fill="#7f1d1d"/>
  <circle cx="24" cy="49" r="2.4" fill="#fef3c7"/>
  <circle cx="23.3" cy="48.3" r=".9" fill="#0f172a"/>
  <path d="M20 58 q3 2 6 1" stroke="#fca5a5" stroke-width="1.4" stroke-linecap="round" fill="none"/>
  <path d="M24 42 q-4 -8 -10 -10 M32 42 q0 -8 4 -12" stroke="#7f1d1d" stroke-width="2" stroke-linecap="round" fill="none"/>
  <circle cx="13" cy="31" r="1.8" fill="#7f1d1d"/>
  <circle cx="37" cy="29" r="1.8" fill="#7f1d1d"/>
  <g stroke="#7f1d1d" stroke-width="2.2" stroke-linecap="round" fill="none">
    <path d="M44 62 l-8 14 M52 64 l0 14 M60 62 l8 14"/>
    <path d="M46 50 l-4 -10 M56 50 l4 -10"/>
  </g>
  <path d="M70 48 q6 -2 10 2" stroke="#b91c1c" stroke-width="1.8" fill="none" opacity=".7"/>
</svg>
