<svg xmlns="http://www.w3.org/2000/svg" viewBox="0 0 100 100">
  <defs><linearGradient id="cig_bg" x1="0" y1="0" x2="0" y2="1"><stop offset="0" stop-color="#bae6fd"/><stop offset="1" stop-color="#e0f2fe"/></linearGradient></defs>
  <rect width="100" height="100" rx="16" fill="url(#cig_bg)"/>
  <circle cx="18" cy="16" r="6" fill="#fde047"/>
  <path d="M28 84 q22 -8 44 0 l-2 6 q-20 -6 -40 0 z" fill="#92400e"/>
  <path d="M32 84 l8 -4 M48 80 l0 6 M62 84 l-8 -5 M40 86 l6 -5 M58 87 l-6 -6" stroke="#b45309" stroke-width="2.2" stroke-linecap="round"/>
  <ellipse cx="48" cy="56" rx="20" ry="15" fill="#f8fafc"/>
  <path d="M60 46 q12 4 8 16 q-6 8 -16 6 q10 -8 8 -22" fill="#1e293b"/>
  <path d="M34 48 q-2 -22 8 -32" stroke="#f8fafc" stroke-width="7" stroke-linecap="round" fill="none"/>
  <circle cx="44" cy="14" r="8" fill="#f8fafc"/>
  <circle cx="46.5" cy="12.5" r="1.8" fill="#1e293b"/>
  <path d="M51 15 l18 4 l-18 3 z" fill="#dc2626"/>
  <path d="M40 8 q3 -2 6 -1" stroke="#1e293b" stroke-width="0"/>
  <path d="M44 70 v12 M52 70 v12" stroke="#dc2626" stroke-width="3" stroke-linecap="round"/>
  <path d="M30 52 q8 -4 14 2 q-6 6 -14 -2" fill="#e2e8f0" opacity="0"/>
</svg>
