<svg xmlns="http://www.w3.org/2000/svg" viewBox="0 0 100 100">
  <defs><linearGradient id="rat_bg" x1="0" y1="0" x2="1" y2="1"><stop offset="0" stop-color="#f8fafc"/><stop offset="1" stop-color="#e2e8f0"/></linearGradient>
  <radialGradient id="rat_cos" cx=".4" cy=".35" r="1"><stop offset="0" stop-color="#a8a29e"/><stop offset="1" stop-color="#57534e"/></radialGradient></defs>
  <rect width="100" height="100" rx="16" fill="url(#rat_bg)"/>
  <ellipse cx="50" cy="84" rx="30" ry="4" fill="#0f172a" opacity=".08"/>
  <path d="M74 70 q14 0 16 -10 q2 10 -6 16 q-6 4 -12 0" fill="none" stroke="#ec4899" stroke-width="4" stroke-linecap="round"/>
  <circle cx="32" cy="34" r="12" fill="#78716c"/>
  <circle cx="32" cy="36" r="6.5" fill="#fbcfe8"/>
  <circle cx="64" cy="34" r="12" fill="#57534e"/>
  <circle cx="64" cy="36" r="6.5" fill="#f9a8d4"/>
  <path d="M22 60 q4 -22 26 -22 q22 0 26 22 q2 16 -26 16 q-28 0 -26 -16" fill="url(#rat_cos)"/>
  <circle cx="40" cy="54" r="2.8" fill="#1e293b"/>
  <circle cx="58" cy="54" r="2.8" fill="#1e293b"/>
  <circle cx="39" cy="53" r="1" fill="#fff"/>
  <circle cx="57" cy="53" r="1" fill="#fff"/>
  <ellipse cx="49" cy="64" rx="3.4" ry="2.6" fill="#ec4899"/>
  <g stroke="#d6d3d1" stroke-width="1.4" stroke-linecap="round">
    <path d="M40 64 l-13 -3 M41 68 l-12 2 M58 64 l13 -3 M57 68 l12 2"/>
  </g>
  <path d="M44 70 q2 2 5 2 q3 0 5 -2" stroke="#44403c" stroke-width="1.6" fill="none" stroke-linecap="round"/>
  <rect x="46" y="70" width="3" height="4" rx="1" fill="#f8fafc"/>
  <rect x="50" y="70" width="3" height="4" rx="1" fill="#f8fafc"/>
</svg>
