<svg xmlns="http://www.w3.org/2000/svg" viewBox="0 0 100 100">
  <defs><linearGradient id="est2_bg" x1="0" y1="0" x2="0" y2="1"><stop offset="0" stop-color="#fef9c3"/><stop offset="1" stop-color="#fef3c7"/></linearGradient></defs>
  <rect width="100" height="100" rx="16" fill="url(#est2_bg)"/>
  <ellipse cx="50" cy="90" rx="28" ry="3.5" fill="#0f172a" opacity=".08"/>
  <circle cx="62" cy="20" r="9" fill="#fde0bd"/>
  <circle cx="59" cy="18" r="2" fill="#1e293b"/>
  <circle cx="65" cy="18" r="2" fill="#1e293b"/>
  <path d="M44 22 q4 -3 9 -2 l-1 4 q-4 -1 -8 -2" fill="#f59e0b"/>
  <path d="M70 22 l10 2 l-10 3 z" fill="#f59e0b" opacity="0"/>
  <path d="M58 28 q-4 14 -6 26" stroke="#fde0bd" stroke-width="7" stroke-linecap="round" fill="none"/>
  <ellipse cx="46" cy="62" rx="22" ry="17" fill="#57534e"/>
  <path d="M28 54 q-8 4 -10 12 q8 2 14 -4 M64 54 q8 4 10 12 q-8 2 -14 -4" fill="#44403c"/>
  <path d="M34 54 q12 -8 24 0 M32 62 q14 -8 28 0" stroke="#78716c" stroke-width="2" fill="none" opacity=".7"/>
  <path d="M42 78 v8 m-3.5 -2 l3.5 2 l3.5 -2 M54 78 v8 m-3.5 -2 l3.5 2 l3.5 -2" stroke="#d6a35c" stroke-width="2.5" stroke-linecap="round" stroke-linejoin="round" fill="none"/>
</svg>
