<svg xmlns="http://www.w3.org/2000/svg" viewBox="0 0 100 100">
  <defs><linearGradient id="abe_bg" x1="0" y1="0" x2="0" y2="1"><stop offset="0" stop-color="#bae6fd"/><stop offset="1" stop-color="#e0f2fe"/></linearGradient>
  <radialGradient id="abe_cos" cx=".4" cy=".35" r="1"><stop offset="0" stop-color="#fde047"/><stop offset="1" stop-color="#eab308"/></radialGradient></defs>
  <rect width="100" height="100" rx="16" fill="url(#abe_bg)"/>
  <ellipse cx="50" cy="84" rx="28" ry="4" fill="#0f172a" opacity=".08"/>
  <ellipse cx="36" cy="28" rx="14" ry="9" fill="#e0f2fe" stroke="#bae6fd" stroke-width="1.5" transform="rotate(-25 36 28)"/>
  <ellipse cx="64" cy="28" rx="14" ry="9" fill="#f0f9ff" stroke="#bae6fd" stroke-width="1.5" transform="rotate(25 64 28)"/>
  <ellipse cx="50" cy="58" rx="26" ry="21" fill="url(#abe_cos)"/>
  <path d="M38 38 q-2 19 0 39 q5 2 8 0 q-2 -20 0 -39 q-4 -2 -8 0" fill="#1e293b"/>
  <path d="M58 39 q-2 18 0 37 q5 1 8 -1 q-2 -18 0 -34 q-4 -3 -8 -2" fill="#1e293b"/>
  <path d="M76 58 l8 4 q-2 5 -8 2 z" fill="#1e293b"/>
  <circle cx="32" cy="52" r="3" fill="#1e293b"/>
  <circle cx="31" cy="51" r="1" fill="#fff"/>
  <path d="M26 62 q3 3 7 2" stroke="#92400e" stroke-width="1.8" stroke-linecap="round" fill="none"/>
  <path d="M28 40 q-4 -8 -10 -10 M36 38 q0 -8 -2 -12" stroke="#1e293b" stroke-width="2" stroke-linecap="round" fill="none"/>
  <circle cx="17" cy="29" r="2" fill="#1e293b"/>
  <circle cx="33" cy="25" r="2" fill="#1e293b"/>
</svg>
