<svg xmlns="http://www.w3.org/2000/svg" viewBox="0 0 100 100">
  <defs><linearGradient id="cav_bg" x1="0" y1="0" x2="1" y2="1"><stop offset="0" stop-color="#fff7ed"/><stop offset="1" stop-color="#ffedd5"/></linearGradient></defs>
  <rect width="100" height="100" rx="16" fill="url(#cav_bg)"/>
  <ellipse cx="50" cy="88" rx="26" ry="4" fill="#0f172a" opacity=".08"/>
  <polygon points="32,28 28,10 44,20" fill="#92400e"/>
  <polygon points="68,28 72,10 56,20" fill="#78350f"/>
  <path d="M50 16 q-12 0 -16 12 l-2 18 q8 -4 18 -4 q10 0 18 4 l-2 -18 q-4 -12 -16 -12" fill="#92400e"/>
  <path d="M50 14 q-6 0 -8 6 q4 22 4 38 h8 q0 -16 4 -38 q-2 -6 -8 -6" fill="#451a03"/>
  <path d="M30 42 q-2 -16 8 -22 q-2 12 0 22 q-4 2 -8 0" fill="#a16207" opacity="0"/>
  <path d="M32 36 q0 -18 18 -18 q18 0 18 18 l-1 14 q-7 -6 -17 -6 q-10 0 -17 6 z" fill="#b45309"/>
  <path d="M34 64 q0 -16 16 -16 q16 0 16 16 q0 14 -16 14 q-16 0 -16 -14" fill="#d6a35c"/>
  <circle cx="40" cy="42" r="2.8" fill="#1e293b"/>
  <circle cx="60" cy="42" r="2.8" fill="#1e293b"/>
  <ellipse cx="43" cy="66" rx="2.6" ry="3.6" fill="#78350f"/>
  <ellipse cx="57" cy="66" rx="2.6" ry="3.6" fill="#78350f"/>
  <path d="M44 76 q6 3 12 0" stroke="#92400e" stroke-width="1.8" stroke-linecap="round" fill="none"/>
  <path d="M50 18 v30" stroke="#451a03" stroke-width="4" opacity="0"/>
</svg>
