<svg xmlns="http://www.w3.org/2000/svg" viewBox="0 0 100 100">
  <defs><linearGradient id="coc_bg" x1="0" y1="0" x2="0" y2="1"><stop offset="0" stop-color="#bae6fd"/><stop offset="1" stop-color="#e0f2fe"/></linearGradient>
  <linearGradient id="coc_cos" x1="0" y1="0" x2="0" y2="1"><stop offset="0" stop-color="#4d7c0f"/><stop offset="1" stop-color="#365314"/></linearGradient></defs>
  <rect width="100" height="100" rx="16" fill="url(#coc_bg)"/>
  <path d="M0 72 q25 -6 50 0 t50 0 v12 q0 16 -16 16 H16 Q0 100 0 84 z" fill="#7dd3fc" opacity=".5"/>
  <circle cx="34" cy="34" r="7" fill="#4d7c0f"/>
  <circle cx="34" cy="32" r="3" fill="#fef3c7"/>
  <circle cx="34" cy="32" r="1.4" fill="#0f172a"/>
  <circle cx="58" cy="34" r="7" fill="#4d7c0f"/>
  <circle cx="58" cy="32" r="3" fill="#fef3c7"/>
  <circle cx="58" cy="32" r="1.4" fill="#0f172a"/>
  <path d="M22 44 q-2 -8 8 -8 h54 q12 0 10 10 q-1 6 -10 6 l-8 8 h-40 q-12 0 -14 -16" fill="url(#coc_cos)"/>
  <path d="M24 42 q0 -4 6 -4 h30 l-4 14 h-18 q-12 0 -14 -10" fill="#65a30d" opacity=".5"/>
  <path d="M76 60 q14 -2 18 -10 l-2 12 q-6 6 -16 4 z" fill="#4d7c0f" opacity="0"/>
  <g fill="#f8fafc">
    <polygon points="36,60 40,52 44,60"/>
    <polygon points="48,60 52,52 56,60"/>
    <polygon points="60,60 64,54 68,60"/>
  </g>
  <path d="M30 36 q-2 8 4 10" stroke="#365314" stroke-width="0"/>
  <circle cx="84" cy="44" r="1.6" fill="#365314"/>
</svg>
