<svg xmlns="http://www.w3.org/2000/svg" viewBox="0 0 100 100">
  <defs><linearGradient id="con_bg" x1="0" y1="0" x2="1" y2="1"><stop offset="0" stop-color="#f0fdf4"/><stop offset="1" stop-color="#dcfce7"/></linearGradient></defs>
  <rect width="100" height="100" rx="16" fill="url(#con_bg)"/>
  <ellipse cx="50" cy="88" rx="26" ry="4" fill="#0f172a" opacity=".08"/>
  <ellipse cx="38" cy="24" rx="8" ry="19" fill="#e7e5e4" transform="rotate(-10 38 24)"/>
  <ellipse cx="38" cy="26" rx="4" ry="13" fill="#f9a8d4" transform="rotate(-10 38 26)"/>
  <ellipse cx="62" cy="24" rx="8" ry="19" fill="#d6d3d1" transform="rotate(10 62 24)"/>
  <ellipse cx="62" cy="26" rx="4" ry="13" fill="#f9a8d4" transform="rotate(10 62 26)"/>
  <circle cx="50" cy="58" r="27" fill="#e7e5e4"/>
  <circle cx="42" cy="52" r="3" fill="#1e293b"/>
  <circle cx="58" cy="52" r="3" fill="#1e293b"/>
  <circle cx="41" cy="51" r="1" fill="#fff"/>
  <circle cx="57" cy="51" r="1" fill="#fff"/>
  <circle cx="36" cy="62" r="4.5" fill="#fbcfe8" opacity=".7"/>
  <circle cx="64" cy="62" r="4.5" fill="#fbcfe8" opacity=".7"/>
  <polygon points="50,58 46.5,62 53.5,62" fill="#f472b6"/>
  <path d="M50 62 v4 M50 66 q-3.5 3.5 -7 1 M50 66 q3.5 3.5 7 1" stroke="#a8a29e" stroke-width="1.8" stroke-linecap="round" fill="none"/>
  <rect x="45.5" y="68" width="4" height="6" rx="1.5" fill="#f8fafc" stroke="#d6d3d1" stroke-width="1"/>
  <rect x="50.5" y="68" width="4" height="6" rx="1.5" fill="#f8fafc" stroke="#d6d3d1" stroke-width="1"/>
  <g stroke="#d6d3d1" stroke-width="1.4" stroke-linecap="round">
    <path d="M32 64 l-11 -2 M33 68 l-10 2 M68 64 l11 -2 M67 68 l10 2"/>
  </g>
</svg>
