<svg xmlns="http://www.w3.org/2000/svg" viewBox="0 0 100 100">
  <defs><linearGradient id="tru_bg" x1="0" y1="0" x2="0" y2="1"><stop offset="0" stop-color="#bae6fd"/><stop offset="1" stop-color="#e0f2fe"/></linearGradient>
  <linearGradient id="tru_cos" x1="0" y1="0" x2="0" y2="1"><stop offset="0" stop-color="#a3e635"/><stop offset=".55" stop-color="#65a30d"/><stop offset="1" stop-color="#fda4af"/></linearGradient></defs>
  <rect width="100" height="100" rx="16" fill="url(#tru_bg)"/>
  <polygon points="0,30 22,8 44,30" fill="#94a3b8" opacity=".5"/>
  <polygon points="30,30 56,4 82,30" fill="#cbd5e1" opacity=".5"/>
  <polygon points="50,16 56,10 64,18" fill="#f8fafc" opacity=".8"/>
  <path d="M0 64 q12 -5 25 0 t25 0 t25 0 t25 0 v20 q0 16 -16 16 H16 Q0 100 0 84 z" fill="#0ea5e9"/>
  <g transform="rotate(-6 50 66)">
    <path d="M14 66 q14 -14 38 -14 q20 0 28 10 l8 -7 v22 l-8 -7 q-8 10 -28 10 q-24 0 -38 -14" fill="url(#tru_cos)"/>
    <path d="M40 53 q4 -7 11 -6 q1 5 -3 8 q-4 1 -8 -2" fill="#4d7c0f"/>
    <circle cx="24" cy="64" r="2.6" fill="#1e293b"/>
    <circle cx="23.2" cy="63.2" r=".9" fill="#fff"/>
    <path d="M15 70 q4 3 9 2" stroke="#3f6212" stroke-width="1.5" fill="none" stroke-linecap="round"/>
    <g fill="#365314" opacity=".75">
      <circle cx="40" cy="62" r="1.5"/><circle cx="48" cy="58" r="1.5"/><circle cx="56" cy="63" r="1.5"/><circle cx="64" cy="59" r="1.5"/><circle cx="46" cy="68" r="1.4"/><circle cx="58" cy="70" r="1.4"/><circle cx="68" cy="66" r="1.4"/>
    </g>
    <circle cx="52" cy="64" r="1.2" fill="#fda4af"/><circle cx="62" cy="64" r="1.2" fill="#fda4af"/>
  </g>
</svg>
