<svg xmlns="http://www.w3.org/2000/svg" viewBox="0 0 100 100">
  <defs><linearGradient id="os_bg" x1="0" y1="0" x2="1" y2="1"><stop offset="0" stop-color="#f7fee7"/><stop offset="1" stop-color="#ecfccb"/></linearGradient>
  <radialGradient id="os_cos" cx=".45" cy=".35" r="1"><stop offset="0" stop-color="#a16207"/><stop offset="1" stop-color="#713f12"/></radialGradient></defs>
  <rect width="100" height="100" rx="16" fill="url(#os_bg)"/>
  <ellipse cx="50" cy="86" rx="28" ry="4" fill="#0f172a" opacity=".08"/>
  <circle cx="28" cy="28" r="10" fill="#713f12"/>
  <circle cx="28" cy="29" r="5" fill="#d6a35c"/>
  <circle cx="72" cy="28" r="10" fill="#5b3009"/>
  <circle cx="72" cy="29" r="5" fill="#b45309"/>
  <circle cx="50" cy="54" r="30" fill="url(#os_cos)"/>
  <circle cx="40" cy="46" r="3" fill="#1e293b"/>
  <circle cx="60" cy="46" r="3" fill="#1e293b"/>
  <circle cx="39" cy="45" r="1" fill="#fff"/>
  <circle cx="59" cy="45" r="1" fill="#fff"/>
  <ellipse cx="50" cy="64" rx="14" ry="11" fill="#e7c08a"/>
  <ellipse cx="50" cy="59" rx="4.5" ry="3.4" fill="#1e293b"/>
  <path d="M50 62 v4 M50 66 q-4 4 -8 1 M50 66 q4 4 8 1" stroke="#78350f" stroke-width="1.8" stroke-linecap="round" fill="none"/>
</svg>
