<svg xmlns="http://www.w3.org/2000/svg" viewBox="0 0 100 100">
  <defs><linearGradient id="sel_bg" x1="0" y1="0" x2="0" y2="1"><stop offset="0" stop-color="#a7f3d0"/><stop offset="1" stop-color="#d1fae5"/></linearGradient></defs>
  <rect width="100" height="100" rx="16" fill="url(#sel_bg)"/>
  <path d="M0 78 q25 -8 50 0 t50 0 v6 q0 16 -16 16 H16 Q0 100 0 84 z" fill="#15803d"/>
  <path d="M16 80 q-2 -40 4 -66" stroke="#92400e" stroke-width="6" fill="none" stroke-linecap="round"/>
  <path d="M20 14 q-16 2 -18 14 q12 4 18 -6 z M20 14 q16 2 18 14 q-12 4 -18 -6 z M20 12 q-4 -8 2 -10" fill="#16a34a"/>
  <path d="M84 80 q2 -36 -4 -60" stroke="#78350f" stroke-width="6" fill="none" stroke-linecap="round"/>
  <path d="M80 18 q-15 0 -18 12 q11 5 18 -4 z M80 18 q15 0 18 12 q-11 5 -18 -4 z" fill="#22c55e"/>
  <path d="M30 20 q20 14 40 2" stroke="#65a30d" stroke-width="4" fill="none" stroke-linecap="round"/>
  <path d="M44 26 q0 10 6 14 q6 -4 6 -14 q-6 4 -12 0" fill="#4ade80" opacity="0"/>
  <path d="M48 28 q-6 16 0 34 M52 28 q6 16 0 34" stroke="#16a34a" stroke-width="3" fill="none" stroke-linecap="round"/>
  <path d="M50 30 q-10 2 -12 12 M50 30 q10 2 12 12 M50 44 q-8 2 -10 10 M50 44 q8 2 10 10" stroke="#22c55e" stroke-width="3" stroke-linecap="round" fill="none"/>
  <circle cx="30" cy="50" r="3" fill="#f472b6"/>
  <circle cx="70" cy="46" r="3" fill="#fde047"/>
  <circle cx="26" cy="86" r="2.6" fill="#fb923c"/>
</svg>
