<svg xmlns="http://www.w3.org/2000/svg" viewBox="0 0 100 100">
  <defs><linearGradient id="arb_bg" x1="0" y1="0" x2="0" y2="1"><stop offset="0" stop-color="#bae6fd"/><stop offset="1" stop-color="#e0f2fe"/></linearGradient>
  <radialGradient id="arb_copa" cx=".4" cy=".35" r="1"><stop offset="0" stop-color="#4ade80"/><stop offset="1" stop-color="#15803d"/></radialGradient></defs>
  <rect width="100" height="100" rx="16" fill="url(#arb_bg)"/>
  <path d="M0 82 q25 -6 50 0 t50 0 v2 q0 16 -16 16 H16 Q0 100 0 84 z" fill="#86efac"/>
  <path d="M44 84 q2 -20 -2 -34 q-6 -6 -8 -12 q4 2 8 6 q-2 -10 2 -18 q3 8 4 16 q3 -6 8 -8 q-2 8 -7 14 q-3 16 -1 36 z" fill="#92400e"/>
  <circle cx="50" cy="34" r="24" fill="url(#arb_copa)"/>
  <circle cx="32" cy="42" r="12" fill="#22c55e"/>
  <circle cx="68" cy="42" r="12" fill="#16a34a"/>
  <circle cx="50" cy="20" r="11" fill="#4ade80"/>
  <circle cx="40" cy="28" r="3.5" fill="#bbf7d0" opacity=".7"/>
  <circle cx="60" cy="36" r="2.6" fill="#dc2626"/>
  <circle cx="42" cy="44" r="2.6" fill="#dc2626"/>
  <circle cx="55" cy="26" r="2.2" fill="#dc2626"/>
</svg>
