<svg xmlns="http://www.w3.org/2000/svg" viewBox="0 0 100 100">
  <defs><linearGradient id="parc_bg" x1="0" y1="0" x2="0" y2="1"><stop offset="0" stop-color="#bae6fd"/><stop offset="1" stop-color="#e0f2fe"/></linearGradient></defs>
  <rect width="100" height="100" rx="16" fill="url(#parc_bg)"/>
  <circle cx="80" cy="18" r="7" fill="#fde047"/>
  <path d="M0 70 q25 -8 50 0 t50 0 v14 q0 16 -16 16 H16 Q0 100 0 84 z" fill="#4ade80"/>
  <path d="M28 86 q10 -12 24 -14 q16 -2 28 6" stroke="#e7c08a" stroke-width="7" fill="none" stroke-linecap="round"/>
  <rect x="18" y="44" width="6" height="30" rx="2" fill="#92400e"/>
  <circle cx="21" cy="34" r="15" fill="#16a34a"/>
  <circle cx="13" cy="40" r="8" fill="#22c55e"/>
  <circle cx="30" cy="40" r="8" fill="#15803d"/>
  <g transform="translate(56 30)">
    <path d="M0 28 l6 -24 h16 l6 24" fill="none" stroke="#dc2626" stroke-width="3.5" stroke-linecap="round"/>
    <path d="M8 6 v14 M20 6 v14" stroke="#94a3b8" stroke-width="2"/>
    <rect x="4" y="18" width="9" height="5" rx="2" fill="#fbbf24"/>
    <rect x="16" y="18" width="9" height="5" rx="2" fill="#fbbf24"/>
    <path d="M2 4 h24" stroke="#dc2626" stroke-width="3.5" stroke-linecap="round"/>
  </g>
  <circle cx="38" cy="78" r="3" fill="#f472b6"/>
  <circle cx="12" cy="80" r="2.6" fill="#fde047"/>
</svg>
