<svg xmlns="http://www.w3.org/2000/svg" viewBox="0 0 100 100">
  <defs><linearGradient id="amb_bg" x1="0" y1="0" x2="0" y2="1"><stop offset="0" stop-color="#bae6fd"/><stop offset="1" stop-color="#e0f2fe"/></linearGradient></defs>
  <rect width="100" height="100" rx="16" fill="url(#amb_bg)"/>
  <ellipse cx="50" cy="84" rx="38" ry="4" fill="#0f172a" opacity=".1"/>
  <rect x="42" y="22" width="8" height="6" rx="2" fill="#3b82f6"/>
  <circle cx="46" cy="23" r="3" fill="#60a5fa"/>
  <path d="M10 50 q0 -6 6 -6 h12 l8 -14 q2 -3 6 -3 h36 q8 0 8 8 v33 q0 6 -6 6 H16 q-6 0 -6 -6 z" fill="#f8fafc" stroke="#cbd5e1" stroke-width="1.2"/>
  <path d="M38 30 l-7 13 h14 v-13 z" fill="#7dd3fc"/>
  <path d="M10 62 h76 v8 q0 4 -4 4 H16 q-6 0 -6 -6 z" fill="#dc2626"/>
  <rect x="58" y="38" width="18" height="18" rx="2" fill="#f1f5f9"/>
  <path d="M67 40 v14 M60 47 h14" stroke="#dc2626" stroke-width="4.5" stroke-linecap="round"/>
  <circle cx="30" cy="76" r="8" fill="#1e293b"/>
  <circle cx="30" cy="76" r="3.5" fill="#94a3b8"/>
  <circle cx="70" cy="76" r="8" fill="#1e293b"/>
  <circle cx="70" cy="76" r="3.5" fill="#94a3b8"/>
  <path d="M14 14 l-3 5 M20 12 v6 M26 14 l3 5" stroke="#ef4444" stroke-width="2.2" stroke-linecap="round" opacity="0"/>
</svg>
