<svg xmlns="http://www.w3.org/2000/svg" viewBox="0 0 100 100">
  <defs><linearGradient id="plc_bg" x1="0" y1="0" x2="0" y2="1"><stop offset="0" stop-color="#bae6fd"/><stop offset="1" stop-color="#e0f2fe"/></linearGradient></defs>
  <rect width="100" height="100" rx="16" fill="url(#plc_bg)"/>
  <rect x="8" y="20" width="18" height="30" fill="#fbbf24"/>
  <rect x="11" y="24" width="5" height="5" fill="#bfdbfe"/><rect x="19" y="24" width="5" height="5" fill="#bfdbfe"/>
  <rect x="11" y="33" width="5" height="5" fill="#bfdbfe"/><rect x="19" y="33" width="5" height="5" fill="#bfdbfe"/>
  <rect x="74" y="20" width="18" height="30" fill="#f97316"/>
  <rect x="77" y="24" width="5" height="5" fill="#bfdbfe"/><rect x="85" y="24" width="5" height="5" fill="#bfdbfe"/>
  <rect x="77" y="33" width="5" height="5" fill="#bfdbfe"/><rect x="85" y="33" width="5" height="5" fill="#bfdbfe"/>
  <ellipse cx="50" cy="72" rx="40" ry="18" fill="#e7c08a"/>
  <ellipse cx="50" cy="70" rx="40" ry="18" fill="#f3d9ae"/>
  <ellipse cx="50" cy="70" rx="26" ry="11" fill="none" stroke="#d6a35c" stroke-width="2"/>
  <g>
    <path d="M50 56 q-6 0 -6 6 l1 4 h10 l1 -4 q0 -6 -6 -6" fill="#94a3b8"/>
    <path d="M44 38 q0 -7 6 -7 q6 0 6 7 q3 1 2 5 h-16 q-1 -4 2 -5" fill="#7dd3fc"/>
    <path d="M46 44 q0 8 4 12 q4 -4 4 -12 q-4 2 -8 0" fill="#38bdf8"/>
    <ellipse cx="50" cy="56" rx="10" ry="2.5" fill="#7dd3fc" opacity=".7"/>
  </g>
  <path d="M22 64 q4 -3 8 0 M70 64 q4 -3 8 0" stroke="#d6a35c" stroke-width="2" stroke-linecap="round" fill="none"/>
  <circle cx="30" cy="78" r="2.4" fill="#f472b6"/>
  <circle cx="70" cy="78" r="2.4" fill="#a78bfa"/>
</svg>
