<svg xmlns="http://www.w3.org/2000/svg" viewBox="0 0 100 100">
  <defs><linearGradient id="pat_bg" x1="0" y1="0" x2="0" y2="1"><stop offset="0" stop-color="#bae6fd"/><stop offset="1" stop-color="#e0f2fe"/></linearGradient></defs>
  <rect width="100" height="100" rx="16" fill="url(#pat_bg)"/>
  <path d="M0 78 q25 -8 50 0 t50 0 v6 q0 16 -16 16 H16 Q0 100 0 84 z" fill="#86efac"/>
  <circle cx="22" cy="22" r="9" fill="#fde047"/>
  <circle cx="22" cy="22" r="12" fill="#fde047" opacity=".3"/>
  <rect x="62" y="34" width="6" height="46" rx="2" fill="#94a3b8"/>
  <path d="M64 36 L40 78" stroke="#ef4444" stroke-width="8" stroke-linecap="round"/>
  <path d="M64 36 L40 78" stroke="#f87171" stroke-width="4" stroke-linecap="round"/>
  <rect x="58" y="28" width="14" height="12" rx="3" fill="#dc2626"/>
  <path d="M76 40 v32 M84 40 v32 M76 48 h8 M76 60 h8" stroke="#64748b" stroke-width="3" stroke-linecap="round"/>
  <circle cx="36" cy="56" r="7" fill="#fcd9b8"/>
  <path d="M30 54 q0 -6 6 -6 q6 0 6 6 q-3 -3 -6 -3 q-3 0 -6 3" fill="#92400e"/>
  <circle cx="34" cy="56" r="1" fill="#1e293b"/><circle cx="38.5" cy="56" r="1" fill="#1e293b"/>
  <path d="M34.5 59 q1.8 1.4 3.6 0" fill="none" stroke="#92400e" stroke-width="1.1" stroke-linecap="round"/>
  <path d="M32 66 q4 -4 9 0 l-2 8 h-5 z" fill="#f97316"/>
  <circle cx="14" cy="82" r="3" fill="#f472b6"/><circle cx="88" cy="84" r="3" fill="#fbbf24"/><circle cx="50" cy="86" r="2.5" fill="#a78bfa"/>
</svg>
