<svg xmlns="http://www.w3.org/2000/svg" viewBox="0 0 100 100">
  <defs><linearGradient id="fan_bg" x1="0" y1="0" x2="0" y2="1"><stop offset="0" stop-color="#1e1b4b"/><stop offset="1" stop-color="#312e81"/></linearGradient></defs>
  <rect width="100" height="100" rx="16" fill="url(#fan_bg)"/>
  <circle cx="20" cy="16" r="1.2" fill="#e0e7ff"/><circle cx="80" cy="22" r="1.4" fill="#e0e7ff"/><circle cx="68" cy="12" r="1" fill="#e0e7ff"/>
  <ellipse cx="50" cy="90" rx="24" ry="3.5" fill="#0f172a" opacity=".4"/>
  <circle cx="50" cy="30" r="22" fill="#fde047" opacity=".18"/>
  <circle cx="50" cy="30" r="13" fill="#fde047" opacity=".3"/>
  <rect x="47" y="44" width="6" height="46" fill="#334155"/>
  <rect x="42" y="86" width="16" height="5" rx="2" fill="#1e293b"/>
  <path d="M40 22 h20 l-3 18 h-14 z" fill="#fbbf24"/>
  <path d="M42 24 h6 l-2 14 h-3 z" fill="#fef08a"/>
  <path d="M38 22 h24 q2 0 2 -2 q0 -2 -2 -2 H38 q-2 0 -2 2 q0 2 2 2" fill="#1e293b"/>
  <path d="M46 18 q0 -6 4 -6 q4 0 4 6" fill="none" stroke="#1e293b" stroke-width="2.5"/>
  <path d="M40 42 h20 l1 3 H39 z" fill="#1e293b"/>
</svg>
