<svg xmlns="http://www.w3.org/2000/svg" viewBox="0 0 100 100">
  <defs><linearGradient id="etc_bg" x1="0" y1="0" x2="0" y2="1"><stop offset="0" stop-color="#bae6fd"/><stop offset="1" stop-color="#e0f2fe"/></linearGradient></defs>
  <rect width="100" height="100" rx="16" fill="url(#etc_bg)"/>
  <rect x="12" y="30" width="76" height="40" rx="3" fill="#fef3c7"/>
  <path d="M8 32 L50 12 l42 20 l-2 5 L50 18 L10 37 z" fill="#92400e"/>
  <circle cx="50" cy="34" r="8" fill="#f8fafc" stroke="#92400e" stroke-width="2"/>
  <path d="M50 29 v5 h4" stroke="#1e293b" stroke-width="1.8" fill="none" stroke-linecap="round"/>
  <rect x="20" y="44" width="14" height="18" rx="1.5" fill="#7dd3fc" stroke="#0369a1" stroke-width="1.3"/>
  <rect x="66" y="44" width="14" height="18" rx="1.5" fill="#7dd3fc" stroke="#0369a1" stroke-width="1.3"/>
  <rect x="42" y="46" width="16" height="24" rx="1.5" fill="#78350f"/>
  <path d="M6 84 h88 M6 92 h88" stroke="#475569" stroke-width="3"/>
  <path d="M14 84 v8 M28 84 v8 M42 84 v8 M56 84 v8 M70 84 v8 M84 84 v8" stroke="#92400e" stroke-width="4"/>
  <rect x="10" y="70" width="80" height="8" rx="2" fill="#cbd5e1"/>
  <path d="M14 74 h6 M26 74 h6 M38 74 h6 M50 74 h6 M62 74 h6 M74 74 h6" stroke="#fde047" stroke-width="2.5" stroke-linecap="round"/>
</svg>
