<svg xmlns="http://www.w3.org/2000/svg" viewBox="0 0 100 100">
  <defs><linearGradient id="pol2_bg" x1="0" y1="0" x2="0" y2="1"><stop offset="0" stop-color="#bae6fd"/><stop offset="1" stop-color="#e0f2fe"/></linearGradient></defs>
  <rect width="100" height="100" rx="16" fill="url(#pol2_bg)"/>
  <ellipse cx="50" cy="89" rx="38" ry="3.5" fill="#0f172a" opacity=".08"/>
  <path d="M12 50 q0 -22 38 -22 q38 0 38 22 v36 H12 z" fill="#0ea5e9"/>
  <path d="M12 50 q0 -22 38 -22 q14 0 24 4 l-8 12 q-7 -3 -16 -3 q-26 0 -26 14 l0 31 h-12 z" fill="#38bdf8"/>
  <path d="M12 50 h76" stroke="#0369a1" stroke-width="2"/>
  <rect x="40" y="62" width="20" height="24" rx="2" fill="#0c4a6e"/>
  <path d="M50 62 v24" stroke="#7dd3fc" stroke-width="1.6"/>
  <rect x="18" y="58" width="12" height="10" rx="1.5" fill="#e0f2fe"/>
  <rect x="70" y="58" width="12" height="10" rx="1.5" fill="#e0f2fe"/>
  <circle cx="50" cy="20" r="6" fill="#f97316"/>
  <path d="M44 20 a6 6 0 0 1 12 0 M50 14 v12 M45.7 16 q4.3 4 8.6 0 M45.7 24 q4.3 -4 8.6 0" stroke="#7c2d12" stroke-width="1.2" fill="none"/>
</svg>
