<svg xmlns="http://www.w3.org/2000/svg" viewBox="0 0 100 100">
  <defs><linearGradient id="esco_bg" x1="0" y1="0" x2="0" y2="1"><stop offset="0" stop-color="#bae6fd"/><stop offset="1" stop-color="#e0f2fe"/></linearGradient></defs>
  <rect width="100" height="100" rx="16" fill="url(#esco_bg)"/>
  <ellipse cx="50" cy="89" rx="38" ry="3.5" fill="#0f172a" opacity=".08"/>
  <rect x="10" y="46" width="22" height="40" fill="#fbbf24"/>
  <rect x="68" y="46" width="22" height="40" fill="#fbbf24"/>
  <rect x="30" y="36" width="40" height="50" fill="#fcd34d"/>
  <polygon points="50,14 74,38 26,38" fill="#dc2626"/>
  <polygon points="50,20 68,37 32,37" fill="#ef4444"/>
  <circle cx="50" cy="30" r="5.5" fill="#fef3c7"/>
  <path d="M50 26.5 v3.5 h2.5" stroke="#92400e" stroke-width="1.4" fill="none" stroke-linecap="round"/>
  <rect x="43" y="62" width="14" height="24" rx="1.5" fill="#78350f"/>
  <circle cx="54" cy="74" r="1.4" fill="#fbbf24"/>
  <g fill="#bfdbfe" stroke="#1e40af" stroke-width="1.1">
    <rect x="14" y="52" width="6" height="8"/><rect x="23" y="52" width="6" height="8"/>
    <rect x="14" y="68" width="6" height="8"/><rect x="23" y="68" width="6" height="8"/>
    <rect x="72" y="52" width="6" height="8"/><rect x="81" y="52" width="6" height="8"/>
    <rect x="72" y="68" width="6" height="8"/><rect x="81" y="68" width="6" height="8"/>
    <rect x="36" y="44" width="8" height="9"/><rect x="56" y="44" width="8" height="9"/>
  </g>
  <rect x="46" y="8" width="2.5" height="9" fill="#475569"/>
  <path d="M48.5 8 q6 1 6 4 q-6 -1 -6 1 z" fill="#16a34a"/>
</svg>
