<svg xmlns="http://www.w3.org/2000/svg" viewBox="0 0 100 100">
  <defs><linearGradient id="sem_bg" x1="0" y1="0" x2="0" y2="1"><stop offset="0" stop-color="#bae6fd"/><stop offset="1" stop-color="#e0f2fe"/></linearGradient>
  <linearGradient id="sem_cos" x1="0" y1="0" x2="1" y2="0"><stop offset="0" stop-color="#475569"/><stop offset="1" stop-color="#1e293b"/></linearGradient></defs>
  <rect width="100" height="100" rx="16" fill="url(#sem_bg)"/>
  <ellipse cx="50" cy="90" rx="22" ry="3.5" fill="#0f172a" opacity=".1"/>
  <rect x="46.5" y="64" width="7" height="26" fill="#334155"/>
  <rect x="32" y="10" width="36" height="58" rx="8" fill="url(#sem_cos)"/>
  <path d="M32 22 h-8 q-2 -6 8 -6 z M32 40 h-8 q-2 -6 8 -6 z M68 22 h8 q2 -6 -8 -6 z M68 40 h8 q2 -6 -8 -6 z" fill="#1e293b"/>
  <circle cx="50" cy="22" r="7.5" fill="#ef4444"/>
  <circle cx="47.5" cy="19.5" r="2.4" fill="#fca5a5"/>
  <circle cx="50" cy="39" r="7.5" fill="#fbbf24"/>
  <circle cx="47.5" cy="36.5" r="2.4" fill="#fde68a"/>
  <circle cx="50" cy="56" r="7.5" fill="#22c55e"/>
  <circle cx="47.5" cy="53.5" r="2.4" fill="#86efac"/>
</svg>
