<svg xmlns="http://www.w3.org/2000/svg" viewBox="0 0 100 100">
  <defs><linearGradient id="bus_bg" x1="0" y1="0" x2="0" y2="1"><stop offset="0" stop-color="#bae6fd"/><stop offset="1" stop-color="#e0f2fe"/></linearGradient>
  <linearGradient id="bus_cos" x1="0" y1="0" x2="0" y2="1"><stop offset="0" stop-color="#fde047"/><stop offset="1" stop-color="#eab308"/></linearGradient></defs>
  <rect width="100" height="100" rx="16" fill="url(#bus_bg)"/>
  <ellipse cx="50" cy="90" rx="24" ry="3.5" fill="#0f172a" opacity=".1"/>
  <rect x="46" y="62" width="8" height="28" fill="#475569"/>
  <path d="M26 26 h48 q8 0 8 10 v26 H18 V36 q0 -10 8 -10" fill="url(#bus_cos)"/>
  <path d="M26 26 h10 q-8 0 -8 10 v26 h-10 V36 q0 -10 8 -10" fill="#fef08a"/>
  <rect x="32" y="36" width="36" height="7" rx="3.5" fill="#713f12"/>
  <rect x="34" y="50" width="24" height="3" rx="1.5" fill="#ca8a04"/>
  <path d="M64 50 h10 l-2 8 h-8 q-2 -4 0 -8" fill="#ca8a04" opacity="0"/>
  <circle cx="68" cy="54" r="3.5" fill="#ca8a04"/>
</svg>
