<svg xmlns="http://www.w3.org/2000/svg" viewBox="0 0 100 100">
  <defs><linearGradient id="int_bg" x1="0" y1="0" x2="0" y2="1"><stop offset="0" stop-color="#bae6fd"/><stop offset="1" stop-color="#e0f2fe"/></linearGradient></defs>
  <rect width="100" height="100" rx="16" fill="url(#int_bg)"/>
  <ellipse cx="50" cy="86" rx="32" ry="4" fill="#0f172a" opacity=".1"/>
  <path d="M14 56 q0 -8 8 -8 h56 q8 0 8 8 v16 q0 6 -6 6 H20 q-6 0 -6 -6 z" fill="#dc2626"/>
  <path d="M28 48 l4 -10 q2 -4 7 -4 h22 q5 0 7 4 l4 10" fill="#ef4444"/>
  <path d="M36 38 q1 -2.5 4 -2.5 h8 v12 h-15 z" fill="#7dd3fc"/>
  <circle cx="26" cy="78" r="8" fill="#1e293b"/>
  <circle cx="26" cy="78" r="3.4" fill="#94a3b8"/>
  <circle cx="74" cy="78" r="8" fill="#1e293b"/>
  <circle cx="74" cy="78" r="3.4" fill="#94a3b8"/>
  <rect x="16" y="56" width="12" height="9" rx="4" fill="#fb923c"/>
  <rect x="18" y="58" width="5" height="5" rx="2" fill="#fde68a"/>
  <g stroke="#f59e0b" stroke-width="3" stroke-linecap="round">
    <path d="M12 44 l-5 -5 M10 52 h-6 M14 38 l-3 -7"/>
  </g>
  <path d="M84 14 l-3 5 l5 1 l-3 5" stroke="#f59e0b" stroke-width="2" stroke-linecap="round" stroke-linejoin="round" fill="none" opacity="0"/>
</svg>
