<svg xmlns="http://www.w3.org/2000/svg" viewBox="0 0 100 100">
  <defs><linearGradient id="gtg_bg" x1="0" y1="0" x2="0" y2="1"><stop offset="0" stop-color="#bae6fd"/><stop offset="1" stop-color="#e0f2fe"/></linearGradient></defs>
  <rect width="100" height="100" rx="16" fill="url(#gtg_bg)"/>
  <ellipse cx="50" cy="88" rx="36" ry="4" fill="#0f172a" opacity=".1"/>
  <polygon points="50,12 92,38 8,38" fill="#dc2626"/>
  <polygon points="50,18 82,37 18,37" fill="#ef4444"/>
  <rect x="14" y="38" width="72" height="48" fill="#e7e5e4"/>
  <rect x="24" y="46" width="52" height="40" fill="#94a3b8"/>
  <g fill="#cbd5e1" stroke="#64748b" stroke-width="1">
    <rect x="24" y="46" width="52" height="7"/>
    <rect x="24" y="54" width="52" height="7"/>
    <rect x="24" y="62" width="52" height="7"/>
    <rect x="24" y="70" width="52" height="7"/>
    <rect x="24" y="78" width="52" height="7"/>
  </g>
  <path d="M28 49.5 h8 M64 49.5 h8 M28 65.5 h8 M64 65.5 h8" stroke="#f1f5f9" stroke-width="1.6" stroke-linecap="round"/>
  <rect x="44" y="80" width="12" height="3.5" rx="1.7" fill="#475569"/>
  <circle cx="50" cy="42" r="2.2" fill="#fbbf24"/>
</svg>
