<svg xmlns="http://www.w3.org/2000/svg" viewBox="0 0 100 100">
  <defs><linearGradient id="cad_bg" x1="0" y1="0" x2="1" y2="1"><stop offset="0" stop-color="#f8fafc"/><stop offset="1" stop-color="#e2e8f0"/></linearGradient></defs>
  <rect width="100" height="100" rx="16" fill="url(#cad_bg)"/>
  <ellipse cx="50" cy="82" rx="32" ry="4" fill="#0f172a" opacity=".08"/>
  <circle cx="30" cy="50" r="17" fill="none" stroke="#475569" stroke-width="5"/>
  <circle cx="30" cy="50" r="11" fill="none" stroke="#94a3b8" stroke-width="2"/>
  <g fill="#475569">
    <circle cx="30" cy="34.5" r="2.6"/><circle cx="43" cy="42" r="2.6"/><circle cx="43" cy="58" r="2.6"/><circle cx="30" cy="65.5" r="2.6"/><circle cx="17" cy="58" r="2.6"/><circle cx="17" cy="42" r="2.6"/>
  </g>
  <circle cx="30" cy="50" r="4" fill="#334155"/>
  <circle cx="76" cy="50" r="10" fill="none" stroke="#475569" stroke-width="4.5"/>
  <circle cx="76" cy="50" r="3" fill="#334155"/>
  <path d="M30 33 q23 -4 46 7.5 M30 67 q23 4 46 -7.5" stroke="#1e293b" stroke-width="4" fill="none"/>
  <g fill="#fbbf24">
    <circle cx="44" cy="32.6" r="2"/><circle cx="58" cy="34.5" r="2"/><circle cx="70" cy="38.5" r="2"/>
    <circle cx="44" cy="67.4" r="2"/><circle cx="58" cy="65.5" r="2"/><circle cx="70" cy="61.5" r="2"/>
  </g>
</svg>
