<svg xmlns="http://www.w3.org/2000/svg" viewBox="0 0 100 100">
  <defs><linearGradient id="etc2_bg" x1="0" y1="0" x2="0" y2="1"><stop offset="0" stop-color="#bae6fd"/><stop offset="1" stop-color="#e0f2fe"/></linearGradient></defs>
  <rect width="100" height="100" rx="16" fill="url(#etc2_bg)"/>
  <path d="M10 44 q0 -10 10 -10 h60 q10 0 10 10 v6 H10 z" fill="#0d9488"/>
  <path d="M14 50 h72 v6 H14 z" fill="#0f766e"/>
  <rect x="14" y="56" width="72" height="24" fill="#fef3c7"/>
  <rect x="42" y="60" width="16" height="20" rx="1.5" fill="#78350f"/>
  <rect x="20" y="60" width="12" height="10" rx="1.5" fill="#7dd3fc" stroke="#0369a1" stroke-width="1.2"/>
  <rect x="68" y="60" width="12" height="10" rx="1.5" fill="#7dd3fc" stroke="#0369a1" stroke-width="1.2"/>
  <circle cx="50" cy="42" r="6" fill="#f8fafc"/>
  <path d="M50 38.5 v3.5 h2.5" stroke="#1e293b" stroke-width="1.5" fill="none" stroke-linecap="round"/>
  <path d="M6 86 h88 M6 92 h88" stroke="#475569" stroke-width="2.5"/>
  <path d="M14 86 v6 M30 86 v6 M46 86 v6 M62 86 v6 M78 86 v6" stroke="#92400e" stroke-width="3.5"/>
  <path d="M22 24 q-2 -5 2 -8 M50 22 q-2 -5 2 -8 M78 24 q-2 -5 2 -8" stroke="#cbd5e1" stroke-width="2" stroke-linecap="round" fill="none" opacity="0"/>
</svg>
