<svg xmlns="http://www.w3.org/2000/svg" viewBox="0 0 100 100">
  <defs><linearGradient id="vax_bg" x1="0" y1="0" x2="0" y2="1"><stop offset="0" stop-color="#7dd3fc"/><stop offset="1" stop-color="#bae6fd"/></linearGradient>
  <linearGradient id="vax_casc" x1="0" y1="0" x2="0" y2="1"><stop offset="0" stop-color="#ef4444"/><stop offset="1" stop-color="#991b1b"/></linearGradient></defs>
  <rect width="100" height="100" rx="16" fill="url(#vax_bg)"/>
  <circle cx="20" cy="18" r="6" fill="#fde047"/>
  <path d="M0 72 q12 -6 25 0 t25 0 t25 0 t25 0 v12 q0 16 -16 16 H16 Q0 100 0 84 z" fill="#0ea5e9"/>
  <path d="M16 70 l10 -38 q26 -6 48 0 l10 38 q-34 8 -68 0" fill="url(#vax_casc)" transform="translate(0 -8) scale(.92) translate(4 8)"/>
  <path d="M20 50 h60" stroke="#fca5a5" stroke-width="0"/>
  <path d="M14 64 q36 -10 72 0 l-4 12 q-32 8 -64 0 z" fill="url(#vax_casc)"/>
  <path d="M16 66 q12 -4 24 -4 l-2 12 q-10 0 -18 -2 z" fill="#ef4444" opacity=".6"/>
  <circle cx="34" cy="70" r="2.6" fill="#fef3c7"/>
  <circle cx="50" cy="71" r="2.6" fill="#fef3c7"/>
  <circle cx="66" cy="70" r="2.6" fill="#fef3c7"/>
  <rect x="32" y="42" width="36" height="20" rx="3" fill="#f8fafc"/>
  <rect x="38" y="46" width="8" height="7" rx="1.5" fill="#7dd3fc"/>
  <rect x="54" y="46" width="8" height="7" rx="1.5" fill="#7dd3fc"/>
  <rect x="44" y="26" width="12" height="16" fill="#fbbf24"/>
  <path d="M44 26 h12 l-2 -8 h-8 z" fill="#1e293b"/>
  <circle cx="50" cy="14" r="2" fill="#e2e8f0"/>
  <circle cx="56" cy="9" r="2.6" fill="#cbd5e1"/>
</svg>
