<svg xmlns="http://www.w3.org/2000/svg" viewBox="0 0 100 100">
  <defs><linearGradient id="bus2_bg" x1="0" y1="0" x2="0" y2="1"><stop offset="0" stop-color="#bae6fd"/><stop offset="1" stop-color="#e0f2fe"/></linearGradient>
  <linearGradient id="bus2_cos" x1="0" y1="0" x2="0" y2="1"><stop offset="0" stop-color="#fbbf24"/><stop offset="1" stop-color="#d97706"/></linearGradient></defs>
  <rect width="100" height="100" rx="16" fill="url(#bus2_bg)"/>
  <ellipse cx="50" cy="84" rx="40" ry="4" fill="#0f172a" opacity=".1"/>
  <rect x="10" y="26" width="80" height="48" rx="8" fill="url(#bus2_cos)"/>
  <rect x="10" y="26" width="80" height="10" rx="8" fill="#fcd34d"/>
  <g fill="#7dd3fc" stroke="#0369a1" stroke-width="1.2">
    <rect x="16" y="38" width="13" height="12" rx="2"/>
    <rect x="33" y="38" width="13" height="12" rx="2"/>
    <rect x="50" y="38" width="13" height="12" rx="2"/>
    <rect x="67" y="38" width="17" height="26" rx="2"/>
  </g>
  <path d="M68 39 l8 0 l-8 8 z" fill="#bae6fd"/>
  <path d="M16 58 h36" stroke="#92400e" stroke-width="2.5" stroke-linecap="round"/>
  <circle cx="26" cy="76" r="8" fill="#1e293b"/>
  <circle cx="26" cy="76" r="3.4" fill="#94a3b8"/>
  <circle cx="68" cy="76" r="8" fill="#1e293b"/>
  <circle cx="68" cy="76" r="3.4" fill="#94a3b8"/>
  <rect x="84" y="62" width="5" height="5" rx="2" fill="#fde047"/>
  <rect x="11" y="62" width="5" height="5" rx="2" fill="#ef4444"/>
</svg>
