<svg xmlns="http://www.w3.org/2000/svg" viewBox="0 0 100 100">
  <defs><linearGradient id="cpo_bg" x1="0" y1="0" x2="0" y2="1"><stop offset="0" stop-color="#bae6fd"/><stop offset="1" stop-color="#e0f2fe"/></linearGradient>
  <linearGradient id="cpo_cos" x1="0" y1="0" x2="0" y2="1"><stop offset="0" stop-color="#60a5fa"/><stop offset="1" stop-color="#1d4ed8"/></linearGradient></defs>
  <rect width="100" height="100" rx="16" fill="url(#cpo_bg)"/>
  <ellipse cx="50" cy="84" rx="38" ry="4" fill="#0f172a" opacity=".1"/>
  <path d="M64 46 L34 22 q4 -4 10 -3 l26 21 q-2 5 -6 6" fill="url(#cpo_cos)"/>
  <path d="M40 20 q26 2 30 26 l-6 0 q-4 -18 -26 -22 q0 -3 2 -4" fill="#3b82f6" opacity="0"/>
  <path d="M10 58 q0 -10 10 -10 h58 q12 0 12 12 v10 q0 6 -6 6 H16 q-6 0 -6 -6 z" fill="url(#cpo_cos)"/>
  <path d="M20 48 h48 l-4 -8 q-2 -4 -7 -4 H35 q-8 0 -12 6 z" fill="#1e3a8a"/>
  <path d="M22 46 q3 -6 11 -6 h12 v6 z" fill="#7dd3fc" opacity=".7"/>
  <path d="M64 46 L36 24" stroke="#93c5fd" stroke-width="2" opacity=".7"/>
  <circle cx="28" cy="74" r="9" fill="#1e293b"/>
  <circle cx="28" cy="74" r="4" fill="#94a3b8"/>
  <circle cx="72" cy="74" r="9" fill="#1e293b"/>
  <circle cx="72" cy="74" r="4" fill="#94a3b8"/>
  <rect x="82" y="60" width="8" height="6" rx="3" fill="#fde047"/>
  <path d="M30 34 q-4 0 -6 4" stroke="#475569" stroke-width="3" stroke-linecap="round" fill="none"/>
  <ellipse cx="46" cy="38" rx="22" ry="14" fill="none" stroke="#ef4444" stroke-width="2.5" stroke-dasharray="6 4" transform="rotate(22 46 38)"/>
</svg>
