<svg xmlns="http://www.w3.org/2000/svg" viewBox="0 0 100 100">
  <defs><linearGradient id="aut_bg" x1="0" y1="0" x2="0" y2="1"><stop offset="0" stop-color="#bae6fd"/><stop offset="1" stop-color="#e0f2fe"/></linearGradient></defs>
  <rect width="100" height="100" rx="16" fill="url(#aut_bg)"/>
  <circle cx="82" cy="16" r="6" fill="#fde047"/>
  <path d="M0 92 L36 24 h28 L100 92 l0 -4 q0 12 -12 12 H14 Q0 100 0 88 z" fill="#475569"/>
  <path d="M50 28 v10 M50 46 v10 M50 64 v10 M50 82 v10" stroke="#fde047" stroke-width="3.5" stroke-linecap="round"/>
  <path d="M38 26 L18 92 M62 26 L82 92" stroke="#f8fafc" stroke-width="3"/>
  <path d="M22 30 q6 -4 12 0 l-2 6 q-4 -3 -8 0 z" fill="#16a34a" opacity="0"/>
  <rect x="8" y="26" width="20" height="14" rx="3" fill="#1e40af"/>
  <path d="M12 36 q6 -8 12 0 M14 33 v-3 M22 33 v-3" stroke="#f8fafc" stroke-width="1.8" fill="none" stroke-linecap="round"/>
</svg>
