<svg xmlns="http://www.w3.org/2000/svg" viewBox="0 0 100 100">
  <defs><linearGradient id="fre_bg" x1="0" y1="0" x2="1" y2="1"><stop offset="0" stop-color="#fef2f2"/><stop offset="1" stop-color="#fee2e2"/></linearGradient></defs>
  <rect width="100" height="100" rx="16" fill="url(#fre_bg)"/>
  <ellipse cx="50" cy="86" rx="28" ry="4" fill="#0f172a" opacity=".08"/>
  <circle cx="50" cy="50" r="32" fill="none" stroke="#dc2626" stroke-width="7"/>
  <path d="M28 28 q-8 8 -8 22 q0 14 8 22 M72 28 q8 8 8 22 q0 14 -8 22" fill="none" stroke="#dc2626" stroke-width="7" opacity="0"/>
  <circle cx="50" cy="50" r="19" fill="#94a3b8"/>
  <circle cx="50" cy="50" r="19" fill="none" stroke="#64748b" stroke-width="2"/>
  <circle cx="50" cy="50" r="6" fill="#334155"/>
  <g fill="#334155">
    <circle cx="50" cy="38" r="2.4"/><circle cx="61" cy="44" r="2.4"/><circle cx="61" cy="56" r="2.4"/><circle cx="50" cy="62" r="2.4"/><circle cx="39" cy="56" r="2.4"/><circle cx="39" cy="44" r="2.4"/>
  </g>
  <path d="M14 22 l-4 -6 M10 32 h-7 M86 22 l4 -6 M90 32 h7" stroke="#ef4444" stroke-width="3" stroke-linecap="round" opacity="0"/>
  <path d="M16 18 q-4 4 -5 9 M84 18 q4 4 5 9" stroke="#ef4444" stroke-width="3.5" stroke-linecap="round" fill="none"/>
</svg>
