<svg xmlns="http://www.w3.org/2000/svg" viewBox="0 0 100 100">
  <defs><linearGradient id="tre_bg" x1="0" y1="0" x2="0" y2="1"><stop offset="0" stop-color="#bae6fd"/><stop offset="1" stop-color="#e0f2fe"/></linearGradient>
  <linearGradient id="tre_cos" x1="0" y1="0" x2="0" y2="1"><stop offset="0" stop-color="#60a5fa"/><stop offset="1" stop-color="#1d4ed8"/></linearGradient></defs>
  <rect width="100" height="100" rx="16" fill="url(#tre_bg)"/>
  <path d="M6 86 h88 M6 92 h88" stroke="#475569" stroke-width="2.5"/>
  <path d="M14 86 v6 M30 86 v6 M46 86 v6 M62 86 v6 M78 86 v6" stroke="#92400e" stroke-width="3.5"/>
  <path d="M14 30 q0 -10 10 -10 h28 q24 0 34 20 l4 8 q2 6 -4 6 h-72 z" fill="url(#tre_cos)"/>
  <path d="M14 30 q0 -10 10 -10 h16 l-2 34 h-24 z" fill="#3b82f6"/>
  <rect x="20" y="26" width="12" height="12" rx="2" fill="#bae6fd" stroke="#1e3a8a" stroke-width="1.3"/>
  <rect x="40" y="26" width="12" height="12" rx="2" fill="#7dd3fc" stroke="#1e3a8a" stroke-width="1.3"/>
  <path d="M60 28 q10 2 14 12 h-16 v-12 z" fill="#bae6fd"/>
  <rect x="10" y="54" width="80" height="14" rx="4" fill="#1e3a8a"/>
  <circle cx="26" cy="74" r="9" fill="#1e293b"/>
  <circle cx="26" cy="74" r="3.6" fill="#94a3b8"/>
  <circle cx="58" cy="74" r="9" fill="#1e293b"/>
  <circle cx="58" cy="74" r="3.6" fill="#94a3b8"/>
  <circle cx="78" cy="74" r="7" fill="#1e293b"/>
  <circle cx="78" cy="74" r="2.8" fill="#94a3b8"/>
  <circle cx="86" cy="50" r="3" fill="#fde047"/>
  <path d="M22 14 q-2 -5 2 -8 M30 14 q-2 -5 2 -8" stroke="#cbd5e1" stroke-width="2.2" stroke-linecap="round" fill="none" opacity="0"/>
</svg>
