<svg xmlns="http://www.w3.org/2000/svg" viewBox="0 0 100 100">
  <defs><linearGradient id="cse_bg" x1="0" y1="0" x2="1" y2="1"><stop offset="0" stop-color="#f8fafc"/><stop offset="1" stop-color="#e2e8f0"/></linearGradient></defs>
  <rect width="100" height="100" rx="16" fill="url(#cse_bg)"/>
  <path d="M30 12 q-8 0 -8 10 l2 40 q0 6 6 6 h20 q4 0 4 -4 l-2 -44 q0 -8 -8 -8 z" fill="#475569" opacity=".35"/>
  <path d="M24 10 L74 64" stroke="#334155" stroke-width="12" stroke-linecap="round"/>
  <path d="M24 10 L74 64" stroke="#64748b" stroke-width="7" stroke-linecap="round"/>
  <path d="M16 64 h58" stroke="#334155" stroke-width="12" stroke-linecap="round"/>
  <path d="M16 64 h58" stroke="#64748b" stroke-width="7" stroke-linecap="round"/>
  <g transform="rotate(8 76 66)">
    <rect x="68" y="54" width="18" height="22" rx="4" fill="#dc2626"/>
    <rect x="71" y="58" width="12" height="8" rx="2" fill="#f8fafc"/>
    <rect x="73" y="76" width="8" height="10" fill="#94a3b8"/>
  </g>
  <path d="M30 22 l8 8 M44 38 l8 8" stroke="#94a3b8" stroke-width="1.6" opacity=".7"/>
</svg>
