<svg xmlns="http://www.w3.org/2000/svg" viewBox="0 0 100 100">
  <defs><linearGradient id="cam2_bg" x1="0" y1="0" x2="0" y2="1"><stop offset="0" stop-color="#bae6fd"/><stop offset="1" stop-color="#e0f2fe"/></linearGradient></defs>
  <rect width="100" height="100" rx="16" fill="url(#cam2_bg)"/>
  <ellipse cx="50" cy="82" rx="40" ry="4" fill="#0f172a" opacity=".1"/>
  <rect x="8" y="30" width="56" height="38" rx="3" fill="#0d9488"/>
  <rect x="8" y="30" width="56" height="12" rx="3" fill="#14b8a6"/>
  <path d="M12 36 h12 M30 36 h12 M48 36 h12" stroke="#5eead4" stroke-width="2" stroke-linecap="round" opacity="0"/>
  <path d="M64 42 h14 q4 0 6 4 l6 10 q2 4 2 8 v4 q0 4 -4 4 h-24 z" fill="#fbbf24"/>
  <path d="M68 46 h9 q3 0 4 3 l4 8 h-17 z" fill="#7dd3fc"/>
  <circle cx="26" cy="72" r="9" fill="#1e293b"/>
  <circle cx="26" cy="72" r="4" fill="#94a3b8"/>
  <circle cx="48" cy="72" r="9" fill="#1e293b"/>
  <circle cx="48" cy="72" r="4" fill="#94a3b8"/>
  <circle cx="76" cy="72" r="9" fill="#1e293b"/>
  <circle cx="76" cy="72" r="4" fill="#94a3b8"/>
  <rect x="86" y="58" width="5" height="5" rx="2" fill="#fde047"/>
</svg>
