<svg xmlns="http://www.w3.org/2000/svg" viewBox="0 0 100 100">
  <defs><linearGradient id="bic2_bg" x1="0" y1="0" x2="0" y2="1"><stop offset="0" stop-color="#f0fdf4"/><stop offset="1" stop-color="#dcfce7"/></linearGradient></defs>
  <rect width="100" height="100" rx="16" fill="url(#bic2_bg)"/>
  <ellipse cx="50" cy="84" rx="38" ry="4" fill="#0f172a" opacity=".1"/>
  <circle cx="26" cy="64" r="17" fill="none" stroke="#1e293b" stroke-width="4"/>
  <circle cx="26" cy="64" r="3" fill="#1e293b"/>
  <path d="M26 47 v34 M9 64 h34 M14 52 l24 24 M14 76 l24 -24" stroke="#94a3b8" stroke-width="1.2"/>
  <circle cx="74" cy="64" r="17" fill="none" stroke="#1e293b" stroke-width="4"/>
  <circle cx="74" cy="64" r="3" fill="#1e293b"/>
  <path d="M74 47 v34 M57 64 h34 M62 52 l24 24 M62 76 l24 -24" stroke="#94a3b8" stroke-width="1.2"/>
  <path d="M26 64 L40 38 h22 l12 26" fill="none" stroke="#16a34a" stroke-width="4.5" stroke-linejoin="round"/>
  <path d="M50 64 L40 38 M50 64 L62 38" fill="none" stroke="#16a34a" stroke-width="4.5" stroke-linejoin="round"/>
  <circle cx="50" cy="64" r="5" fill="#475569"/>
  <path d="M50 64 l8 8" stroke="#1e293b" stroke-width="3" stroke-linecap="round"/>
  <rect x="55" y="71" width="8" height="4" rx="2" fill="#1e293b"/>
  <path d="M36 34 h10" stroke="#1e293b" stroke-width="4" stroke-linecap="round"/>
  <path d="M62 38 q-2 -6 4 -8 h6" stroke="#1e293b" stroke-width="3.5" stroke-linecap="round" fill="none"/>
  <rect x="40" y="46" width="14" height="6" rx="3" fill="#fbbf24" transform="rotate(8 47 49)"/>
</svg>
