<svg xmlns="http://www.w3.org/2000/svg" viewBox="0 0 100 100">
  <defs><linearGradient id="sei_bg" x1="0" y1="0" x2="1" y2="1"><stop offset="0" stop-color="#f8fafc"/><stop offset="1" stop-color="#e2e8f0"/></linearGradient>
  <linearGradient id="sei_cos" x1="0" y1="0" x2="0" y2="1"><stop offset="0" stop-color="#475569"/><stop offset="1" stop-color="#1e293b"/></linearGradient></defs>
  <rect width="100" height="100" rx="16" fill="url(#sei_bg)"/>
  <ellipse cx="50" cy="90" rx="26" ry="3.5" fill="#0f172a" opacity=".08"/>
  <path d="M36 14 q-8 0 -8 10 l2 34 q0 6 6 6 h18 q4 0 4 -4 l-2 -38 q0 -8 -8 -8 z" fill="url(#sei_cos)"/>
  <path d="M34 20 q-2 0 -2 4 l2 30 q0 3 3 3 h14 l-2 -33 q0 -4 -4 -4 z" fill="#64748b"/>
  <path d="M36 26 h14 M36 34 h15 M37 42 h14" stroke="#334155" stroke-width="2" stroke-linecap="round"/>
  <path d="M28 62 q-6 2 -6 10 q0 10 10 10 h26 q8 0 8 -8 q0 -8 -8 -8 l-26 -2 q-2 -1 -4 -2" fill="url(#sei_cos)"/>
  <path d="M26 68 q-2 2 -2 5 q0 7 8 7 h24 q5 0 5 -5 q0 -5 -5 -5 z" fill="#64748b"/>
  <rect x="40" y="82" width="6" height="8" fill="#334155"/>
  <rect x="62" y="82" width="6" height="8" fill="#1e293b"/>
</svg>
