<svg xmlns="http://www.w3.org/2000/svg" viewBox="0 0 100 100">
  <defs><linearGradient id="gas_bg" x1="0" y1="0" x2="0" y2="1"><stop offset="0" stop-color="#bae6fd"/><stop offset="1" stop-color="#e0f2fe"/></linearGradient>
  <linearGradient id="gas_cos" x1="0" y1="0" x2="0" y2="1"><stop offset="0" stop-color="#f87171"/><stop offset="1" stop-color="#b91c1c"/></linearGradient></defs>
  <rect width="100" height="100" rx="16" fill="url(#gas_bg)"/>
  <ellipse cx="50" cy="90" rx="30" ry="3.5" fill="#0f172a" opacity=".1"/>
  <rect x="24" y="22" width="36" height="66" rx="4" fill="url(#gas_cos)"/>
  <rect x="24" y="22" width="36" height="10" rx="4" fill="#ef4444"/>
  <rect x="30" y="32" width="24" height="18" rx="2" fill="#e0f2fe"/>
  <path d="M34 38 h16 M34 43 h10" stroke="#0369a1" stroke-width="2" stroke-linecap="round"/>
  <rect x="36" y="58" width="12" height="22" rx="2" fill="#7f1d1d"/>
  <path d="M60 36 h6 q4 0 4 4 v26 q0 6 6 6 q6 0 6 -6 V42 l-6 -10" stroke="#475569" stroke-width="4" fill="none" stroke-linecap="round" stroke-linejoin="round"/>
  <path d="M76 26 l8 8 v6 h-8 z" fill="#475569" opacity="0"/>
  <rect x="20" y="86" width="44" height="5" rx="2" fill="#94a3b8"/>
</svg>
