<svg xmlns="http://www.w3.org/2000/svg" viewBox="0 0 100 100">
  <defs><linearGradient id="hel_bg" x1="0" y1="0" x2="0" y2="1"><stop offset="0" stop-color="#7dd3fc"/><stop offset="1" stop-color="#bae6fd"/></linearGradient>
  <linearGradient id="hel_cos" x1="0" y1="0" x2="0" y2="1"><stop offset="0" stop-color="#fbbf24"/><stop offset="1" stop-color="#d97706"/></linearGradient></defs>
  <rect width="100" height="100" rx="16" fill="url(#hel_bg)"/>
  <path d="M16 24 h56" stroke="#334155" stroke-width="3.5" stroke-linecap="round"/>
  <rect x="42" y="24" width="5" height="10" fill="#475569"/>
  <path d="M24 52 q0 -18 22 -18 q22 0 22 16 q0 14 -20 14 h-8 q-16 0 -16 -12" fill="url(#hel_cos)"/>
  <path d="M28 44 q4 -8 14 -9 l0 12 q-8 2 -14 -3" fill="#7dd3fc"/>
  <path d="M66 50 q14 -4 20 -12 l3 4 q-6 10 -19 12 q-3 -1 -4 -4" fill="#d97706"/>
  <path d="M84 36 v8" stroke="#334155" stroke-width="3" stroke-linecap="round"/>
  <path d="M30 70 v6 M58 70 v6" stroke="#475569" stroke-width="3"/>
  <path d="M22 78 h44" stroke="#334155" stroke-width="3.5" stroke-linecap="round"/>
  <circle cx="44" cy="48" r="2" fill="#92400e" opacity="0"/>
  <path d="M14 88 q4 -3 8 0 M78 86 q4 -3 8 0" stroke="#f8fafc" stroke-width="2.2" stroke-linecap="round" fill="none" opacity=".8"/>
</svg>
