<svg xmlns="http://www.w3.org/2000/svg" viewBox="0 0 100 100">
  <defs><linearGradient id="tax_bg" x1="0" y1="0" x2="0" y2="1"><stop offset="0" stop-color="#bae6fd"/><stop offset="1" stop-color="#e0f2fe"/></linearGradient>
  <linearGradient id="tax_cos" x1="0" y1="0" x2="0" y2="1"><stop offset="0" stop-color="#fde047"/><stop offset="1" stop-color="#eab308"/></linearGradient></defs>
  <rect width="100" height="100" rx="16" fill="url(#tax_bg)"/>
  <ellipse cx="50" cy="82" rx="38" ry="4" fill="#0f172a" opacity=".1"/>
  <rect x="42" y="22" width="16" height="8" rx="2" fill="#1e293b"/>
  <path d="M26 50 l6 -14 q2 -4 7 -4 h22 q5 0 7 4 l6 14" fill="url(#tax_cos)"/>
  <path d="M34 38 q1 -3 5 -3 h9 v15 h-18 z" fill="#7dd3fc"/>
  <path d="M52 35 h9 q4 0 5 3 l4 12 h-18 z" fill="#bae6fd"/>
  <path d="M10 58 q0 -8 8 -8 h64 q8 0 8 8 v12 q0 6 -6 6 H16 q-6 0 -6 -6 z" fill="url(#tax_cos)"/>
  <g fill="#1e293b">
    <rect x="38" y="54" width="6" height="6"/><rect x="50" y="54" width="6" height="6"/><rect x="44" y="60" width="6" height="6"/><rect x="56" y="60" width="6" height="6"/>
  </g>
  <circle cx="28" cy="74" r="9" fill="#1e293b"/>
  <circle cx="28" cy="74" r="4" fill="#94a3b8"/>
  <circle cx="72" cy="74" r="9" fill="#1e293b"/>
  <circle cx="72" cy="74" r="4" fill="#94a3b8"/>
  <rect x="10" y="60" width="8" height="6" rx="3" fill="#f8fafc"/>
  <rect x="82" y="60" width="8" height="6" rx="3" fill="#fbbf24"/>
</svg>
