<svg xmlns="http://www.w3.org/2000/svg" viewBox="0 0 100 100">
  <defs><linearGradient id="mat_bg" x1="0" y1="0" x2="1" y2="1"><stop offset="0" stop-color="#f0f9ff"/><stop offset="1" stop-color="#e0f2fe"/></linearGradient></defs>
  <rect width="100" height="100" rx="16" fill="url(#mat_bg)"/>
  <ellipse cx="50" cy="76" rx="32" ry="4" fill="#0f172a" opacity=".08"/>
  <rect x="12" y="34" width="76" height="30" rx="5" fill="#f8fafc" stroke="#1e293b" stroke-width="2.5"/>
  <rect x="12" y="34" width="13" height="30" rx="5" fill="#1e40af"/>
  <rect x="20" y="34" width="5" height="30" fill="#1e40af"/>
  <g fill="#fde047">
    <circle cx="18.5" cy="41" r="1.2"/><circle cx="15.5" cy="44" r="1.2"/><circle cx="21.5" cy="44" r="1.2"/>
    <circle cx="15.5" cy="50" r="1.2"/><circle cx="21.5" cy="50" r="1.2"/><circle cx="18.5" cy="53" r="1.2"/>
  </g>
  <g fill="#1e293b">
    <rect x="32" y="42" width="5" height="14" rx="1.5"/>
    <rect x="41" y="42" width="5" height="14" rx="1.5"/>
    <rect x="50" y="42" width="5" height="14" rx="1.5"/>
    <rect x="59" y="42" width="5" height="14" rx="1.5"/>
  </g>
  <rect x="68" y="42" width="6" height="5" rx="1.5" fill="#475569"/>
  <rect x="68" y="51" width="6" height="5" rx="1.5" fill="#475569"/>
  <rect x="78" y="42" width="6" height="14" rx="1.5" fill="#475569"/>
</svg>
