<svg xmlns="http://www.w3.org/2000/svg" viewBox="0 0 100 100">
  <defs><linearGradient id="rod_bg" x1="0" y1="0" x2="1" y2="1"><stop offset="0" stop-color="#f8fafc"/><stop offset="1" stop-color="#e2e8f0"/></linearGradient>
  <radialGradient id="rod_pneu" cx=".4" cy=".35" r="1"><stop offset="0" stop-color="#44403c"/><stop offset="1" stop-color="#1c1917"/></radialGradient></defs>
  <rect width="100" height="100" rx="16" fill="url(#rod_bg)"/>
  <ellipse cx="50" cy="88" rx="30" ry="4" fill="#0f172a" opacity=".1"/>
  <circle cx="50" cy="50" r="36" fill="url(#rod_pneu)"/>
  <g stroke="#57534e" stroke-width="3" stroke-linecap="round">
    <path d="M50 16 l0 6 M74 26 l-4 4 M84 50 l-6 0 M74 74 l-4 -4 M50 84 v-6 M26 74 l4 -4 M16 50 h6 M26 26 l4 4"/>
  </g>
  <circle cx="50" cy="50" r="20" fill="#cbd5e1"/>
  <circle cx="50" cy="50" r="20" fill="none" stroke="#94a3b8" stroke-width="2"/>
  <g fill="#64748b">
    <circle cx="50" cy="36" r="3"/><circle cx="63" cy="44" r="3"/><circle cx="63" cy="58" r="3"/><circle cx="50" cy="64" r="3"/><circle cx="37" cy="58" r="3"/><circle cx="37" cy="44" r="3"/>
  </g>
  <circle cx="50" cy="50" r="7" fill="#475569"/>
  <path d="M34 30 q6 -6 14 -7" stroke="#78716c" stroke-width="2.5" stroke-linecap="round" fill="none" opacity=".7"/>
</svg>
