<svg xmlns="http://www.w3.org/2000/svg" viewBox="0 0 100 100">
  <defs><linearGradient id="csc_bg" x1="0" y1="0" x2="1" y2="1"><stop offset="0" stop-color="#fef2f2"/><stop offset="1" stop-color="#fee2e2"/></linearGradient>
  <radialGradient id="csc_cos" cx=".4" cy=".3" r="1"><stop offset="0" stop-color="#f87171"/><stop offset="1" stop-color="#b91c1c"/></radialGradient></defs>
  <rect width="100" height="100" rx="16" fill="url(#csc_bg)"/>
  <ellipse cx="50" cy="84" rx="30" ry="4" fill="#0f172a" opacity=".08"/>
  <path d="M18 56 q0 -32 32 -32 q32 0 32 32 l-2 6 q-30 8 -60 0 z" fill="url(#csc_cos)"/>
  <path d="M20 52 q2 -25 24 -27 q-12 8 -14 26 q-5 3 -10 1" fill="#fca5a5" opacity=".6"/>
  <path d="M34 26 q4 16 2 34 M50 24 v38 M66 26 q-4 16 -2 34" stroke="#7f1d1d" stroke-width="2" fill="none" opacity=".5"/>
  <path d="M16 58 q34 10 68 0 q2 6 -4 8 q-30 8 -60 0 q-6 -2 -4 -8" fill="#f8fafc"/>
  <path d="M28 68 q-2 8 4 12 q4 2 6 -2" stroke="#475569" stroke-width="3" fill="none" stroke-linecap="round"/>
  <circle cx="40" cy="80" r="3" fill="#475569"/>
</svg>
