<svg xmlns="http://www.w3.org/2000/svg" viewBox="0 0 100 100">
  <defs><linearGradient id="cnd_bg" x1="0" y1="0" x2="0" y2="1"><stop offset="0" stop-color="#bae6fd"/><stop offset="1" stop-color="#e0f2fe"/></linearGradient></defs>
  <rect width="100" height="100" rx="16" fill="url(#cnd_bg)"/>
  <path d="M14 30 q0 -12 12 -12 h48 q12 0 12 12 v40 H14 z" fill="#475569"/>
  <rect x="20" y="24" width="60" height="32" rx="4" fill="#7dd3fc"/>
  <path d="M22 26 l20 0 l-18 18 z" fill="#bae6fd" opacity=".7"/>
  <circle cx="50" cy="46" r="11" fill="#fcd9b8"/>
  <path d="M39 44 q0 -10 11 -10 q11 0 11 10 q-4.5 -5 -11 -5 q-6.5 0 -11 5" fill="#57534e"/>
  <circle cx="46.5" cy="46" r="1.5" fill="#1e293b"/><circle cx="53.5" cy="46" r="1.5" fill="#1e293b"/>
  <path d="M47 51 q3 2 6 0" stroke="#92400e" stroke-width="1.4" stroke-linecap="round" fill="none"/>
  <path d="M36 70 q0 -12 14 -12 q14 0 14 12 z" fill="#16a34a"/>
  <path d="M30 70 a14 14 0 0 1 12 -8 M70 70 a14 14 0 0 0 -12 -8" stroke="#1e293b" stroke-width="4" fill="none" stroke-linecap="round"/>
  <circle cx="32" cy="71" r="4" fill="#fcd9b8"/>
  <circle cx="68" cy="71" r="4" fill="#fcd9b8"/>
  <path d="M28 58 a22 22 0 0 1 44 0" fill="none" stroke="#1e293b" stroke-width="0"/>
  <path d="M10 80 h80" stroke="#334155" stroke-width="5"/>
  <path d="M18 80 h10 M42 80 h10 M66 80 h10" stroke="#fde047" stroke-width="2.5"/>
</svg>
