<svg xmlns="http://www.w3.org/2000/svg" viewBox="0 0 100 100">
  <defs><linearGradient id="mot_bg" x1="0" y1="0" x2="0" y2="1"><stop offset="0" stop-color="#bae6fd"/><stop offset="1" stop-color="#e0f2fe"/></linearGradient></defs>
  <rect width="100" height="100" rx="16" fill="url(#mot_bg)"/>
  <ellipse cx="50" cy="84" rx="38" ry="4" fill="#0f172a" opacity=".1"/>
  <circle cx="24" cy="66" r="15" fill="none" stroke="#1e293b" stroke-width="5"/>
  <circle cx="24" cy="66" r="4" fill="#1e293b"/>
  <circle cx="76" cy="66" r="15" fill="none" stroke="#1e293b" stroke-width="5"/>
  <circle cx="76" cy="66" r="4" fill="#1e293b"/>
  <path d="M24 66 L40 48 h22 L76 66" fill="none" stroke="#475569" stroke-width="5" stroke-linejoin="round"/>
  <path d="M34 48 q8 -10 24 -6 q10 2 12 10 l-14 4 q-12 -10 -22 -8" fill="#dc2626"/>
  <path d="M36 46 q8 -8 20 -5 l-2 7 q-10 -4 -18 -2" fill="#ef4444"/>
  <path d="M62 42 q4 -10 12 -12 l3 5 q-7 2 -9 9 q-3 1 -6 -2" fill="#1e293b"/>
  <path d="M72 28 h10" stroke="#1e293b" stroke-width="4" stroke-linecap="round"/>
  <path d="M30 44 q-6 -2 -8 -8 l6 -2 q2 5 6 6 q-1 3 -4 4" fill="#475569"/>
  <circle cx="20" cy="32" r="4" fill="#fde047"/>
  <path d="M46 56 h12" stroke="#7f1d1d" stroke-width="0"/>
</svg>
