<svg xmlns="http://www.w3.org/2000/svg" viewBox="0 0 100 100">
  <defs><linearGradient id="far2_bg" x1="0" y1="0" x2="0" y2="1"><stop offset="0" stop-color="#1e1b4b"/><stop offset="1" stop-color="#312e81"/></linearGradient></defs>
  <rect width="100" height="100" rx="16" fill="url(#far2_bg)"/>
  <ellipse cx="50" cy="84" rx="30" ry="4" fill="#0f172a" opacity=".3"/>
  <path d="M28 50 q-16 -6 -24 -2 v8 q8 -4 24 0 z" fill="#fde047" opacity=".5"/>
  <path d="M72 50 q16 -6 24 -2 v8 q-8 -4 -24 0 z" fill="#fde047" opacity=".5"/>
  <path d="M30 38 q0 -16 20 -16 q20 0 20 16 q0 18 -14 22 h-12 q-14 -4 -14 -22" fill="#e2e8f0"/>
  <ellipse cx="50" cy="48" rx="14" ry="10" fill="#fde047"/>
  <ellipse cx="46" cy="45" rx="4" ry="3" fill="#fef9c3"/>
  <path d="M34 58 h32 l4 24 H30 z" fill="#dc2626"/>
  <path d="M32 70 h36" stroke="#f8fafc" stroke-width="6"/>
  <path d="M30 82 h40" stroke="#b91c1c" stroke-width="0"/>
  <rect x="26" y="82" width="48" height="6" rx="3" fill="#991b1b"/>
  <circle cx="20" cy="20" r="1.2" fill="#e0e7ff"/><circle cx="82" cy="24" r="1.4" fill="#e0e7ff"/>
</svg>
