<svg xmlns="http://www.w3.org/2000/svg" viewBox="0 0 100 100">
  <defs><linearGradient id="avo_bg" x1="0" y1="0" x2="0" y2="1"><stop offset="0" stop-color="#7dd3fc"/><stop offset="1" stop-color="#bae6fd"/></linearGradient></defs>
  <rect width="100" height="100" rx="16" fill="url(#avo_bg)"/>
  <path d="M14 22 q4 -3 8 0 M72 80 q4 -3 8 0 M22 76 q3 -2.4 6 0" stroke="#f8fafc" stroke-width="2.5" stroke-linecap="round" fill="none" opacity=".9"/>
  <g transform="rotate(-15 50 50)">
    <path d="M14 50 q0 -7 10 -7 h44 q16 0 22 7 q-6 7 -22 7 H24 q-10 0 -10 -7" fill="#f8fafc"/>
    <path d="M14 50 q0 -7 10 -7 h20 l-4 14 H24 q-10 0 -10 -7" fill="#e2e8f0"/>
    <path d="M70 43 q10 0 16 5 l-22 0 z" fill="#cbd5e1" opacity="0"/>
    <path d="M20 43 q-8 -12 -4 -22 q8 2 12 12 l4 10 z" fill="#dc2626"/>
    <path d="M44 43 L30 26 h10 l14 17 z" fill="#ef4444"/>
    <path d="M44 57 L30 74 h10 l14 -17 z" fill="#dc2626"/>
    <circle cx="74" cy="48" r="2.6" fill="#0ea5e9"/>
    <circle cx="64" cy="48" r="2.6" fill="#0ea5e9"/>
    <circle cx="54" cy="48" r="2.6" fill="#0ea5e9"/>
    <path d="M86 50 q2 -4 6 -4 l-2 8 q-3 0 -4 -4" fill="#ef4444" opacity="0"/>
  </g>
</svg>
