<svg xmlns="http://www.w3.org/2000/svg" viewBox="0 0 100 100">
  <defs><linearGradient id="cmb_bg" x1="0" y1="0" x2="1" y2="1"><stop offset="0" stop-color="#fdf2f8"/><stop offset="1" stop-color="#fce7f3"/></linearGradient></defs>
  <rect width="100" height="100" rx="16" fill="url(#cmb_bg)"/>
  <ellipse cx="44" cy="90" rx="26" ry="3.5" fill="#0f172a" opacity=".08"/>
  <circle cx="40" cy="28" r="11" fill="#fcd9b8"/>
  <path d="M29 26 q0 -10 11 -10 q11 0 11 10 q-4.5 -5 -11 -5 q-6.5 0 -11 5" fill="#1c1917"/>
  <circle cx="36.5" cy="28" r="1.5" fill="#1e293b"/><circle cx="43.5" cy="28" r="1.5" fill="#1e293b"/>
  <path d="M37 33.5 q3 2 6 0" stroke="#92400e" stroke-width="1.4" stroke-linecap="round" fill="none"/>
  <path d="M26 90 q-2 -29 14 -29 q16 0 14 29 z" fill="#1e293b"/>
  <path d="M40 61 l-5 8 l5 8 l5 -8 z" fill="#f8fafc"/>
  <polygon points="40,63 37,67 40,74 43,67" fill="#dc2626"/>
  <path d="M26 90 q-2 -29 14 -29 q3 0 5 1.5 l-5 8.5 z" fill="#334155"/>
  <path d="M52 64 q8 -2 10 -10" stroke="#fcd9b8" stroke-width="5" stroke-linecap="round" fill="none"/>
  <ellipse cx="66" cy="48" rx="14" ry="4" fill="#e2e8f0"/>
  <ellipse cx="66" cy="46.5" rx="14" ry="4" fill="#f8fafc"/>
  <path d="M60 42 q0 -7 6 -7 q6 0 6 7 l-1 3 q-5 2 -10 0 z" fill="#cbd5e1"/>
  <path d="M62 36 q4 -3 8 0" stroke="#94a3b8" stroke-width="0"/>
  <ellipse cx="66" cy="38" rx="4.5" ry="2" fill="#94a3b8"/>
  <path d="M28 64 q-7 4 -7 12" stroke="#fcd9b8" stroke-width="5" stroke-linecap="round" fill="none"/>
  <path d="M18 76 q-2 6 2 8" stroke="#f8fafc" stroke-width="4" stroke-linecap="round" fill="none"/>
</svg>
