<svg xmlns="http://www.w3.org/2000/svg" viewBox="0 0 100 100">
  <defs><linearGradient id="txs_bg" x1="0" y1="0" x2="1" y2="1"><stop offset="0" stop-color="#fefce8"/><stop offset="1" stop-color="#fef3c7"/></linearGradient></defs>
  <rect width="100" height="100" rx="16" fill="url(#txs_bg)"/>
  <ellipse cx="50" cy="88" rx="32" ry="3.5" fill="#0f172a" opacity=".08"/>
  <circle cx="42" cy="26" r="11" fill="#fcd9b8"/>
  <path d="M30 23 q1 -9 12 -9 q11 0 12 9 l1 3 h-26 z" fill="#1e293b"/>
  <rect x="36" y="12" width="12" height="5" rx="2" fill="#fde047"/>
  <circle cx="38.5" cy="28" r="1.5" fill="#1e293b"/><circle cx="45.5" cy="28" r="1.5" fill="#1e293b"/>
  <path d="M39 33.5 q3 2 6 0" stroke="#92400e" stroke-width="1.4" stroke-linecap="round" fill="none"/>
  <path d="M28 70 q-2 -26 14 -26 q16 0 14 26 z" fill="#eab308"/>
  <path d="M28 70 q-2 -26 14 -26 q5 0 8 3.5 l-8 10 z" fill="#facc15"/>
  <path d="M54 50 q8 4 8 12" stroke="#fcd9b8" stroke-width="5" stroke-linecap="round" fill="none"/>
  <path d="M30 50 q-8 4 -8 12" stroke="#fcd9b8" stroke-width="5" stroke-linecap="round" fill="none"/>
  <circle cx="42" cy="74" r="14" fill="none" stroke="#475569" stroke-width="5"/>
  <path d="M42 74 v-11 M42 74 l-9 6 M42 74 l9 6" stroke="#475569" stroke-width="4" stroke-linecap="round"/>
  <circle cx="42" cy="74" r="4" fill="#334155"/>
  <g transform="translate(64 56)">
    <rect x="0" y="0" width="26" height="12" rx="3" fill="#fde047" stroke="#ca8a04" stroke-width="1.4"/>
    <g fill="#1e293b">
      <rect x="4" y="3" width="4" height="6"/><rect x="11" y="3" width="4" height="6"/><rect x="18" y="3" width="4" height="6"/>
    </g>
  </g>
</svg>
