<svg xmlns="http://www.w3.org/2000/svg" viewBox="0 0 100 100">
  <defs><linearGradient id="dep_bg" x1="0" y1="0" x2="1" y2="1"><stop offset="0" stop-color="#fff7ed"/><stop offset="1" stop-color="#ffedd5"/></linearGradient></defs>
  <rect width="100" height="100" rx="16" fill="url(#dep_bg)"/>
  <ellipse cx="46" cy="90" rx="28" ry="3.5" fill="#0f172a" opacity=".08"/>
  <circle cx="42" cy="26" r="11" fill="#fcd9b8"/>
  <path d="M31 24 q0 -10 11 -10 q11 0 11 10 q-4.5 -5 -11 -5 q-6.5 0 -11 5" fill="#44403c"/>
  <circle cx="38.5" cy="26" r="1.5" fill="#1e293b"/><circle cx="45.5" cy="26" r="1.5" fill="#1e293b"/>
  <path d="M39 31.5 q3 2 6 0" stroke="#92400e" stroke-width="1.4" stroke-linecap="round" fill="none"/>
  <path d="M28 70 q-2 -28 14 -28 q16 0 14 28 z" fill="#0ea5e9"/>
  <path d="M28 70 q-2 -28 14 -28 q5 0 8 3.5 l-8 10 z" fill="#38bdf8"/>
  <path d="M34 46 h16 v10 h-16 z" fill="#f8fafc" opacity="0"/>
  <rect x="36" y="48" width="13" height="9" rx="1.5" fill="#f8fafc"/>
  <path d="M38 50 h9 M38 53 h6" stroke="#94a3b8" stroke-width="1.2" stroke-linecap="round"/>
  <rect x="30" y="68" width="25" height="20" rx="2" fill="#92400e"/>
  <rect x="32" y="70" width="21" height="16" rx="1.5" fill="#b45309"/>
  <path d="M54 62 q9 0 12 8" stroke="#fcd9b8" stroke-width="5" stroke-linecap="round" fill="none"/>
  <g transform="rotate(-6 72 64)">
    <path d="M64 56 q0 -5 5 -5 h6 q5 0 5 5 l-1.5 14 h-13 z" fill="#ec4899"/>
    <path d="M67 51 q0 -5 5 -5 q5 0 5 5" fill="none" stroke="#be185d" stroke-width="2.2"/>
  </g>
</svg>
