<svg xmlns="http://www.w3.org/2000/svg" viewBox="0 0 100 100">
  <defs><linearGradient id="pzl_bg" x1="0" y1="0" x2="1" y2="1"><stop offset="0" stop-color="#faf5ff"/><stop offset="1" stop-color="#f3e8ff"/></linearGradient>
  <linearGradient id="pzl_manec" x1="0" y1="0" x2="0" y2="1"><stop offset="0" stop-color="#fbbf24"/><stop offset="1" stop-color="#d97706"/></linearGradient></defs>
  <rect width="100" height="100" rx="16" fill="url(#pzl_bg)"/>
  <ellipse cx="50" cy="84" rx="26" ry="4" fill="#0f172a" opacity=".08"/>
  <g transform="rotate(40 50 50)">
    <rect x="44" y="10" width="13" height="40" rx="4" fill="url(#pzl_manec)"/>
    <rect x="44" y="10" width="5" height="40" rx="2.5" fill="#fde047"/>
    <rect x="42" y="50" width="17" height="9" rx="2" fill="#94a3b8"/>
    <path d="M43 59 q7 -2 15 0 q1 12 -4 20 q-1 3 -3.5 3 q-2.5 0 -3.5 -3 q-5 -8 -4 -20" fill="#92400e"/>
    <path d="M46 60 q0 12 3 20" stroke="#78350f" stroke-width="1.6" fill="none"/>
    <path d="M50.5 79 q-1.5 4 0 7 q4 1 5 -3 q.5 -3 -2 -5 q-2 0 -3 1" fill="#a855f7"/>
  </g>
  <circle cx="24" cy="70" r="3.5" fill="#a855f7" opacity=".7"/>
  <circle cx="30" cy="78" r="2.4" fill="#c084fc" opacity=".7"/>
</svg>
