<svg xmlns="http://www.w3.org/2000/svg" viewBox="0 0 100 100">
  <defs><linearGradient id="inf2_bg" x1="0" y1="0" x2="1" y2="1"><stop offset="0" stop-color="#f0fdfa"/><stop offset="1" stop-color="#ccfbf1"/></linearGradient></defs>
  <rect width="100" height="100" rx="16" fill="url(#inf2_bg)"/>
  <ellipse cx="46" cy="90" rx="26" ry="3.5" fill="#0f172a" opacity=".08"/>
  <circle cx="44" cy="28" r="11" fill="#fcd9b8"/>
  <path d="M33 26 q0 -10 11 -10 q11 0 11 10 q-4.5 -5 -11 -5 q-6.5 0 -11 5" fill="#92400e"/>
  <circle cx="40.5" cy="28" r="1.5" fill="#1e293b"/><circle cx="47.5" cy="28" r="1.5" fill="#1e293b"/>
  <path d="M41 33.5 q3 2 6 0" stroke="#92400e" stroke-width="1.4" stroke-linecap="round" fill="none"/>
  <path d="M30 90 q-2 -29 14 -29 q16 0 14 29 z" fill="#14b8a6"/>
  <path d="M30 90 q-2 -29 14 -29 q5 0 8 3.5 l-8 10 z" fill="#2dd4bf"/>
  <path d="M44 68 v10 M39 73 h10" stroke="#f8fafc" stroke-width="3.5" stroke-linecap="round"/>
  <path d="M56 64 q9 1 11 9" stroke="#fcd9b8" stroke-width="5" stroke-linecap="round" fill="none"/>
  <g transform="rotate(35 72 66)">
    <rect x="68" y="48" width="9" height="26" rx="3" fill="#e0f2fe" stroke="#7dd3fc" stroke-width="1.4"/>
    <rect x="68" y="62" width="9" height="12" rx="3" fill="#0ea5e9" opacity=".6"/>
    <rect x="70.5" y="42" width="4" height="7" fill="#94a3b8"/>
    <path d="M70 48 h5" stroke="#64748b" stroke-width="2"/>
  </g>
</svg>
