<svg xmlns="http://www.w3.org/2000/svg" viewBox="0 0 100 100">
  <defs><linearGradient id="ser2_bg" x1="0" y1="0" x2="1" y2="1"><stop offset="0" stop-color="#fff7ed"/><stop offset="1" stop-color="#ffedd5"/></linearGradient>
  <linearGradient id="ser2_fulla" x1="0" y1="0" x2="0" y2="1"><stop offset="0" stop-color="#e2e8f0"/><stop offset="1" stop-color="#94a3b8"/></linearGradient></defs>
  <rect width="100" height="100" rx="16" fill="url(#ser2_bg)"/>
  <ellipse cx="50" cy="80" rx="32" ry="4" fill="#0f172a" opacity=".08"/>
  <g transform="rotate(-15 50 50)">
    <path d="M14 44 h58 v12 l-5 -4 l-5 5 l-5 -5 l-5 5 l-5 -5 l-5 5 l-5 -5 l-5 5 l-5 -5 l-5 5 l-5 -5 l-3 2 z" fill="url(#ser2_fulla)"/>
    <path d="M16 46 h54" stroke="#f1f5f9" stroke-width="2" opacity=".8"/>
    <path d="M72 40 q14 2 12 14 q-2 10 -14 8 l-4 -2 q2 -12 2 -18 q2 -2 4 -2" fill="#b45309"/>
    <path d="M72 44 q9 1 8 9 q-1 6 -8 6" fill="none" stroke="#92400e" stroke-width="3"/>
    <circle cx="70" cy="48" r="1.6" fill="#78350f"/>
  </g>
</svg>
