<svg xmlns="http://www.w3.org/2000/svg" viewBox="0 0 100 100">
  <defs><linearGradient id="pes2_bg" x1="0" y1="0" x2="0" y2="1"><stop offset="0" stop-color="#bae6fd"/><stop offset="1" stop-color="#e0f2fe"/></linearGradient></defs>
  <rect width="100" height="100" rx="16" fill="url(#pes2_bg)"/>
  <path d="M0 76 q12 -5 25 0 t25 0 t25 0 t25 0 v8 q0 16 -16 16 H16 Q0 100 0 84 z" fill="#0ea5e9"/>
  <circle cx="34" cy="28" r="10" fill="#fcd9b8"/>
  <path d="M22 26 q1 -9 12 -9 q11 0 12 9 l2 2 h-28 z" fill="#fbbf24"/>
  <ellipse cx="34" cy="28" rx="16" ry="3" fill="#f59e0b"/>
  <circle cx="31" cy="30" r="1.4" fill="#1e293b"/><circle cx="37.5" cy="30" r="1.4" fill="#1e293b"/>
  <path d="M32 35 q2.5 1.8 5 0" stroke="#92400e" stroke-width="1.3" stroke-linecap="round" fill="none"/>
  <path d="M22 76 q-2 -26 12 -26 q14 0 12 26 z" fill="#16a34a"/>
  <path d="M22 76 q-2 -26 12 -26 q4 0 7 3 l-7 9 z" fill="#22c55e"/>
  <path d="M44 54 L70 30" stroke="#78350f" stroke-width="2.5" stroke-linecap="round"/>
  <path d="M70 30 q2 14 -2 26" stroke="#94a3b8" stroke-width="1.4" fill="none"/>
  <path d="M46 52 q6 4 7 10" stroke="#fcd9b8" stroke-width="4.5" stroke-linecap="round" fill="none"/>
  <g transform="rotate(-10 68 62)">
    <ellipse cx="68" cy="62" rx="8" ry="4" fill="#fb923c"/>
    <polygon points="75,62 81,59 81,65" fill="#f97316"/>
    <circle cx="64" cy="61" r="1" fill="#1e293b"/>
  </g>
  <path d="M16 84 q4 -3 8 0 M70 86 q4 -3 8 0" stroke="#bae6fd" stroke-width="2.2" stroke-linecap="round" fill="none"/>
</svg>
