<svg xmlns="http://www.w3.org/2000/svg" viewBox="0 0 100 100">
  <defs><linearGradient id="pin2_bg" x1="0" y1="0" x2="1" y2="1"><stop offset="0" stop-color="#faf5ff"/><stop offset="1" stop-color="#f3e8ff"/></linearGradient></defs>
  <rect width="100" height="100" rx="16" fill="url(#pin2_bg)"/>
  <ellipse cx="44" cy="90" rx="26" ry="3.5" fill="#0f172a" opacity=".08"/>
  <rect x="62" y="14" width="28" height="56" fill="#a855f7"/>
  <rect x="62" y="14" width="28" height="32" fill="#c084fc"/>
  <path d="M62 46 h28" stroke="#f3e8ff" stroke-width="0"/>
  <circle cx="42" cy="26" r="11" fill="#fcd9b8"/>
  <path d="M29 24 q1 -11 13 -11 q12 0 13 11 l1 2 h-28 z" fill="#f8fafc"/>
  <circle cx="38.5" cy="27" r="1.5" fill="#1e293b"/><circle cx="45.5" cy="27" r="1.5" fill="#1e293b"/>
  <path d="M39 32.5 q3 2 6 0" stroke="#92400e" stroke-width="1.4" stroke-linecap="round" fill="none"/>
  <path d="M28 90 q-2 -29 14 -29 q16 0 14 29 z" fill="#f8fafc" stroke="#e2e8f0" stroke-width="1.4"/>
  <circle cx="36" cy="72" r="2.4" fill="#a855f7"/>
  <circle cx="46" cy="80" r="2" fill="#f97316"/>
  <circle cx="42" cy="66" r="1.8" fill="#0ea5e9"/>
  <path d="M54 64 q8 -4 9 -12" stroke="#fcd9b8" stroke-width="5" stroke-linecap="round" fill="none"/>
  <g transform="rotate(30 66 44)">
    <rect x="62" y="40" width="7" height="16" rx="2" fill="#92400e"/>
    <rect x="60.5" y="32" width="10" height="9" rx="2" fill="#cbd5e1"/>
    <path d="M60.5 34 h10" stroke="#a855f7" stroke-width="3"/>
  </g>
</svg>
