<svg xmlns="http://www.w3.org/2000/svg" viewBox="0 0 100 100">
  <defs><linearGradient id="mart_bg" x1="0" y1="0" x2="1" y2="1"><stop offset="0" stop-color="#fff7ed"/><stop offset="1" stop-color="#ffedd5"/></linearGradient>
  <linearGradient id="mart_cap" x1="0" y1="0" x2="0" y2="1"><stop offset="0" stop-color="#94a3b8"/><stop offset="1" stop-color="#475569"/></linearGradient></defs>
  <rect width="100" height="100" rx="16" fill="url(#mart_bg)"/>
  <ellipse cx="50" cy="84" rx="28" ry="4" fill="#0f172a" opacity=".08"/>
  <g transform="rotate(40 50 40)">
    <rect x="26" y="26" width="48" height="17" rx="5" fill="url(#mart_cap)"/>
    <rect x="26" y="26" width="48" height="6" rx="3" fill="#cbd5e1"/>
    <path d="M26 32 q-8 1 -10 8 q6 4 12 0 z" fill="#64748b"/>
    <rect x="44" y="42" width="12" height="46" rx="4" fill="#d97706"/>
    <rect x="44" y="42" width="5" height="46" rx="2.5" fill="#f59e0b"/>
    <rect x="44" y="78" width="12" height="10" rx="4" fill="#92400e"/>
  </g>
  <path d="M20 70 l4 4 M16 78 l3 3" stroke="#d6a35c" stroke-width="2" stroke-linecap="round" opacity="0"/>
</svg>
