<svg xmlns="http://www.w3.org/2000/svg" viewBox="0 0 100 100">
  <defs><linearGradient id="jrd_bg" x1="0" y1="0" x2="0" y2="1"><stop offset="0" stop-color="#bae6fd"/><stop offset="1" stop-color="#e0f2fe"/></linearGradient></defs>
  <rect width="100" height="100" rx="16" fill="url(#jrd_bg)"/>
  <path d="M0 80 q25 -6 50 0 t50 0 v4 q0 16 -16 16 H16 Q0 100 0 84 z" fill="#86efac"/>
  <circle cx="42" cy="30" r="11" fill="#fcd9b8"/>
  <path d="M28 27 q1 -10 14 -10 q13 0 14 10 l1 3 h-30 z" fill="#d6a35c"/>
  <ellipse cx="42" cy="30" rx="17" ry="3.5" fill="#b45309"/>
  <circle cx="38.5" cy="32" r="1.5" fill="#1e293b"/><circle cx="45.5" cy="32" r="1.5" fill="#1e293b"/>
  <path d="M39 37.5 q3 2 6 0" stroke="#92400e" stroke-width="1.4" stroke-linecap="round" fill="none"/>
  <path d="M28 84 q-2 -28 14 -28 q16 0 14 28 z" fill="#16a34a"/>
  <path d="M28 84 q-2 -28 14 -28 q5 0 8 3.5 l-8 10 z" fill="#22c55e"/>
  <path d="M54 62 q8 2 10 9" stroke="#fcd9b8" stroke-width="5" stroke-linecap="round" fill="none"/>
  <path d="M66 72 v10" stroke="#92400e" stroke-width="3.5" stroke-linecap="round"/>
  <path d="M60 84 q6 -4 12 0 l-1 4 h-10 z" fill="#94a3b8"/>
  <path d="M30 62 q-8 2 -10 9" stroke="#fcd9b8" stroke-width="5" stroke-linecap="round" fill="none"/>
  <g transform="translate(14 60)">
    <path d="M0 12 q3 -6 8 -6 q-2 7 -8 6" fill="#16a34a"/>
    <circle cx="4" cy="2" r="3.6" fill="#f472b6"/>
    <circle cx="4" cy="2" r="1.4" fill="#fde047"/>
  </g>
  <circle cx="82" cy="74" r="3" fill="#fde047"/>
  <circle cx="88" cy="80" r="2.6" fill="#f472b6"/>
</svg>
