<svg xmlns="http://www.w3.org/2000/svg" viewBox="0 0 100 100">
  <defs><linearGradient id="ctr_bg" x1="0" y1="0" x2="1" y2="1"><stop offset="0" stop-color="#fefce8"/><stop offset="1" stop-color="#fef3c7"/></linearGradient></defs>
  <rect width="100" height="100" rx="16" fill="url(#ctr_bg)"/>
  <ellipse cx="44" cy="90" rx="26" ry="3.5" fill="#0f172a" opacity=".08"/>
  <circle cx="42" cy="28" r="11" fill="#fcd9b8"/>
  <path d="M30 25 q1 -9 12 -9 q11 0 12 9 l1 3 h-26 z" fill="#fbbf24"/>
  <rect x="28" y="26" width="28" height="4" rx="2" fill="#d97706"/>
  <circle cx="38.5" cy="30" r="1.5" fill="#1e293b"/><circle cx="45.5" cy="30" r="1.5" fill="#1e293b"/>
  <path d="M39 35.5 q3 2 6 0" stroke="#92400e" stroke-width="1.4" stroke-linecap="round" fill="none"/>
  <path d="M28 90 q-2 -28 14 -28 q16 0 14 28 z" fill="#eab308"/>
  <path d="M28 90 q-2 -28 14 -28 q5 0 8 3.5 l-8 10 z" fill="#facc15"/>
  <path d="M30 64 q12 14 24 0 l2 6 q-14 12 -28 0 z" fill="#92400e" opacity="0"/>
  <path d="M26 70 q-3 -8 4 -10 l24 -2 q6 0 6 6 l-2 14 h-8 l1 -10 l-18 2 q-5 0 -7 0" fill="#92400e" opacity="0"/>
  <path d="M54 64 q9 0 12 8" stroke="#fcd9b8" stroke-width="5" stroke-linecap="round" fill="none"/>
  <g transform="rotate(-8 74 68)">
    <rect x="62" y="58" width="26" height="18" rx="2.5" fill="#f8fafc" stroke="#cbd5e1" stroke-width="1.4"/>
    <path d="M62 58 l13 9 l13 -9" fill="none" stroke="#dc2626" stroke-width="2"/>
    <rect x="80" y="61" width="5" height="4" fill="#0ea5e9"/>
  </g>
  <rect x="24" y="60" width="14" height="18" rx="3" fill="#78350f"/>
  <path d="M24 66 h14" stroke="#451a03" stroke-width="2"/>
</svg>
