<svg xmlns="http://www.w3.org/2000/svg" viewBox="0 0 100 100">
  <defs><linearGradient id="bom_bg" x1="0" y1="0" x2="1" y2="1"><stop offset="0" stop-color="#fef2f2"/><stop offset="1" stop-color="#fee2e2"/></linearGradient></defs>
  <rect width="100" height="100" rx="16" fill="url(#bom_bg)"/>
  <ellipse cx="44" cy="90" rx="26" ry="3.5" fill="#0f172a" opacity=".08"/>
  <path d="M76 22 q6 8 2 16 q-3 6 -10 6 q-7 0 -10 -6 q-3 -7 2 -13 q1 5 5 6 q-2 -8 4 -14 q1 6 5 8 q1 -2 2 -3" fill="#f97316"/>
  <path d="M70 36 q-3 3 -1 7 q4 1 6 -3 q1 -3 -2 -5 q-2 0 -3 1" fill="#fde047"/>
  <circle cx="42" cy="32" r="11" fill="#fcd9b8"/>
  <path d="M28 28 q2 -12 14 -12 q12 0 14 12 l1 3 h-30 z" fill="#dc2626"/>
  <path d="M40 16 h4 v8 h-4 z" fill="#b91c1c"/>
  <rect x="26" y="29" width="32" height="4.5" rx="2.2" fill="#fbbf24"/>
  <circle cx="38.5" cy="34" r="1.5" fill="#1e293b"/><circle cx="45.5" cy="34" r="1.5" fill="#1e293b"/>
  <path d="M39 39.5 q3 2 6 0" stroke="#92400e" stroke-width="1.4" stroke-linecap="round" fill="none"/>
  <path d="M28 90 q-2 -30 14 -30 q16 0 14 30 z" fill="#1e293b"/>
  <path d="M28 76 h28 M34 62 v28 M50 62 v28" stroke="#fbbf24" stroke-width="2.5"/>
  <path d="M54 66 q10 0 14 8" stroke="#fcd9b8" stroke-width="5" stroke-linecap="round" fill="none"/>
  <path d="M66 76 q6 2 8 -4" stroke="#dc2626" stroke-width="4" stroke-linecap="round" fill="none"/>
  <path d="M76 68 q4 -2 4 -6" stroke="#38bdf8" stroke-width="3" stroke-linecap="round" fill="none"/>
  <circle cx="82" cy="58" r="2" fill="#7dd3fc"/><circle cx="86" cy="52" r="1.6" fill="#7dd3fc"/>
</svg>
