<svg xmlns="http://www.w3.org/2000/svg" viewBox="0 0 100 100">
  <defs><linearGradient id="prq_bg" x1="0" y1="0" x2="1" y2="1"><stop offset="0" stop-color="#fdf2f8"/><stop offset="1" stop-color="#fce7f3"/></linearGradient></defs>
  <rect width="100" height="100" rx="16" fill="url(#prq_bg)"/>
  <ellipse cx="44" cy="90" rx="26" ry="3.5" fill="#0f172a" opacity=".08"/>
  <circle cx="40" cy="28" r="11" fill="#fcd9b8"/>
  <path d="M29 26 q0 -10 11 -10 q11 0 11 10 q-4.5 -5 -11 -5 q-6.5 0 -11 5" fill="#7c3aed"/>
  <circle cx="36.5" cy="28" r="1.5" fill="#1e293b"/><circle cx="43.5" cy="28" r="1.5" fill="#1e293b"/>
  <path d="M37 33.5 q3 2 6 0" stroke="#92400e" stroke-width="1.4" stroke-linecap="round" fill="none"/>
  <path d="M26 90 q-2 -28 14 -28 q16 0 14 28 z" fill="#a855f7"/>
  <path d="M26 90 q-2 -28 14 -28 q5 0 8 3.5 l-8 10 z" fill="#c084fc"/>
  <path d="M52 66 q9 -2 11 -9" stroke="#fcd9b8" stroke-width="5" stroke-linecap="round" fill="none"/>
  <g transform="rotate(-30 68 48)">
    <polygon points="62,30 67,48 64,49" fill="#94a3b8"/>
    <polygon points="74,30 69,48 72,49" fill="#cbd5e1"/>
    <circle cx="68" cy="50" r="2.2" fill="#fbbf24"/>
    <path d="M64 51 q-5 2 -4 7 q1 4 6 3 q4 -1 3 -5 q-1 -3 -5 -5" fill="none" stroke="#475569" stroke-width="2.2"/>
    <path d="M72 51 q5 2 4 7 q-1 4 -6 3 q-4 -1 -3 -5 q1 -3 5 -5" fill="none" stroke="#64748b" stroke-width="2.2"/>
  </g>
  <path d="M80 70 q4 -2 4 -7 M84 76 q4 -3 5 -8" stroke="#7c3aed" stroke-width="2" stroke-linecap="round" fill="none" opacity=".5"/>
</svg>
