<svg xmlns="http://www.w3.org/2000/svg" viewBox="0 0 100 100">
  <defs><linearGradient id="mec_bg" x1="0" y1="0" x2="1" y2="1"><stop offset="0" stop-color="#f8fafc"/><stop offset="1" stop-color="#e2e8f0"/></linearGradient></defs>
  <rect width="100" height="100" rx="16" fill="url(#mec_bg)"/>
  <ellipse cx="46" cy="90" rx="26" ry="3.5" fill="#0f172a" opacity=".08"/>
  <circle cx="42" cy="28" r="11" fill="#fcd9b8"/>
  <path d="M30 25 q1 -9 12 -9 q11 0 12 9 l1 3 h-26 z" fill="#1e40af"/>
  <circle cx="38.5" cy="29" r="1.5" fill="#1e293b"/><circle cx="45.5" cy="29" r="1.5" fill="#1e293b"/>
  <path d="M39 34.5 q3 2 6 0" stroke="#92400e" stroke-width="1.4" stroke-linecap="round" fill="none"/>
  <path d="M40 36 q-1 2 2 3" stroke="#78716c" stroke-width="0"/>
  <ellipse cx="36" cy="33" rx="2" ry="1.4" fill="#57534e" opacity=".6"/>
  <path d="M28 90 q-2 -29 14 -29 q16 0 14 29 z" fill="#1d4ed8"/>
  <path d="M28 90 q-2 -29 14 -29 q5 0 8 3.5 l-8 10 z" fill="#3b82f6"/>
  <rect x="36" y="70" width="12" height="10" rx="2" fill="#1e3a8a"/>
  <path d="M54 65 q9 1 12 8" stroke="#fcd9b8" stroke-width="5" stroke-linecap="round" fill="none"/>
  <g transform="rotate(40 72 70)">
    <path d="M64 56 a8 8 0 0 1 11 -3 l-5 6 l2 5 l6 -1 a8 8 0 0 1 -9 7 l-3 14 q-1 4 -4 3 q-3 -1 -2 -5 l4 -13 a8 8 0 0 1 0 -13" fill="#64748b"/>
  </g>
</svg>
