<svg xmlns="http://www.w3.org/2000/svg" viewBox="0 0 100 100">
  <defs><linearGradient id="crs_bg" x1="0" y1="0" x2="1" y2="1"><stop offset="0" stop-color="#fef2f2"/><stop offset="1" stop-color="#fee2e2"/></linearGradient></defs>
  <rect width="100" height="100" rx="16" fill="url(#crs_bg)"/>
  <ellipse cx="46" cy="90" rx="28" ry="3.5" fill="#0f172a" opacity=".08"/>
  <circle cx="40" cy="26" r="11" fill="#fcd9b8"/>
  <path d="M29 24 q0 -10 11 -10 q11 0 11 10 q-4.5 -5 -11 -5 q-6.5 0 -11 5" fill="#44403c"/>
  <circle cx="36.5" cy="26" r="1.5" fill="#1e293b"/><circle cx="43.5" cy="26" r="1.5" fill="#1e293b"/>
  <path d="M37 31.5 q3 2 6 0" stroke="#92400e" stroke-width="1.4" stroke-linecap="round" fill="none"/>
  <path d="M26 78 q-2 -27 14 -27 q16 0 14 27 z" fill="#f8fafc" stroke="#e2e8f0" stroke-width="1.4"/>
  <path d="M32 55 h16 l-2 23 h-12 z" fill="#dc2626" opacity="0"/>
  <path d="M33 56 q7 -3 14 0 l-1 22 h-12 z" fill="#b91c1c"/>
  <path d="M34 60 h12 M34 68 h12" stroke="#7f1d1d" stroke-width="1.6" opacity=".5"/>
  <path d="M52 60 q9 0 12 7" stroke="#fcd9b8" stroke-width="5" stroke-linecap="round" fill="none"/>
  <g transform="rotate(15 72 62)">
    <path d="M62 54 q14 -4 22 2 q-2 8 -12 8 q-8 0 -10 -10" fill="#cbd5e1"/>
    <rect x="58" y="50" width="6" height="9" rx="2.5" fill="#78350f" transform="rotate(-25 61 54)"/>
  </g>
  <rect x="10" y="78" width="80" height="9" rx="2" fill="#e7c08a"/>
  <ellipse cx="70" cy="78" rx="9" ry="3.4" fill="#f87171"/>
  <ellipse cx="84" cy="78" rx="5" ry="2.6" fill="#ef4444"/>
</svg>
