<svg xmlns="http://www.w3.org/2000/svg" viewBox="0 0 140 45">
  <!-- cos del regle (groc transparent/clar) -->
  <rect x="5" y="10" width="130" height="26" rx="3" fill="#fef3c7" stroke="#d97706" stroke-width="1.5"/>
  <!-- marques de mil·límetres (curtes) -->
  <line x1="20" y1="28" x2="20" y2="36" stroke="#92400e" stroke-width="1"/>
  <line x1="25" y1="28" x2="25" y2="33" stroke="#92400e" stroke-width="1"/>
  <line x1="30" y1="28" x2="30" y2="36" stroke="#92400e" stroke-width="1"/>
  <line x1="35" y1="28" x2="35" y2="33" stroke="#92400e" stroke-width="1"/>
  <line x1="40" y1="28" x2="40" y2="36" stroke="#92400e" stroke-width="1"/>
  <line x1="45" y1="28" x2="45" y2="33" stroke="#92400e" stroke-width="1"/>
  <line x1="50" y1="28" x2="50" y2="36" stroke="#92400e" stroke-width="1"/>
  <line x1="55" y1="28" x2="55" y2="33" stroke="#92400e" stroke-width="1"/>
  <line x1="60" y1="28" x2="60" y2="36" stroke="#92400e" stroke-width="1"/>
  <line x1="65" y1="28" x2="65" y2="33" stroke="#92400e" stroke-width="1"/>
  <line x1="70" y1="28" x2="70" y2="36" stroke="#92400e" stroke-width="1"/>
  <line x1="75" y1="28" x2="75" y2="33" stroke="#92400e" stroke-width="1"/>
  <line x1="80" y1="28" x2="80" y2="36" stroke="#92400e" stroke-width="1"/>
  <line x1="85" y1="28" x2="85" y2="33" stroke="#92400e" stroke-width="1"/>
  <line x1="90" y1="28" x2="90" y2="36" stroke="#92400e" stroke-width="1"/>
  <line x1="95" y1="28" x2="95" y2="33" stroke="#92400e" stroke-width="1"/>
  <line x1="100" y1="28" x2="100" y2="36" stroke="#92400e" stroke-width="1"/>
  <line x1="105" y1="28" x2="105" y2="33" stroke="#92400e" stroke-width="1"/>
  <line x1="110" y1="28" x2="110" y2="36" stroke="#92400e" stroke-width="1"/>
  <line x1="115" y1="28" x2="115" y2="33" stroke="#92400e" stroke-width="1"/>
  <line x1="120" y1="28" x2="120" y2="36" stroke="#92400e" stroke-width="1"/>
  <!-- números -->
  <text x="17" y="24" font-family="Arial" font-size="8" fill="#92400e">1</text>
  <text x="47" y="24" font-family="Arial" font-size="8" fill="#92400e">3</text>
  <text x="97" y="24" font-family="Arial" font-size="8" fill="#92400e">6</text>
</svg>
