<svg xmlns="http://www.w3.org/2000/svg" viewBox="0 0 100 100">
  <circle cx="50" cy="22" r="15" fill="#f5cba7" stroke="#c0835a" stroke-width="2"/>
  <path d="M35 18 Q35 8 50 8 Q65 8 65 18 Q58 13 50 13 Q42 13 35 18Z" fill="#8b4513"/>
  <circle cx="44" cy="21" r="2" fill="#333"/>
  <circle cx="56" cy="21" r="2" fill="#333"/>
  <path d="M44 29 Q50 33 56 29" fill="none" stroke="#c0835a" stroke-width="1.5" stroke-linecap="round"/>
  <path d="M30 38 Q22 40 20 52 L18 88 L66 88 L64 52 Q62 40 54 38Z" fill="#d97706"/>
  <rect x="38" y="36" width="18" height="8" rx="3" fill="#f5cba7"/>
  <rect x="62" y="46" width="30" height="10" rx="3" fill="#a0714a"/>
  <rect x="62" y="38" width="20" height="10" rx="2" fill="#d4a96a"/>
  <line x1="68" y1="38" x2="68" y2="56" stroke="#8b5e3c" stroke-width="1"/>
  <line x1="74" y1="38" x2="74" y2="56" stroke="#8b5e3c" stroke-width="1"/>
  <line x1="80" y1="38" x2="80" y2="56" stroke="#8b5e3c" stroke-width="1"/>
</svg>