<svg xmlns="http://www.w3.org/2000/svg" viewBox="0 0 100 100">
  <circle cx="42" cy="26" r="16" fill="#f5cba7" stroke="#c0835a" stroke-width="2"/>
  <path d="M26 22 Q26 10 42 10 Q58 10 58 22 Q52 16 42 16 Q32 16 26 22Z" fill="#4b3621"/>
  <circle cx="36" cy="25" r="2.5" fill="#333"/>
  <circle cx="48" cy="25" r="2.5" fill="#333"/>
  <path d="M36 33 Q42 37 48 33" fill="none" stroke="#c0835a" stroke-width="1.5" stroke-linecap="round"/>
  <path d="M22 42 Q14 42 10 54 L8 90 L76 90 L74 54 Q70 42 62 42Z" fill="#3b82f6"/>
  <rect x="34" y="40" width="16" height="7" rx="2" fill="#f5cba7"/>
  <circle cx="76" cy="50" r="12" fill="#fde68a" stroke="#f59e0b" stroke-width="2"/>
  <circle cx="72" cy="48" r="2" fill="#333"/>
  <circle cx="80" cy="48" r="2" fill="#333"/>
  <path d="M72 55 Q76 58 80 55" fill="none" stroke="#f59e0b" stroke-width="1.5" stroke-linecap="round"/>
  <line x1="62" y1="55" x2="64" y2="65" stroke="#3b82f6" stroke-width="3" stroke-linecap="round"/>
</svg>