<svg xmlns="http://www.w3.org/2000/svg" viewBox="0 0 100 100">
  <rect x="12" y="60" width="76" height="30" rx="4" fill="#8b5e3c"/>
  <rect x="18" y="56" width="64" height="8" rx="2" fill="#a0714a"/>
  <rect x="25" y="63" width="20" height="18" rx="2" fill="#f5f5f4"/>
  <rect x="55" y="63" width="25" height="12" rx="2" fill="#dbeafe"/>
  <circle cx="50" cy="34" r="16" fill="#f5cba7" stroke="#c0835a" stroke-width="2"/>
  <path d="M34 30 Q34 18 50 18 Q66 18 66 30 Q60 24 50 24 Q40 24 34 30Z" fill="#4b3621"/>
  <circle cx="44" cy="32" r="2.5" fill="#333"/>
  <circle cx="56" cy="32" r="2.5" fill="#333"/>
  <path d="M44 40 Q50 45 56 40" fill="none" stroke="#c0835a" stroke-width="1.5" stroke-linecap="round"/>
  <rect x="30" y="50" width="40" height="14" rx="3" fill="#1e40af"/>
  <rect x="42" y="50" width="16" height="6" rx="2" fill="white"/>
  <path d="M50 48 L47 55 L50 58 L53 55Z" fill="#dc2626"/>
</svg>