<svg xmlns="http://www.w3.org/2000/svg" viewBox="0 0 100 100">
  <rect x="8" y="5" width="84" height="90" rx="4" fill="#d4a96a" stroke="#8b5e3c" stroke-width="2"/>
  <rect x="12" y="28" width="76" height="5" fill="#8b5e3c"/>
  <rect x="12" y="55" width="76" height="5" fill="#8b5e3c"/>
  <rect x="12" y="82" width="76" height="5" fill="#8b5e3c"/>
  <rect x="15" y="10" width="12" height="18" rx="2" fill="#ef4444"/>
  <rect x="29" y="10" width="10" height="18" rx="2" fill="#3b82f6"/>
  <rect x="41" y="10" width="14" height="18" rx="2" fill="#22c55e"/>
  <rect x="57" y="10" width="11" height="18" rx="2" fill="#f59e0b"/>
  <rect x="70" y="10" width="14" height="18" rx="2" fill="#8b5cf6"/>
  <rect x="15" y="33" width="10" height="22" rx="2" fill="#22c55e"/>
  <rect x="27" y="33" width="13" height="22" rx="2" fill="#ef4444"/>
  <rect x="42" y="33" width="11" height="22" rx="2" fill="#f59e0b"/>
  <rect x="55" y="33" width="14" height="22" rx="2" fill="#3b82f6"/>
  <rect x="71" y="33" width="12" height="22" rx="2" fill="#8b5cf6"/>
  <rect x="15" y="60" width="14" height="22" rx="2" fill="#f59e0b"/>
  <rect x="31" y="60" width="10" height="22" rx="2" fill="#22c55e"/>
  <rect x="43" y="60" width="12" height="22" rx="2" fill="#8b5cf6"/>
</svg>