<svg xmlns="http://www.w3.org/2000/svg" viewBox="0 0 100 100">
  <rect x="0" y="0" width="100" height="100" fill="#e2e8f0"/>
  <rect x="30" y="0" width="40" height="100" fill="#6b7280"/>
  <line x1="50" y1="0" x2="50" y2="100" stroke="white" stroke-width="2" stroke-dasharray="8,6"/>
  <rect x="0" y="15" width="28" height="55" rx="3" fill="#6366f1"/>
  <rect x="72" y="25" width="28" height="50" rx="3" fill="#8b5cf6"/>
  <rect x="3" y="18" width="8" height="7" rx="1" fill="#bfdbfe"/>
  <rect x="13" y="18" width="8" height="7" rx="1" fill="#bfdbfe"/>
  <rect x="3" y="28" width="8" height="7" rx="1" fill="#bfdbfe"/>
  <rect x="13" y="28" width="8" height="7" rx="1" fill="#bfdbfe"/>
  <rect x="75" y="28" width="8" height="7" rx="1" fill="#bfdbfe"/>
  <rect x="85" y="28" width="8" height="7" rx="1" fill="#bfdbfe"/>
  <rect x="75" y="38" width="8" height="7" rx="1" fill="#bfdbfe"/>
  <rect x="85" y="38" width="8" height="7" rx="1" fill="#bfdbfe"/>
</svg>