<svg xmlns="http://www.w3.org/2000/svg" viewBox="0 0 100 100">
  <circle cx="50" cy="26" r="18" fill="#f5cba7" stroke="#c0835a" stroke-width="2"/>
  <path d="M32 22 Q32 8 50 8 Q68 8 68 22 Q60 15 50 15 Q40 15 32 22Z" fill="#374151"/>
  <circle cx="43" cy="25" r="2.5" fill="#333"/>
  <circle cx="57" cy="25" r="2.5" fill="#333"/>
  <path d="M43 33 Q50 37 57 33" fill="none" stroke="#c0835a" stroke-width="1.5" stroke-linecap="round"/>
  <path d="M28 44 Q20 44 16 56 L12 90 L88 90 L84 56 Q80 44 72 44 Z" fill="#1f2937"/>
  <rect x="42" y="42" width="16" height="8" rx="2" fill="#f5cba7"/>
  <path d="M42 44 L38 52 L50 48 L62 52 L58 44Z" fill="white"/>
  <path d="M50 48 L47 60 L50 68 L53 60Z" fill="#374151"/>
  <circle cx="20" cy="75" r="6" fill="none" stroke="#f59e0b" stroke-width="3"/>
  <circle cx="20" cy="75" r="2.5" fill="#f59e0b"/>
</svg>