<svg xmlns="http://www.w3.org/2000/svg" viewBox="0 0 100 100">
  <circle cx="50" cy="22" r="15" fill="#f5cba7" stroke="#c0835a" stroke-width="2"/>
  <path d="M35 18 Q35 8 50 8 Q65 8 65 18 Q58 13 50 13 Q42 13 35 18Z" fill="#374151"/>
  <circle cx="44" cy="21" r="2" fill="#333"/>
  <circle cx="56" cy="21" r="2" fill="#333"/>
  <path d="M44 29 Q50 33 56 29" fill="none" stroke="#c0835a" stroke-width="1.5" stroke-linecap="round"/>
  <path d="M30 38 Q22 40 20 52 L18 88 L82 88 L80 52 Q78 40 70 38Z" fill="#1f2937"/>
  <rect x="38" y="36" width="24" height="8" rx="3" fill="#f5cba7"/>
  <circle cx="66" cy="58" r="10" fill="#f59e0b"/>
  <circle cx="66" cy="58" r="5" fill="#d97706"/>
  <line x1="66" y1="63" x2="66" y2="78" stroke="#f59e0b" stroke-width="4" stroke-linecap="round"/>
  <line x1="62" y1="71" x2="66" y2="71" stroke="#f59e0b" stroke-width="4" stroke-linecap="round"/>
  <line x1="62" y1="75" x2="66" y2="75" stroke="#f59e0b" stroke-width="4" stroke-linecap="round"/>
</svg>