<svg xmlns="http://www.w3.org/2000/svg" viewBox="0 0 100 100">
  <rect x="8" y="35" width="84" height="58" rx="3" fill="#e2e8f0" stroke="#94a3b8" stroke-width="2"/>
  <rect x="8" y="20" width="84" height="18" rx="3" fill="#6366f1"/>
  <rect x="30" y="8" width="40" height="16" rx="3" fill="#818cf8"/>
  <text x="50" y="32" font-family="Arial,sans-serif" font-size="9" font-weight="700" fill="white" text-anchor="middle">INSTITUT</text>
  <rect x="14" y="45" width="14" height="12" rx="2" fill="#bfdbfe"/>
  <rect x="34" y="45" width="14" height="12" rx="2" fill="#bfdbfe"/>
  <rect x="54" y="45" width="14" height="12" rx="2" fill="#bfdbfe"/>
  <rect x="74" y="45" width="14" height="12" rx="2" fill="#bfdbfe"/>
  <rect x="14" y="63" width="14" height="12" rx="2" fill="#bfdbfe"/>
  <rect x="34" y="63" width="14" height="12" rx="2" fill="#bfdbfe"/>
  <rect x="54" y="63" width="14" height="12" rx="2" fill="#bfdbfe"/>
  <rect x="74" y="63" width="14" height="12" rx="2" fill="#bfdbfe"/>
  <rect x="38" y="78" width="24" height="15" rx="2" fill="#d4a96a"/>
  <circle cx="50" cy="85" r="2" fill="#8b5e3c"/>
</svg>