<svg xmlns="http://www.w3.org/2000/svg" viewBox="0 0 100 100">
  <circle cx="50" cy="22" r="15" fill="#f5cba7" stroke="#c0835a" stroke-width="2"/>
  <path d="M35 18 Q35 8 50 8 Q65 8 65 18 Q58 13 50 13 Q42 13 35 18Z" fill="#374151"/>
  <circle cx="44" cy="21" r="2" fill="#333"/>
  <circle cx="56" cy="21" r="2" fill="#333"/>
  <path d="M44 29 Q50 33 56 29" fill="none" stroke="#c0835a" stroke-width="1.5" stroke-linecap="round"/>
  <path d="M30 38 Q22 40 20 52 L18 88 L82 88 L80 52 Q78 40 70 38Z" fill="#92400e"/>
  <rect x="38" y="36" width="24" height="8" rx="3" fill="#f5cba7"/>
  <rect x="62" y="46" width="24" height="12" rx="2" fill="#ef4444"/>
  <line x1="65" y1="46" x2="65" y2="58" stroke="#dc2626" stroke-width="1.5"/>
  <line x1="71" y1="46" x2="71" y2="58" stroke="#dc2626" stroke-width="1.5"/>
  <line x1="77" y1="46" x2="77" y2="58" stroke="#dc2626" stroke-width="1.5"/>
  <path d="M68 60 Q74 65 80 60 L80 55 L68 55Z" fill="#d97706"/>
  <line x1="74" y1="65" x2="80" y2="80" stroke="#d97706" stroke-width="4" stroke-linecap="round"/>
</svg>