<svg xmlns="http://www.w3.org/2000/svg" viewBox="0 0 100 100">
  <rect x="5" y="10" width="90" height="85" rx="4" fill="#f1f5f9"/>
  <rect x="5" y="55" width="90" height="40" rx="4" fill="#d4a96a"/>
  <rect x="5" y="50" width="90" height="10" rx="3" fill="#a0714a"/>
  <rect x="10" y="20" width="38" height="28" rx="3" fill="#94a3b8"/>
  <rect x="52" y="20" width="40" height="28" rx="3" fill="#bfdbfe"/>
  <circle cx="28" cy="38" r="7" fill="#374151" stroke="#1f2937" stroke-width="2"/>
  <circle cx="28" cy="38" r="4" fill="#ef4444" opacity="0.6"/>
  <rect x="55" y="22" width="34" height="24" rx="2" fill="#e0f2fe"/>
  <rect x="58" y="25" width="12" height="18" rx="2" fill="#93c5fd"/>
  <rect x="72" y="25" width="14" height="8" rx="1" fill="#60a5fa"/>
  <rect x="72" y="35" width="14" height="8" rx="1" fill="#60a5fa"/>
  <rect x="20" y="62" width="25" height="20" rx="2" fill="#f5f5f4"/>
  <rect x="50" y="62" width="40" height="20" rx="2" fill="#e7e5e4"/>
</svg>