<svg xmlns="http://www.w3.org/2000/svg" viewBox="0 0 100 100">
  <circle cx="50" cy="28" r="20" fill="#f5cba7" stroke="#c0835a" stroke-width="2"/>
  <path d="M30 20 Q30 8 50 8 Q70 8 70 20" fill="#8b4513"/>
  <path d="M30 20 Q26 40 26 55" stroke="#8b4513" stroke-width="6" stroke-linecap="round" fill="none"/>
  <path d="M70 20 Q74 40 74 55" stroke="#8b4513" stroke-width="6" stroke-linecap="round" fill="none"/>
  <circle cx="42" cy="27" r="3" fill="#333"/>
  <circle cx="58" cy="27" r="3" fill="#333"/>
  <path d="M42 36 Q50 40 58 36" fill="none" stroke="#c0835a" stroke-width="1.5" stroke-linecap="round"/>
  <path d="M28 50 Q20 52 18 64 L16 92 L84 92 L82 64 Q80 52 72 50Z" fill="#ec4899"/>
  <rect x="38" y="47" width="24" height="8" rx="3" fill="#f5cba7"/>
  <text x="50" y="98" font-family="Arial,sans-serif" font-size="7" fill="#1a1a1a" font-weight="700" text-anchor="middle">COSINA</text>
</svg>