<svg xmlns="http://www.w3.org/2000/svg" viewBox="0 0 100 100">
  <circle cx="40" cy="26" r="16" fill="#f5cba7" stroke="#c0835a" stroke-width="2"/>
  <path d="M24 18 Q24 6 40 6 Q56 6 56 18" fill="#8b4513"/>
  <path d="M24 18 Q20 35 20 55" stroke="#8b4513" stroke-width="6" stroke-linecap="round" fill="none"/>
  <path d="M56 18 Q60 35 60 55" stroke="#8b4513" stroke-width="6" stroke-linecap="round" fill="none"/>
  <circle cx="34" cy="25" r="2.5" fill="#333"/>
  <circle cx="46" cy="25" r="2.5" fill="#333"/>
  <path d="M34 33 Q40 37 46 33" fill="none" stroke="#c0835a" stroke-width="1.5" stroke-linecap="round"/>
  <path d="M20 42 Q12 46 10 58 L8 90 L72 90 L70 58 Q68 46 60 42Z" fill="#ec4899"/>
  <rect x="32" y="40" width="16" height="7" rx="2" fill="#f5cba7"/>
  <circle cx="76" cy="50" r="12" fill="#fde68a" stroke="#f59e0b" stroke-width="2"/>
  <circle cx="72" cy="48" r="2" fill="#333"/>
  <circle cx="80" cy="48" r="2" fill="#333"/>
  <path d="M72 55 Q76 58 80 55" fill="none" stroke="#f59e0b" stroke-width="1.5" stroke-linecap="round"/>
  <line x1="60" y1="55" x2="64" y2="62" stroke="#ec4899" stroke-width="3" stroke-linecap="round"/>
</svg>