<svg xmlns="http://www.w3.org/2000/svg" viewBox="0 0 100 100">
  <rect x="5" y="8" width="90" height="55" rx="4" fill="#1e3a8a"/>
  <rect x="8" y="11" width="84" height="49" rx="3" fill="#f0fdf4"/>
  <rect x="10" y="35" width="80" height="4" fill="#22c55e" opacity="0.5"/>
  <text x="50" y="30" font-family="Arial,sans-serif" font-size="10" fill="#1e3a8a" font-weight="700" text-anchor="middle">Bon dia!</text>
  <line x1="15" y1="44" x2="55" y2="44" stroke="#1e3a8a" stroke-width="2"/>
  <line x1="15" y1="50" x2="45" y2="50" stroke="#1e3a8a" stroke-width="2"/>
  <circle cx="72" cy="35" r="12" fill="#f5cba7" stroke="#c0835a" stroke-width="1.5"/>
  <path d="M60 32 Q60 22 72 22 Q84 22 84 32 Q78 27 72 27 Q66 27 60 32Z" fill="#4b3621"/>
  <circle cx="68" cy="34" r="2" fill="#333"/>
  <circle cx="76" cy="34" r="2" fill="#333"/>
  <path d="M68 40 Q72 43 76 40" fill="none" stroke="#c0835a" stroke-width="1.2" stroke-linecap="round"/>
  <path d="M58 48 Q52 50 50 58 L48 92 L96 92 L94 58 Q92 50 86 48Z" fill="#7c3aed"/>
  <rect x="60" y="46" width="26" height="7" rx="3" fill="#f5cba7"/>
  <line x1="76" y1="48" x2="10" y2="35" stroke="#94a3b8" stroke-width="1.5" stroke-dasharray="3,2"/>
</svg>