<svg xmlns="http://www.w3.org/2000/svg" viewBox="0 0 100 100">
  <!-- Open book left page -->
  <path d="M12 28 Q12 22 20 22 L50 26 L50 76 L20 80 Q12 80 12 74 Z" fill="#fefce8" stroke="#d97706" stroke-width="1.5"/>
  <!-- Open book right page -->
  <path d="M88 28 Q88 22 80 22 L50 26 L50 76 L80 80 Q88 80 88 74 Z" fill="#fefce8" stroke="#d97706" stroke-width="1.5"/>
  <!-- Book spine -->
  <line x1="50" y1="26" x2="50" y2="76" stroke="#d97706" stroke-width="2"/>
  <!-- Text lines left -->
  <line x1="18" y1="34" x2="44" y2="33" stroke="#9ca3af" stroke-width="1.5"/>
  <line x1="18" y1="40" x2="44" y2="39" stroke="#9ca3af" stroke-width="1.5"/>
  <line x1="18" y1="46" x2="44" y2="46" stroke="#9ca3af" stroke-width="1.5"/>
  <line x1="18" y1="52" x2="44" y2="52" stroke="#9ca3af" stroke-width="1.5"/>
  <line x1="18" y1="58" x2="40" y2="58" stroke="#9ca3af" stroke-width="1.5"/>
  <!-- Text lines right -->
  <line x1="56" y1="33" x2="82" y2="34" stroke="#9ca3af" stroke-width="1.5"/>
  <line x1="56" y1="39" x2="82" y2="40" stroke="#9ca3af" stroke-width="1.5"/>
  <line x1="56" y1="46" x2="82" y2="46" stroke="#9ca3af" stroke-width="1.5"/>
  <line x1="56" y1="52" x2="82" y2="52" stroke="#9ca3af" stroke-width="1.5"/>
  <line x1="56" y1="58" x2="78" y2="58" stroke="#9ca3af" stroke-width="1.5"/>
</svg>
