<svg xmlns="http://www.w3.org/2000/svg" viewBox="0 0 100 100">
  <!-- Projection screen frame -->
  <rect x="10" y="8" width="72" height="50" rx="2" fill="#555"/>
  <rect x="12" y="10" width="68" height="46" rx="1" fill="#f5f5f5"/>
  <!-- Screen mount pole -->
  <rect x="44" y="5" width="4" height="5" fill="#888"/>
  <!-- Projector body -->
  <rect x="74" y="52" width="18" height="11" rx="3" fill="#666"/>
  <rect x="76" y="54" width="14" height="7" rx="2" fill="#444"/>
  <!-- Projector lens -->
  <circle cx="76" cy="57" r="3" fill="#222"/>
  <circle cx="76" cy="57" r="1.5" fill="#88ccff"/>
  <!-- Projection beam (triangle) -->
  <polygon points="74,55 74,59 18,56 18,58" fill="rgba(255,255,180,0.5)"/>
  <polygon points="74,54 74,60 12,48 12,67" fill="rgba(255,255,180,0.3)"/>
  <!-- Light rays on screen -->
  <rect x="18" y="18" width="55" height="3" rx="1" fill="#e8e8e8"/>
  <rect x="18" y="26" width="45" height="3" rx="1" fill="#e8e8e8"/>
  <rect x="18" y="34" width="50" height="3" rx="1" fill="#e8e8e8"/>
  <!-- Play triangle on screen -->
  <polygon points="36,20 36,40 55,30" fill="#3498db" opacity="0.7"/>
  <!-- Projector stand -->
  <rect x="79" y="63" width="2" height="8" fill="#888"/>
  <rect x="75" y="71" width="10" height="2" rx="1" fill="#888"/>
  <text x="50" y="97" font-family="Arial,sans-serif" font-size="8" fill="#1e1b4b" font-weight="700" text-anchor="middle">AUDIOVISUALS</text>
</svg>
