<svg xmlns="http://www.w3.org/2000/svg" viewBox="0 0 100 100">
  <!-- Blackboard -->
  <rect x="52" y="15" width="36" height="24" rx="2" fill="#166534" stroke="#14532d" stroke-width="1.5"/>
  <line x1="56" y1="22" x2="80" y2="22" stroke="white" stroke-width="1.5" opacity="0.8"/>
  <line x1="56" y1="28" x2="76" y2="28" stroke="white" stroke-width="1.5" opacity="0.8"/>
  <!-- Body / dress -->
  <path d="M20 50 L22 75 L42 75 L44 50 Z" fill="#ec4899"/>
  <!-- Skirt flare -->
  <path d="M18 68 Q33 72 48 68 L44 75 L22 75 Z" fill="#db2777"/>
  <!-- Head -->
  <circle cx="33" cy="36" r="11" fill="#fcd34d"/>
  <!-- Long hair -->
  <path d="M22 32 Q18 50 20 60" stroke="#92400e" stroke-width="4" fill="none" stroke-linecap="round"/>
  <path d="M44 32 Q48 50 46 60" stroke="#92400e" stroke-width="4" fill="none" stroke-linecap="round"/>
  <path d="M22 30 Q33 23 44 30" fill="#92400e"/>
  <!-- Eyes -->
  <circle cx="29" cy="36" r="2" fill="#374151"/>
  <circle cx="37" cy="36" r="2" fill="#374151"/>
  <!-- Smile -->
  <path d="M29 41 Q33 44 37 41" stroke="#92400e" stroke-width="1.5" fill="none"/>
  <!-- Arm pointing -->
  <line x1="44" y1="55" x2="62" y2="36" stroke="#ec4899" stroke-width="4" stroke-linecap="round"/>
  <circle cx="63" cy="35" r="3" fill="#fcd34d"/>
  <!-- Legs -->
  <rect x="24" y="75" width="8" height="8" rx="2" fill="#7c3aed"/>
  <rect x="34" y="75" width="8" height="8" rx="2" fill="#7c3aed"/>
</svg>
