<svg xmlns="http://www.w3.org/2000/svg" viewBox="0 0 100 100">
  <!-- Backpack -->
  <rect x="38" y="45" width="22" height="28" rx="4" fill="#f97316" stroke="#ea580c" stroke-width="1.5"/>
  <rect x="42" y="48" width="14" height="10" rx="2" fill="#fb923c"/>
  <rect x="44" y="51" width="3" height="6" rx="1" fill="#ea580c"/>
  <!-- Straps -->
  <path d="M40 45 Q34 50 35 65" stroke="#ea580c" stroke-width="3" fill="none" stroke-linecap="round"/>
  <path d="M58 45 Q64 50 63 65" stroke="#ea580c" stroke-width="3" fill="none" stroke-linecap="round"/>
  <!-- Body -->
  <rect x="30" y="52" width="14" height="22" rx="3" fill="#3b82f6"/>
  <!-- Head -->
  <circle cx="37" cy="40" r="11" fill="#fcd34d"/>
  <!-- Hair -->
  <path d="M26 36 Q26 27 37 27 Q48 27 48 36" fill="#92400e"/>
  <!-- Eyes -->
  <circle cx="33" cy="40" r="2" fill="#374151"/>
  <circle cx="41" cy="40" r="2" fill="#374151"/>
  <!-- Smile -->
  <path d="M33 45 Q37 48 41 45" stroke="#92400e" stroke-width="1.5" fill="none"/>
  <!-- Legs -->
  <rect x="30" y="74" width="8" height="10" rx="2" fill="#1e40af"/>
  <rect x="40" y="74" width="8" height="10" rx="2" fill="#1e40af"/>
</svg>
