<svg xmlns="http://www.w3.org/2000/svg" viewBox="0 0 100 100">
  <!-- Blackboard -->
  <rect x="10" y="8" width="80" height="22" rx="2" fill="#2d6a4f"/>
  <rect x="12" y="10" width="76" height="18" rx="1" fill="#1b4332"/>
  <!-- White lines on board -->
  <line x1="18" y1="16" x2="55" y2="16" stroke="white" stroke-width="1.5" stroke-linecap="round"/>
  <line x1="18" y1="21" x2="45" y2="21" stroke="white" stroke-width="1.5" stroke-linecap="round"/>
  <!-- Board chalk tray -->
  <rect x="10" y="29" width="80" height="3" rx="1" fill="#5c3317"/>
  <!-- Row 1 desks -->
  <rect x="15" y="42" width="20" height="11" rx="2" fill="#a0522d"/>
  <rect x="40" y="42" width="20" height="11" rx="2" fill="#a0522d"/>
  <rect x="65" y="42" width="20" height="11" rx="2" fill="#a0522d"/>
  <!-- Desk legs row 1 -->
  <rect x="17" y="53" width="3" height="6" fill="#7a3b1e"/>
  <rect x="30" y="53" width="3" height="6" fill="#7a3b1e"/>
  <rect x="42" y="53" width="3" height="6" fill="#7a3b1e"/>
  <rect x="55" y="53" width="3" height="6" fill="#7a3b1e"/>
  <rect x="67" y="53" width="3" height="6" fill="#7a3b1e"/>
  <rect x="80" y="53" width="3" height="6" fill="#7a3b1e"/>
  <!-- Row 2 desks -->
  <rect x="15" y="66" width="20" height="11" rx="2" fill="#a0522d"/>
  <rect x="40" y="66" width="20" height="11" rx="2" fill="#a0522d"/>
  <rect x="65" y="66" width="20" height="11" rx="2" fill="#a0522d"/>
  <!-- Desk legs row 2 -->
  <rect x="17" y="77" width="3" height="6" fill="#7a3b1e"/>
  <rect x="30" y="77" width="3" height="6" fill="#7a3b1e"/>
  <rect x="42" y="77" width="3" height="6" fill="#7a3b1e"/>
  <rect x="55" y="77" width="3" height="6" fill="#7a3b1e"/>
  <rect x="67" y="77" width="3" height="6" fill="#7a3b1e"/>
  <rect x="80" y="77" width="3" height="6" fill="#7a3b1e"/>
  <text x="50" y="97" font-family="Arial,sans-serif" font-size="8" fill="#1e1b4b" font-weight="700" text-anchor="middle">AULA</text>
</svg>
