<svg xmlns="http://www.w3.org/2000/svg" viewBox="0 0 100 100">
  <!-- Ear shape -->
  <path d="M40 20 Q20 20 18 45 Q16 65 28 75 Q34 80 36 72 Q32 70 30 60 Q26 45 34 35 Q40 27 50 30 Q62 33 60 50 Q58 62 52 66 Q46 70 44 78 Q44 84 50 84 Q64 82 70 66 Q78 48 72 30 Q64 14 40 20 Z" fill="#fcd34d" stroke="#d97706" stroke-width="2"/>
  <!-- Inner ear -->
  <path d="M38 30 Q28 35 30 52 Q32 62 38 66" stroke="#d97706" stroke-width="2" fill="none"/>
  <!-- Sound waves -->
  <path d="M76 38 Q82 45 76 52" stroke="#3b82f6" stroke-width="2.5" fill="none" stroke-linecap="round"/>
  <path d="M80 32 Q90 45 80 58" stroke="#3b82f6" stroke-width="2.5" fill="none" stroke-linecap="round"/>
</svg>
