<svg xmlns="http://www.w3.org/2000/svg" viewBox="0 0 100 100">
  <!-- Smooth shaved head -->
  <circle cx="50" cy="45" r="30" fill="#ffd68a" stroke="#d97706" stroke-width="2"/>
  <!-- Slight stubble texture -->
  <circle cx="35" cy="24" r="1.5" fill="#9ca3af" opacity="0.5"/>
  <circle cx="42" cy="20" r="1.5" fill="#9ca3af" opacity="0.5"/>
  <circle cx="50" cy="18" r="1.5" fill="#9ca3af" opacity="0.5"/>
  <circle cx="58" cy="20" r="1.5" fill="#9ca3af" opacity="0.5"/>
  <circle cx="65" cy="24" r="1.5" fill="#9ca3af" opacity="0.5"/>
  <circle cx="70" cy="30" r="1.5" fill="#9ca3af" opacity="0.5"/>
  <circle cx="30" cy="30" r="1.5" fill="#9ca3af" opacity="0.5"/>
  <!-- Shine on head -->
  <ellipse cx="40" cy="30" rx="8" ry="5" fill="white" opacity="0.3"/>
  <!-- Ears -->
  <ellipse cx="20" cy="46" rx="4" ry="6" fill="#ffd68a" stroke="#d97706" stroke-width="1.5"/>
  <ellipse cx="80" cy="46" rx="4" ry="6" fill="#ffd68a" stroke="#d97706" stroke-width="1.5"/>
  <!-- Face features -->
  <ellipse cx="38" cy="44" rx="6" ry="5" fill="white" stroke="#374151" stroke-width="1.5"/>
  <ellipse cx="62" cy="44" rx="6" ry="5" fill="white" stroke="#374151" stroke-width="1.5"/>
  <circle cx="38" cy="44" r="2.5" fill="#374151"/>
  <circle cx="62" cy="44" r="2.5" fill="#374151"/>
  <path d="M44 55 Q50 60 56 55" stroke="#c2850a" stroke-width="1.5" fill="none"/>
  <!-- Razor icon small -->
  <rect x="68" y="68" width="16" height="8" rx="2" fill="#9ca3af" stroke="#6b7280" stroke-width="1"/>
  <rect x="66" y="72" width="4" height="4" rx="1" fill="#374151"/>
  <text x="50" y="97" font-family="Arial,sans-serif" font-size="8" fill="#1e1b4b" font-weight="700" text-anchor="middle">RAPATS</text>
</svg>
