<svg xmlns="http://www.w3.org/2000/svg" viewBox="0 0 100 100">
  <!-- Head -->
  <circle cx="50" cy="48" r="26" fill="#ffd68a" stroke="#d97706" stroke-width="1.5"/>
  <!-- Black hair -->
  <path d="M24 42 Q22 22 34 16 Q44 10 50 11 Q58 10 66 16 Q78 22 76 42" fill="#1a1a1a"/>
  <!-- Hair shine highlight -->
  <path d="M34 18 Q42 14 50 16" stroke="#4b4b4b" stroke-width="2" fill="none" stroke-linecap="round"/>
  <ellipse cx="42" cy="26" rx="6" ry="3" fill="#3a3a3a" opacity="0.5"/>
  <!-- Dark brown eyes -->
  <ellipse cx="38" cy="47" rx="6" ry="5" fill="white" stroke="#374151" stroke-width="1.5"/>
  <ellipse cx="62" cy="47" rx="6" ry="5" fill="white" stroke="#374151" stroke-width="1.5"/>
  <circle cx="38" cy="47" r="3.5" fill="#1a1a1a"/>
  <circle cx="62" cy="47" r="3.5" fill="#1a1a1a"/>
  <circle cx="37" cy="46" r="1" fill="white" opacity="0.8"/>
  <circle cx="61" cy="46" r="1" fill="white" opacity="0.8"/>
  <!-- Nose -->
  <path d="M46 56 Q50 60 54 56" stroke="#c2850a" stroke-width="1.5" fill="none"/>
  <!-- Smile -->
  <path d="M40 65 Q50 71 60 65" stroke="#c2850a" stroke-width="2" fill="none"/>
  <!-- Color swatch -->
  <rect x="70" y="70" width="18" height="12" rx="3" fill="#1a1a1a" stroke="#374151" stroke-width="1.5"/>
</svg>
