<svg xmlns="http://www.w3.org/2000/svg" viewBox="0 0 100 100">
  <!-- Mouth open -->
  <path d="M18 40 Q50 30 82 40 Q82 65 50 72 Q18 65 18 40Z" fill="#c0203a"/>
  <!-- Gums top -->
  <path d="M18 40 Q50 30 82 40 Q82 50 50 50 Q18 50 18 40Z" fill="#ff8fa0"/>
  <!-- Teeth top row -->
  <rect x="22" y="43" width="12" height="12" rx="2" fill="white" stroke="#e0e0e0" stroke-width="0.5"/>
  <rect x="36" y="42" width="12" height="13" rx="2" fill="white" stroke="#e0e0e0" stroke-width="0.5"/>
  <rect x="50" y="42" width="12" height="13" rx="2" fill="white" stroke="#e0e0e0" stroke-width="0.5"/>
  <rect x="64" y="43" width="12" height="12" rx="2" fill="white" stroke="#e0e0e0" stroke-width="0.5"/>
  <!-- Gums bottom -->
  <path d="M22 62 Q50 68 78 62 Q82 65 50 72 Q18 65 22 62Z" fill="#ff8fa0"/>
  <!-- Teeth bottom row -->
  <rect x="26" y="53" width="11" height="10" rx="2" fill="white" stroke="#e0e0e0" stroke-width="0.5"/>
  <rect x="39" y="52" width="11" height="11" rx="2" fill="white" stroke="#e0e0e0" stroke-width="0.5"/>
  <rect x="52" y="52" width="11" height="11" rx="2" fill="white" stroke="#e0e0e0" stroke-width="0.5"/>
  <rect x="63" y="53" width="11" height="10" rx="2" fill="white" stroke="#e0e0e0" stroke-width="0.5"/>
  <text x="50" y="97" font-family="Arial,sans-serif" font-size="8" fill="#1e1b4b" font-weight="700" text-anchor="middle">DENTS</text>
</svg>
