<svg xmlns="http://www.w3.org/2000/svg" viewBox="0 0 100 100">
  <!-- Palm -->
  <path d="M28 55 Q24 40 28 30 Q30 22 36 22 Q40 18 44 22 L44 50 Q48 18 52 18 Q58 18 58 28 L58 46 Q60 22 64 22 Q70 22 70 32 L70 50 Q72 30 76 32 Q80 34 78 44 L74 68 Q70 80 58 82 L42 82 Q28 80 28 55 Z" fill="#ffd68a" stroke="#d97706" stroke-width="2"/>
  <!-- Finger lines -->
  <line x1="44" y1="30" x2="44" y2="50" stroke="#d97706" stroke-width="1"/>
  <line x1="58" y1="28" x2="58" y2="46" stroke="#d97706" stroke-width="1"/>
  <line x1="70" y1="32" x2="70" y2="50" stroke="#d97706" stroke-width="1"/>
  <!-- Thumb -->
  <path d="M28 55 Q20 52 18 44 Q16 36 22 32 Q28 30 28 38" fill="#ffd68a" stroke="#d97706" stroke-width="2"/>
  <text x="50" y="97" font-family="Arial,sans-serif" font-size="8" fill="#1e1b4b" font-weight="700" text-anchor="middle">MÀ</text>
</svg>
