<svg xmlns="http://www.w3.org/2000/svg" viewBox="0 0 100 100">
  <!-- Head -->
  <ellipse cx="50" cy="48" rx="32" ry="36" fill="#ffd68a" stroke="#d97706" stroke-width="2"/>
  <!-- Hair -->
  <path d="M18 38 Q20 15 50 14 Q80 15 82 38" fill="#5c3a1e"/>
  <!-- Eyes -->
  <ellipse cx="36" cy="42" rx="6" ry="4" fill="white" stroke="#374151" stroke-width="1.5"/>
  <ellipse cx="64" cy="42" rx="6" ry="4" fill="white" stroke="#374151" stroke-width="1.5"/>
  <circle cx="36" cy="42" r="2.5" fill="#374151"/>
  <circle cx="64" cy="42" r="2.5" fill="#374151"/>
  <!-- Nose -->
  <path d="M46 52 Q50 58 54 52" stroke="#c2850a" stroke-width="1.5" fill="none"/>
  <!-- Beard (moustache + chin beard) -->
  <path d="M28 60 Q36 56 44 58 Q50 56 56 58 Q64 56 72 60 Q72 80 50 84 Q28 80 28 60 Z" fill="#5c3a1e"/>
  <!-- Beard texture lines -->
  <line x1="38" y1="64" x2="36" y2="80" stroke="#3d2410" stroke-width="1"/>
  <line x1="46" y1="62" x2="46" y2="82" stroke="#3d2410" stroke-width="1"/>
  <line x1="54" y1="62" x2="54" y2="82" stroke="#3d2410" stroke-width="1"/>
  <line x1="62" y1="64" x2="64" y2="80" stroke="#3d2410" stroke-width="1"/>
  <!-- Moustache -->
  <path d="M32 62 Q42 58 50 60 Q58 58 68 62" stroke="#3d2410" stroke-width="3" fill="none" stroke-linecap="round"/>
  <text x="50" y="97" font-family="Arial,sans-serif" font-size="8" fill="#1e1b4b" font-weight="700" text-anchor="middle">BARBA</text>
</svg>
