<svg xmlns="http://www.w3.org/2000/svg" viewBox="0 0 100 100">
  <!-- Ankle/lower leg -->
  <rect x="32" y="5" width="24" height="40" rx="8" fill="#f5cba7" stroke="#c0835a" stroke-width="2.5"/>
  <!-- Heel -->
  <ellipse cx="38" cy="60" rx="14" ry="12" fill="#f5cba7" stroke="#c0835a" stroke-width="2.5"/>
  <!-- Foot top -->
  <path d="M24 56 Q24 52 36 50 Q56 50 68 54 Q76 58 74 66 Q72 72 68 72 Q60 72 56 68" fill="#f5cba7" stroke="#c0835a" stroke-width="2.5"/>
  <!-- Toes -->
  <ellipse cx="62" cy="72" rx="7" ry="6" fill="#f5cba7" stroke="#c0835a" stroke-width="2"/>
  <ellipse cx="71" cy="70" rx="5.5" ry="5" fill="#f5cba7" stroke="#c0835a" stroke-width="2"/>
  <ellipse cx="78" cy="67" rx="4.5" ry="4" fill="#f5cba7" stroke="#c0835a" stroke-width="2"/>
  <ellipse cx="82" cy="63" rx="3.5" ry="3.5" fill="#f5cba7" stroke="#c0835a" stroke-width="2"/>
  <!-- Sole -->
  <path d="M24 62 Q22 80 30 88 Q38 94 56 90 Q72 86 76 78 Q78 70 74 66" fill="#f0b887" stroke="#c0835a" stroke-width="2"/>
</svg>
