<svg xmlns="http://www.w3.org/2000/svg" viewBox="0 0 100 100">
  <!-- Head -->
  <circle cx="50" cy="48" r="26" fill="#ffd68a" stroke="#d97706" stroke-width="1.5"/>
  <!-- Chestnut brown hair -->
  <path d="M24 42 Q22 22 34 16 Q44 10 50 11 Q58 10 66 16 Q78 22 76 42" fill="#8B4513"/>
  <!-- Hair highlight -->
  <path d="M34 18 Q44 13 56 16" stroke="#a0522d" stroke-width="2.5" fill="none" stroke-linecap="round"/>
  <!-- Eyes (hazel/brown) -->
  <ellipse cx="38" cy="47" rx="6" ry="5" fill="white" stroke="#374151" stroke-width="1.5"/>
  <ellipse cx="62" cy="47" rx="6" ry="5" fill="white" stroke="#374151" stroke-width="1.5"/>
  <circle cx="38" cy="47" r="3" fill="#8B4513"/>
  <circle cx="62" cy="47" r="3" fill="#8B4513"/>
  <circle cx="37" cy="46" r="1" fill="white" opacity="0.7"/>
  <circle cx="61" cy="46" r="1" fill="white" opacity="0.7"/>
  <!-- Nose, mouth -->
  <path d="M46 56 Q50 60 54 56" stroke="#c2850a" stroke-width="1.5" fill="none"/>
  <path d="M40 65 Q50 71 60 65" stroke="#c2850a" stroke-width="2" fill="none"/>
  <!-- Color swatch -->
  <rect x="70" y="70" width="18" height="12" rx="3" fill="#8B4513" stroke="#6b3c0e" stroke-width="1.5"/>
</svg>
