<svg xmlns="http://www.w3.org/2000/svg" viewBox="0 0 100 100">
  <!-- Head -->
  <circle cx="50" cy="48" r="26" fill="#ffd68a" stroke="#d97706" stroke-width="1.5"/>
  <!-- Golden blonde hair -->
  <path d="M24 42 Q22 22 34 16 Q44 10 50 11 Q58 10 66 16 Q78 22 76 42" fill="#FFD700"/>
  <!-- Hair highlight -->
  <path d="M34 18 Q44 12 58 15" stroke="#FFF176" stroke-width="2.5" fill="none" stroke-linecap="round"/>
  <!-- Blue eyes (blonde + blue common) -->
  <ellipse cx="38" cy="47" rx="6" ry="5" fill="white" stroke="#374151" stroke-width="1.5"/>
  <ellipse cx="62" cy="47" rx="6" ry="5" fill="white" stroke="#374151" stroke-width="1.5"/>
  <circle cx="38" cy="47" r="3" fill="#2563eb"/>
  <circle cx="62" cy="47" r="3" fill="#2563eb"/>
  <circle cx="37" cy="46" r="1" fill="white" opacity="0.7"/>
  <circle cx="61" cy="46" r="1" fill="white" opacity="0.7"/>
  <!-- Nose, mouth -->
  <path d="M46 56 Q50 60 54 56" stroke="#c2850a" stroke-width="1.5" fill="none"/>
  <path d="M40 65 Q50 71 60 65" stroke="#c2850a" stroke-width="2" fill="none"/>
  <!-- Color swatch -->
  <rect x="70" y="70" width="18" height="12" rx="3" fill="#FFD700" stroke="#d4ac00" stroke-width="1.5"/>
  <text x="50" y="97" font-family="Arial,sans-serif" font-size="8" fill="#1e1b4b" font-weight="700" text-anchor="middle">ROSSOS</text>
</svg>
