<svg xmlns="http://www.w3.org/2000/svg" viewBox="0 0 100 100">
  <!-- Head -->
  <circle cx="50" cy="38" r="20" fill="#ffd68a" stroke="#d97706" stroke-width="1.5"/>
  <!-- Wavy hair top -->
  <path d="M30 30 Q34 20 40 26 Q44 18 50 24 Q56 16 62 22 Q68 18 72 28 Q72 30 70 30 Q64 22 58 26 Q52 18 50 24 Q46 20 42 26 Q36 22 32 30 Z" fill="#92400e"/>
  <!-- Wavy hair sides - waves flowing down -->
  <path d="M30 32 Q24 40 26 52 Q28 60 24 68 Q22 74 26 80" stroke="#92400e" stroke-width="6" fill="none" stroke-linecap="round"/>
  <path d="M70 32 Q76 40 74 52 Q72 60 76 68 Q78 74 74 80" stroke="#92400e" stroke-width="6" fill="none" stroke-linecap="round"/>
  <!-- Wave details -->
  <path d="M24 52 Q28 48 32 52 Q36 56 40 52" stroke="#7c3415" stroke-width="2" fill="none"/>
  <path d="M26 64 Q30 60 34 64 Q38 68 42 64" stroke="#7c3415" stroke-width="2" fill="none"/>
  <path d="M68 52 Q72 48 76 52" stroke="#7c3415" stroke-width="2" fill="none"/>
  <path d="M66 64 Q70 60 74 64" stroke="#7c3415" stroke-width="2" fill="none"/>
  <!-- Face -->
  <circle cx="44" cy="38" r="2" fill="#374151"/>
  <circle cx="56" cy="38" r="2" fill="#374151"/>
  <path d="M44 44 Q50 48 56 44" stroke="#c2850a" stroke-width="1.5" fill="none"/>
  <text x="50" y="97" font-family="Arial,sans-serif" font-size="8" fill="#1e1b4b" font-weight="700" text-anchor="middle">ONDULATS</text>
</svg>
