<svg xmlns="http://www.w3.org/2000/svg" viewBox="0 0 100 100">
  <!-- Head -->
  <circle cx="50" cy="50" r="28" fill="#ffd68a" stroke="#d97706" stroke-width="1.5"/>
  <!-- Curly hair - many spiral shapes around the head -->
  <path d="M22 36 Q18 28 26 24 Q34 20 36 28 Q38 36 30 38 Q24 40 22 36 Z" fill="#1a1a1a"/>
  <path d="M36 22 Q38 14 46 15 Q54 16 54 24 Q54 32 46 32 Q38 32 36 22 Z" fill="#1a1a1a"/>
  <path d="M54 22 Q58 14 66 16 Q74 18 72 28 Q70 36 62 36 Q54 36 54 22 Z" fill="#1a1a1a"/>
  <path d="M68 30 Q76 24 80 32 Q84 40 76 44 Q68 46 66 40 Q64 34 68 30 Z" fill="#1a1a1a"/>
  <path d="M20 46 Q14 40 18 34 Q22 28 28 32 Q32 36 28 42 Q24 48 20 46 Z" fill="#1a1a1a"/>
  <!-- Spiral details -->
  <path d="M26 26 Q30 22 34 26 Q32 30 28 28" stroke="#333" stroke-width="1.5" fill="none"/>
  <path d="M46 17 Q50 13 54 17 Q52 22 48 20" stroke="#333" stroke-width="1.5" fill="none"/>
  <path d="M63 18 Q67 14 71 18 Q69 24 65 22" stroke="#333" stroke-width="1.5" fill="none"/>
  <!-- Face features -->
  <circle cx="42" cy="52" r="2.5" fill="#374151"/>
  <circle cx="58" cy="52" r="2.5" fill="#374151"/>
  <path d="M42 60 Q50 65 58 60" stroke="#c2850a" stroke-width="2" fill="none"/>
</svg>
