<svg xmlns="http://www.w3.org/2000/svg" viewBox="0 0 100 100">
  <!-- Back view torso -->
  <path d="M25 40 Q18 48 16 80 L84 80 Q82 48 75 40 Q68 33 50 32 Q32 33 25 40 Z" fill="#ffd68a" stroke="#d97706" stroke-width="1.5"/>
  <!-- Spine line -->
  <line x1="50" y1="38" x2="50" y2="78" stroke="#d97706" stroke-width="2.5" stroke-dasharray="4,3"/>
  <!-- Shoulder blades -->
  <ellipse cx="36" cy="52" rx="10" ry="8" fill="#ffe082" stroke="#d97706" stroke-width="1.5"/>
  <ellipse cx="64" cy="52" rx="10" ry="8" fill="#ffe082" stroke="#d97706" stroke-width="1.5"/>
  <!-- Neck -->
  <rect x="42" y="24" width="16" height="12" rx="4" fill="#ffd68a" stroke="#d97706" stroke-width="1.5"/>
  <!-- Head (back view) -->
  <circle cx="50" cy="16" r="12" fill="#ffd68a" stroke="#d97706" stroke-width="1.5"/>
  <!-- Hair from behind -->
  <path d="M38 10 Q50 4 62 10 Q62 20 50 22 Q38 20 38 10 Z" fill="#92400e"/>
  <!-- Arrow -->
  <line x1="82" y1="35" x2="72" y2="50" stroke="#ef4444" stroke-width="2.5" stroke-linecap="round"/>
  <circle cx="70" cy="52" r="4" fill="#ef4444"/>
</svg>
