<svg xmlns="http://www.w3.org/2000/svg" viewBox="0 0 100 100">
  <!-- Outer ear -->
  <path d="M55 10 Q80 10 82 35 Q84 55 78 72 Q72 88 60 90 Q52 91 50 82 Q48 74 54 68 Q64 58 64 50 Q64 42 56 36 Q48 30 48 22 Q48 10 55 10 Z" fill="#f5cba7" stroke="#c0835a" stroke-width="3"/>
  <!-- Inner ear (antihelix) -->
  <path d="M56 20 Q72 22 72 42 Q72 58 64 68 Q58 74 56 70 Q54 66 60 60 Q66 52 66 44 Q66 30 58 26 Z" fill="#f0b887" stroke="#c0835a" stroke-width="1.5"/>
  <!-- Ear canal -->
  <ellipse cx="57" cy="50" rx="6" ry="10" fill="#d4956a" stroke="#c0835a" stroke-width="1.5"/>
  <!-- Lobe -->
  <ellipse cx="55" cy="83" rx="8" ry="7" fill="#f5cba7" stroke="#c0835a" stroke-width="2"/>
</svg>
