<svg xmlns="http://www.w3.org/2000/svg" viewBox="0 0 100 100">
  <!-- Left sock -->
  <!-- Leg part -->
  <rect x="12" y="20" width="22" height="35" rx="4" fill="#f5f5f5"/>
  <!-- Heel -->
  <path d="M12 52 L12 62 Q12 68 18 68 L28 68 Q34 68 34 62 L34 55 Z" fill="#f5f5f5"/>
  <!-- Toe -->
  <path d="M16 66 Q16 74 23 74 Q30 74 30 66 Z" fill="#f5f5f5"/>
  <!-- Cuff stripes -->
  <rect x="12" y="20" width="22" height="5" rx="4" fill="#3b82f6"/>
  <rect x="12" y="26" width="22" height="3" rx="0" fill="#3b82f6"/>
  <rect x="12" y="30" width="22" height="3" rx="0" fill="#3b82f6"/>
  <!-- Heel highlight -->
  <path d="M13 56 Q13 66 19 67 L27 67 Q33 67 33 60" stroke="#e2e8f0" stroke-width="1.5" fill="none"/>
  <!-- Outline -->
  <rect x="12" y="20" width="22" height="35" rx="4" fill="none" stroke="#d1d5db" stroke-width="1"/>
  <path d="M12 52 L12 62 Q12 68 18 68 L28 68 Q34 68 34 62 L34 55 Z" fill="none" stroke="#d1d5db" stroke-width="1"/>
  <path d="M16 66 Q16 74 23 74 Q30 74 30 66 Z" fill="none" stroke="#d1d5db" stroke-width="1"/>

  <!-- Right sock -->
  <rect x="66" y="20" width="22" height="35" rx="4" fill="#f5f5f5"/>
  <path d="M66 52 L66 62 Q66 68 72 68 L82 68 Q88 68 88 62 L88 55 Z" fill="#f5f5f5"/>
  <path d="M70 66 Q70 74 77 74 Q84 74 84 66 Z" fill="#f5f5f5"/>
  <!-- Cuff stripes -->
  <rect x="66" y="20" width="22" height="5" rx="4" fill="#3b82f6"/>
  <rect x="66" y="26" width="22" height="3" rx="0" fill="#3b82f6"/>
  <rect x="66" y="30" width="22" height="3" rx="0" fill="#3b82f6"/>
  <!-- Outline -->
  <rect x="66" y="20" width="22" height="35" rx="4" fill="none" stroke="#d1d5db" stroke-width="1"/>
  <path d="M66 52 L66 62 Q66 68 72 68 L82 68 Q88 68 88 62 L88 55 Z" fill="none" stroke="#d1d5db" stroke-width="1"/>
  <path d="M70 66 Q70 74 77 74 Q84 74 84 66 Z" fill="none" stroke="#d1d5db" stroke-width="1"/>

  <text x="50" y="97" font-family="Arial,sans-serif" font-size="8" fill="#1e1b4b" font-weight="700" text-anchor="middle">MITJONS</text>
</svg>
