<svg xmlns="http://www.w3.org/2000/svg" viewBox="0 0 100 100">
  <!-- Abric llarg (diferent de l'anorac que és curt) -->
  <!-- Cos principal llarg -->
  <path d="M 28,28 L 20,88 L 80,88 L 72,28 Z" fill="#455a64" rx="3"/>
  <!-- Solapes/Coll en V -->
  <path d="M 28,28 L 38,44 L 50,32 L 62,44 L 72,28" fill="#37474f" stroke="none"/>
  <!-- Mànigues -->
  <path d="M 28,28 L 14,64 L 24,68 L 34,34" fill="#455a64" stroke="#37474f" stroke-width="1"/>
  <path d="M 72,28 L 86,64 L 76,68 L 66,34" fill="#455a64" stroke="#37474f" stroke-width="1"/>
  <!-- Botons centrals -->
  <circle cx="50" cy="54" r="3" fill="#607d8b"/>
  <circle cx="50" cy="64" r="3" fill="#607d8b"/>
  <circle cx="50" cy="74" r="3" fill="#607d8b"/>
  <!-- Butxaques -->
  <rect x="24" y="62" width="14" height="12" rx="2" fill="none" stroke="#607d8b" stroke-width="1.5"/>
  <rect x="62" y="62" width="14" height="12" rx="2" fill="none" stroke="#607d8b" stroke-width="1.5"/>
  <!-- Coll -->
  <path d="M 38,18 Q 50,12 62,18 L 62,30 Q 50,26 38,30 Z" fill="#546e7a"/>
  <!-- Contorn general -->
  <path d="M 28,28 L 20,88 L 80,88 L 72,28 L 62,44 L 50,32 L 38,44 Z" fill="none" stroke="#37474f" stroke-width="1.5"/>
</svg>
