<svg xmlns="http://www.w3.org/2000/svg" viewBox="0 0 100 100">
  <!-- Left sneaker (side view, facing right) -->
  <!-- Sole -->
  <path d="M5 62 L5 67 Q5 70 9 70 L44 70 Q47 70 47 67 L47 62 Z" fill="#1f2937"/>
  <!-- Midsole -->
  <rect x="5" y="59" width="42" height="5" rx="1" fill="#374151"/>
  <!-- Upper body -->
  <path d="M8 59 L10 44 Q12 40 18 40 L38 40 Q44 42 46 50 L47 59 Z" fill="#f5f5f5"/>
  <!-- Toe cap -->
  <path d="M8 59 L10 46 Q9 42 12 41 L18 40 Q10 42 8 59 Z" fill="#e5e7eb"/>
  <!-- Blue stripe/detail -->
  <path d="M18 42 L38 42 L40 52 L18 52 Z" fill="#3b82f6" opacity="0.4"/>
  <!-- Laces area -->
  <rect x="22" y="41" width="18" height="14" rx="1" fill="#f5f5f5" stroke="#d1d5db" stroke-width="0.5"/>
  <!-- Individual laces -->
  <line x1="22" y1="44" x2="40" y2="44" stroke="#f5f5f5" stroke-width="1.5"/>
  <line x1="22" y1="47" x2="40" y2="47" stroke="#f5f5f5" stroke-width="1.5"/>
  <line x1="22" y1="50" x2="40" y2="50" stroke="#f5f5f5" stroke-width="1.5"/>
  <line x1="22" y1="53" x2="40" y2="53" stroke="#f5f5f5" stroke-width="1.5"/>
  <!-- Lace eyelets -->
  <circle cx="23" cy="44" r="1" fill="#3b82f6"/>
  <circle cx="23" cy="47" r="1" fill="#3b82f6"/>
  <circle cx="23" cy="50" r="1" fill="#3b82f6"/>
  <circle cx="39" cy="44" r="1" fill="#3b82f6"/>
  <circle cx="39" cy="47" r="1" fill="#3b82f6"/>
  <circle cx="39" cy="50" r="1" fill="#3b82f6"/>
  <!-- Heel tab -->
  <rect x="43" y="45" width="4" height="8" rx="1" fill="#3b82f6"/>

  <!-- Right sneaker (side view, facing left) -->
  <!-- Sole -->
  <path d="M53 62 L53 67 Q53 70 56 70 L91 70 Q95 70 95 67 L95 62 Z" fill="#1f2937"/>
  <!-- Midsole -->
  <rect x="53" y="59" width="42" height="5" rx="1" fill="#374151"/>
  <!-- Upper body -->
  <path d="M54 59 L53 50 Q55 42 62 40 L82 40 Q88 40 90 44 L92 59 Z" fill="#f5f5f5"/>
  <!-- Toe cap -->
  <path d="M92 59 L90 46 Q91 42 88 41 L82 40 Q90 42 92 59 Z" fill="#e5e7eb"/>
  <!-- Blue stripe/detail -->
  <path d="M62 42 L82 42 L80 52 L62 52 Z" fill="#3b82f6" opacity="0.4"/>
  <!-- Laces area -->
  <rect x="60" y="41" width="18" height="14" rx="1" fill="#f5f5f5" stroke="#d1d5db" stroke-width="0.5"/>
  <!-- Individual laces -->
  <line x1="60" y1="44" x2="78" y2="44" stroke="#f5f5f5" stroke-width="1.5"/>
  <line x1="60" y1="47" x2="78" y2="47" stroke="#f5f5f5" stroke-width="1.5"/>
  <line x1="60" y1="50" x2="78" y2="50" stroke="#f5f5f5" stroke-width="1.5"/>
  <line x1="60" y1="53" x2="78" y2="53" stroke="#f5f5f5" stroke-width="1.5"/>
  <!-- Lace eyelets -->
  <circle cx="61" cy="44" r="1" fill="#3b82f6"/>
  <circle cx="61" cy="47" r="1" fill="#3b82f6"/>
  <circle cx="61" cy="50" r="1" fill="#3b82f6"/>
  <circle cx="77" cy="44" r="1" fill="#3b82f6"/>
  <circle cx="77" cy="47" r="1" fill="#3b82f6"/>
  <circle cx="77" cy="50" r="1" fill="#3b82f6"/>
  <!-- Heel tab -->
  <rect x="53" y="45" width="4" height="8" rx="1" fill="#3b82f6"/>

</svg>
