<svg xmlns="http://www.w3.org/2000/svg" viewBox="0 0 100 100">
  <!-- Left glove -->
  <!-- Thumb -->
  <path d="M14 42 Q10 36 13 32 Q17 29 20 34 L22 42 Z" fill="#ef4444"/>
  <!-- Hand body -->
  <path d="M16 42 L16 65 Q16 70 22 70 L36 70 Q42 70 42 65 L42 38 L38 36 L38 42 Z" fill="#ef4444"/>
  <!-- Fingers -->
  <rect x="22" y="32" width="6" height="12" rx="3" fill="#ef4444"/>
  <rect x="29" y="30" width="6" height="14" rx="3" fill="#ef4444"/>
  <rect x="36" y="32" width="6" height="12" rx="3" fill="#ef4444"/>
  <!-- Cuff -->
  <rect x="16" y="64" width="26" height="8" rx="2" fill="#b91c1c"/>
  <!-- Seam lines -->
  <path d="M25 38 L25 68" stroke="#b91c1c" stroke-width="0.8" opacity="0.7"/>
  <path d="M32 38 L32 68" stroke="#b91c1c" stroke-width="0.8" opacity="0.7"/>

  <!-- Right glove (mirrored) -->
  <!-- Thumb -->
  <path d="M86 42 Q90 36 87 32 Q83 29 80 34 L78 42 Z" fill="#ef4444"/>
  <!-- Hand body -->
  <path d="M84 42 L84 65 Q84 70 78 70 L64 70 Q58 70 58 65 L58 38 L62 36 L62 42 Z" fill="#ef4444"/>
  <!-- Fingers -->
  <rect x="72" y="32" width="6" height="12" rx="3" fill="#ef4444"/>
  <rect x="65" y="30" width="6" height="14" rx="3" fill="#ef4444"/>
  <rect x="58" y="32" width="6" height="12" rx="3" fill="#ef4444"/>
  <!-- Cuff -->
  <rect x="58" y="64" width="26" height="8" rx="2" fill="#b91c1c"/>
  <!-- Seam lines -->
  <path d="M75 38 L75 68" stroke="#b91c1c" stroke-width="0.8" opacity="0.7"/>
  <path d="M68 38 L68 68" stroke="#b91c1c" stroke-width="0.8" opacity="0.7"/>

  <text x="50" y="97" font-family="Arial,sans-serif" font-size="8" fill="#1e1b4b" font-weight="700" text-anchor="middle">GUANTS</text>
</svg>
