<svg xmlns="http://www.w3.org/2000/svg" viewBox="0 0 100 100">
  <!-- Head -->
  <circle cx="50" cy="26" r="18" fill="#f5cba7" stroke="#c0835a" stroke-width="2"/>
  <!-- White/grey hair -->
  <path d="M32 22 Q32 8 50 8 Q68 8 68 22 Q60 14 50 14 Q40 14 32 22 Z" fill="#d1d5db"/>
  <!-- Wrinkles -->
  <path d="M38 22 Q40 20 42 22" fill="none" stroke="#c0835a" stroke-width="1.2"/>
  <path d="M58 22 Q60 20 62 22" fill="none" stroke="#c0835a" stroke-width="1.2"/>
  <path d="M34 32 Q36 30 38 32" fill="none" stroke="#c0835a" stroke-width="1"/>
  <path d="M62 32 Q64 30 66 32" fill="none" stroke="#c0835a" stroke-width="1"/>
  <!-- Eyes (narrower) -->
  <ellipse cx="43" cy="25" rx="3" ry="2" fill="#555"/>
  <ellipse cx="57" cy="25" rx="3" ry="2" fill="#555"/>
  <!-- Smile / thin lips -->
  <path d="M43 33 Q50 38 57 33" fill="none" stroke="#c0835a" stroke-width="2" stroke-linecap="round"/>
  <!-- Body / grey cardigan -->
  <path d="M28 44 Q20 44 16 54 L12 90 L88 90 L84 54 Q80 44 72 44 Z" fill="#9ca3af" stroke="#6b7280" stroke-width="2"/>
  <!-- Neck -->
  <rect x="43" y="42" width="14" height="6" rx="2" fill="#f5cba7"/>
  <!-- Cane -->
  <line x1="76" y1="55" x2="88" y2="90" stroke="#92400e" stroke-width="4" stroke-linecap="round"/>
  <path d="M76 55 Q70 50 74 46" fill="none" stroke="#92400e" stroke-width="4" stroke-linecap="round"/>
  <!-- Label -->
</svg>
