<svg xmlns="http://www.w3.org/2000/svg" viewBox="0 0 100 100">
  <!-- Head -->
  <circle cx="50" cy="26" r="18" fill="#f5cba7" stroke="#c0835a" stroke-width="2"/>
  <!-- White hair bun -->
  <path d="M32 22 Q32 8 50 8 Q68 8 68 22 Q64 12 50 12 Q36 12 32 22 Z" fill="#e5e7eb"/>
  <!-- Bun on top -->
  <circle cx="50" cy="10" r="8" fill="#d1d5db" stroke="#9ca3af" stroke-width="1.5"/>
  <!-- Wrinkles -->
  <path d="M38 22 Q40 20 42 22" fill="none" stroke="#c0835a" stroke-width="1.2"/>
  <path d="M58 22 Q60 20 62 22" fill="none" stroke="#c0835a" stroke-width="1.2"/>
  <!-- Eyes -->
  <ellipse cx="43" cy="26" rx="3" ry="2" fill="#555"/>
  <ellipse cx="57" cy="26" rx="3" ry="2" fill="#555"/>
  <!-- Glasses -->
  <circle cx="43" cy="26" r="5" fill="none" stroke="#6b7280" stroke-width="1.5"/>
  <circle cx="57" cy="26" r="5" fill="none" stroke="#6b7280" stroke-width="1.5"/>
  <line x1="48" y1="26" x2="52" y2="26" stroke="#6b7280" stroke-width="1.5"/>
  <!-- Smile -->
  <path d="M43 34 Q50 39 57 34" fill="none" stroke="#c0835a" stroke-width="2" stroke-linecap="round"/>
  <!-- Body / floral blouse -->
  <path d="M28 44 Q20 44 16 54 L12 90 L88 90 L84 54 Q80 44 72 44 Z" fill="#fde68a" stroke="#d97706" stroke-width="2"/>
  <!-- Neck -->
  <rect x="43" y="42" width="14" height="6" rx="2" fill="#f5cba7"/>
  <!-- Dots on blouse -->
  <circle cx="38" cy="60" r="2.5" fill="#ec4899"/>
  <circle cx="50" cy="65" r="2.5" fill="#ec4899"/>
  <circle cx="62" cy="60" r="2.5" fill="#ec4899"/>
  <circle cx="44" cy="76" r="2.5" fill="#ec4899"/>
  <circle cx="56" cy="76" r="2.5" fill="#ec4899"/>
  <!-- Label -->
</svg>
