<svg xmlns="http://www.w3.org/2000/svg" viewBox="0 0 100 100">
  <!-- Head -->
  <circle cx="50" cy="24" r="18" fill="#f5cba7" stroke="#c0835a" stroke-width="2"/>
  <!-- Hair long -->
  <path d="M32 20 Q30 8 50 6 Q70 8 68 20 Q64 10 50 10 Q36 10 32 20 Z" fill="#8b4513"/>
  <path d="M32 20 Q28 36 30 50 Q34 44 36 40" fill="#8b4513" stroke="none"/>
  <path d="M68 20 Q72 36 70 50 Q66 44 64 40" fill="#8b4513" stroke="none"/>
  <!-- Eyes -->
  <circle cx="43" cy="23" r="2.5" fill="#333"/>
  <circle cx="57" cy="23" r="2.5" fill="#333"/>
  <!-- Lashes -->
  <line x1="40" y1="19" x2="39" y2="16" stroke="#333" stroke-width="1.5"/>
  <line x1="43" y1="18" x2="43" y2="15" stroke="#333" stroke-width="1.5"/>
  <line x1="46" y1="19" x2="47" y2="16" stroke="#333" stroke-width="1.5"/>
  <!-- Mouth -->
  <path d="M44 31 Q50 36 56 31" fill="none" stroke="#c0835a" stroke-width="2" stroke-linecap="round"/>
  <!-- Body / dress -->
  <path d="M30 40 Q20 42 16 54 L10 90 L90 90 L84 54 Q80 42 70 40 Z" fill="#ec4899" stroke="#be185d" stroke-width="2"/>
  <!-- Neck -->
  <rect x="43" y="40" width="14" height="6" rx="2" fill="#f5cba7"/>
  <!-- Label -->
  <text x="50" y="98" font-family="Arial,sans-serif" font-size="8.5" fill="#be185d" font-weight="700" text-anchor="middle">MARE</text>
</svg>
