<svg viewBox="0 0 100 100" xmlns="http://www.w3.org/2000/svg">
  <!-- Triangle teulada simplificat -->
  <polygon points="10,72 50,45 90,72" fill="#d97706"/>
  <!-- Xemeneia (rectangle de maons) -->
  <rect x="38" y="25" width="24" height="38" fill="#ef4444"/>
  <!-- Retícula maons -->
  <line x1="38" y1="32" x2="62" y2="32" stroke="#f5f5f5" stroke-width="1.2"/>
  <line x1="38" y1="40" x2="62" y2="40" stroke="#f5f5f5" stroke-width="1.2"/>
  <line x1="38" y1="48" x2="62" y2="48" stroke="#f5f5f5" stroke-width="1.2"/>
  <line x1="38" y1="56" x2="62" y2="56" stroke="#f5f5f5" stroke-width="1.2"/>
  <line x1="50" y1="25" x2="50" y2="32" stroke="#f5f5f5" stroke-width="1"/>
  <line x1="44" y1="32" x2="44" y2="40" stroke="#f5f5f5" stroke-width="1"/>
  <line x1="56" y1="32" x2="56" y2="40" stroke="#f5f5f5" stroke-width="1"/>
  <line x1="50" y1="40" x2="50" y2="48" stroke="#f5f5f5" stroke-width="1"/>
  <line x1="44" y1="48" x2="44" y2="56" stroke="#f5f5f5" stroke-width="1"/>
  <line x1="56" y1="48" x2="56" y2="56" stroke="#f5f5f5" stroke-width="1"/>
  <!-- Fum -->
  <ellipse cx="44" cy="19" rx="4" ry="6" fill="#d1d5db" opacity="0.8"/>
  <ellipse cx="52" cy="14" rx="5" ry="7" fill="#d1d5db" opacity="0.6"/>
  <ellipse cx="60" cy="18" rx="4" ry="6" fill="#d1d5db" opacity="0.7"/>
  <text x="50" y="97" font-family="Arial,sans-serif" font-size="8" fill="#1e1b4b" font-weight="700" text-anchor="middle">XEMENEIA</text>
</svg>
