<svg viewBox="0 0 100 100" xmlns="http://www.w3.org/2000/svg">
  <!-- Marc rellotge -->
  <circle cx="50" cy="50" r="40" fill="#92400e"/>
  <!-- Esfera -->
  <circle cx="50" cy="50" r="36" fill="#f5f5f5"/>
  <!-- Marcadors principals (12, 3, 6, 9) -->
  <rect x="47" y="16" width="6" height="8" rx="2" fill="#374151"/>
  <rect x="76" y="47" width="8" height="6" rx="2" fill="#374151"/>
  <rect x="47" y="76" width="6" height="8" rx="2" fill="#374151"/>
  <rect x="16" y="47" width="8" height="6" rx="2" fill="#374151"/>
  <!-- Marcadors secundaris (petits) -->
  <circle cx="65" cy="21" r="2" fill="#9ca3af"/>
  <circle cx="79" cy="35" r="2" fill="#9ca3af"/>
  <circle cx="79" cy="65" r="2" fill="#9ca3af"/>
  <circle cx="65" cy="79" r="2" fill="#9ca3af"/>
  <circle cx="35" cy="79" r="2" fill="#9ca3af"/>
  <circle cx="21" cy="65" r="2" fill="#9ca3af"/>
  <circle cx="21" cy="35" r="2" fill="#9ca3af"/>
  <circle cx="35" cy="21" r="2" fill="#9ca3af"/>
  <!-- Agulles -->
  <line x1="50" y1="50" x2="50" y2="26" stroke="#1f2937" stroke-width="3" stroke-linecap="round"/>
  <line x1="50" y1="50" x2="68" y2="60" stroke="#1f2937" stroke-width="2" stroke-linecap="round"/>
  <!-- Pivot -->
  <circle cx="50" cy="50" r="4" fill="#374151"/>
  <text x="50" y="97" font-family="Arial,sans-serif" font-size="8" fill="#1e1b4b" font-weight="700" text-anchor="middle">RELLOTGE</text>
</svg>
