<svg viewBox="0 0 100 100" xmlns="http://www.w3.org/2000/svg">
  <!-- Cúpula paraigua (mig cercle) -->
  <path d="M8,52 Q8,12 50,12 Q92,12 92,52 Z" fill="#1d4ed8"/>
  <!-- Ratlles de la cúpula -->
  <line x1="50" y1="12" x2="50" y2="52" stroke="#3b82f6" stroke-width="2"/>
  <line x1="30" y1="14" x2="35" y2="52" stroke="#3b82f6" stroke-width="1.5"/>
  <line x1="70" y1="14" x2="65" y2="52" stroke="#3b82f6" stroke-width="1.5"/>
  <line x1="15" y1="22" x2="22" y2="52" stroke="#3b82f6" stroke-width="1.5"/>
  <line x1="85" y1="22" x2="78" y2="52" stroke="#3b82f6" stroke-width="1.5"/>
  <!-- Vora inferior cúpula (ondulada) -->
  <path d="M8,52 Q14,46 20,52 Q26,58 32,52 Q38,46 44,52 Q50,58 56,52 Q62,46 68,52 Q74,58 80,52 Q86,46 92,52" fill="none" stroke="#1d4ed8" stroke-width="2.5"/>
  <!-- Pal central -->
  <line x1="50" y1="52" x2="50" y2="80" stroke="#92400e" stroke-width="3" stroke-linecap="round"/>
  <!-- Mànec corbat -->
  <path d="M50,80 Q50,88 40,88 Q32,88 32,82" fill="none" stroke="#92400e" stroke-width="3.5" stroke-linecap="round"/>
</svg>
