<svg xmlns="http://www.w3.org/2000/svg" viewBox="0 0 100 100">
  <!-- Shower head -->
  <rect x="52" y="6" width="6" height="28" rx="3" fill="#6b7280" stroke="#4b5563" stroke-width="1.5"/>
  <ellipse cx="55" cy="36" rx="16" ry="7" fill="#9ca3af" stroke="#4b5563" stroke-width="2"/>
  <!-- Shower holes -->
  <circle cx="48" cy="36" r="1.5" fill="#4b5563"/>
  <circle cx="53" cy="34" r="1.5" fill="#4b5563"/>
  <circle cx="58" cy="34" r="1.5" fill="#4b5563"/>
  <circle cx="63" cy="36" r="1.5" fill="#4b5563"/>
  <circle cx="50" cy="39" r="1.5" fill="#4b5563"/>
  <circle cx="55" cy="38" r="1.5" fill="#4b5563"/>
  <circle cx="60" cy="39" r="1.5" fill="#4b5563"/>
  <!-- Water drops -->
  <path d="M46 46 Q45 50 46 54" stroke="#3b82f6" stroke-width="2.5" stroke-linecap="round" fill="none"/>
  <path d="M52 48 Q51 53 52 58" stroke="#3b82f6" stroke-width="2.5" stroke-linecap="round" fill="none"/>
  <path d="M58 47 Q57 52 58 57" stroke="#3b82f6" stroke-width="2.5" stroke-linecap="round" fill="none"/>
  <path d="M64 46 Q63 50 64 54" stroke="#3b82f6" stroke-width="2.5" stroke-linecap="round" fill="none"/>
  <path d="M49 56 Q48 60 49 64" stroke="#93c5fd" stroke-width="2" stroke-linecap="round" fill="none"/>
  <path d="M55 59 Q54 63 55 67" stroke="#93c5fd" stroke-width="2" stroke-linecap="round" fill="none"/>
  <path d="M61 57 Q60 61 61 65" stroke="#93c5fd" stroke-width="2" stroke-linecap="round" fill="none"/>
  <!-- Tray/base -->
  <rect x="12" y="82" width="76" height="12" rx="4" fill="#e5e7eb" stroke="#9ca3af" stroke-width="2"/>
  <!-- Drain -->
  <circle cx="50" cy="88" r="4" fill="#d1d5db" stroke="#6b7280" stroke-width="1.5"/>
  <line x1="47" y1="88" x2="53" y2="88" stroke="#6b7280" stroke-width="1"/>
  <line x1="50" y1="85" x2="50" y2="91" stroke="#6b7280" stroke-width="1"/>
</svg>
