<svg viewBox="0 0 100 100" xmlns="http://www.w3.org/2000/svg">
  <!-- Llosana de pedra -->
  <rect x="10" y="58" width="80" height="7" rx="2" fill="#94a3b8"/>
  <!-- Barana - passamà horitzontal -->
  <rect x="10" y="32" width="80" height="4" rx="1" fill="#6b7280"/>
  <!-- Barres verticals barana -->
  <rect x="13" y="36" width="3" height="22" rx="1" fill="#6b7280"/>
  <rect x="22" y="36" width="3" height="22" rx="1" fill="#6b7280"/>
  <rect x="31" y="36" width="3" height="22" rx="1" fill="#6b7280"/>
  <rect x="40" y="36" width="3" height="22" rx="1" fill="#6b7280"/>
  <rect x="49" y="36" width="3" height="22" rx="1" fill="#6b7280"/>
  <rect x="58" y="36" width="3" height="22" rx="1" fill="#6b7280"/>
  <rect x="67" y="36" width="3" height="22" rx="1" fill="#6b7280"/>
  <rect x="76" y="36" width="3" height="22" rx="1" fill="#6b7280"/>
  <rect x="85" y="36" width="3" height="22" rx="1" fill="#6b7280"/>
  <!-- Test amb flors -->
  <rect x="20" y="45" width="12" height="10" rx="2" fill="#d97706"/>
  <line x1="26" y1="45" x2="26" y2="38" stroke="#16a34a" stroke-width="1.5"/>
  <circle cx="26" cy="36" r="4" fill="#ec4899"/>
  <!-- Test 2 -->
  <rect x="66" y="45" width="12" height="10" rx="2" fill="#d97706"/>
  <line x1="72" y1="45" x2="72" y2="38" stroke="#16a34a" stroke-width="1.5"/>
  <circle cx="72" cy="36" r="4" fill="#ec4899"/>
</svg>
