<svg xmlns="http://www.w3.org/2000/svg" viewBox="0 0 100 100">
  <!-- Cua -->
  <polygon points="8,42 8,58 20,50" fill="#546e7a"/>
  <!-- Cos del peix - forma peix petit -->
  <ellipse cx="56" cy="50" rx="38" ry="16" fill="#78909c"/>
  <!-- Escates línies -->
  <line x1="45" y1="38" x2="40" y2="62" stroke="#546e7a" stroke-width="1" opacity="0.6"/>
  <line x1="55" y1="36" x2="50" y2="64" stroke="#546e7a" stroke-width="1" opacity="0.6"/>
  <line x1="65" y1="37" x2="60" y2="63" stroke="#546e7a" stroke-width="1" opacity="0.6"/>
  <line x1="75" y1="40" x2="72" y2="60" stroke="#546e7a" stroke-width="1" opacity="0.6"/>
  <!-- Aleta dorsal -->
  <path d="M 45,34 Q 55,22 70,34" fill="#607d8b" stroke="none"/>
  <!-- Aleta ventral -->
  <path d="M 50,65 Q 60,74 70,65" fill="#607d8b" stroke="none"/>
  <!-- Aleta pectoral -->
  <ellipse cx="68" cy="50" rx="10" ry="5" fill="#546e7a" transform="rotate(-15,68,50)"/>
  <!-- Ull -->
  <circle cx="84" cy="47" r="4" fill="white"/>
  <circle cx="85" cy="47" r="2.2" fill="#1a237e"/>
  <circle cx="85.8" cy="46.2" r="0.8" fill="white"/>
  <!-- Boca -->
  <path d="M 92,50 Q 96,53 92,56" fill="none" stroke="#546e7a" stroke-width="1.5" stroke-linecap="round"/>
</svg>
