<svg xmlns="http://www.w3.org/2000/svg" viewBox="0 0 100 100">
  <!-- Background -->
  <rect width="100" height="100" fill="#fffbeb" rx="12"/>
  <!-- Croissant crescent shape - main body -->
  <path d="M18 65 Q12 45 25 32 Q38 20 55 26 Q70 32 75 45 Q80 58 72 68 Q65 75 55 70 Q42 65 38 55 Q34 45 40 38 Q46 30 56 34 Q64 38 65 48 Q66 56 60 62 Q52 68 45 63" fill="#d97706" stroke="#b45309" stroke-width="2.5" stroke-linejoin="round"/>
  <!-- Layer lines to show pastry -->
  <path d="M32 58 Q30 46 38 38 Q46 30 56 34" fill="none" stroke="#f59e0b" stroke-width="2" stroke-linecap="round" opacity="0.8"/>
  <path d="M40 64 Q36 52 42 42 Q49 33 58 36" fill="none" stroke="#f59e0b" stroke-width="1.5" stroke-linecap="round" opacity="0.7"/>
  <!-- Darker shading on underside -->
  <path d="M18 65 Q14 58 20 48 Q24 42 30 40" fill="none" stroke="#92400e" stroke-width="2" stroke-linecap="round" opacity="0.5"/>
  <!-- Golden sheen on top -->
  <path d="M30 42 Q38 28 54 28 Q64 28 70 38" fill="none" stroke="#fde68a" stroke-width="3" stroke-linecap="round" opacity="0.6"/>
  <!-- Tips -->
  <ellipse cx="18" cy="66" rx="5" ry="4" fill="#b45309" transform="rotate(-30 18 66)"/>
  <ellipse cx="72" cy="68" rx="5" ry="4" fill="#b45309" transform="rotate(20 72 68)"/>
  <!-- Label -->
</svg>
