<svg xmlns="http://www.w3.org/2000/svg" viewBox="0 0 100 100">
  <!-- Whole melon -->
  <ellipse cx="38" cy="52" rx="26" ry="30" fill="#15803d"/>
  <!-- Stripes on melon -->
  <path d="M38 22 Q44 30 44 52 Q44 72 38 82" stroke="#166534" stroke-width="3" fill="none"/>
  <path d="M38 22 Q32 30 32 52 Q32 72 38 82" stroke="#166534" stroke-width="3" fill="none"/>
  <path d="M38 22 Q50 28 54 52 Q52 72 38 82" stroke="#166534" stroke-width="2.5" fill="none"/>
  <path d="M38 22 Q26 28 22 52 Q24 72 38 82" stroke="#166534" stroke-width="2.5" fill="none"/>
  <!-- Stem -->
  <rect x="36.5" y="19" width="3" height="7" rx="1.5" fill="#92400e"/>
  <!-- Highlight -->
  <ellipse cx="28" cy="38" rx="7" ry="10" fill="#4ade80" opacity="0.4"/>
  <!-- Melon slice (right side) -->
  <path d="M64 35 A22 22 0 0 1 64 69 L64 52Z" fill="#d9f99d"/>
  <path d="M64 35 A22 22 0 0 1 64 69" fill="none" stroke="#15803d" stroke-width="2.5"/>
  <!-- Slice rind -->
  <path d="M64 35 A22 22 0 0 1 64 69" fill="none" stroke="#166534" stroke-width="4" opacity="0.6"/>
  <!-- Slice interior -->
  <path d="M64 52 L84 44 L86 52 L84 60Z" fill="#bbf7d0" opacity="0.5"/>
  <!-- Seeds in slice -->
  <ellipse cx="75" cy="48" rx="2" ry="3" fill="#166534"/>
  <ellipse cx="78" cy="52" rx="2" ry="3" fill="#166534"/>
  <ellipse cx="75" cy="56" rx="2" ry="3" fill="#166534"/>
  <text x="50" y="97" font-family="Arial,sans-serif" font-size="8" fill="#1e1b4b" font-weight="700" text-anchor="middle">MELÓ</text>
</svg>
