<svg xmlns="http://www.w3.org/2000/svg" viewBox="0 0 100 100">
  <!-- Background -->
  <rect width="100" height="100" fill="#f0f9ff" rx="12"/>
  <!-- Blister pack background rectangle -->
  <rect x="14" y="28" width="72" height="48" rx="6" fill="#e0f2fe" stroke="#7dd3fc" stroke-width="2"/>
  <!-- Inner grid lines -->
  <line x1="38" y1="28" x2="38" y2="76" stroke="#7dd3fc" stroke-width="1.5"/>
  <line x1="62" y1="28" x2="62" y2="76" stroke="#7dd3fc" stroke-width="1.5"/>
  <line x1="14" y1="52" x2="86" y2="52" stroke="#7dd3fc" stroke-width="1.5"/>
  <!-- Row 1 pills -->
  <!-- Pill 1,1 - red -->
  <ellipse cx="26" cy="40" rx="9" ry="11" fill="#ef4444" stroke="#dc2626" stroke-width="1.5"/>
  <ellipse cx="23" cy="37" rx="3" ry="2" fill="#fca5a5" opacity="0.7"/>
  <!-- Pill 1,2 - blue -->
  <ellipse cx="50" cy="40" rx="9" ry="11" fill="#3b82f6" stroke="#2563eb" stroke-width="1.5"/>
  <ellipse cx="47" cy="37" rx="3" ry="2" fill="#93c5fd" opacity="0.7"/>
  <!-- Pill 1,3 - red -->
  <ellipse cx="74" cy="40" rx="9" ry="11" fill="#ef4444" stroke="#dc2626" stroke-width="1.5"/>
  <ellipse cx="71" cy="37" rx="3" ry="2" fill="#fca5a5" opacity="0.7"/>
  <!-- Row 2 pills -->
  <!-- Pill 2,1 - blue -->
  <ellipse cx="26" cy="64" rx="9" ry="11" fill="#3b82f6" stroke="#2563eb" stroke-width="1.5"/>
  <ellipse cx="23" cy="61" rx="3" ry="2" fill="#93c5fd" opacity="0.7"/>
  <!-- Pill 2,2 - red -->
  <ellipse cx="50" cy="64" rx="9" ry="11" fill="#ef4444" stroke="#dc2626" stroke-width="1.5"/>
  <ellipse cx="47" cy="61" rx="3" ry="2" fill="#fca5a5" opacity="0.7"/>
  <!-- Pill 2,3 - blue -->
  <ellipse cx="74" cy="64" rx="9" ry="11" fill="#3b82f6" stroke="#2563eb" stroke-width="1.5"/>
  <ellipse cx="71" cy="61" rx="3" ry="2" fill="#93c5fd" opacity="0.7"/>
  <!-- Label -->
</svg>
