<svg xmlns="http://www.w3.org/2000/svg" viewBox="0 0 100 100">
  <!-- Outer leaves (darkest) -->
  <ellipse cx="50" cy="55" rx="36" ry="30" fill="#16a34a"/>
  <!-- Leaf shapes outer layer -->
  <path d="M14 55 Q16 35 35 28 Q50 22 65 28 Q84 35 86 55 Q84 72 65 78 Q50 83 35 78 Q16 72 14 55Z" fill="#22c55e"/>
  <!-- Middle leaves -->
  <path d="M22 55 Q24 38 40 32 Q50 28 60 32 Q76 38 78 55 Q76 70 60 76 Q50 80 40 76 Q24 70 22 55Z" fill="#4ade80"/>
  <!-- Inner leaves -->
  <path d="M30 55 Q32 42 44 38 Q50 35 56 38 Q68 42 70 55 Q68 66 56 70 Q50 73 44 70 Q32 66 30 55Z" fill="#86efac"/>
  <!-- Center tight head -->
  <circle cx="50" cy="55" r="12" fill="#bbf7d0"/>
  <!-- Vein lines on outer leaves -->
  <path d="M14 55 Q30 50 50 55" stroke="#15803d" stroke-width="0.8" fill="none" opacity="0.6"/>
  <path d="M86 55 Q70 50 50 55" stroke="#15803d" stroke-width="0.8" fill="none" opacity="0.6"/>
  <path d="M22 38 Q36 46 50 45" stroke="#15803d" stroke-width="0.8" fill="none" opacity="0.6"/>
  <path d="M78 38 Q64 46 50 45" stroke="#15803d" stroke-width="0.8" fill="none" opacity="0.6"/>
  <path d="M30 72 Q40 65 50 65" stroke="#15803d" stroke-width="0.8" fill="none" opacity="0.6"/>
  <path d="M70 72 Q60 65 50 65" stroke="#15803d" stroke-width="0.8" fill="none" opacity="0.6"/>
</svg>
