<svg xmlns="http://www.w3.org/2000/svg" viewBox="0 0 100 100">
  <!-- Copa de vi -->
  <!-- Peu -->
  <ellipse cx="50" cy="84" rx="18" ry="4" fill="#e5e7eb"/>
  <ellipse cx="50" cy="83" rx="18" ry="4" fill="#f0f0f0"/>
  <!-- Tija -->
  <rect x="47" y="62" width="6" height="22" rx="3" fill="#e5e7eb"/>
  <!-- Cos de la copa -->
  <path d="M 28 18 Q 22 42 30 58 Q 36 68 50 68 Q 64 68 70 58 Q 78 42 72 18 Z" fill="#f5f5f5" opacity="0.5"/>
  <path d="M 28 18 Q 22 42 30 58 Q 36 68 50 68 Q 64 68 70 58 Q 78 42 72 18 Z" fill="none" stroke="#d1d5db" stroke-width="2.5"/>
  <!-- Vi negre/rosat dins -->
  <path d="M 30 40 Q 26 55 32 60 Q 38 67 50 67 Q 62 67 68 60 Q 74 55 70 40 Z" fill="#9f1239" opacity="0.85"/>
  <!-- Brillantor del vi -->
  <path d="M 34 45 Q 33 55 35 60" fill="none" stroke="#fb7185" stroke-width="2" opacity="0.5" stroke-linecap="round"/>
  <ellipse cx="42" cy="43" rx="5" ry="2" fill="#fda4af" opacity="0.4"/>
  <!-- Reflexo lateral copa -->
  <path d="M 30 20 Q 27 38 30 52" fill="none" stroke="white" stroke-width="3" opacity="0.4" stroke-linecap="round"/>
  <!-- Label -->
  <text x="50" y="97" font-family="Arial,sans-serif" font-size="8" fill="#1e1b4b" font-weight="700" text-anchor="middle">COPA</text>
</svg>
