<svg xmlns="http://www.w3.org/2000/svg" viewBox="0 0 100 100">
  <!-- Taula de sopar nocturna -->
  <!-- Cel nocturn -->
  <rect x="0" y="0" width="100" height="60" rx="0" fill="#1e1b4b" opacity="0.15"/>
  <!-- Lluna -->
  <circle cx="82" cy="10" r="10" fill="#fbbf24" opacity="0.9"/>
  <circle cx="87" cy="7" r="7" fill="#1e1b4b" opacity="0.15"/>
  <!-- Estrelles -->
  <circle cx="15" cy="8" r="1.5" fill="#fbbf24"/>
  <circle cx="30" cy="5" r="1" fill="#fbbf24"/>
  <circle cx="55" cy="9" r="1.5" fill="#fbbf24"/>
  <!-- Taula -->
  <rect x="5" y="68" width="90" height="8" rx="3" fill="#92400e"/>
  <rect x="5" y="65" width="90" height="5" rx="3" fill="#b45309"/>
  <!-- PLAT (esquerra) -->
  <ellipse cx="30" cy="63" rx="18" ry="5" fill="#e5e7eb"/>
  <ellipse cx="30" cy="62" rx="18" ry="5" fill="#f5f5f5"/>
  <ellipse cx="30" cy="61" rx="13" ry="3.5" fill="#e5e7eb"/>
  <!-- Menjar al plat -->
  <ellipse cx="30" cy="60" rx="10" ry="3" fill="#f97316" opacity="0.8"/>
  <ellipse cx="28" cy="59" rx="4" ry="2" fill="#16a34a" opacity="0.8"/>
  <!-- COPA DE VI (dreta) -->
  <path d="M 62 38 Q 58 52 62 60 Q 65 65 72 65 Q 79 65 82 60 Q 86 52 82 38 Z" fill="#9f1239" opacity="0.7"/>
  <path d="M 62 38 Q 58 52 62 60 Q 65 65 72 65 Q 79 65 82 60 Q 86 52 82 38 Z" fill="none" stroke="#d1d5db" stroke-width="2"/>
  <rect x="70" y="65" width="4" height="10" rx="2" fill="#d1d5db"/>
  <ellipse cx="72" cy="75" rx="8" ry="2" fill="#d1d5db"/>
  <!-- ESPELMA (centre) -->
  <rect x="46" y="38" width="8" height="28" rx="3" fill="#fde047"/>
  <rect x="47" y="39" width="3" height="26" rx="2" fill="#fef9c3" opacity="0.6"/>
  <!-- Flama -->
  <path d="M 50 38 Q 46 30 50 25 Q 54 30 50 38 Z" fill="#f97316"/>
  <path d="M 50 37 Q 48 32 50 27 Q 52 32 50 37 Z" fill="#fbbf24"/>
  <!-- Llum de l'espelma -->
  <circle cx="50" cy="32" r="15" fill="#fbbf24" opacity="0.1"/>
  <!-- Gotes de cera -->
  <path d="M 47 60 Q 46 64 47 66" stroke="#fef9c3" stroke-width="2" fill="none" stroke-linecap="round"/>
  <!-- Label -->
</svg>
