<svg xmlns="http://www.w3.org/2000/svg" viewBox="0 0 100 100">
  <!-- Entrepà / sandvitx -->
  <!-- Llesca de pa superior -->
  <path d="M 10 28 Q 10 16 50 14 Q 90 16 90 28 L 88 42 L 12 42 Z" fill="#d97706"/>
  <path d="M 12 28 Q 12 18 50 16 Q 88 18 88 28 L 86 40 L 14 40 Z" fill="#f59e0b"/>
  <!-- Farcit: enciam (verd) -->
  <path d="M 8 42 Q 8 48 50 50 Q 92 48 92 42 L 88 42 L 12 42 Z" fill="#4ade80"/>
  <path d="M 10 44 Q 20 50 35 47 Q 50 52 65 47 Q 80 50 90 44" fill="none" stroke="#16a34a" stroke-width="2"/>
  <!-- Farcit: tomàquet (vermell) -->
  <ellipse cx="30" cy="53" rx="14" ry="5" fill="#ef4444"/>
  <ellipse cx="55" cy="52" rx="14" ry="5" fill="#ef4444"/>
  <ellipse cx="75" cy="53" rx="10" ry="4" fill="#ef4444"/>
  <!-- Farcit: pernil (taronja) -->
  <path d="M 8 55 Q 8 62 50 64 Q 92 62 92 55 L 88 50 L 12 50 Z" fill="#f97316" opacity="0.8"/>
  <!-- Llesca de pa inferior -->
  <path d="M 8 64 L 12 80 Q 12 86 50 86 Q 88 86 88 80 L 92 64 Z" fill="#d97706"/>
  <path d="M 10 64 L 14 78 Q 14 84 50 84 Q 86 84 86 78 L 90 64 Z" fill="#f59e0b"/>
  <!-- Crosta inferior -->
  <path d="M 12 80 Q 12 86 50 86 Q 88 86 88 80" fill="none" stroke="#92400e" stroke-width="3"/>
  <!-- Label -->
  <text x="50" y="97" font-family="Arial,sans-serif" font-size="8" fill="#1e1b4b" font-weight="700" text-anchor="middle">ENTREPÀ</text>
</svg>
