<svg xmlns="http://www.w3.org/2000/svg" viewBox="0 0 100 100">
  <!-- Tassa de te amb flors i bosseta -->
  <!-- Plat -->
  <ellipse cx="50" cy="78" rx="36" ry="7" fill="#e5e7eb"/>
  <ellipse cx="50" cy="76" rx="36" ry="7" fill="#f5f5f5"/>
  <ellipse cx="50" cy="75" rx="28" ry="5" fill="#e5e7eb"/>
  <!-- Tassa forma lleument arrodonida -->
  <path d="M 28 44 Q 26 72 30 72 L 70 72 Q 74 72 72 44 Z" fill="#f5f5f5"/>
  <!-- Te dins -->
  <ellipse cx="50" cy="44" rx="22" ry="6" fill="#92400e" opacity="0.8"/>
  <ellipse cx="50" cy="43" rx="20" ry="5" fill="#b45309"/>
  <!-- Patró floral a la tassa -->
  <!-- Flor 1 -->
  <circle cx="36" cy="57" r="4" fill="#f9a8d4" opacity="0.8"/>
  <circle cx="33" cy="54" r="2.5" fill="#fbcfe8" opacity="0.7"/>
  <circle cx="39" cy="54" r="2.5" fill="#fbcfe8" opacity="0.7"/>
  <circle cx="36" cy="51" r="2.5" fill="#fbcfe8" opacity="0.7"/>
  <!-- Flor 2 -->
  <circle cx="62" cy="60" r="3.5" fill="#f9a8d4" opacity="0.8"/>
  <circle cx="59" cy="57" r="2" fill="#fbcfe8" opacity="0.7"/>
  <circle cx="65" cy="57" r="2" fill="#fbcfe8" opacity="0.7"/>
  <!-- Nansa -->
  <path d="M 70 50 Q 82 50 82 60 Q 82 70 70 70" fill="none" stroke="#f5f5f5" stroke-width="6" stroke-linecap="round"/>
  <path d="M 70 51 Q 80 51 80 60 Q 80 69 70 69" fill="none" stroke="#e5e7eb" stroke-width="2"/>
  <!-- Bosseta de te penjada -->
  <line x1="50" y1="18" x2="50" y2="43" stroke="#92400e" stroke-width="1.5"/>
  <rect x="42" y="8" width="16" height="12" rx="3" fill="#d97706"/>
  <rect x="43" y="9" width="14" height="10" rx="2" fill="#f59e0b"/>
  <!-- Text etiqueta bosseta -->
  <line x1="50" y1="8" x2="56" y2="5" stroke="#d97706" stroke-width="1.5"/>
  <rect x="55" y="2" width="8" height="5" rx="1" fill="#f59e0b"/>
  <!-- Vapor -->
  <path d="M 38 33 Q 40 27 38 22" fill="none" stroke="#d1d5db" stroke-width="2" stroke-linecap="round"/>
  <path d="M 60 33 Q 62 27 60 22" fill="none" stroke="#d1d5db" stroke-width="2" stroke-linecap="round"/>
  <!-- Label -->
</svg>
