<svg xmlns="http://www.w3.org/2000/svg" viewBox="0 0 100 100">
  <!-- Rodanxa de pizza (triangle) -->
  <!-- Crosta daurada exterior -->
  <path d="M 50 5 L 5 88 L 95 88 Z" fill="#d97706"/>
  <!-- Interior de la pizza (salsa) -->
  <path d="M 50 14 L 11 84 L 89 84 Z" fill="#ef4444"/>
  <!-- Mozzarella groga (taques irregulars) -->
  <ellipse cx="50" cy="35" rx="12" ry="8" fill="#fbbf24"/>
  <ellipse cx="32" cy="60" rx="11" ry="7" fill="#fbbf24"/>
  <ellipse cx="68" cy="60" rx="11" ry="7" fill="#fbbf24"/>
  <ellipse cx="50" cy="70" rx="8" ry="6" fill="#fbbf24"/>
  <!-- Olives negres -->
  <ellipse cx="42" cy="45" rx="5" ry="4" fill="#1f2937"/>
  <ellipse cx="60" cy="48" rx="5" ry="4" fill="#1f2937"/>
  <ellipse cx="36" cy="72" rx="5" ry="4" fill="#1f2937"/>
  <ellipse cx="64" cy="72" rx="5" ry="4" fill="#1f2937"/>
  <!-- Forats de les olives -->
  <circle cx="42" cy="45" r="2" fill="#374151"/>
  <circle cx="60" cy="48" r="2" fill="#374151"/>
  <circle cx="36" cy="72" r="2" fill="#374151"/>
  <circle cx="64" cy="72" r="2" fill="#374151"/>
  <!-- Crosta amb textura -->
  <path d="M 5 88 L 95 88" stroke="#92400e" stroke-width="3"/>
  <path d="M 50 5 L 5 88" stroke="#92400e" stroke-width="2.5" opacity="0.5"/>
  <path d="M 50 5 L 95 88" stroke="#92400e" stroke-width="2.5" opacity="0.5"/>
  <!-- Bombolles a la crosta -->
  <circle cx="20" cy="80" r="4" fill="#f59e0b" opacity="0.7"/>
  <circle cx="50" cy="83" r="4" fill="#f59e0b" opacity="0.7"/>
  <circle cx="78" cy="80" r="4" fill="#f59e0b" opacity="0.7"/>
  <!-- Label -->
</svg>
