<svg xmlns="http://www.w3.org/2000/svg" viewBox="0 0 100 100">
  <!-- Tassa de cafè amb plat -->
  <!-- Plat -->
  <ellipse cx="50" cy="78" rx="38" ry="8" fill="#e5e7eb"/>
  <ellipse cx="50" cy="76" rx="38" ry="8" fill="#f5f5f5"/>
  <ellipse cx="50" cy="75" rx="30" ry="5" fill="#e5e7eb"/>
  <!-- Tassa -->
  <path d="M 28 45 L 32 72 L 68 72 L 72 45 Z" fill="#f5f5f5"/>
  <path d="M 28 45 L 72 45" stroke="#e5e7eb" stroke-width="2"/>
  <!-- Cafè dins la tassa -->
  <ellipse cx="50" cy="45" rx="22" ry="6" fill="#1f2937"/>
  <ellipse cx="50" cy="44" rx="20" ry="5" fill="#374151"/>
  <!-- Espuma/crema -->
  <ellipse cx="50" cy="43" rx="16" ry="3" fill="#92400e" opacity="0.6"/>
  <ellipse cx="46" cy="42" rx="6" ry="2" fill="#d97706" opacity="0.5"/>
  <!-- Nansa de la tassa -->
  <path d="M 68 52 Q 82 52 82 62 Q 82 72 68 72" fill="none" stroke="#f5f5f5" stroke-width="6" stroke-linecap="round"/>
  <path d="M 68 53 Q 80 53 80 62 Q 80 71 68 71" fill="none" stroke="#e5e7eb" stroke-width="2"/>
  <!-- Vapor -->
  <path d="M 38 35 Q 40 28 38 22" fill="none" stroke="#d1d5db" stroke-width="2.5" stroke-linecap="round"/>
  <path d="M 50 32 Q 52 25 50 18" fill="none" stroke="#d1d5db" stroke-width="2.5" stroke-linecap="round"/>
  <path d="M 62 35 Q 64 28 62 22" fill="none" stroke="#d1d5db" stroke-width="2.5" stroke-linecap="round"/>
  <!-- Label -->
</svg>
