<svg xmlns="http://www.w3.org/2000/svg" viewBox="0 0 100 100">
  <!-- Bol d'arròs -->
  <!-- Bol blanc vist lleugerament de costat -->
  <!-- Ombra del bol -->
  <ellipse cx="50" cy="82" rx="30" ry="5" fill="#e2e8f0" opacity="0.7"/>
  <!-- Cos del bol -->
  <path d="M 15 52 Q 15 82 50 82 Q 85 82 85 52 Z" fill="#f5f5f5"/>
  <path d="M 16 52 Q 16 80 50 80 Q 84 80 84 52 Z" fill="white"/>
  <!-- Vora del bol -->
  <ellipse cx="50" cy="52" rx="35" ry="9" fill="#f5f5f5"/>
  <ellipse cx="50" cy="51" rx="35" ry="9" fill="white"/>
  <ellipse cx="50" cy="50" rx="33" ry="8" fill="#fef9c3"/>
  <!-- Arròs granulat dins (petits cercles/el·lipses blanques) -->
  <ellipse cx="38" cy="54" rx="3" ry="1.5" fill="white"/>
  <ellipse cx="44" cy="52" rx="3" ry="1.5" fill="white"/>
  <ellipse cx="50" cy="51" rx="3" ry="1.5" fill="white"/>
  <ellipse cx="56" cy="52" rx="3" ry="1.5" fill="white"/>
  <ellipse cx="62" cy="54" rx="3" ry="1.5" fill="white"/>
  <ellipse cx="35" cy="57" rx="3" ry="1.5" fill="white"/>
  <ellipse cx="41" cy="56" rx="3" ry="1.5" fill="white"/>
  <ellipse cx="47" cy="55" rx="3" ry="1.5" fill="white"/>
  <ellipse cx="53" cy="55" rx="3" ry="1.5" fill="white"/>
  <ellipse cx="59" cy="56" rx="3" ry="1.5" fill="white"/>
  <ellipse cx="65" cy="57" rx="3" ry="1.5" fill="white"/>
  <ellipse cx="37" cy="61" rx="3" ry="1.5" fill="white"/>
  <ellipse cx="43" cy="59" rx="3" ry="1.5" fill="white"/>
  <ellipse cx="50" cy="58" rx="3" ry="1.5" fill="white"/>
  <ellipse cx="57" cy="59" rx="3" ry="1.5" fill="white"/>
  <ellipse cx="63" cy="61" rx="3" ry="1.5" fill="white"/>
  <!-- Decoració del bol: línia blava -->
  <path d="M 17 56 Q 50 60 83 56" fill="none" stroke="#93c5fd" stroke-width="2" opacity="0.6"/>
  <!-- Brillantor del bol -->
  <path d="M 18 60 Q 20 72 22 78" fill="none" stroke="white" stroke-width="3" opacity="0.5" stroke-linecap="round"/>
  <!-- Label -->
  <text x="50" y="97" font-family="Arial,sans-serif" font-size="8" fill="#1e1b4b" font-weight="700" text-anchor="middle">ARRÒS</text>
</svg>
