<svg xmlns="http://www.w3.org/2000/svg" viewBox="0 0 100 100">
  <!-- Cos principal del tauró -->
  <ellipse cx="48" cy="55" rx="36" ry="16" fill="#94a3b8"/>
  <!-- Ventre -->
  <ellipse cx="48" cy="60" rx="28" ry="9" fill="#e2e8f0"/>
  <!-- Morro punxegut -->
  <polygon points="84,55 72,48 72,62" fill="#94a3b8"/>
  <!-- Aleta dorsal triangular gran -->
  <polygon points="38,39 52,39 44,20" fill="#78909c"/>
  <!-- Aleta pectoral esquerra -->
  <polygon points="38,58 50,65 36,72" fill="#78909c"/>
  <!-- Aleta pectoral dreta -->
  <polygon points="55,58 63,63 54,68" fill="#78909c"/>
  <!-- Cua en V -->
  <polygon points="12,55 22,44 22,55" fill="#78909c"/>
  <polygon points="12,55 22,55 22,66" fill="#78909c"/>
  <!-- Línia lateral -->
  <path d="M72,52 Q50,50 20,53" fill="none" stroke="#64748b" stroke-width="0.8" opacity="0.6"/>
  <!-- Boca amb dents -->
  <path d="M73,55 Q78,60 73,63" fill="none" stroke="#475569" stroke-width="0.8"/>
  <polygon points="74,57 77,55 77,58" fill="#f5f5f5"/>
  <polygon points="77,55 80,56 79,59" fill="#f5f5f5"/>
  <polygon points="77,63 80,61 79,58" fill="#f5f5f5"/>
  <!-- Ull -->
  <circle cx="70" cy="51" r="2.5" fill="#1e1b4b"/>
  <circle cx="70.8" cy="50.2" r="0.7" fill="white"/>
  <!-- Label -->
</svg>
