<svg viewBox="0 0 100 100" xmlns="http://www.w3.org/2000/svg">
  <!-- Ales transparents blaves -->
  <ellipse cx="33" cy="44" rx="16" ry="10" fill="#bae6fd" opacity="0.8" transform="rotate(-20 33 44)"/>
  <ellipse cx="67" cy="44" rx="16" ry="10" fill="#bae6fd" opacity="0.8" transform="rotate(20 67 44)"/>
  <!-- Cos ovalat groc -->
  <ellipse cx="50" cy="58" rx="14" ry="20" fill="#fde047"/>
  <!-- Ratlles negres horitzontals -->
  <rect x="36" y="47" width="28" height="5" rx="2" fill="#1a1a1a"/>
  <rect x="36" y="55" width="28" height="5" rx="2" fill="#1a1a1a"/>
  <rect x="36" y="63" width="28" height="5" rx="2" fill="#1a1a1a"/>
  <rect x="37" y="71" width="26" height="4" rx="2" fill="#1a1a1a"/>
  <!-- Cap petit rodó -->
  <circle cx="50" cy="35" r="10" fill="#fde047"/>
  <!-- Ulls -->
  <circle cx="45" cy="33" r="2.5" fill="#1a1a1a"/>
  <circle cx="55" cy="33" r="2.5" fill="#1a1a1a"/>
  <!-- Bec/boca -->
  <path d="M46,38 Q50,41 54,38" stroke="#1a1a1a" stroke-width="1.5" fill="none" stroke-linecap="round"/>
  <!-- Antenes -->
  <line x1="46" y1="26" x2="40" y2="16" stroke="#1a1a1a" stroke-width="1.5" stroke-linecap="round"/>
  <circle cx="40" cy="16" r="2" fill="#1a1a1a"/>
  <line x1="54" y1="26" x2="60" y2="16" stroke="#1a1a1a" stroke-width="1.5" stroke-linecap="round"/>
  <circle cx="60" cy="16" r="2" fill="#1a1a1a"/>
  <!-- Potes petites -->
  <line x1="38" y1="60" x2="28" y2="65" stroke="#1a1a1a" stroke-width="1.5" stroke-linecap="round"/>
  <line x1="38" y1="68" x2="28" y2="73" stroke="#1a1a1a" stroke-width="1.5" stroke-linecap="round"/>
  <line x1="62" y1="60" x2="72" y2="65" stroke="#1a1a1a" stroke-width="1.5" stroke-linecap="round"/>
  <line x1="62" y1="68" x2="72" y2="73" stroke="#1a1a1a" stroke-width="1.5" stroke-linecap="round"/>
  <text x="50" y="97" font-family="Arial,sans-serif" font-size="8" fill="#1e1b4b" font-weight="700" text-anchor="middle">ABELLA</text>
</svg>
