<svg xmlns="http://www.w3.org/2000/svg" viewBox="0 0 100 100">
  <!-- Cos gran rectangular blanc -->
  <rect x="15" y="46" width="62" height="32" rx="10" fill="#f5f5f5"/>
  <!-- Taques negres irregulars -->
  <ellipse cx="30" cy="52" rx="9" ry="7" fill="#2a2a2a"/>
  <ellipse cx="55" cy="60" rx="11" ry="8" fill="#2a2a2a" transform="rotate(-15 55 60)"/>
  <ellipse cx="70" cy="50" rx="7" ry="5" fill="#2a2a2a" transform="rotate(10 70 50)"/>
  <!-- Coll -->
  <rect x="62" y="28" width="12" height="22" rx="5" fill="#f5f5f5"/>
  <!-- Cap amb morro gran -->
  <rect x="60" y="14" width="22" height="20" rx="8" fill="#f5f5f5"/>
  <!-- Morro gran -->
  <ellipse cx="76" cy="30" rx="8" ry="6" fill="#e0c0b0"/>
  <!-- Banyes -->
  <path d="M63 15 Q58 5 54 8 Q58 10 62 17Z" fill="#d4b896"/>
  <path d="M78 15 Q83 5 87 8 Q83 10 79 17Z" fill="#d4b896"/>
  <!-- Ull -->
  <circle cx="65" cy="20" r="3" fill="#1a1a1a"/>
  <circle cx="64" cy="19" r="1" fill="#fff"/>
  <!-- Nas -->
  <ellipse cx="73" cy="31" rx="2" ry="1.5" fill="#a07060"/>
  <ellipse cx="79" cy="31" rx="2" ry="1.5" fill="#a07060"/>
  <!-- Orella -->
  <ellipse cx="60" cy="20" rx="5" ry="7" fill="#f5f5f5" transform="rotate(-20 60 20)"/>
  <ellipse cx="60" cy="20" rx="3" ry="5" fill="#ffb6c1" transform="rotate(-20 60 20)"/>
  <!-- Cua (costat esquerre del cos) -->
  <path d="M15 56 Q5 53 4 60 Q7 66 14 63Z" fill="#d0d0d0"/>
  <!-- Braguer petit -->
  <ellipse cx="42" cy="80" rx="8" ry="5" fill="#ffb6c1"/>
  <line x1="38" y1="83" x2="37" y2="88" stroke="#ffb6c1" stroke-width="2"/>
  <line x1="42" y1="84" x2="42" y2="89" stroke="#ffb6c1" stroke-width="2"/>
  <line x1="46" y1="83" x2="47" y2="88" stroke="#ffb6c1" stroke-width="2"/>
  <!-- Potes -->
  <rect x="20" y="76" width="9" height="14" rx="3" fill="#e0e0e0"/>
  <rect x="32" y="76" width="9" height="14" rx="3" fill="#e0e0e0"/>
  <rect x="55" y="76" width="9" height="14" rx="3" fill="#e0e0e0"/>
  <rect x="67" y="76" width="9" height="14" rx="3" fill="#e0e0e0"/>
  <!-- Peülles -->
  <rect x="20" y="87" width="9" height="4" rx="2" fill="#2a2a2a"/>
  <rect x="32" y="87" width="9" height="4" rx="2" fill="#2a2a2a"/>
  <rect x="55" y="87" width="9" height="4" rx="2" fill="#2a2a2a"/>
  <rect x="67" y="87" width="9" height="4" rx="2" fill="#2a2a2a"/>
  <!-- Label -->
</svg>
