<svg xmlns="http://www.w3.org/2000/svg" viewBox="0 0 100 100">
  <!-- Cos -->
  <ellipse cx="50" cy="65" rx="24" ry="18" fill="#a0a0a0"/>
  <!-- Cua llarga corbada -->
  <path d="M74 72 Q92 65 90 50 Q89 42 84 44 Q88 52 80 63 Q76 68 73 70Z" fill="#a0a0a0"/>
  <!-- Cap -->
  <circle cx="50" cy="38" r="17" fill="#a0a0a0"/>
  <!-- Orella triangular esquerra -->
  <polygon points="35,28 30,12 43,22" fill="#a0a0a0"/>
  <polygon points="36,27 32,16 42,23" fill="#ffb6c1"/>
  <!-- Orella triangular dreta -->
  <polygon points="65,28 70,12 57,22" fill="#a0a0a0"/>
  <polygon points="64,27 68,16 58,23" fill="#ffb6c1"/>
  <!-- Ull esquerre -->
  <ellipse cx="43" cy="36" rx="4" ry="4" fill="#4caf50"/>
  <ellipse cx="43" cy="36" rx="1.5" ry="3" fill="#1a1a1a"/>
  <circle cx="42" cy="35" r="1" fill="#fff"/>
  <!-- Ull dret -->
  <ellipse cx="57" cy="36" rx="4" ry="4" fill="#4caf50"/>
  <ellipse cx="57" cy="36" rx="1.5" ry="3" fill="#1a1a1a"/>
  <circle cx="56" cy="35" r="1" fill="#fff"/>
  <!-- Nas -->
  <ellipse cx="50" cy="44" rx="3" ry="2" fill="#ff9bb0"/>
  <!-- Bigotis esquerra -->
  <line x1="30" y1="43" x2="47" y2="45" stroke="#555" stroke-width="0.8"/>
  <line x1="30" y1="46" x2="47" y2="46" stroke="#555" stroke-width="0.8"/>
  <!-- Bigotis dreta -->
  <line x1="70" y1="43" x2="53" y2="45" stroke="#555" stroke-width="0.8"/>
  <line x1="70" y1="46" x2="53" y2="46" stroke="#555" stroke-width="0.8"/>
  <!-- Potes davanteres -->
  <rect x="32" y="77" width="7" height="11" rx="3.5" fill="#a0a0a0"/>
  <rect x="61" y="77" width="7" height="11" rx="3.5" fill="#a0a0a0"/>
  <!-- Potes del darrere -->
  <rect x="24" y="74" width="7" height="11" rx="3.5" fill="#909090"/>
  <rect x="69" y="74" width="7" height="11" rx="3.5" fill="#909090"/>
  <!-- Label -->
</svg>
