<svg xmlns="http://www.w3.org/2000/svg" viewBox="0 0 100 100">
  <!-- Cos ovalat -->
  <ellipse cx="50" cy="67" rx="22" ry="18" fill="#f0f0f0"/>
  <!-- Cua petita i rodona -->
  <circle cx="72" cy="70" r="5" fill="#e0e0e0"/>
  <!-- Cap -->
  <circle cx="50" cy="42" r="16" fill="#f0f0f0"/>
  <!-- Orella esquerra llarga -->
  <ellipse cx="42" cy="18" rx="6" ry="16" fill="#f0f0f0"/>
  <ellipse cx="42" cy="18" rx="3.5" ry="13" fill="#ffb6c1"/>
  <!-- Orella dreta llarga -->
  <ellipse cx="58" cy="18" rx="6" ry="16" fill="#f0f0f0"/>
  <ellipse cx="58" cy="18" rx="3.5" ry="13" fill="#ffb6c1"/>
  <!-- Ull esquerre -->
  <circle cx="43" cy="40" r="3.5" fill="#ff6b9d"/>
  <circle cx="43" cy="40" r="2" fill="#cc3366"/>
  <circle cx="42" cy="39" r="0.8" fill="#fff"/>
  <!-- Ull dret -->
  <circle cx="57" cy="40" r="3.5" fill="#ff6b9d"/>
  <circle cx="57" cy="40" r="2" fill="#cc3366"/>
  <circle cx="56" cy="39" r="0.8" fill="#fff"/>
  <!-- Nas petit -->
  <ellipse cx="50" cy="47" rx="2.5" ry="1.8" fill="#ff9bb0"/>
  <!-- Boca -->
  <path d="M47 49 Q50 52 53 49" stroke="#ccc" stroke-width="1" fill="none"/>
  <!-- Potes davanteres -->
  <rect x="34" y="79" width="7" height="10" rx="3.5" fill="#f0f0f0"/>
  <rect x="59" y="79" width="7" height="10" rx="3.5" fill="#f0f0f0"/>
  <!-- Potes del darrere (més grans) -->
  <ellipse cx="30" cy="82" rx="8" ry="5" fill="#e0e0e0"/>
  <ellipse cx="70" cy="82" rx="8" ry="5" fill="#e0e0e0"/>
  <!-- Label -->
  <text x="50" y="97" font-family="Arial,sans-serif" font-size="8" fill="#1e1b4b" font-weight="700" text-anchor="middle">CONILL</text>
</svg>
