<svg viewBox="0 0 100 100" xmlns="http://www.w3.org/2000/svg">
  <!-- Cua -->
  <path d="M78 70 Q90 60 88 45" stroke="#f97316" stroke-width="4" fill="none" stroke-linecap="round"/>
  <line x1="85" y1="47" x2="90" y2="43" stroke="#1a1a1a" stroke-width="2"/>
  <line x1="86" y1="52" x2="91" y2="50" stroke="#1a1a1a" stroke-width="2"/>
  <!-- Cos -->
  <ellipse cx="50" cy="66" rx="28" ry="17" fill="#f97316"/>
  <!-- Ventre -->
  <ellipse cx="50" cy="70" rx="18" ry="10" fill="#fef3c7"/>
  <!-- Ratlles cos -->
  <line x1="38" y1="50" x2="34" y2="82" stroke="#1a1a1a" stroke-width="2.5" stroke-linecap="round"/>
  <line x1="48" y1="49" x2="46" y2="83" stroke="#1a1a1a" stroke-width="2.5" stroke-linecap="round"/>
  <line x1="58" y1="50" x2="58" y2="83" stroke="#1a1a1a" stroke-width="2.5" stroke-linecap="round"/>
  <line x1="67" y1="52" x2="70" y2="82" stroke="#1a1a1a" stroke-width="2.5" stroke-linecap="round"/>
  <!-- Potes darreres -->
  <rect x="60" y="78" width="8" height="12" rx="3" fill="#f97316"/>
  <rect x="70" y="78" width="8" height="12" rx="3" fill="#f97316"/>
  <!-- Potes davanteres -->
  <rect x="20" y="78" width="8" height="12" rx="3" fill="#f97316"/>
  <rect x="30" y="78" width="8" height="12" rx="3" fill="#f97316"/>
  <!-- Cap -->
  <ellipse cx="28" cy="52" rx="17" ry="15" fill="#f97316"/>
  <!-- Orelles -->
  <polygon points="15,38 20,28 25,38" fill="#f97316"/>
  <polygon points="16,38 20,30 24,38" fill="#fda4af"/>
  <polygon points="31,38 36,28 41,38" fill="#f97316"/>
  <polygon points="32,38 36,30 40,38" fill="#fda4af"/>
  <!-- Musell -->
  <ellipse cx="28" cy="60" rx="9" ry="6" fill="#fef3c7"/>
  <!-- Ratlles cap -->
  <line x1="22" y1="40" x2="19" y2="52" stroke="#1a1a1a" stroke-width="2" stroke-linecap="round"/>
  <line x1="28" y1="38" x2="28" y2="50" stroke="#1a1a1a" stroke-width="2" stroke-linecap="round"/>
  <line x1="34" y1="40" x2="37" y2="52" stroke="#1a1a1a" stroke-width="2" stroke-linecap="round"/>
  <!-- Nas -->
  <ellipse cx="28" cy="57" rx="3.5" ry="2" fill="#1a1a1a"/>
  <!-- Ulls -->
  <ellipse cx="21" cy="49" rx="3.5" ry="3.5" fill="#fef08a"/>
  <circle cx="21" cy="49" r="2" fill="#1a1a1a"/>
  <ellipse cx="35" cy="49" rx="3.5" ry="3.5" fill="#fef08a"/>
  <circle cx="35" cy="49" r="2" fill="#1a1a1a"/>
  <circle cx="20" cy="48" r="0.8" fill="white"/>
  <circle cx="34" cy="48" r="0.8" fill="white"/>
  <!-- Boca -->
  <path d="M23 62 Q28 66 33 62" stroke="#1a1a1a" stroke-width="1.5" fill="none" stroke-linecap="round"/>
  <!-- Label -->
</svg>
