<svg viewBox="0 0 100 100" xmlns="http://www.w3.org/2000/svg">
  <!-- Cos gran -->
  <ellipse cx="50" cy="64" rx="26" ry="22" fill="#374151"/>
  <!-- Pit gran -->
  <ellipse cx="50" cy="58" rx="20" ry="16" fill="#4b5563"/>
  <!-- Braços llargs -->
  <path d="M24 56 Q12 68 14 82" stroke="#374151" stroke-width="10" fill="none" stroke-linecap="round"/>
  <ellipse cx="14" cy="83" rx="7" ry="5" fill="#111827"/>
  <path d="M76 56 Q88 68 86 82" stroke="#374151" stroke-width="10" fill="none" stroke-linecap="round"/>
  <ellipse cx="86" cy="83" rx="7" ry="5" fill="#111827"/>
  <!-- Potes -->
  <rect x="32" y="80" width="12" height="12" rx="4" fill="#374151"/>
  <ellipse cx="38" cy="92" rx="7" ry="4" fill="#111827"/>
  <rect x="56" y="80" width="12" height="12" rx="4" fill="#374151"/>
  <ellipse cx="62" cy="92" rx="7" ry="4" fill="#111827"/>
  <!-- Coll -->
  <rect x="40" y="42" width="20" height="16" rx="6" fill="#374151"/>
  <!-- Cap gran -->
  <ellipse cx="50" cy="40" rx="20" ry="18" fill="#374151"/>
  <!-- Clatell pla -->
  <rect x="38" y="24" width="24" height="12" rx="4" fill="#374151"/>
  <!-- Cara -->
  <ellipse cx="50" cy="46" rx="14" ry="12" fill="#1f2937"/>
  <!-- Musell -->
  <ellipse cx="50" cy="52" rx="8" ry="6" fill="#374151"/>
  <!-- Nas -->
  <ellipse cx="46" cy="49" rx="2.5" ry="1.5" fill="#111827"/>
  <ellipse cx="54" cy="49" rx="2.5" ry="1.5" fill="#111827"/>
  <!-- Ulls -->
  <ellipse cx="43" cy="42" rx="3.5" ry="3.5" fill="#6b7280"/>
  <circle cx="43" cy="42" r="2" fill="#1a1a1a"/>
  <circle cx="42" cy="41" r="0.7" fill="white"/>
  <ellipse cx="57" cy="42" rx="3.5" ry="3.5" fill="#6b7280"/>
  <circle cx="57" cy="42" r="2" fill="#1a1a1a"/>
  <circle cx="56" cy="41" r="0.7" fill="white"/>
  <!-- Boca -->
  <path d="M44 56 Q50 60 56 56" stroke="#111827" stroke-width="2" fill="none" stroke-linecap="round"/>
  <!-- Orelles -->
  <circle cx="30" cy="40" r="5" fill="#374151"/>
  <circle cx="70" cy="40" r="5" fill="#374151"/>
  <!-- Label -->
  <text x="50" y="97" font-family="Arial,sans-serif" font-size="8" fill="#1e1b4b" font-weight="700" text-anchor="middle">GORIL·LA</text>
</svg>
