<svg viewBox="0 0 100 100" xmlns="http://www.w3.org/2000/svg">
  <!-- Cua -->
  <path d="M82 68 Q90 65 89 75" stroke="#d97706" stroke-width="2.5" fill="none" stroke-linecap="round"/>
  <!-- Cos principal -->
  <ellipse cx="52" cy="68" rx="30" ry="18" fill="#d97706"/>
  <!-- Gepa -->
  <ellipse cx="52" cy="48" rx="12" ry="14" fill="#b45309"/>
  <!-- Connexió gepa-cos -->
  <rect x="42" y="50" width="20" height="20" fill="#d97706"/>
  <!-- Coll llarg -->
  <path d="M30 62 Q22 52 26 30" stroke="#d97706" stroke-width="12" fill="none" stroke-linecap="round"/>
  <!-- Cap petit -->
  <ellipse cx="25" cy="26" rx="10" ry="9" fill="#d97706"/>
  <!-- Nas -->
  <ellipse cx="18" cy="28" rx="3" ry="2.5" fill="#b45309"/>
  <ellipse cx="17" cy="27" rx="1.5" ry="1" fill="#1a1a1a"/>
  <ellipse cx="19" cy="27" rx="1.5" ry="1" fill="#1a1a1a"/>
  <!-- Ull -->
  <circle cx="28" cy="22" r="3" fill="#1a1a1a"/>
  <circle cx="27" cy="21" r="0.9" fill="white"/>
  <!-- Boca -->
  <path d="M18 32 Q22 35 27 32" stroke="#1a1a1a" stroke-width="1.5" fill="none" stroke-linecap="round"/>
  <!-- Orella -->
  <ellipse cx="30" cy="18" rx="4" ry="5" fill="#d97706"/>
  <ellipse cx="30" cy="18" rx="2" ry="3" fill="#fde68a"/>
  <!-- Potes llargues -->
  <rect x="22" y="80" width="8" height="14" rx="3" fill="#d97706"/>
  <rect x="33" y="82" width="8" height="12" rx="3" fill="#d97706"/>
  <rect x="56" y="82" width="8" height="12" rx="3" fill="#d97706"/>
  <rect x="67" y="80" width="8" height="14" rx="3" fill="#d97706"/>
  <!-- Peülles -->
  <ellipse cx="26" cy="94" rx="5" ry="3" fill="#92400e"/>
  <ellipse cx="37" cy="94" rx="5" ry="3" fill="#92400e"/>
  <ellipse cx="60" cy="94" rx="5" ry="3" fill="#92400e"/>
  <ellipse cx="71" cy="94" rx="5" ry="3" fill="#92400e"/>
  <!-- Label -->
  <text x="50" y="99" font-family="Arial,sans-serif" font-size="8" fill="#1e1b4b" font-weight="700" text-anchor="middle">CAMELL</text>
</svg>
