<svg viewBox="0 0 100 100" xmlns="http://www.w3.org/2000/svg">
  <!-- Ales esteses grans -->
  <ellipse cx="26" cy="42" rx="20" ry="9" fill="#e0f2fe" opacity="0.85" transform="rotate(-10 26 42)"/>
  <ellipse cx="74" cy="42" rx="20" ry="9" fill="#e0f2fe" opacity="0.85" transform="rotate(10 74 42)"/>
  <!-- Venes ales -->
  <ellipse cx="26" cy="42" rx="20" ry="9" fill="none" stroke="#94a3b8" stroke-width="0.7" transform="rotate(-10 26 42)"/>
  <line x1="16" y1="40" x2="36" y2="44" stroke="#94a3b8" stroke-width="0.5" transform="rotate(-10 26 42)"/>
  <ellipse cx="74" cy="42" rx="20" ry="9" fill="none" stroke="#94a3b8" stroke-width="0.7" transform="rotate(10 74 42)"/>
  <line x1="64" y1="40" x2="84" y2="44" stroke="#94a3b8" stroke-width="0.5" transform="rotate(10 74 42)"/>
  <!-- Abdomen allargat i prim -->
  <ellipse cx="50" cy="68" rx="5" ry="20" fill="#6b7280"/>
  <!-- Segments abdomen -->
  <line x1="45" y1="54" x2="55" y2="54" stroke="#9ca3af" stroke-width="0.8"/>
  <line x1="45" y1="60" x2="55" y2="60" stroke="#9ca3af" stroke-width="0.8"/>
  <line x1="45" y1="66" x2="55" y2="66" stroke="#9ca3af" stroke-width="0.8"/>
  <line x1="45" y1="72" x2="55" y2="72" stroke="#9ca3af" stroke-width="0.8"/>
  <line x1="46" y1="78" x2="54" y2="78" stroke="#9ca3af" stroke-width="0.8"/>
  <!-- Tòrax -->
  <circle cx="50" cy="46" r="7" fill="#6b7280"/>
  <!-- Cap -->
  <circle cx="50" cy="34" r="7" fill="#6b7280"/>
  <!-- Ulls -->
  <circle cx="45" cy="32" r="2.5" fill="#4b5563"/>
  <circle cx="55" cy="32" r="2.5" fill="#4b5563"/>
  <!-- Trompa/probòscide -->
  <line x1="50" y1="40" x2="50" y2="52" stroke="#374151" stroke-width="1.2" stroke-linecap="round"/>
  <!-- Antenes -->
  <path d="M46,28 Q40,20 36,16" stroke="#6b7280" stroke-width="1.2" fill="none" stroke-linecap="round"/>
  <path d="M54,28 Q60,20 64,16" stroke="#6b7280" stroke-width="1.2" fill="none" stroke-linecap="round"/>
  <!-- 6 potes molt primes i llargues -->
  <line x1="44" y1="47" x2="22" y2="38" stroke="#6b7280" stroke-width="1" stroke-linecap="round"/>
  <line x1="44" y1="50" x2="20" y2="52" stroke="#6b7280" stroke-width="1" stroke-linecap="round"/>
  <line x1="44" y1="53" x2="22" y2="64" stroke="#6b7280" stroke-width="1" stroke-linecap="round"/>
  <line x1="56" y1="47" x2="78" y2="38" stroke="#6b7280" stroke-width="1" stroke-linecap="round"/>
  <line x1="56" y1="50" x2="80" y2="52" stroke="#6b7280" stroke-width="1" stroke-linecap="round"/>
  <line x1="56" y1="53" x2="78" y2="64" stroke="#6b7280" stroke-width="1" stroke-linecap="round"/>
  <text x="50" y="97" font-family="Arial,sans-serif" font-size="8" fill="#1e1b4b" font-weight="700" text-anchor="middle">MOSQUIT</text>
</svg>
