<svg xmlns="http://www.w3.org/2000/svg" viewBox="0 0 100 100">
  <!-- Cos gran rectangular -->
  <rect x="18" y="48" width="64" height="30" rx="10" fill="#8B4513"/>
  <!-- Coll -->
  <rect x="60" y="30" width="14" height="25" rx="6" fill="#8B4513"/>
  <!-- Crins al coll -->
  <path d="M60 30 Q55 36 57 42 Q62 35 64 30Z" fill="#4b3621"/>
  <path d="M62 28 Q57 34 59 40 Q64 33 66 28Z" fill="#4b3621"/>
  <path d="M64 27 Q60 32 62 38 Q67 31 68 27Z" fill="#4b3621"/>
  <!-- Cap allargat -->
  <rect x="62" y="16" width="18" height="22" rx="7" fill="#8B4513"/>
  <!-- Morro -->
  <ellipse cx="76" cy="33" rx="7" ry="6" fill="#a05a2a"/>
  <!-- Ull -->
  <circle cx="67" cy="23" r="3" fill="#1a1a1a"/>
  <circle cx="66" cy="22" r="1" fill="#fff"/>
  <!-- Nas -->
  <ellipse cx="74" cy="35" rx="2" ry="1.5" fill="#5a2a0a"/>
  <ellipse cx="79" cy="35" rx="2" ry="1.5" fill="#5a2a0a"/>
  <!-- Orella -->
  <polygon points="63,18 60,10 68,15" fill="#8B4513"/>
  <polygon points="63,17 61,12 67,16" fill="#c07850"/>
  <!-- Cua amb flocs -->
  <path d="M18 58 Q8 55 6 62 Q8 68 15 65 Q12 72 10 78 Q16 76 18 70Z" fill="#4b3621"/>
  <!-- Potes davanteres -->
  <rect x="48" y="76" width="9" height="16" rx="3" fill="#7a3c10"/>
  <rect x="60" y="76" width="9" height="16" rx="3" fill="#7a3c10"/>
  <!-- Peülles davanteres -->
  <rect x="48" y="89" width="9" height="4" rx="2" fill="#2a1a08"/>
  <rect x="60" y="89" width="9" height="4" rx="2" fill="#2a1a08"/>
  <!-- Potes del darrere -->
  <rect x="22" y="76" width="9" height="16" rx="3" fill="#7a3c10"/>
  <rect x="34" y="76" width="9" height="16" rx="3" fill="#7a3c10"/>
  <!-- Peülles darrere -->
  <rect x="22" y="89" width="9" height="4" rx="2" fill="#2a1a08"/>
  <rect x="34" y="89" width="9" height="4" rx="2" fill="#2a1a08"/>
  <!-- Label -->
</svg>
