<svg viewBox="0 0 100 100" xmlns="http://www.w3.org/2000/svg">
  <!-- Cua amb tufa -->
  <line x1="82" y1="68" x2="92" y2="58" stroke="#d97706" stroke-width="3" stroke-linecap="round"/>
  <ellipse cx="93" cy="55" rx="5" ry="4" fill="#92400e"/>
  <!-- Cos -->
  <ellipse cx="50" cy="68" rx="28" ry="18" fill="#d97706"/>
  <!-- Potes darreres -->
  <rect x="62" y="80" width="8" height="12" rx="3" fill="#d97706"/>
  <rect x="72" y="80" width="8" height="12" rx="3" fill="#d97706"/>
  <!-- Potes davanteres -->
  <rect x="22" y="80" width="8" height="12" rx="3" fill="#d97706"/>
  <rect x="32" y="80" width="8" height="12" rx="3" fill="#d97706"/>
  <!-- Crinera -->
  <circle cx="40" cy="50" r="22" fill="#92400e"/>
  <!-- Cap -->
  <ellipse cx="40" cy="50" rx="16" ry="15" fill="#d97706"/>
  <!-- Musell -->
  <ellipse cx="40" cy="58" rx="9" ry="7" fill="#b45309"/>
  <!-- Nas -->
  <ellipse cx="40" cy="55" rx="4" ry="2.5" fill="#1a1a1a"/>
  <!-- Ulls -->
  <ellipse cx="33" cy="46" rx="3.5" ry="3.5" fill="#fef08a"/>
  <circle cx="33" cy="46" r="2" fill="#1a1a1a"/>
  <ellipse cx="47" cy="46" rx="3.5" ry="3.5" fill="#fef08a"/>
  <circle cx="47" cy="46" r="2" fill="#1a1a1a"/>
  <!-- Lluentors ulls -->
  <circle cx="32" cy="45" r="0.8" fill="white"/>
  <circle cx="46" cy="45" r="0.8" fill="white"/>
  <!-- Boca -->
  <path d="M35 61 Q40 65 45 61" stroke="#1a1a1a" stroke-width="1.5" fill="none" stroke-linecap="round"/>
  <!-- Orelles -->
  <circle cx="27" cy="38" r="5" fill="#d97706"/>
  <circle cx="53" cy="38" r="5" fill="#d97706"/>
  <circle cx="27" cy="38" r="3" fill="#fda4af"/>
  <circle cx="53" cy="38" r="3" fill="#fda4af"/>
  <!-- Label -->
</svg>
