<svg viewBox="0 0 100 100" xmlns="http://www.w3.org/2000/svg">
  <!-- Abdomen - èlitres (cobertes alars) -->
  <ellipse cx="50" cy="65" rx="18" ry="22" fill="#1f2937"/>
  <!-- Reflexos verd metàl·lic èlitres -->
  <ellipse cx="44" cy="55" rx="5" ry="8" fill="#065f46" opacity="0.7"/>
  <ellipse cx="56" cy="55" rx="5" ry="8" fill="#065f46" opacity="0.7"/>
  <!-- Línia central èlitres -->
  <line x1="50" y1="44" x2="50" y2="86" stroke="#065f46" stroke-width="1.5"/>
  <!-- Tòrax -->
  <ellipse cx="50" cy="45" rx="14" ry="10" fill="#1f2937"/>
  <!-- Reflexo tòrax -->
  <ellipse cx="46" cy="42" rx="4" ry="3" fill="#065f46" opacity="0.5"/>
  <!-- Cap -->
  <circle cx="50" cy="32" r="11" fill="#1f2937"/>
  <!-- Ulls -->
  <circle cx="43" cy="30" r="3" fill="#374151"/>
  <circle cx="43" cy="30" r="1.5" fill="#065f46"/>
  <circle cx="57" cy="30" r="3" fill="#374151"/>
  <circle cx="57" cy="30" r="1.5" fill="#065f46"/>
  <!-- Banya (escarabat banyut) -->
  <path d="M50,22 Q50,14 44,10" stroke="#1f2937" stroke-width="3" fill="none" stroke-linecap="round"/>
  <path d="M50,22 Q50,14 56,10" stroke="#1f2937" stroke-width="3" fill="none" stroke-linecap="round"/>
  <!-- Antenes -->
  <path d="M44,24 Q36,16 30,14" stroke="#374151" stroke-width="1.5" fill="none" stroke-linecap="round"/>
  <circle cx="30" cy="14" r="1.5" fill="#374151"/>
  <path d="M56,24 Q64,16 70,14" stroke="#374151" stroke-width="1.5" fill="none" stroke-linecap="round"/>
  <circle cx="70" cy="14" r="1.5" fill="#374151"/>
  <!-- 6 potes -->
  <path d="M38,46 L26,42 L18,46" stroke="#1f2937" stroke-width="1.8" fill="none" stroke-linecap="round" stroke-linejoin="round"/>
  <path d="M38,52 L24,52 L16,58" stroke="#1f2937" stroke-width="1.8" fill="none" stroke-linecap="round" stroke-linejoin="round"/>
  <path d="M38,62 L26,68 L18,72" stroke="#1f2937" stroke-width="1.8" fill="none" stroke-linecap="round" stroke-linejoin="round"/>
  <path d="M62,46 L74,42 L82,46" stroke="#1f2937" stroke-width="1.8" fill="none" stroke-linecap="round" stroke-linejoin="round"/>
  <path d="M62,52 L76,52 L84,58" stroke="#1f2937" stroke-width="1.8" fill="none" stroke-linecap="round" stroke-linejoin="round"/>
  <path d="M62,62 L74,68 L82,72" stroke="#1f2937" stroke-width="1.8" fill="none" stroke-linecap="round" stroke-linejoin="round"/>
</svg>
