<svg xmlns="http://www.w3.org/2000/svg" viewBox="0 0 100 100">
  <!-- Cel blau clar -->
  <rect x="0" y="0" width="100" height="48" fill="#bae6fd"/>
  <!-- Sol -->
  <circle cx="82" cy="14" r="9" fill="#fde68a"/>
  <!-- Núvol -->
  <ellipse cx="30" cy="18" rx="12" ry="6" fill="white" opacity="0.85"/>
  <ellipse cx="22" cy="20" rx="8" ry="5" fill="white" opacity="0.85"/>
  <ellipse cx="38" cy="20" rx="8" ry="5" fill="white" opacity="0.85"/>
  <!-- Mar blau intens -->
  <rect x="0" y="48" width="100" height="44" fill="#0ea5e9"/>
  <!-- Onada 1 -->
  <path d="M0,56 Q12,50 25,56 Q38,62 50,56 Q62,50 75,56 Q88,62 100,56 L100,62 L0,62 Z"
        fill="#f0f9ff" opacity="0.9"/>
  <!-- Onada 2 -->
  <path d="M0,67 Q15,61 28,67 Q42,73 55,67 Q68,61 82,67 Q91,70 100,67 L100,73 L0,73 Z"
        fill="#f0f9ff" opacity="0.75"/>
  <!-- Onada 3 (fons) -->
  <path d="M0,78 Q18,72 33,78 Q48,84 62,78 Q76,72 90,78 Q95,80 100,78 L100,84 L0,84 Z"
        fill="#f0f9ff" opacity="0.55"/>
  <!-- Línia horitzó -->
  <line x1="0" y1="48" x2="100" y2="48" stroke="#7dd3fc" stroke-width="1.5"/>
  <!-- Label -->
  <text x="50" y="97" font-family="Arial,sans-serif" font-size="8" fill="#1e1b4b" font-weight="700" text-anchor="middle">MAR</text>
</svg>
