<svg viewBox="0 0 100 100" xmlns="http://www.w3.org/2000/svg">
  <!-- Roda darrere -->
  <circle cx="22" cy="65" r="18" fill="none" stroke="#1f2937" stroke-width="4"/>
  <circle cx="22" cy="65" r="4" fill="#1f2937"/>
  <!-- Radis roda darrere -->
  <line x1="22" y1="47" x2="22" y2="83" stroke="#1f2937" stroke-width="1.5"/>
  <line x1="4" y1="65" x2="40" y2="65" stroke="#1f2937" stroke-width="1.5"/>
  <line x1="9" y1="52" x2="35" y2="78" stroke="#1f2937" stroke-width="1.5"/>
  <line x1="9" y1="78" x2="35" y2="52" stroke="#1f2937" stroke-width="1.5"/>
  <!-- Roda davant -->
  <circle cx="78" cy="65" r="18" fill="none" stroke="#1f2937" stroke-width="4"/>
  <circle cx="78" cy="65" r="4" fill="#1f2937"/>
  <!-- Radis roda davant -->
  <line x1="78" y1="47" x2="78" y2="83" stroke="#1f2937" stroke-width="1.5"/>
  <line x1="60" y1="65" x2="96" y2="65" stroke="#1f2937" stroke-width="1.5"/>
  <line x1="65" y1="52" x2="91" y2="78" stroke="#1f2937" stroke-width="1.5"/>
  <line x1="65" y1="78" x2="91" y2="52" stroke="#1f2937" stroke-width="1.5"/>
  <!-- Quadre de la bici (triangle) -->
  <line x1="22" y1="65" x2="50" y2="40" stroke="#ef4444" stroke-width="4" stroke-linecap="round"/>
  <line x1="50" y1="40" x2="78" y2="65" stroke="#ef4444" stroke-width="4" stroke-linecap="round"/>
  <line x1="22" y1="65" x2="50" y2="65" stroke="#ef4444" stroke-width="4" stroke-linecap="round"/>
  <line x1="50" y1="65" x2="50" y2="40" stroke="#ef4444" stroke-width="4" stroke-linecap="round"/>
  <!-- Seient -->
  <rect x="44" y="35" width="16" height="5" rx="3" fill="#374151"/>
  <rect x="49" y="38" width="4" height="8" rx="1" fill="#374151"/>
  <!-- Manillar (T) -->
  <rect x="72" y="34" width="14" height="4" rx="2" fill="#374151"/>
  <rect x="78" y="34" width="4" height="10" rx="1" fill="#374151"/>
  <!-- Pedals -->
  <circle cx="50" cy="65" r="5" fill="#374151"/>
  <rect x="43" y="63" width="14" height="4" rx="2" fill="#374151"/>
  <!-- Label -->
</svg>
