<svg viewBox="0 0 100 100" xmlns="http://www.w3.org/2000/svg">
  <!-- Manillar T (vertical) -->
  <rect x="47" y="18" width="6" height="32" rx="2" fill="#374151"/>
  <!-- Barra horitzontal manillar -->
  <rect x="30" y="16" width="40" height="6" rx="3" fill="#374151"/>
  <!-- Grips manillar -->
  <rect x="28" y="14" width="8" height="10" rx="4" fill="#1f2937"/>
  <rect x="64" y="14" width="8" height="10" rx="4" fill="#1f2937"/>
  <!-- Tija (connector manillar-tauló) -->
  <rect x="49" y="46" width="4" height="12" rx="1" fill="#6b7280"/>
  <!-- Tauló horitzontal -->
  <rect x="8" y="57" width="84" height="12" rx="5" fill="#92400e"/>
  <!-- Dibuix/grafit al tauló -->
  <rect x="20" y="60" width="18" height="6" rx="2" fill="#78350f"/>
  <rect x="62" y="60" width="18" height="6" rx="2" fill="#78350f"/>
  <!-- Part inferior tauló (lleugerament corbada) -->
  <rect x="10" y="66" width="80" height="4" rx="3" fill="#78350f"/>
  <!-- Eix rodes -->
  <rect x="10" y="70" width="80" height="3" rx="1" fill="#6b7280"/>
  <!-- Roda darrere -->
  <circle cx="22" cy="76" r="9" fill="#1f2937"/>
  <circle cx="22" cy="76" r="4" fill="#374151"/>
  <circle cx="22" cy="76" r="2" fill="#6b7280"/>
  <!-- Roda davant -->
  <circle cx="78" cy="76" r="9" fill="#1f2937"/>
  <circle cx="78" cy="76" r="4" fill="#374151"/>
  <circle cx="78" cy="76" r="2" fill="#6b7280"/>
  <!-- Label -->
  <text x="50" y="97" font-family="Arial,sans-serif" font-size="8" fill="#1e1b4b" font-weight="700" text-anchor="middle">MONOPATÍ</text>
</svg>
