<svg viewBox="0 0 100 100" xmlns="http://www.w3.org/2000/svg">
  <!-- Edifici esquerra (baix) -->
  <rect x="2" y="45" width="24" height="45" rx="1" fill="#6b7280"/>
  <!-- Finestres esquerra -->
  <rect x="6" y="50" width="6" height="6" rx="1" fill="#fde047"/>
  <rect x="16" y="50" width="6" height="6" rx="1" fill="#fde047"/>
  <rect x="6" y="62" width="6" height="6" rx="1" fill="#fde047"/>
  <rect x="16" y="62" width="6" height="6" rx="1" fill="#fde047"/>
  <rect x="6" y="74" width="6" height="6" rx="1" fill="#fde047"/>
  <rect x="16" y="74" width="6" height="6" rx="1" fill="#fde047"/>
  <!-- Edifici central (alt) -->
  <rect x="30" y="15" width="40" height="75" rx="1" fill="#94a3b8"/>
  <!-- Finestres centre -->
  <rect x="35" y="20" width="8" height="7" rx="1" fill="#fde047"/>
  <rect x="57" y="20" width="8" height="7" rx="1" fill="#fde047"/>
  <rect x="35" y="33" width="8" height="7" rx="1" fill="#fde047"/>
  <rect x="57" y="33" width="8" height="7" rx="1" fill="#fde047"/>
  <rect x="35" y="46" width="8" height="7" rx="1" fill="#fde047"/>
  <rect x="57" y="46" width="8" height="7" rx="1" fill="#fde047"/>
  <rect x="35" y="59" width="8" height="7" rx="1" fill="#fde047"/>
  <rect x="57" y="59" width="8" height="7" rx="1" fill="#fde047"/>
  <!-- Porta centre -->
  <rect x="45" y="75" width="10" height="15" rx="1" fill="#92400e"/>
  <!-- Edifici dreta (baix) -->
  <rect x="74" y="50" width="24" height="40" rx="1" fill="#475569"/>
  <!-- Finestres dreta -->
  <rect x="78" y="55" width="6" height="6" rx="1" fill="#fde047"/>
  <rect x="88" y="55" width="6" height="6" rx="1" fill="#fde047"/>
  <rect x="78" y="67" width="6" height="6" rx="1" fill="#fde047"/>
  <rect x="88" y="67" width="6" height="6" rx="1" fill="#fde047"/>
  <!-- Sòl -->
  <rect x="0" y="89" width="100" height="2" fill="#374151"/>
  <!-- Label -->
  <text x="50" y="97" font-family="Arial,sans-serif" font-size="8" fill="#1e1b4b" font-weight="700" text-anchor="middle">EDIFICIS</text>
</svg>
