<svg xmlns="http://www.w3.org/2000/svg" viewBox="0 0 100 100">
  <!-- Grass -->
  <rect x="4" y="72" width="92" height="24" rx="4" fill="#16a34a"/>
  <!-- Grass blades -->
  <path d="M10 72 Q12 62 14 72" fill="none" stroke="#15803d" stroke-width="2"/>
  <path d="M20 72 Q22 60 24 72" fill="none" stroke="#15803d" stroke-width="2"/>
  <path d="M76 72 Q78 62 80 72" fill="none" stroke="#15803d" stroke-width="2"/>
  <path d="M86 72 Q88 60 90 72" fill="none" stroke="#15803d" stroke-width="2"/>
  <!-- Path -->
  <path d="M44 96 L56 96 L58 72 L42 72 Z" fill="#d97706" stroke="#92400e" stroke-width="1.5"/>
  <!-- Flower beds -->
  <ellipse cx="22" cy="70" rx="14" ry="6" fill="#86efac" stroke="#16a34a" stroke-width="1.5"/>
  <circle cx="16" cy="68" r="3" fill="#f9a8d4"/>
  <circle cx="22" cy="66" r="3" fill="#fde68a"/>
  <circle cx="28" cy="68" r="3" fill="#f9a8d4"/>
  <ellipse cx="78" cy="70" rx="14" ry="6" fill="#86efac" stroke="#16a34a" stroke-width="1.5"/>
  <circle cx="72" cy="68" r="3" fill="#fde68a"/>
  <circle cx="78" cy="66" r="3" fill="#fca5a5"/>
  <circle cx="84" cy="68" r="3" fill="#fde68a"/>
  <!-- Tree -->
  <rect x="47" y="40" width="6" height="32" rx="2" fill="#92400e"/>
  <circle cx="50" cy="28" r="20" fill="#22c55e" stroke="#16a34a" stroke-width="2"/>
  <circle cx="40" cy="34" r="12" fill="#16a34a"/>
  <circle cx="60" cy="34" r="12" fill="#16a34a"/>
</svg>
