<svg xmlns="http://www.w3.org/2000/svg" viewBox="0 0 100 100">
  <!-- Banc del parc -->
  <rect x="30" y="62" width="40" height="4" rx="2" fill="#8d6e63"/>
  <rect x="30" y="52" width="40" height="4" rx="2" fill="#8d6e63"/>
  <!-- Potes del banc -->
  <path d="M 34,56 L 32,78" stroke="#795548" stroke-width="3" stroke-linecap="round"/>
  <path d="M 66,56 L 68,78" stroke="#795548" stroke-width="3" stroke-linecap="round"/>
  <!-- Suport del respatller -->
  <line x1="35" y1="52" x2="37" y2="66" stroke="#795548" stroke-width="2" stroke-linecap="round"/>
  <line x1="65" y1="52" x2="63" y2="66" stroke="#795548" stroke-width="2" stroke-linecap="round"/>
  <!-- Herba -->
  <rect x="10" y="76" width="80" height="12" rx="3" fill="#81c784"/>
  <!-- Arbre esquerre petit -->
  <rect x="14" y="52" width="5" height="26" rx="2" fill="#795548"/>
  <circle cx="16" cy="44" r="14" fill="#66bb6a"/>
  <circle cx="10" cy="50" r="9" fill="#4caf50"/>
  <!-- Camí del parc (terra) -->
  <ellipse cx="50" cy="80" rx="22" ry="4" fill="#bcaaa4" opacity="0.6"/>
  <!-- Sol -->
  <circle cx="82" cy="22" r="10" fill="#ffd54f"/>
  <line x1="82" y1="8" x2="82" y2="6" stroke="#ffd54f" stroke-width="2" stroke-linecap="round"/>
  <line x1="92" y1="12" x2="94" y2="10" stroke="#ffd54f" stroke-width="2" stroke-linecap="round"/>
  <line x1="96" y1="22" x2="98" y2="22" stroke="#ffd54f" stroke-width="2" stroke-linecap="round"/>
</svg>
