<svg xmlns="http://www.w3.org/2000/svg" viewBox="0 0 100 100">
  <!-- Cos principal cotxe -->
  <rect x="6" y="56" width="88" height="22" rx="4" fill="#fde047" stroke="#eab308" stroke-width="1.5"/>
  <!-- Capota arrodonida -->
  <path d="M22 56 Q26 38 40 36 L62 36 Q76 38 80 56 Z" fill="#fde047" stroke="#eab308" stroke-width="1.5"/>
  <!-- Finestra davantera -->
  <path d="M62 56 Q70 44 78 44 L78 56 Z" fill="#bae6fd" stroke="#38bdf8" stroke-width="1"/>
  <!-- Finestres laterals -->
  <rect x="40" y="40" width="20" height="14" rx="2" fill="#bae6fd" stroke="#38bdf8" stroke-width="1"/>
  <!-- Finestra posterior -->
  <path d="M24 56 Q26 44 32 44 L38 44 L38 56 Z" fill="#bae6fd" stroke="#38bdf8" stroke-width="1"/>
  <!-- Rètol TAXI a dalt -->
  <rect x="36" y="30" width="28" height="10" rx="2" fill="#1f2937" stroke="#374151" stroke-width="1"/>
  <text x="50" y="38" font-family="Arial,sans-serif" font-size="7" fill="#fde047" font-weight="700" text-anchor="middle">TAXI</text>
  <!-- Porta davant -->
  <rect x="64" y="57" width="16" height="19" rx="1" fill="#fbbf24" stroke="#eab308" stroke-width="0.8"/>
  <line x1="72" y1="57" x2="72" y2="76" stroke="#eab308" stroke-width="0.8"/>
  <circle cx="65.5" cy="66" r="1.5" fill="#1f2937"/>
  <!-- Porta darrere -->
  <rect x="22" y="57" width="16" height="19" rx="1" fill="#fbbf24" stroke="#eab308" stroke-width="0.8"/>
  <line x1="30" y1="57" x2="30" y2="76" stroke="#eab308" stroke-width="0.8"/>
  <circle cx="36" cy="66" r="1.5" fill="#1f2937"/>
  <!-- Rodes -->
  <circle cx="22" cy="78" r="10" fill="#1f2937" stroke="#374151" stroke-width="1.5"/>
  <circle cx="22" cy="78" r="5.5" fill="#4b5563"/>
  <circle cx="22" cy="78" r="2.5" fill="#6b7280"/>
  <circle cx="78" cy="78" r="10" fill="#1f2937" stroke="#374151" stroke-width="1.5"/>
  <circle cx="78" cy="78" r="5.5" fill="#4b5563"/>
  <circle cx="78" cy="78" r="2.5" fill="#6b7280"/>
  <!-- Llums davant -->
  <rect x="90" y="58" width="5" height="5" rx="1.5" fill="#fde047" stroke="#eab308" stroke-width="0.8"/>
  <!-- Llums darrere -->
  <rect x="5" y="58" width="5" height="5" rx="1.5" fill="#ef4444"/>
  <!-- Mirall retrovisor -->
  <rect x="82" y="50" width="6" height="4" rx="1" fill="#94a3b8"/>
  <!-- Label -->
  <text x="50" y="97" font-family="Arial,sans-serif" font-size="8" fill="#1e1b4b" font-weight="700" text-anchor="middle">TAXI</text>
</svg>
