<svg xmlns="http://www.w3.org/2000/svg" viewBox="0 0 100 100">
  <!-- Cos locomotora -->
  <rect x="8" y="44" width="76" height="28" rx="4" fill="#1f2937" stroke="#374151" stroke-width="1.5"/>
  <!-- Cara frontal locomotora (arrodonida) -->
  <rect x="80" y="48" width="14" height="22" rx="5" fill="#374151" stroke="#4b5563" stroke-width="1.5"/>
  <!-- Finestres -->
  <rect x="15" y="49" width="10" height="8" rx="2" fill="#bae6fd" stroke="#3b82f6" stroke-width="1"/>
  <rect x="30" y="49" width="10" height="8" rx="2" fill="#bae6fd" stroke="#3b82f6" stroke-width="1"/>
  <rect x="45" y="49" width="10" height="8" rx="2" fill="#bae6fd" stroke="#3b82f6" stroke-width="1"/>
  <!-- Finestra frontal -->
  <rect x="82" y="51" width="10" height="8" rx="2" fill="#bae6fd" stroke="#3b82f6" stroke-width="1"/>
  <!-- Xemeneia -->
  <rect x="18" y="36" width="8" height="10" rx="2" fill="#ef4444" stroke="#dc2626" stroke-width="1"/>
  <rect x="15" y="34" width="14" height="5" rx="2" fill="#ef4444"/>
  <!-- Fum xemeneia -->
  <circle cx="20" cy="28" r="5" fill="#d1d5db" opacity="0.85"/>
  <circle cx="26" cy="24" r="4" fill="#d1d5db" opacity="0.7"/>
  <circle cx="31" cy="20" r="3" fill="#d1d5db" opacity="0.5"/>
  <!-- Franja decorativa vermella -->
  <rect x="8" y="64" width="76" height="4" fill="#ef4444"/>
  <!-- Rails inferior -->
  <rect x="2" y="79" width="96" height="3" rx="1" fill="#6b7280"/>
  <!-- Rodes grans -->
  <circle cx="22" cy="74" r="9" fill="#374151" stroke="#4b5563" stroke-width="1.5"/>
  <circle cx="22" cy="74" r="5" fill="#1f2937"/>
  <circle cx="22" cy="74" r="2" fill="#6b7280"/>
  <circle cx="44" cy="74" r="9" fill="#374151" stroke="#4b5563" stroke-width="1.5"/>
  <circle cx="44" cy="74" r="5" fill="#1f2937"/>
  <circle cx="44" cy="74" r="2" fill="#6b7280"/>
  <circle cx="65" cy="74" r="9" fill="#374151" stroke="#4b5563" stroke-width="1.5"/>
  <circle cx="65" cy="74" r="5" fill="#1f2937"/>
  <circle cx="65" cy="74" r="2" fill="#6b7280"/>
  <!-- Llum davant -->
  <circle cx="92" cy="65" r="3" fill="#fde047"/>
  <!-- Label -->
  <text x="50" y="97" font-family="Arial,sans-serif" font-size="8" fill="#1e1b4b" font-weight="700" text-anchor="middle">TREN</text>
</svg>
