<svg xmlns="http://www.w3.org/2000/svg" viewBox="0 0 100 100">
  <!-- Body -->
  <path d="M8 62 Q8 52 14 52 L28 52 Q34 36 44 32 L64 32 Q76 36 80 52 L88 52 Q94 52 94 62 L94 72 Q94 76 90 76 L82 76 Q80 82 74 84 Q68 86 62 84 Q56 82 54 76 L46 76 Q44 82 38 84 Q32 86 26 84 Q20 82 18 76 L10 76 Q6 76 6 72 Z" fill="#ef4444" stroke="#b91c1c" stroke-width="2"/>
  <!-- Windows -->
  <path d="M30 52 Q34 40 44 36 L64 36 Q72 40 76 52 Z" fill="#bfdbfe" stroke="#3b82f6" stroke-width="1.5"/>
  <!-- Window divider -->
  <line x1="53" y1="36" x2="53" y2="52" stroke="#3b82f6" stroke-width="1.5"/>
  <!-- Front wheel -->
  <circle cx="74" cy="76" r="10" fill="#374151" stroke="#111" stroke-width="2"/>
  <circle cx="74" cy="76" r="5" fill="#6b7280"/>
  <!-- Back wheel -->
  <circle cx="26" cy="76" r="10" fill="#374151" stroke="#111" stroke-width="2"/>
  <circle cx="26" cy="76" r="5" fill="#6b7280"/>
  <!-- Headlight -->
  <ellipse cx="89" cy="58" rx="4" ry="3" fill="#fef08a" stroke="#d97706" stroke-width="1"/>
  <!-- Taillight -->
  <ellipse cx="10" cy="58" rx="3" ry="3" fill="#fca5a5" stroke="#b91c1c" stroke-width="1"/>
  <!-- Door handle -->
  <rect x="44" y="60" width="12" height="4" rx="2" fill="#fca5a5" stroke="#b91c1c" stroke-width="1"/>
</svg>
