<svg xmlns="http://www.w3.org/2000/svg" viewBox="0 0 100 100">
  <!-- Cos principal autobús -->
  <rect x="5" y="38" width="90" height="36" rx="6" fill="#fde047" stroke="#eab308" stroke-width="2"/>
  <!-- Franja superior -->
  <rect x="5" y="38" width="90" height="8" rx="6" fill="#eab308"/>
  <rect x="5" y="43" width="90" height="3" fill="#eab308"/>
  <!-- Finestres -->
  <rect x="15" y="44" width="12" height="10" rx="2" fill="#bae6fd" stroke="#38bdf8" stroke-width="1"/>
  <rect x="32" y="44" width="12" height="10" rx="2" fill="#bae6fd" stroke="#38bdf8" stroke-width="1"/>
  <rect x="49" y="44" width="12" height="10" rx="2" fill="#bae6fd" stroke="#38bdf8" stroke-width="1"/>
  <rect x="66" y="44" width="12" height="10" rx="2" fill="#bae6fd" stroke="#38bdf8" stroke-width="1"/>
  <!-- Porta davant -->
  <rect x="80" y="54" width="10" height="18" rx="2" fill="#92400e" stroke="#78350f" stroke-width="1"/>
  <line x1="85" y1="54" x2="85" y2="72" stroke="#78350f" stroke-width="1"/>
  <circle cx="82" cy="63" r="1.2" fill="#fde047"/>
  <!-- Porta posterior/emergency -->
  <rect x="8" y="57" width="8" height="15" rx="1.5" fill="#92400e" stroke="#78350f" stroke-width="0.8"/>
  <!-- Rodes -->
  <circle cx="24" cy="76" r="10" fill="#1f2937" stroke="#374151" stroke-width="1.5"/>
  <circle cx="24" cy="76" r="5.5" fill="#4b5563"/>
  <circle cx="24" cy="76" r="2.5" fill="#6b7280"/>
  <circle cx="76" cy="76" r="10" fill="#1f2937" stroke="#374151" stroke-width="1.5"/>
  <circle cx="76" cy="76" r="5.5" fill="#4b5563"/>
  <circle cx="76" cy="76" r="2.5" fill="#6b7280"/>
  <!-- Llums davant i darrere -->
  <rect x="90" y="54" width="4" height="5" rx="1" fill="#fde047" stroke="#eab308" stroke-width="0.5"/>
  <rect x="6" y="54" width="4" height="5" rx="1" fill="#ef4444"/>
  <!-- Mirall retrovisor -->
  <rect x="90" y="44" width="5" height="4" rx="1" fill="#94a3b8"/>
  <!-- Label -->
  <text x="50" y="97" font-family="Arial,sans-serif" font-size="8" fill="#1e1b4b" font-weight="700" text-anchor="middle">AUTOBÚS</text>
</svg>
