<svg viewBox="0 0 100 100" xmlns="http://www.w3.org/2000/svg">
  <!-- Cap -->
  <circle cx="50" cy="22" r="10" fill="#f5cba7" stroke="#c0835a" stroke-width="1.2"/>
  <!-- Casc bomber -->
  <ellipse cx="50" cy="17" rx="12" ry="6" fill="#ef4444"/>
  <rect x="38" y="14" width="24" height="5" rx="1" fill="#ef4444"/>
  <rect x="36" y="18" width="28" height="3" rx="1" fill="#b91c1c"/>
  <!-- Cos uniforme groc/taronja -->
  <rect x="38" y="32" width="24" height="22" rx="3" fill="#f97316"/>
  <!-- Braços -->
  <rect x="26" y="33" width="12" height="8" rx="3" fill="#f97316"/>
  <rect x="62" y="33" width="12" height="8" rx="3" fill="#f97316"/>
  <!-- Cuell -->
  <rect x="46" y="30" width="8" height="5" fill="#f5cba7"/>
  <!-- Cames -->
  <rect x="38" y="54" width="10" height="18" rx="2" fill="#1f2937"/>
  <rect x="52" y="54" width="10" height="18" rx="2" fill="#1f2937"/>
  <!-- Botes -->
  <rect x="37" y="70" width="12" height="5" rx="2" fill="#374151"/>
  <rect x="51" y="70" width="12" height="5" rx="2" fill="#374151"/>
  <!-- Mànega d'aigua (braç esquerre cap endavant) -->
  <line x1="26" y1="37" x2="10" y2="32" stroke="#3b82f6" stroke-width="3" stroke-linecap="round"/>
  <line x1="10" y1="32" x2="5" y2="28" stroke="#3b82f6" stroke-width="2" stroke-linecap="round"/>
  <!-- Gotes d'aigua -->
  <circle cx="4" cy="25" r="1.5" fill="#93c5fd"/>
  <circle cx="6" cy="22" r="1" fill="#93c5fd"/>
  <circle cx="2" cy="27" r="1" fill="#93c5fd"/>
  <!-- Label -->
</svg>
