<svg viewBox="0 0 100 100" xmlns="http://www.w3.org/2000/svg">
  <!-- Cap -->
  <circle cx="50" cy="21" r="10" fill="#f5cba7" stroke="#c0835a" stroke-width="1.2"/>
  <!-- Gorra blanca d'infermer -->
  <rect x="40" y="11" width="20" height="8" rx="2" fill="#f5f5f5" stroke="#e5e7eb" stroke-width="0.8"/>
  <ellipse cx="50" cy="11" rx="11" ry="3" fill="#f5f5f5" stroke="#e5e7eb" stroke-width="0.8"/>
  <!-- Creu vermella a la gorra -->
  <rect x="48" y="12" width="4" height="7" rx="0.5" fill="#ef4444"/>
  <rect x="45" y="14" width="10" height="3" rx="0.5" fill="#ef4444"/>
  <!-- Cuell -->
  <rect x="46" y="29" width="8" height="5" fill="#f5cba7"/>
  <!-- Uniforme blanc -->
  <rect x="36" y="33" width="28" height="22" rx="3" fill="#f5f5f5" stroke="#e5e7eb" stroke-width="0.5"/>
  <!-- Butxaca amb creu -->
  <rect x="40" y="36" width="8" height="6" rx="1" fill="#e5e7eb"/>
  <rect x="43" y="37" width="2" height="4" fill="#ef4444"/>
  <rect x="41" y="38" width="6" height="2" fill="#ef4444"/>
  <!-- Braç esquerre -->
  <rect x="24" y="34" width="12" height="8" rx="3" fill="#f5f5f5" stroke="#e5e7eb" stroke-width="0.5"/>
  <!-- Braç dret -->
  <rect x="64" y="34" width="12" height="8" rx="3" fill="#f5f5f5" stroke="#e5e7eb" stroke-width="0.5"/>
  <!-- Estetoscopi penjant al coll -->
  <path d="M44,34 Q38,45 40,52 Q42,56 50,55 Q58,56 60,52 Q62,45 56,34" stroke="#6b7280" stroke-width="1.5" fill="none"/>
  <circle cx="50" cy="55" r="3" fill="#6b7280"/>
  <circle cx="50" cy="55" r="1.5" fill="#94a3b8"/>
  <!-- Auriculars estetoscopi -->
  <circle cx="40" cy="32" r="2" fill="#6b7280"/>
  <circle cx="60" cy="32" r="2" fill="#6b7280"/>
  <!-- Cames -->
  <rect x="36" y="55" width="12" height="18" rx="2" fill="#f5f5f5" stroke="#e5e7eb" stroke-width="0.5"/>
  <rect x="52" y="55" width="12" height="18" rx="2" fill="#f5f5f5" stroke="#e5e7eb" stroke-width="0.5"/>
  <!-- Sabates blanques -->
  <rect x="35" y="71" width="14" height="4" rx="2" fill="#e5e7eb"/>
  <rect x="51" y="71" width="14" height="4" rx="2" fill="#e5e7eb"/>
  <!-- Label -->
  <text x="50" y="97" font-family="Arial,sans-serif" font-size="8" fill="#1e1b4b" font-weight="700" text-anchor="middle">INFERMER</text>
</svg>
