<svg viewBox="0 0 100 100" xmlns="http://www.w3.org/2000/svg">
  <defs><linearGradient id="bg-fraccions" x1="0%" y1="0%" x2="100%" y2="100%"><stop offset="0%" stop-color="#1e3a8a"/><stop offset="100%" stop-color="#1e40af"/></linearGradient></defs>
  <rect width="100" height="100" rx="22" fill="url(#bg-fraccions)"/>
  <circle cx="16" cy="84" r="3" fill="rgba(255,255,255,0.35)"/>
  <circle cx="86" cy="18" r="4" fill="rgba(255,255,255,0.30)"/>
  <circle cx="84" cy="86" r="2" fill="rgba(255,255,255,0.35)"/>
  <circle cx="50" cy="50" r="36" fill="none" stroke="rgba(255,255,255,0.40)" stroke-width="2"/>
  
  <path d="M50,50 L50,18 A32,32 0 0,1 77.7,66 Z" fill="#f97316"/>
  <path d="M50,50 L77.7,66 A32,32 0 0,1 22.3,66 Z" fill="#f97316"/>
  <path d="M50,50 L22.3,66 A32,32 0 0,1 50,18 Z" fill="#93c5fd"/>
  <line x1="50" y1="50" x2="50" y2="18" stroke="#1e3a8a" stroke-width="2"/>
  <line x1="50" y1="50" x2="77.7" y2="66" stroke="#1e3a8a" stroke-width="2"/>
  <line x1="50" y1="50" x2="22.3" y2="66" stroke="#1e3a8a" stroke-width="2"/>
  <circle cx="50" cy="50" r="32" fill="none" stroke="#1e3a8a" stroke-width="3"/>
</svg>