<svg viewBox="0 0 100 100" xmlns="http://www.w3.org/2000/svg">
  <defs><linearGradient id="bg-vistes" x1="0%" y1="0%" x2="100%" y2="100%"><stop offset="0%" stop-color="#16a34a"/><stop offset="100%" stop-color="#ca8a04"/></linearGradient></defs>
  <rect width="100" height="100" rx="22" fill="url(#bg-vistes)"/>
  <circle cx="16" cy="84" r="3" fill="rgba(255,255,255,0.35)"/>
  <circle cx="86" cy="18" r="4" fill="rgba(255,255,255,0.30)"/>
  <circle cx="84" cy="86" r="2" fill="rgba(255,255,255,0.35)"/>
  <circle cx="50" cy="50" r="40" fill="none" stroke="rgba(255,255,255,0.50)" stroke-width="2"/>
  <polygon points="50,10 62,16 38,28 26,22" fill="#39a06a" stroke="#ffffff" stroke-width="1.4" stroke-linejoin="round"/><line x1="38" y1="16" x2="50" y2="22" stroke="#ffffff" stroke-width="1.1" stroke-linecap="round"/><polygon points="62,40 74,46 50,58 38,52" fill="#39a06a" stroke="#ffffff" stroke-width="1.4" stroke-linejoin="round"/><line x1="50" y1="46" x2="62" y2="52" stroke="#ffffff" stroke-width="1.1" stroke-linecap="round"/><polygon points="62,40 38,52 38,28 62,16" fill="#2f6fb0" stroke="#ffffff" stroke-width="1.4" stroke-linejoin="round"/><line x1="50" y1="46" x2="50" y2="22" stroke="#ffffff" stroke-width="1.1" stroke-linecap="round"/><line x1="62" y1="28" x2="38" y2="40" stroke="#ffffff" stroke-width="1.1" stroke-linecap="round"/><polygon points="74,70 50,82 50,58 74,46" fill="#2f6fb0" stroke="#ffffff" stroke-width="1.4" stroke-linejoin="round"/><line x1="62" y1="76" x2="62" y2="52" stroke="#ffffff" stroke-width="1.1" stroke-linecap="round"/><line x1="74" y1="58" x2="50" y2="70" stroke="#ffffff" stroke-width="1.1" stroke-linecap="round"/><polygon points="26,70 38,76 38,28 26,22" fill="#e08a3c" stroke="#ffffff" stroke-width="1.4" stroke-linejoin="round"/><line x1="26" y1="58" x2="38" y2="64" stroke="#ffffff" stroke-width="1.1" stroke-linecap="round"/><line x1="26" y1="46" x2="38" y2="52" stroke="#ffffff" stroke-width="1.1" stroke-linecap="round"/><line x1="26" y1="34" x2="38" y2="40" stroke="#ffffff" stroke-width="1.1" stroke-linecap="round"/><polygon points="38,76 50,82 50,58 38,52" fill="#e08a3c" stroke="#ffffff" stroke-width="1.4" stroke-linejoin="round"/><line x1="38" y1="64" x2="50" y2="70" stroke="#ffffff" stroke-width="1.1" stroke-linecap="round"/>
</svg>